<svg width="359" height="640" viewBox="0 0 359 640" fill="none" xmlns="http://www.w3.org/2000/svg">
<g clip-path="url(#clip0_1837:34209)">
<rect width="358.272" height="640" fill="white"/>
<rect width="382.724" height="680.399" fill="black"/>
<mask id="mask0_1837:34209" style="mask-type:alpha" maskUnits="userSpaceOnUse" x="0" y="0" width="359" height="640">
<rect width="358.272" height="640" fill="black"/>
</mask>
<g mask="url(#mask0_1837:34209)">
<path d="M36.7943 433.737V424.478C36.7943 423.776 37.3642 423.212 38.061 423.202H49.0308C49.7251 423.202 50.2959 423.764 50.2959 424.467V435.258V449.301V460.092C50.2959 460.796 49.7345 461.357 49.0308 461.357H38.0594C37.3651 461.357 36.7943 460.795 36.7943 460.092V450.832C36.7943 449.847 35.9961 449.036 34.9976 449.036H24.6002C23.9059 449.036 23.3351 448.473 23.3351 447.771V436.799C23.3351 436.105 23.8977 435.534 24.6002 435.534H34.9976C35.983 435.534 36.7943 434.736 36.7943 433.737Z" stroke="white" stroke-opacity="0.5" stroke-width="0.531561"/>
<path d="M61.48 404.127V404.13V415.102C61.48 415.806 60.9186 416.367 60.2149 416.367H49.4348H35.3909H24.6002C23.9059 416.367 23.3351 415.804 23.3351 415.102V404.13C23.3351 403.436 23.8977 402.865 24.6002 402.865H33.86C34.8467 402.865 35.6567 402.055 35.6567 401.069V390.671C35.6567 389.968 36.2181 389.406 36.9218 389.406H47.9039C48.5982 389.406 49.169 389.969 49.169 390.671V401.069C49.169 402.054 49.9672 402.865 50.9657 402.865H60.2149C60.9216 402.865 61.4887 403.429 61.48 404.127Z" stroke="white" stroke-opacity="0.5" stroke-width="0.531561"/>
<path d="M36.7943 513.833V504.573C36.7943 503.872 37.3644 503.307 38.0613 503.297H49.0308C49.7251 503.297 50.2959 503.86 50.2959 504.563V515.353V529.397V540.188C50.2959 540.892 49.7345 541.453 49.0308 541.453H38.0594C37.3651 541.453 36.7943 540.89 36.7943 540.188V530.928C36.7943 529.943 35.9961 529.131 34.9976 529.131H24.6002C23.9059 529.131 23.3351 528.569 23.3351 527.866V516.895C23.3351 516.201 23.8977 515.63 24.6002 515.63H34.9976C35.983 515.63 36.7943 514.832 36.7943 513.833Z" stroke="white" stroke-opacity="0.5" stroke-width="0.531561"/>
<path d="M45.3739 484.248H54.6337C55.328 484.248 55.8988 484.811 55.8988 485.513V496.485C55.8988 497.188 55.3374 497.75 54.6337 497.75H43.843H29.7991H19.0084C18.3142 497.75 17.7433 497.187 17.7433 496.485V485.513C17.7433 484.819 18.3059 484.248 19.0084 484.248H28.2682C29.2549 484.248 30.0649 483.438 30.0649 482.452V472.054C30.0649 471.35 30.6263 470.789 31.33 470.789H42.3121C43.0064 470.789 43.5772 471.352 43.5772 472.054V482.452C43.5772 483.437 44.3754 484.248 45.3739 484.248Z" stroke="white" stroke-opacity="0.5" stroke-width="0.531561"/>
<path d="M36.7943 593.929V584.669C36.7943 583.968 37.3642 583.403 38.061 583.393H49.0308C49.7251 583.393 50.2959 583.956 50.2959 584.658V595.449V609.493V620.284C50.2959 620.987 49.7345 621.549 49.0308 621.549H38.0594C37.3651 621.549 36.7943 620.986 36.7943 620.284V611.024C36.7943 610.038 35.9961 609.227 34.9976 609.227H24.6002C23.9059 609.227 23.3351 608.664 23.3351 607.962V596.991C23.3351 596.296 23.8977 595.725 24.6002 595.725H34.9976C35.983 595.725 36.7943 594.927 36.7943 593.929Z" stroke="white" stroke-opacity="0.5" stroke-width="0.531561"/>
<path d="M61.48 564.307V564.31V575.282C61.48 575.976 60.9174 576.547 60.2149 576.547H49.4348H35.3909H24.6002C23.9059 576.547 23.3351 575.984 23.3351 575.282V564.31C23.3351 563.616 23.8977 563.045 24.6002 563.045H33.86C34.8455 563.045 35.6567 562.247 35.6567 561.248V550.851C35.6567 550.157 36.2193 549.586 36.9218 549.586H47.9039C48.5982 549.586 49.169 550.149 49.169 550.851V561.248C49.169 562.234 49.9672 563.045 50.9657 563.045H60.2149C60.9204 563.045 61.4887 563.618 61.48 564.307Z" stroke="white" stroke-opacity="0.5" stroke-width="0.531561"/>
<path d="M61.48 644.412V644.416V655.387C61.48 656.091 60.9186 656.652 60.2149 656.652H49.4348H35.3909H24.6002C23.9059 656.652 23.3351 656.09 23.3351 655.387V644.405C23.3351 643.711 23.8977 643.14 24.6002 643.14H33.86C34.8455 643.14 35.6567 642.342 35.6567 641.343V630.946C35.6567 630.242 36.2181 629.681 36.9218 629.681H47.9039C48.5982 629.681 49.169 630.243 49.169 630.946V641.343C49.169 642.329 49.9672 643.14 50.9657 643.14H60.2149C60.9192 643.14 61.4887 643.712 61.48 644.412Z" stroke="white" stroke-opacity="0.5" stroke-width="0.531561"/>
<path d="M126.096 433.737V424.478C126.096 423.776 126.666 423.212 127.363 423.202H138.333C139.027 423.202 139.598 423.764 139.598 424.467V435.258V449.301V460.092C139.598 460.796 139.036 461.357 138.333 461.357H127.361C126.667 461.357 126.096 460.795 126.096 460.092V450.832C126.096 449.847 125.298 449.036 124.299 449.036H113.902C113.208 449.036 112.637 448.473 112.637 447.771V436.799C112.637 436.105 113.199 435.534 113.902 435.534H124.299C125.285 435.534 126.096 434.736 126.096 433.737Z" stroke="white" stroke-opacity="0.5" stroke-width="0.531561"/>
<path d="M150.782 404.127V404.13V415.102C150.782 415.806 150.22 416.367 149.517 416.367H138.737H124.693H113.902C113.208 416.367 112.637 415.804 112.637 415.102V404.13C112.637 403.436 113.199 402.865 113.902 402.865H123.162C124.148 402.865 124.958 402.055 124.958 401.069V390.671C124.958 389.968 125.52 389.406 126.224 389.406H137.206C137.9 389.406 138.471 389.969 138.471 390.671V401.069C138.471 402.054 139.269 402.865 140.267 402.865H149.517C150.223 402.865 150.79 403.429 150.782 404.127Z" stroke="white" stroke-opacity="0.5" stroke-width="0.531561"/>
<path d="M126.096 513.833V504.573C126.096 503.872 126.666 503.307 127.363 503.297H138.333C139.027 503.297 139.598 503.86 139.598 504.563V515.353V529.397V540.188C139.598 540.892 139.036 541.453 138.333 541.453H127.361C126.667 541.453 126.096 540.89 126.096 540.188V530.928C126.096 529.943 125.298 529.131 124.299 529.131H113.902C113.208 529.131 112.637 528.569 112.637 527.866V516.895C112.637 516.201 113.199 515.63 113.902 515.63H124.299C125.285 515.63 126.096 514.832 126.096 513.833Z" stroke="white" stroke-opacity="0.5" stroke-width="0.531561"/>
<path d="M143.935 483.982H134.676C133.825 483.982 133.145 483.291 133.145 482.452V472.054C133.145 471.204 132.454 470.523 131.614 470.523H120.632C119.781 470.523 119.101 471.204 119.101 472.054V482.452C119.101 483.291 118.41 483.982 117.57 483.982H108.31C107.46 483.982 106.779 484.673 106.779 485.513V496.485C106.779 497.335 107.47 498.016 108.31 498.016H119.101H133.145H143.935C144.786 498.016 145.466 497.335 145.466 496.485V485.513C145.466 484.663 144.775 483.982 143.935 483.982Z" fill="black"/>
<path d="M134.676 484.248H143.935C144.63 484.248 145.201 484.811 145.201 485.513V496.485C145.201 497.188 144.639 497.75 143.935 497.75H133.145H119.101H108.31C107.616 497.75 107.045 497.187 107.045 496.485V485.513C107.045 484.819 107.608 484.248 108.31 484.248H117.57C118.557 484.248 119.367 483.438 119.367 482.452V472.054C119.367 471.35 119.928 470.789 120.632 470.789H131.614C132.308 470.789 132.879 471.352 132.879 472.054V482.452C132.879 483.437 133.677 484.248 134.676 484.248Z" stroke="white" stroke-opacity="0.5" stroke-width="0.531561"/>
<path d="M126.096 593.929V584.669C126.096 583.968 126.666 583.403 127.363 583.393H138.333C139.027 583.393 139.598 583.956 139.598 584.658V595.449V609.493V620.284C139.598 620.987 139.036 621.549 138.333 621.549H127.361C126.667 621.549 126.096 620.986 126.096 620.284V611.024C126.096 610.038 125.298 609.227 124.299 609.227H113.902C113.208 609.227 112.637 608.664 112.637 607.962V596.991C112.637 596.296 113.199 595.725 113.902 595.725H124.299C125.285 595.725 126.096 594.927 126.096 593.929Z" stroke="white" stroke-opacity="0.5" stroke-width="0.531561"/>
<path d="M150.782 564.307V564.31V575.282C150.782 575.976 150.219 576.547 149.517 576.547H138.737H124.693H113.902C113.208 576.547 112.637 575.984 112.637 575.282V564.31C112.637 563.616 113.199 563.045 113.902 563.045H123.162C124.147 563.045 124.958 562.247 124.958 561.248V550.851C124.958 550.157 125.521 549.586 126.224 549.586H137.206C137.9 549.586 138.471 550.149 138.471 550.851V561.248C138.471 562.234 139.269 563.045 140.267 563.045H149.517C150.222 563.045 150.79 563.618 150.782 564.307Z" stroke="white" stroke-opacity="0.5" stroke-width="0.531561"/>
<path d="M150.782 644.412V644.416V655.387C150.782 656.091 150.22 656.652 149.517 656.652H138.737H124.693H113.902C113.208 656.652 112.637 656.09 112.637 655.387V644.405C112.637 643.711 113.199 643.14 113.902 643.14H123.162C124.147 643.14 124.958 642.342 124.958 641.343V630.946C124.958 630.242 125.52 629.681 126.224 629.681H137.206C137.9 629.681 138.471 630.243 138.471 630.946V641.343C138.471 642.329 139.269 643.14 140.267 643.14H149.517C150.221 643.14 150.79 643.712 150.782 644.412Z" stroke="white" stroke-opacity="0.5" stroke-width="0.531561"/>
<path d="M-2.21124 657.3L-2.21124 666.56C-2.21124 667.261 -2.78137 667.826 -3.47828 667.835L-14.4478 667.835C-15.1421 667.835 -15.7129 667.273 -15.7129 666.57L-15.7129 655.78L-15.7129 641.736L-15.7129 630.945C-15.7129 630.241 -15.1515 629.68 -14.4478 629.68L-3.47636 629.68C-2.78208 629.68 -2.21124 630.242 -2.21124 630.945L-2.21124 640.205C-2.21124 641.19 -1.41305 642.001 -0.414565 642.001L9.98278 642.001C10.6771 642.001 11.2479 642.564 11.2479 643.267L11.2479 654.238C11.2479 654.932 10.6853 655.503 9.98278 655.503L-0.414564 655.503C-1.40001 655.503 -2.21124 656.301 -2.21124 657.3Z" stroke="white" stroke-opacity="0.5" stroke-width="0.531561"/>
<path d="M-1.94546 586.464L-1.94546 577.204C-1.94546 576.354 -1.25443 575.673 -0.414564 575.673L9.98278 575.673C10.8333 575.673 11.5137 574.982 11.5137 574.142L11.5137 563.171C11.5137 562.32 10.8226 561.64 9.98278 561.64L-0.414565 561.64C-1.26506 561.64 -1.94546 560.949 -1.94546 560.109L-1.94546 550.849C-1.94546 549.999 -2.63649 549.318 -3.47636 549.318L-14.4478 549.318C-15.2983 549.318 -15.9787 549.999 -15.9787 550.849L-15.9787 561.64L-15.9787 575.684L-15.9787 586.475C-15.9787 587.325 -15.2877 588.005 -14.4478 588.005L-3.47636 588.005C-2.63649 587.995 -1.94546 587.314 -1.94546 586.464Z" fill="#BAF734"/>
<path d="M-25.6318 608.356L-16.3827 608.356C-15.5322 608.356 -14.8518 609.047 -14.8518 609.886L-14.8518 620.284C-14.8518 621.134 -14.1607 621.815 -13.3209 621.815L-2.33882 621.815C-1.48832 621.815 -0.80792 621.124 -0.80792 620.284L-0.807921 609.886C-0.807921 609.036 -0.116891 608.356 0.722976 608.356L9.98278 608.356C10.8333 608.356 11.5137 607.664 11.5137 606.825L11.5137 595.853C11.5137 595.003 10.8226 594.322 9.98278 594.322L-0.807922 594.322L-14.8518 594.322L-25.6318 594.322C-26.4823 594.322 -27.1627 595.013 -27.1627 595.853L-27.1627 606.825C-27.1734 607.664 -26.4823 608.356 -25.6318 608.356Z" fill="black"/>
<path d="M-26.897 606.828L-26.897 606.825L-26.897 595.853C-26.897 595.159 -26.3344 594.588 -25.6318 594.588L-14.8518 594.588L-0.807922 594.588L9.98278 594.588C10.6771 594.588 11.2479 595.151 11.2479 595.853L11.2479 606.825C11.2479 607.519 10.6853 608.09 9.98278 608.09L0.722976 608.09C-0.262471 608.09 -1.0737 608.888 -1.0737 609.886L-1.0737 620.284C-1.0737 620.978 -1.63631 621.549 -2.33882 621.549L-13.3209 621.549C-14.0152 621.549 -14.586 620.986 -14.586 620.284L-14.586 609.886C-14.586 608.901 -15.3842 608.09 -16.3827 608.09L-25.6318 608.09C-26.3374 608.09 -26.9057 607.517 -26.897 606.828Z" stroke="white" stroke-opacity="0.5" stroke-width="0.531561"/>
<path d="M-2.21124 497.108L-2.21124 506.368C-2.21124 507.073 -2.78447 507.644 -3.47636 507.644L-14.4478 507.644C-15.1421 507.644 -15.7129 507.081 -15.7129 506.379L-15.7129 495.588L-15.7129 481.544L-15.7129 470.754C-15.7129 470.05 -15.1515 469.488 -14.4478 469.488L-3.47636 469.488C-2.78208 469.488 -2.21124 470.051 -2.21124 470.754L-2.21124 480.013C-2.21124 480.999 -1.41305 481.81 -0.414565 481.81L9.98278 481.81C10.6771 481.81 11.2479 482.373 11.2479 483.075L11.2479 494.047C11.2479 494.741 10.6853 495.312 9.98278 495.312L-0.414564 495.312C-1.40001 495.312 -2.21124 496.11 -2.21124 497.108Z" stroke="white" stroke-opacity="0.5" stroke-width="0.531561"/>
<path d="M-26.897 526.72L-26.897 526.717L-26.897 515.746C-26.897 515.042 -26.3356 514.481 -25.6318 514.481L-14.8518 514.481L-0.807922 514.481L9.98278 514.481C10.6771 514.481 11.2479 515.043 11.2479 515.746L11.2479 526.728C11.2479 527.422 10.6853 527.993 9.98278 527.993L0.722976 527.993C-0.262475 527.993 -1.0737 528.791 -1.0737 529.79L-1.0737 540.187C-1.0737 540.891 -1.63511 541.452 -2.33882 541.452L-13.3209 541.452C-14.0152 541.452 -14.586 540.889 -14.586 540.187L-14.586 529.79C-14.586 528.804 -15.3842 527.993 -16.3827 527.993L-25.6318 527.993C-26.3362 527.993 -26.9057 527.421 -26.897 526.72Z" stroke="white" stroke-opacity="0.5" stroke-width="0.531561"/>
<path d="M-2.21124 417.025L-2.21124 426.285C-2.21124 426.978 -2.78328 427.55 -3.47636 427.55L-14.4478 427.55C-15.1421 427.55 -15.7129 426.988 -15.7129 426.285L-15.7129 415.494L-15.7129 401.451L-15.7129 390.66C-15.7129 389.966 -15.1503 389.395 -14.4478 389.395L-3.47636 389.395C-2.78208 389.395 -2.21124 389.957 -2.21124 390.66L-2.21124 399.92C-2.21124 400.905 -1.41305 401.716 -0.414565 401.716L9.98278 401.716C10.6771 401.716 11.2479 402.279 11.2479 402.981L11.2479 413.963C11.2479 414.658 10.6853 415.229 9.98278 415.229L-0.414564 415.229C-1.40001 415.229 -2.21124 416.027 -2.21124 417.025Z" stroke="white" stroke-opacity="0.5" stroke-width="0.531561"/>
<path d="M-26.897 446.625L-26.897 446.621L-26.897 435.65C-26.897 434.946 -26.3356 434.385 -25.6318 434.385L-14.8518 434.385L-0.807922 434.385L9.98278 434.385C10.6771 434.385 11.2479 434.948 11.2479 435.65L11.2479 446.632C11.2479 447.326 10.6853 447.897 9.98278 447.897L0.722976 447.897C-0.262475 447.897 -1.0737 448.695 -1.0737 449.694L-1.0737 460.091C-1.0737 460.786 -1.63631 461.356 -2.33882 461.356L-13.3209 461.356C-14.0152 461.356 -14.586 460.794 -14.586 460.091L-14.586 449.694C-14.586 448.708 -15.3842 447.897 -16.3827 447.897L-25.6318 447.897C-26.3362 447.897 -26.9057 447.325 -26.897 446.625Z" stroke="white" stroke-opacity="0.5" stroke-width="0.531561"/>
<path d="M87.0915 657.302L87.0915 666.562C87.0915 667.263 86.5214 667.828 85.8245 667.837L74.8549 667.837C74.1607 667.837 73.5898 667.275 73.5898 666.572L73.5898 655.781L73.5898 641.738L73.5898 630.947C73.5898 630.243 74.1512 629.682 74.8549 629.682L85.8264 629.682C86.5207 629.682 87.0915 630.244 87.0915 630.947L87.0915 640.207C87.0915 641.192 87.8897 642.003 88.8882 642.003L99.2855 642.003C99.9798 642.003 100.551 642.566 100.551 643.269L100.551 654.24C100.551 654.934 99.988 655.505 99.2855 655.505L88.8882 655.505C87.9027 655.505 87.0915 656.303 87.0915 657.302Z" stroke="white" stroke-opacity="0.5" stroke-width="0.531561"/>
<path d="M87.0915 577.206L87.0915 586.466C87.0915 587.167 86.5215 587.732 85.8247 587.742L74.8549 587.742C74.1607 587.742 73.5898 587.179 73.5898 586.476L73.5898 575.686L73.5898 561.642L73.5898 550.851C73.5898 550.148 74.1512 549.586 74.8549 549.586L85.8264 549.586C86.5207 549.586 87.0915 550.149 87.0915 550.851L87.0915 560.111C87.0915 561.096 87.8897 561.908 88.8882 561.908L99.2855 561.908C99.9798 561.908 100.551 562.47 100.551 563.173L100.551 574.144C100.551 574.839 99.988 575.409 99.2855 575.409L88.8882 575.409C87.9027 575.409 87.0915 576.208 87.0915 577.206Z" stroke="white" stroke-opacity="0.5" stroke-width="0.531561"/>
<path d="M62.4058 606.828L62.4058 606.825L62.4058 595.853C62.4058 595.159 62.9684 594.588 63.6709 594.588L74.451 594.588L88.4948 594.588L99.2855 594.588C99.9798 594.588 100.551 595.151 100.551 595.853L100.551 606.825C100.551 607.519 99.988 608.09 99.2855 608.09L90.0257 608.09C89.0403 608.09 88.229 608.888 88.229 609.886L88.229 620.284C88.229 620.978 87.6664 621.549 86.9639 621.549L75.9819 621.549C75.2876 621.549 74.7167 620.986 74.7167 620.284L74.7167 609.886C74.7167 608.901 73.9185 608.09 72.9201 608.09L63.6709 608.09C62.9653 608.09 62.397 607.517 62.4058 606.828Z" stroke="white" stroke-opacity="0.5" stroke-width="0.531561"/>
<path d="M87.0915 497.108L87.0915 506.368C87.0915 507.073 86.5183 507.644 85.8264 507.644L74.8549 507.644C74.1607 507.644 73.5898 507.081 73.5898 506.379L73.5898 495.588L73.5898 481.544L73.5898 470.754C73.5898 470.05 74.1512 469.488 74.8549 469.488L85.8264 469.488C86.5207 469.488 87.0915 470.051 87.0915 470.754L87.0915 480.013C87.0915 480.999 87.8897 481.81 88.8882 481.81L99.2855 481.81C99.9798 481.81 100.551 482.373 100.551 483.075L100.551 494.047C100.551 494.741 99.988 495.312 99.2855 495.312L88.8882 495.312C87.9027 495.312 87.0915 496.11 87.0915 497.108Z" stroke="white" stroke-opacity="0.5" stroke-width="0.531561"/>
<path d="M62.4058 526.72L62.4058 526.717L62.4058 515.746C62.4058 515.042 62.9672 514.481 63.6709 514.481L74.451 514.481L88.4948 514.481L99.2855 514.481C99.9798 514.481 100.551 515.043 100.551 515.746L100.551 526.728C100.551 527.422 99.988 527.993 99.2855 527.993L90.0257 527.993C89.0403 527.993 88.229 528.791 88.229 529.79L88.229 540.187C88.229 540.891 87.6676 541.452 86.9639 541.452L75.9819 541.452C75.2876 541.452 74.7167 540.889 74.7167 540.187L74.7167 529.79C74.7167 528.804 73.9185 527.993 72.9201 527.993L63.6709 527.993C62.9665 527.993 62.397 527.421 62.4058 526.72Z" stroke="white" stroke-opacity="0.5" stroke-width="0.531561"/>
<path d="M87.0915 417.025L87.0915 426.285C87.0915 426.978 86.5195 427.55 85.8264 427.55L74.8549 427.55C74.1607 427.55 73.5898 426.988 73.5898 426.285L73.5898 415.494L73.5898 401.451L73.5898 390.66C73.5898 389.966 74.1524 389.395 74.8549 389.395L85.8264 389.395C86.5207 389.395 87.0915 389.957 87.0915 390.66L87.0915 399.92C87.0915 400.905 87.8897 401.716 88.8882 401.716L99.2855 401.716C99.9798 401.716 100.551 402.279 100.551 402.981L100.551 413.963C100.551 414.658 99.988 415.229 99.2855 415.229L88.8882 415.229C87.9027 415.229 87.0915 416.027 87.0915 417.025Z" stroke="white" stroke-opacity="0.5" stroke-width="0.531561"/>
<path d="M62.4058 446.625L62.4058 446.621L62.4058 435.65C62.4058 434.946 62.9672 434.385 63.6709 434.385L74.451 434.385L88.4948 434.385L99.2855 434.385C99.9798 434.385 100.551 434.948 100.551 435.65L100.551 446.632C100.551 447.326 99.988 447.897 99.2855 447.897L90.0257 447.897C89.0403 447.897 88.229 448.695 88.229 449.694L88.229 460.091C88.229 460.786 87.6664 461.356 86.9639 461.356L75.9819 461.356C75.2876 461.356 74.7167 460.794 74.7167 460.091L74.7167 449.694C74.7167 448.708 73.9185 447.897 72.9201 447.897L63.6709 447.897C62.9665 447.897 62.397 447.325 62.4058 446.625Z" stroke="white" stroke-opacity="0.5" stroke-width="0.531561"/>
<path d="M354.999 657.3L354.999 666.56C354.999 667.261 354.429 667.826 353.732 667.835L342.762 667.835C342.068 667.835 341.497 667.273 341.497 666.57L341.497 655.78L341.497 641.736L341.497 630.945C341.497 630.241 342.058 629.68 342.762 629.68L353.734 629.68C354.428 629.68 354.999 630.242 354.999 630.945L354.999 640.205C354.999 641.19 355.797 642.001 356.795 642.001L367.193 642.001C367.887 642.001 368.458 642.564 368.458 643.267L368.458 654.238C368.458 654.932 367.895 655.503 367.193 655.503L356.795 655.503C355.81 655.503 354.999 656.301 354.999 657.3Z" stroke="white" stroke-opacity="0.5" stroke-width="0.531561"/>
<path d="M355.265 586.464L355.264 577.204C355.264 576.354 355.956 575.673 356.795 575.673L367.193 575.673C368.043 575.673 368.724 574.982 368.724 574.142L368.724 563.171C368.724 562.32 368.033 561.64 367.193 561.64L356.795 561.64C355.945 561.64 355.264 560.949 355.264 560.109L355.264 550.849C355.264 549.999 354.573 549.318 353.734 549.318L342.762 549.318C341.912 549.318 341.231 549.999 341.231 550.849L341.231 561.64L341.231 575.684L341.231 586.475C341.231 587.325 341.922 588.005 342.762 588.005L353.734 588.005C354.573 587.995 355.265 587.314 355.265 586.464Z" fill="#BAF734"/>
<path d="M330.313 606.828L330.313 606.825L330.313 595.853C330.313 595.159 330.876 594.588 331.578 594.588L342.358 594.588L356.402 594.588L367.193 594.588C367.887 594.588 368.458 595.151 368.458 595.853L368.458 606.825C368.458 607.519 367.895 608.09 367.193 608.09L357.933 608.09C356.947 608.09 356.136 608.888 356.136 609.886L356.136 620.284C356.136 620.978 355.574 621.549 354.871 621.549L343.889 621.549C343.195 621.549 342.624 620.986 342.624 620.284L342.624 609.886C342.624 608.901 341.826 608.09 340.827 608.09L331.578 608.09C330.873 608.09 330.304 607.517 330.313 606.828Z" stroke="white" stroke-opacity="0.5" stroke-width="0.531561"/>
<path d="M354.999 497.108L354.999 506.368C354.999 507.073 354.425 507.644 353.734 507.644L342.762 507.644C342.068 507.644 341.497 507.081 341.497 506.379L341.497 495.588L341.497 481.544L341.497 470.754C341.497 470.05 342.058 469.488 342.762 469.488L353.734 469.488C354.428 469.488 354.999 470.051 354.999 470.754L354.999 480.013C354.999 480.999 355.797 481.81 356.795 481.81L367.193 481.81C367.887 481.81 368.458 482.373 368.458 483.075L368.458 494.047C368.458 494.741 367.895 495.312 367.193 495.312L356.795 495.312C355.81 495.312 354.999 496.11 354.999 497.108Z" stroke="white" stroke-opacity="0.5" stroke-width="0.531561"/>
<path d="M330.313 526.72L330.313 526.717L330.313 515.746C330.313 515.042 330.874 514.481 331.578 514.481L342.358 514.481L356.402 514.481L367.193 514.481C367.887 514.481 368.458 515.043 368.458 515.746L368.458 526.728C368.458 527.422 367.895 527.993 367.193 527.993L357.933 527.993C356.947 527.993 356.136 528.791 356.136 529.79L356.136 540.187C356.136 540.891 355.575 541.452 354.871 541.452L343.889 541.452C343.195 541.452 342.624 540.889 342.624 540.187L342.624 529.79C342.624 528.804 341.826 527.993 340.827 527.993L331.578 527.993C330.874 527.993 330.304 527.421 330.313 526.72Z" stroke="white" stroke-opacity="0.5" stroke-width="0.531561"/>
<path d="M354.999 417.025L354.999 426.285C354.999 426.978 354.427 427.55 353.734 427.55L342.762 427.55C342.068 427.55 341.497 426.988 341.497 426.285L341.497 415.494L341.497 401.451L341.497 390.66C341.497 389.966 342.06 389.395 342.762 389.395L353.734 389.395C354.428 389.395 354.999 389.957 354.999 390.66L354.999 399.92C354.999 400.905 355.797 401.716 356.795 401.716L367.193 401.716C367.887 401.716 368.458 402.279 368.458 402.981L368.458 413.963C368.458 414.658 367.895 415.229 367.193 415.229L356.795 415.229C355.81 415.229 354.999 416.027 354.999 417.025Z" stroke="white" stroke-opacity="0.5" stroke-width="0.531561"/>
<path d="M330.313 446.625L330.313 446.621L330.313 435.65C330.313 434.946 330.874 434.385 331.578 434.385L342.358 434.385L356.402 434.385L367.193 434.385C367.887 434.385 368.458 434.948 368.458 435.65L368.458 446.632C368.458 447.326 367.895 447.897 367.193 447.897L357.933 447.897C356.947 447.897 356.136 448.695 356.136 449.694L356.136 460.091C356.136 460.786 355.574 461.356 354.871 461.356L343.889 461.356C343.195 461.356 342.624 460.794 342.624 460.091L342.624 449.694C342.624 448.708 341.826 447.897 340.827 447.897L331.578 447.897C330.874 447.897 330.304 447.325 330.313 446.625Z" stroke="white" stroke-opacity="0.5" stroke-width="0.531561"/>
<path d="M215.399 433.737V424.478C215.399 423.776 215.969 423.212 216.666 423.202H227.635C228.33 423.202 228.9 423.764 228.9 424.467V435.258V449.301V460.092C228.9 460.796 228.339 461.357 227.635 461.357H216.664C215.97 461.357 215.399 460.795 215.399 460.092V450.832C215.399 449.847 214.601 449.036 213.602 449.036H203.205C202.51 449.036 201.94 448.473 201.94 447.771V436.799C201.94 436.105 202.502 435.534 203.205 435.534H213.602C214.588 435.534 215.399 434.736 215.399 433.737Z" stroke="white" stroke-opacity="0.5" stroke-width="0.531561"/>
<path d="M240.084 404.127V404.13V415.102C240.084 415.806 239.523 416.367 238.819 416.367H228.039H213.995H203.205C202.51 416.367 201.94 415.804 201.94 415.102V404.13C201.94 403.436 202.502 402.865 203.205 402.865H212.465C213.451 402.865 214.261 402.055 214.261 401.069V390.671C214.261 389.968 214.823 389.406 215.526 389.406H226.508C227.203 389.406 227.773 389.969 227.773 390.671V401.069C227.773 402.054 228.572 402.865 229.57 402.865H238.819C239.526 402.865 240.093 403.429 240.084 404.127Z" stroke="white" stroke-opacity="0.5" stroke-width="0.531561"/>
<path d="M215.133 504.573V513.833C215.133 514.684 214.442 515.364 213.602 515.364H203.205C202.354 515.364 201.674 516.055 201.674 516.895V527.866C201.674 528.717 202.365 529.397 203.205 529.397H213.602C214.453 529.397 215.133 530.088 215.133 530.928V540.188C215.133 541.038 215.824 541.719 216.664 541.719H227.635C228.486 541.719 229.166 541.038 229.166 540.188V529.397V515.353V504.563C229.166 503.712 228.475 503.032 227.635 503.032H216.664C215.824 503.042 215.133 503.723 215.133 504.573Z" fill="#9F47FC"/>
<path d="M223.978 484.248H233.238C233.932 484.248 234.503 484.811 234.503 485.513V496.485C234.503 497.188 233.942 497.75 233.238 497.75H222.447H208.404H197.613C196.919 497.75 196.348 497.187 196.348 496.485V485.513C196.348 484.819 196.91 484.248 197.613 484.248H206.873C207.859 484.248 208.669 483.438 208.669 482.452V472.054C208.669 471.35 209.231 470.789 209.935 470.789H220.917C221.611 470.789 222.182 471.352 222.182 472.054V482.452C222.182 483.437 222.98 484.248 223.978 484.248Z" stroke="white" stroke-opacity="0.5" stroke-width="0.531561"/>
<path d="M215.399 593.929V584.669C215.399 583.968 215.969 583.403 216.666 583.393H227.635C228.33 583.393 228.9 583.956 228.9 584.658V595.449V609.493V620.284C228.9 620.987 228.339 621.549 227.635 621.549H216.664C215.97 621.549 215.399 620.986 215.399 620.284V611.024C215.399 610.038 214.601 609.227 213.602 609.227H203.205C202.51 609.227 201.94 608.664 201.94 607.962V596.991C201.94 596.296 202.502 595.725 203.205 595.725H213.602C214.588 595.725 215.399 594.927 215.399 593.929Z" stroke="white" stroke-opacity="0.5" stroke-width="0.531561"/>
<path d="M240.084 564.307V564.31V575.282C240.084 575.976 239.522 576.547 238.819 576.547H228.039H213.995H203.205C202.51 576.547 201.94 575.984 201.94 575.282V564.31C201.94 563.616 202.502 563.045 203.205 563.045H212.465C213.45 563.045 214.261 562.247 214.261 561.248V550.851C214.261 550.157 214.824 549.586 215.526 549.586H226.508C227.203 549.586 227.773 550.149 227.773 550.851V561.248C227.773 562.234 228.572 563.045 229.57 563.045H238.819C239.525 563.045 240.093 563.618 240.084 564.307Z" stroke="white" stroke-opacity="0.5" stroke-width="0.531561"/>
<path d="M240.084 644.412V644.416V655.387C240.084 656.091 239.523 656.652 238.819 656.652H228.039H213.995H203.205C202.51 656.652 201.94 656.09 201.94 655.387V644.405C201.94 643.711 202.502 643.14 203.205 643.14H212.465C213.45 643.14 214.261 642.342 214.261 641.343V630.946C214.261 630.242 214.823 629.681 215.526 629.681H226.508C227.203 629.681 227.773 630.243 227.773 630.946V641.343C227.773 642.329 228.572 643.14 229.57 643.14H238.819C239.524 643.14 240.093 643.712 240.084 644.412Z" stroke="white" stroke-opacity="0.5" stroke-width="0.531561"/>
<path d="M304.701 433.737V424.478C304.701 423.776 305.271 423.212 305.968 423.202H316.938C317.632 423.202 318.203 423.764 318.203 424.467V435.258V449.301V460.092C318.203 460.796 317.642 461.357 316.938 461.357H305.967C305.272 461.357 304.701 460.795 304.701 460.092V450.832C304.701 449.847 303.903 449.036 302.905 449.036H292.507C291.813 449.036 291.242 448.473 291.242 447.771V436.799C291.242 436.105 291.805 435.534 292.507 435.534H302.905C303.89 435.534 304.701 434.736 304.701 433.737Z" stroke="white" stroke-opacity="0.5" stroke-width="0.531561"/>
<path d="M329.387 404.127V404.13V415.102C329.387 415.806 328.826 416.367 328.122 416.367H317.342H303.298H292.507C291.813 416.367 291.242 415.804 291.242 415.102V404.13C291.242 403.436 291.805 402.865 292.507 402.865H301.767C302.754 402.865 303.564 402.055 303.564 401.069V390.671C303.564 389.968 304.125 389.406 304.829 389.406H315.811C316.505 389.406 317.076 389.969 317.076 390.671V401.069C317.076 402.054 317.874 402.865 318.873 402.865H328.122C328.829 402.865 329.396 403.429 329.387 404.127Z" stroke="white" stroke-opacity="0.5" stroke-width="0.531561"/>
<path d="M304.701 513.833V504.573C304.701 503.872 305.272 503.307 305.969 503.297H316.938C317.632 503.297 318.203 503.86 318.203 504.563V515.353V529.397V540.188C318.203 540.892 317.642 541.453 316.938 541.453H305.967C305.272 541.453 304.701 540.89 304.701 540.188V530.928C304.701 529.943 303.903 529.131 302.905 529.131H292.507C291.813 529.131 291.242 528.569 291.242 527.866V516.895C291.242 516.201 291.805 515.63 292.507 515.63H302.905C303.89 515.63 304.701 514.832 304.701 513.833Z" stroke="white" stroke-opacity="0.5" stroke-width="0.531561"/>
<path d="M313.281 484.248H322.541C323.235 484.248 323.806 484.811 323.806 485.513V496.485C323.806 497.188 323.245 497.75 322.541 497.75H311.75H297.706H286.916C286.221 497.75 285.651 497.187 285.651 496.485V485.513C285.651 484.819 286.213 484.248 286.916 484.248H296.175C297.162 484.248 297.972 483.438 297.972 482.452V472.054C297.972 471.35 298.534 470.789 299.237 470.789H310.219C310.914 470.789 311.484 471.352 311.484 472.054V482.452C311.484 483.437 312.283 484.248 313.281 484.248Z" stroke="white" stroke-opacity="0.5" stroke-width="0.531561"/>
<path d="M304.701 593.929V584.669C304.701 583.968 305.271 583.403 305.968 583.393H316.938C317.632 583.393 318.203 583.956 318.203 584.658V595.449V609.493V620.284C318.203 620.987 317.642 621.549 316.938 621.549H305.967C305.272 621.549 304.701 620.986 304.701 620.284V611.024C304.701 610.038 303.903 609.227 302.905 609.227H292.507C291.813 609.227 291.242 608.664 291.242 607.962V596.991C291.242 596.296 291.805 595.725 292.507 595.725H302.905C303.89 595.725 304.701 594.927 304.701 593.929Z" stroke="white" stroke-opacity="0.5" stroke-width="0.531561"/>
<path d="M329.387 564.307V564.31V575.282C329.387 575.976 328.825 576.547 328.122 576.547H317.342H303.298H292.507C291.813 576.547 291.242 575.984 291.242 575.282V564.31C291.242 563.616 291.805 563.045 292.507 563.045H301.767C302.753 563.045 303.564 562.247 303.564 561.248V550.851C303.564 550.157 304.127 549.586 304.829 549.586H315.811C316.505 549.586 317.076 550.149 317.076 550.851V561.248C317.076 562.234 317.874 563.045 318.873 563.045H328.122C328.828 563.045 329.396 563.618 329.387 564.307Z" stroke="white" stroke-opacity="0.5" stroke-width="0.531561"/>
<path d="M329.387 644.412V644.416V655.387C329.387 656.091 328.826 656.652 328.122 656.652H317.342H303.298H292.507C291.813 656.652 291.242 656.09 291.242 655.387V644.405C291.242 643.711 291.805 643.14 292.507 643.14H301.767C302.753 643.14 303.564 642.342 303.564 641.343V630.946C303.564 630.242 304.125 629.681 304.829 629.681H315.811C316.505 629.681 317.076 630.243 317.076 630.946V641.343C317.076 642.329 317.874 643.14 318.873 643.14H328.122C328.826 643.14 329.396 643.712 329.387 644.412Z" stroke="white" stroke-opacity="0.5" stroke-width="0.531561"/>
<path d="M176.394 657.3L176.394 666.56C176.394 667.261 175.824 667.826 175.127 667.835L164.158 667.835C163.463 667.835 162.893 667.273 162.893 666.57L162.893 655.78L162.893 641.736L162.893 630.945C162.893 630.241 163.454 629.68 164.158 629.68L175.129 629.68C175.823 629.68 176.394 630.242 176.394 630.945L176.394 640.205C176.394 641.19 177.192 642.001 178.191 642.001L188.588 642.001C189.283 642.001 189.853 642.564 189.853 643.267L189.853 654.238C189.853 654.932 189.291 655.503 188.588 655.503L178.191 655.503C177.205 655.503 176.394 656.301 176.394 657.3Z" stroke="white" stroke-opacity="0.5" stroke-width="0.531561"/>
<path d="M176.394 577.204L176.394 586.464C176.394 587.165 175.824 587.73 175.127 587.74L164.158 587.74C163.463 587.74 162.893 587.177 162.893 586.475L162.893 575.684L162.893 561.64L162.893 550.849C162.893 550.146 163.454 549.584 164.158 549.584L175.129 549.584C175.823 549.584 176.394 550.147 176.394 550.849L176.394 560.109C176.394 561.095 177.192 561.906 178.191 561.906L188.588 561.906C189.283 561.906 189.853 562.468 189.853 563.171L189.853 574.142C189.853 574.837 189.291 575.407 188.588 575.407L178.191 575.407C177.205 575.407 176.394 576.206 176.394 577.204Z" stroke="white" stroke-opacity="0.5" stroke-width="0.531561"/>
<path d="M151.709 606.828L151.709 606.825L151.709 595.853C151.709 595.159 152.271 594.588 152.974 594.588L163.754 594.588L177.798 594.588L188.588 594.588C189.283 594.588 189.853 595.151 189.853 595.853L189.853 606.825C189.853 607.519 189.291 608.09 188.588 608.09L179.328 608.09C178.343 608.09 177.532 608.888 177.532 609.886L177.532 620.284C177.532 620.978 176.969 621.549 176.267 621.549L165.285 621.549C164.59 621.549 164.019 620.986 164.019 620.284L164.019 609.886C164.019 608.901 163.221 608.09 162.223 608.09L152.974 608.09C152.268 608.09 151.7 607.517 151.709 606.828Z" stroke="white" stroke-opacity="0.5" stroke-width="0.531561"/>
<path d="M176.394 497.108L176.394 506.368C176.394 507.073 175.821 507.644 175.129 507.644L164.158 507.644C163.463 507.644 162.893 507.081 162.893 506.379L162.893 495.588L162.893 481.544L162.893 470.754C162.893 470.05 163.454 469.488 164.158 469.488L175.129 469.488C175.823 469.488 176.394 470.051 176.394 470.754L176.394 480.013C176.394 480.999 177.192 481.81 178.191 481.81L188.588 481.81C189.283 481.81 189.853 482.373 189.853 483.075L189.853 494.047C189.853 494.741 189.291 495.312 188.588 495.312L178.191 495.312C177.205 495.312 176.394 496.11 176.394 497.108Z" stroke="white" stroke-opacity="0.5" stroke-width="0.531561"/>
<path d="M151.709 526.72L151.709 526.717L151.709 515.746C151.709 515.042 152.27 514.481 152.974 514.481L163.754 514.481L177.798 514.481L188.588 514.481C189.283 514.481 189.853 515.043 189.853 515.746L189.853 526.728C189.853 527.422 189.291 527.993 188.588 527.993L179.328 527.993C178.343 527.993 177.532 528.791 177.532 529.79L177.532 540.187C177.532 540.891 176.97 541.452 176.267 541.452L165.285 541.452C164.59 541.452 164.019 540.889 164.019 540.187L164.019 529.79C164.019 528.804 163.221 527.993 162.223 527.993L152.974 527.993C152.269 527.993 151.7 527.421 151.709 526.72Z" stroke="white" stroke-opacity="0.5" stroke-width="0.531561"/>
<path d="M176.394 417.025L176.394 426.285C176.394 426.978 175.822 427.55 175.129 427.55L164.158 427.55C163.463 427.55 162.893 426.988 162.893 426.285L162.893 415.494L162.893 401.451L162.893 390.66C162.893 389.966 163.455 389.395 164.158 389.395L175.129 389.395C175.823 389.395 176.394 389.957 176.394 390.66L176.394 399.92C176.394 400.905 177.192 401.716 178.191 401.716L188.588 401.716C189.283 401.716 189.853 402.279 189.853 402.981L189.853 413.963C189.853 414.658 189.291 415.229 188.588 415.229L178.191 415.229C177.205 415.229 176.394 416.027 176.394 417.025Z" stroke="white" stroke-opacity="0.5" stroke-width="0.531561"/>
<path d="M151.709 446.625L151.709 446.621L151.709 435.65C151.709 434.946 152.27 434.385 152.974 434.385L163.754 434.385L177.798 434.385L188.588 434.385C189.283 434.385 189.853 434.948 189.853 435.65L189.853 446.632C189.853 447.326 189.291 447.897 188.588 447.897L179.328 447.897C178.343 447.897 177.532 448.695 177.532 449.694L177.532 460.091C177.532 460.786 176.969 461.356 176.267 461.356L165.285 461.356C164.59 461.356 164.019 460.794 164.019 460.091L164.019 449.694C164.019 448.708 163.221 447.897 162.223 447.897L152.974 447.897C152.269 447.897 151.7 447.325 151.709 446.625Z" stroke="white" stroke-opacity="0.5" stroke-width="0.531561"/>
<path d="M265.696 657.302L265.696 666.562C265.696 667.263 265.126 667.828 264.429 667.837L253.459 667.837C252.765 667.837 252.194 667.275 252.194 666.572L252.194 655.781L252.194 641.738L252.194 630.947C252.194 630.243 252.756 629.682 253.459 629.682L264.431 629.682C265.125 629.682 265.696 630.244 265.696 630.947L265.696 640.207C265.696 641.192 266.494 642.003 267.493 642.003L277.89 642.003C278.584 642.003 279.155 642.566 279.155 643.269L279.155 654.24C279.155 654.934 278.593 655.505 277.89 655.505L267.493 655.505C266.507 655.505 265.696 656.303 265.696 657.302Z" stroke="white" stroke-opacity="0.5" stroke-width="0.531561"/>
<path d="M265.696 577.206L265.696 586.466C265.696 587.167 265.126 587.732 264.429 587.742L253.459 587.742C252.765 587.742 252.194 587.179 252.194 586.476L252.194 575.686L252.194 561.642L252.194 550.851C252.194 550.148 252.756 549.586 253.459 549.586L264.431 549.586C265.125 549.586 265.696 550.149 265.696 550.851L265.696 560.111C265.696 561.096 266.494 561.908 267.493 561.908L277.89 561.908C278.584 561.908 279.155 562.47 279.155 563.173L279.155 574.144C279.155 574.839 278.593 575.409 277.89 575.409L267.493 575.409C266.507 575.409 265.696 576.208 265.696 577.206Z" stroke="white" stroke-opacity="0.5" stroke-width="0.531561"/>
<path d="M241.01 606.828L241.01 606.825L241.01 595.853C241.01 595.159 241.573 594.588 242.275 594.588L253.055 594.588L267.099 594.588L277.89 594.588C278.584 594.588 279.155 595.151 279.155 595.853L279.155 606.825C279.155 607.519 278.593 608.09 277.89 608.09L268.63 608.09C267.645 608.09 266.834 608.888 266.834 609.886L266.834 620.284C266.834 620.978 266.271 621.549 265.568 621.549L254.586 621.549C253.892 621.549 253.321 620.986 253.321 620.284L253.321 609.886C253.321 608.901 252.523 608.09 251.525 608.09L242.275 608.09C241.57 608.09 241.002 607.517 241.01 606.828Z" stroke="white" stroke-opacity="0.5" stroke-width="0.531561"/>
<path d="M265.696 497.108L265.696 506.368C265.696 507.073 265.123 507.644 264.431 507.644L253.459 507.644C252.765 507.644 252.194 507.081 252.194 506.379L252.194 495.588L252.194 481.544L252.194 470.754C252.194 470.05 252.756 469.488 253.459 469.488L264.431 469.488C265.125 469.488 265.696 470.051 265.696 470.754L265.696 480.013C265.696 480.999 266.494 481.81 267.493 481.81L277.89 481.81C278.584 481.81 279.155 482.373 279.155 483.075L279.155 494.047C279.155 494.741 278.593 495.312 277.89 495.312L267.493 495.312C266.507 495.312 265.696 496.11 265.696 497.108Z" stroke="white" stroke-opacity="0.5" stroke-width="0.531561"/>
<path d="M241.01 526.72L241.01 526.717L241.01 515.746C241.01 515.042 241.572 514.481 242.275 514.481L253.055 514.481L267.099 514.481L277.89 514.481C278.584 514.481 279.155 515.043 279.155 515.746L279.155 526.728C279.155 527.422 278.593 527.993 277.89 527.993L268.63 527.993C267.645 527.993 266.834 528.791 266.834 529.79L266.834 540.187C266.834 540.891 266.272 541.452 265.568 541.452L254.586 541.452C253.892 541.452 253.321 540.889 253.321 540.187L253.321 529.79C253.321 528.804 252.523 527.993 251.525 527.993L242.275 527.993C241.571 527.993 241.001 527.421 241.01 526.72Z" stroke="white" stroke-opacity="0.5" stroke-width="0.531561"/>
<path d="M265.696 417.025L265.696 426.285C265.696 426.978 265.124 427.55 264.431 427.55L253.459 427.55C252.765 427.55 252.194 426.988 252.194 426.285L252.194 415.494L252.194 401.451L252.194 390.66C252.194 389.966 252.757 389.395 253.459 389.395L264.431 389.395C265.125 389.395 265.696 389.957 265.696 390.66L265.696 399.92C265.696 400.905 266.494 401.716 267.493 401.716L277.89 401.716C278.584 401.716 279.155 402.279 279.155 402.981L279.155 413.963C279.155 414.658 278.593 415.229 277.89 415.229L267.493 415.229C266.507 415.229 265.696 416.027 265.696 417.025Z" stroke="white" stroke-opacity="0.5" stroke-width="0.531561"/>
<path d="M241.01 446.625L241.01 446.621L241.01 435.65C241.01 434.946 241.572 434.385 242.275 434.385L253.055 434.385L267.099 434.385L277.89 434.385C278.584 434.385 279.155 434.948 279.155 435.65L279.155 446.632C279.155 447.326 278.593 447.897 277.89 447.897L268.63 447.897C267.645 447.897 266.834 448.695 266.834 449.694L266.834 460.091C266.834 460.786 266.271 461.356 265.568 461.356L254.586 461.356C253.892 461.356 253.321 460.794 253.321 460.091L253.321 449.694C253.321 448.708 252.523 447.897 251.525 447.897L242.275 447.897C241.571 447.897 241.001 447.325 241.01 446.625Z" stroke="white" stroke-opacity="0.5" stroke-width="0.531561"/>
<path d="M36.7943 36.1299V26.8701C36.7943 26.1688 37.3642 25.6041 38.061 25.5943H49.0308C49.7251 25.5943 50.2959 26.157 50.2959 26.8595V37.6502V51.694V62.4847C50.2959 63.1884 49.7345 63.7498 49.0308 63.7498H38.0594C37.3651 63.7498 36.7943 63.1872 36.7943 62.4847V53.2249C36.7943 52.2395 35.9961 51.4282 34.9976 51.4282H24.6002C23.9059 51.4282 23.3351 50.8656 23.3351 50.1631V39.1917C23.3351 38.4974 23.8977 37.9266 24.6002 37.9266H34.9976C35.983 37.9266 36.7943 37.1284 36.7943 36.1299Z" stroke="white" stroke-opacity="0.5" stroke-width="0.531561"/>
<path d="M61.48 6.51778V6.5211V17.4925C61.48 18.1963 60.9186 18.7577 60.2149 18.7577H49.4348H35.3909H24.6002C23.9059 18.7577 23.3351 18.195 23.3351 17.4925V6.5211C23.3351 5.82682 23.8977 5.25598 24.6002 5.25598H33.86C34.8467 5.25598 35.6567 4.44595 35.6567 3.4593V-6.93804C35.6567 -7.64175 36.2181 -8.20316 36.9218 -8.20316H47.9039C48.5982 -8.20316 49.169 -7.64055 49.169 -6.93804V3.4593C49.169 4.44475 49.9672 5.25598 50.9657 5.25598H60.2149C60.9216 5.25598 61.4887 5.81969 61.48 6.51778Z" stroke="white" stroke-opacity="0.5" stroke-width="0.531561"/>
<path d="M36.7943 116.224V106.964C36.7943 106.262 37.3644 105.698 38.0613 105.688H49.0308C49.7251 105.688 50.2959 106.251 50.2959 106.953V117.744V131.788V142.578C50.2959 143.282 49.7345 143.844 49.0308 143.844H38.0594C37.3651 143.844 36.7943 143.281 36.7943 142.578V133.319C36.7943 132.333 35.9961 131.522 34.9976 131.522H24.6002C23.9059 131.522 23.3351 130.959 23.3351 130.257V119.285C23.3351 118.591 23.8977 118.02 24.6002 118.02H34.9976C35.983 118.02 36.7943 117.222 36.7943 116.224Z" stroke="white" stroke-opacity="0.5" stroke-width="0.531561"/>
<path d="M45.3739 86.6388H54.6337C55.328 86.6388 55.8988 87.2014 55.8988 87.9039V98.8754C55.8988 99.5791 55.3374 100.14 54.6337 100.14H43.843H29.7991H19.0084C18.3142 100.14 17.7433 99.5779 17.7433 98.8754V87.9039C17.7433 87.2096 18.3059 86.6388 19.0084 86.6388H28.2682C29.2549 86.6388 30.0649 85.8288 30.0649 84.8421V74.4448C30.0649 73.7411 30.6263 73.1797 31.33 73.1797H42.3121C43.0064 73.1797 43.5772 73.7423 43.5772 74.4448V84.8421C43.5772 85.8276 44.3754 86.6388 45.3739 86.6388Z" stroke="white" stroke-opacity="0.5" stroke-width="0.531561"/>
<path d="M36.7943 196.321V187.062C36.7943 186.36 37.3642 185.795 38.061 185.786H49.0308C49.7251 185.786 50.2959 186.348 50.2959 187.051V197.842V211.885V222.676C50.2959 223.38 49.7345 223.941 49.0308 223.941H38.0594C37.3651 223.941 36.7943 223.379 36.7943 222.676V213.416C36.7943 212.431 35.9961 211.62 34.9976 211.62H24.6002C23.9059 211.62 23.3351 211.057 23.3351 210.355V199.383C23.3351 198.689 23.8977 198.118 24.6002 198.118H34.9976C35.983 198.118 36.7943 197.32 36.7943 196.321Z" stroke="white" stroke-opacity="0.5" stroke-width="0.531561"/>
<path d="M61.48 166.697V166.701V177.672C61.48 178.367 60.9174 178.937 60.2149 178.937H49.4348H35.3909H24.6002C23.9059 178.937 23.3351 178.375 23.3351 177.672V166.701C23.3351 166.007 23.8977 165.436 24.6002 165.436H33.86C34.8455 165.436 35.6567 164.637 35.6567 163.639V153.242C35.6567 152.547 36.2193 151.977 36.9218 151.977H47.9039C48.5982 151.977 49.169 152.539 49.169 153.242V163.639C49.169 164.624 49.9672 165.436 50.9657 165.436H60.2149C60.9204 165.436 61.4887 166.009 61.48 166.697Z" stroke="white" stroke-opacity="0.5" stroke-width="0.531561"/>
<path d="M36.7943 276.415V267.155C36.7943 266.45 37.3675 265.88 38.0594 265.88H49.0308C49.7251 265.88 50.2959 266.442 50.2959 267.145V277.935V291.979V302.77C50.2959 303.474 49.7345 304.035 49.0308 304.035H38.0594C37.3651 304.035 36.7943 303.472 36.7943 302.77V293.51C36.7943 292.525 35.9961 291.713 34.9976 291.713H24.6002C23.9059 291.713 23.3351 291.151 23.3351 290.448V279.477C23.3351 278.783 23.8977 278.212 24.6002 278.212H34.9976C35.983 278.212 36.7943 277.414 36.7943 276.415Z" stroke="white" stroke-opacity="0.5" stroke-width="0.531561"/>
<path d="M60.2149 245.265H50.9657C50.1152 245.265 49.4348 244.574 49.4348 243.734V233.337C49.4348 232.486 48.7438 231.806 47.9039 231.806H36.9218C36.0713 231.806 35.3909 232.486 35.3909 233.337V243.734C35.3909 244.584 34.6999 245.265 33.86 245.265H24.6002C23.7497 245.265 23.0693 245.956 23.0693 246.796V257.778C23.0693 258.628 23.7604 259.309 24.6002 259.309H35.3909H49.4348H60.2149C61.0653 259.309 61.7457 258.628 61.7457 257.778V246.806C61.7564 245.956 61.0653 245.265 60.2149 245.265Z" fill="white"/>
<path d="M36.7943 356.5V347.24C36.7943 346.547 37.3663 345.975 38.0594 345.975H49.0308C49.7251 345.975 50.2959 346.538 50.2959 347.24V358.031V372.075V382.866C50.2959 383.56 49.7333 384.131 49.0308 384.131H38.0594C37.3651 384.131 36.7943 383.568 36.7943 382.866V373.606C36.7943 372.62 35.9961 371.809 34.9976 371.809H24.6002C23.9059 371.809 23.3351 371.247 23.3351 370.544V359.562C23.3351 358.868 23.8977 358.297 24.6002 358.297H34.9976C35.983 358.297 36.7943 357.499 36.7943 356.5Z" stroke="white" stroke-opacity="0.5" stroke-width="0.531561"/>
<path d="M60.2149 325.36H50.9657C50.1152 325.36 49.4348 324.669 49.4348 323.83V313.432C49.4348 312.582 48.7438 311.901 47.9039 311.901H36.9218C36.0713 311.901 35.3909 312.592 35.3909 313.432V323.83C35.3909 324.68 34.6999 325.36 33.86 325.36H24.6002C23.7497 325.36 23.0693 326.051 23.0693 326.891V337.873C23.0693 338.724 23.7604 339.404 24.6002 339.404H35.3909H49.4348H60.2149C61.0653 339.404 61.7457 338.724 61.7457 337.873V326.902C61.7564 326.051 61.0653 325.36 60.2149 325.36Z" fill="black"/>
<path d="M61.48 326.899V326.902V337.873C61.48 338.577 60.9186 339.139 60.2149 339.139H49.4348H35.3909H24.6002C23.9059 339.139 23.3351 338.576 23.3351 337.873V326.891C23.3351 326.197 23.8977 325.626 24.6002 325.626H33.86C34.8455 325.626 35.6567 324.828 35.6567 323.83V313.432C35.6567 312.738 36.2193 312.167 36.9218 312.167H47.9039C48.5982 312.167 49.169 312.73 49.169 313.432V323.83C49.169 324.815 49.9672 325.626 50.9657 325.626H60.2149C60.9192 325.626 61.4887 326.198 61.48 326.899Z" stroke="white" stroke-opacity="0.5" stroke-width="0.531561"/>
<path d="M126.096 36.1299V26.8701C126.096 26.1688 126.666 25.6041 127.363 25.5943H138.333C139.027 25.5943 139.598 26.157 139.598 26.8595V37.6502V51.694V62.4847C139.598 63.1884 139.036 63.7498 138.333 63.7498H127.361C126.667 63.7498 126.096 63.1872 126.096 62.4847V53.2249C126.096 52.2395 125.298 51.4282 124.299 51.4282H113.902C113.208 51.4282 112.637 50.8656 112.637 50.1631V39.1917C112.637 38.4974 113.199 37.9266 113.902 37.9266H124.299C125.285 37.9266 126.096 37.1284 126.096 36.1299Z" stroke="white" stroke-opacity="0.5" stroke-width="0.531561"/>
<path d="M150.782 6.51778V6.5211V17.4925C150.782 18.1963 150.22 18.7577 149.517 18.7577H138.737H124.693H113.902C113.208 18.7577 112.637 18.195 112.637 17.4925V6.5211C112.637 5.82682 113.199 5.25598 113.902 5.25598H123.162C124.148 5.25598 124.958 4.44595 124.958 3.4593V-6.93804C124.958 -7.64175 125.52 -8.20316 126.224 -8.20316H137.206C137.9 -8.20316 138.471 -7.64055 138.471 -6.93804V3.4593C138.471 4.44475 139.269 5.25598 140.267 5.25598H149.517C150.223 5.25598 150.79 5.81969 150.782 6.51778Z" stroke="white" stroke-opacity="0.5" stroke-width="0.531561"/>
<path d="M126.097 116.224V106.964C126.097 106.262 126.667 105.698 127.364 105.688H138.334C139.028 105.688 139.599 106.251 139.599 106.953V117.744V131.788V142.578C139.599 143.282 139.037 143.844 138.334 143.844H127.362C126.668 143.844 126.097 143.281 126.097 142.578V133.319C126.097 132.333 125.299 131.522 124.3 131.522H113.903C113.209 131.522 112.638 130.959 112.638 130.257V119.285C112.638 118.591 113.2 118.02 113.903 118.02H124.3C125.286 118.02 126.097 117.222 126.097 116.224Z" stroke="white" stroke-opacity="0.5" stroke-width="0.531561"/>
<path d="M143.936 86.373H134.677C133.826 86.373 133.146 85.682 133.146 84.8421V74.4448C133.146 73.5943 132.455 72.9139 131.615 72.9139H120.633C119.782 72.9139 119.102 73.5943 119.102 74.4448V84.8421C119.102 85.682 118.411 86.373 117.571 86.373H108.311C107.461 86.373 106.78 87.064 106.78 87.9039V98.8754C106.78 99.7258 107.471 100.406 108.311 100.406H119.102H133.146H143.936C144.787 100.406 145.467 99.7258 145.467 98.8754V87.9039C145.467 87.0534 144.776 86.373 143.936 86.373Z" fill="black"/>
<path d="M134.677 86.6388H143.936C144.631 86.6388 145.202 87.2014 145.202 87.9039V98.8754C145.202 99.5791 144.64 100.14 143.936 100.14H133.146H119.102H108.311C107.617 100.14 107.046 99.5779 107.046 98.8754V87.9039C107.046 87.2096 107.609 86.6388 108.311 86.6388H117.571C118.558 86.6388 119.368 85.8288 119.368 84.8421V74.4448C119.368 73.7411 119.929 73.1797 120.633 73.1797H131.615C132.309 73.1797 132.88 73.7423 132.88 74.4448V84.8421C132.88 85.8276 133.678 86.6388 134.677 86.6388Z" stroke="white" stroke-opacity="0.5" stroke-width="0.531561"/>
<path d="M126.096 196.321V187.062C126.096 186.36 126.666 185.795 127.363 185.786H138.333C139.027 185.786 139.598 186.348 139.598 187.051V197.842V211.885V222.676C139.598 223.38 139.036 223.941 138.333 223.941H127.361C126.667 223.941 126.096 223.379 126.096 222.676V213.416C126.096 212.431 125.298 211.62 124.299 211.62H113.902C113.208 211.62 112.637 211.057 112.637 210.355V199.383C112.637 198.689 113.199 198.118 113.902 198.118H124.299C125.285 198.118 126.096 197.32 126.096 196.321Z" stroke="white" stroke-opacity="0.5" stroke-width="0.531561"/>
<path d="M150.783 166.697V166.701V177.672C150.783 178.367 150.22 178.937 149.518 178.937H138.738H124.694H113.903C113.209 178.937 112.638 178.375 112.638 177.672V166.701C112.638 166.007 113.2 165.436 113.903 165.436H123.163C124.148 165.436 124.959 164.637 124.959 163.639V153.242C124.959 152.547 125.522 151.977 126.225 151.977H137.207C137.901 151.977 138.472 152.539 138.472 153.242V163.639C138.472 164.624 139.27 165.436 140.268 165.436H149.518C150.223 165.436 150.791 166.009 150.783 166.697Z" stroke="white" stroke-opacity="0.5" stroke-width="0.531561"/>
<path d="M126.097 276.415V267.155C126.097 266.45 126.67 265.88 127.362 265.88H138.334C139.028 265.88 139.599 266.442 139.599 267.145V277.935V291.979V302.77C139.599 303.474 139.037 304.035 138.334 304.035H127.362C126.668 304.035 126.097 303.472 126.097 302.77V293.51C126.097 292.525 125.299 291.713 124.3 291.713H113.903C113.209 291.713 112.638 291.151 112.638 290.448V279.477C112.638 278.783 113.2 278.212 113.903 278.212H124.3C125.286 278.212 126.097 277.414 126.097 276.415Z" stroke="white" stroke-opacity="0.5" stroke-width="0.531561"/>
<path d="M150.783 246.803V246.806V257.778C150.783 258.481 150.221 259.043 149.518 259.043H138.738H124.694H113.903C113.209 259.043 112.638 258.48 112.638 257.778V246.796C112.638 246.101 113.2 245.531 113.903 245.531H123.163C124.148 245.531 124.959 244.732 124.959 243.734V233.337C124.959 232.633 125.521 232.071 126.225 232.071H137.207C137.901 232.071 138.472 232.634 138.472 233.337V243.734C138.472 244.719 139.27 245.531 140.268 245.531H149.518C150.222 245.531 150.791 246.102 150.783 246.803Z" stroke="white" stroke-opacity="0.5" stroke-width="0.531561"/>
<path d="M126.097 356.5V347.24C126.097 346.547 126.669 345.975 127.362 345.975H138.334C139.028 345.975 139.599 346.538 139.599 347.24V358.031V372.075V382.866C139.599 383.56 139.036 384.131 138.334 384.131H127.362C126.668 384.131 126.097 383.568 126.097 382.866V373.606C126.097 372.62 125.299 371.809 124.3 371.809H113.903C113.209 371.809 112.638 371.247 112.638 370.544V359.562C112.638 358.868 113.2 358.297 113.903 358.297H124.3C125.286 358.297 126.097 357.499 126.097 356.5Z" stroke="white" stroke-opacity="0.5" stroke-width="0.531561"/>
<path d="M150.783 326.899V326.902V337.873C150.783 338.577 150.221 339.139 149.518 339.139H138.738H124.694H113.903C113.209 339.139 112.638 338.576 112.638 337.873V326.891C112.638 326.197 113.2 325.626 113.903 325.626H123.163C124.148 325.626 124.959 324.828 124.959 323.83V313.432C124.959 312.738 125.522 312.167 126.225 312.167H137.207C137.901 312.167 138.472 312.73 138.472 313.432V323.83C138.472 324.815 139.27 325.626 140.268 325.626H149.518C150.222 325.626 150.791 326.198 150.783 326.899Z" stroke="white" stroke-opacity="0.5" stroke-width="0.531561"/>
<path d="M-2.21027 339.788L-2.21026 349.048C-2.21026 349.749 -2.78024 350.314 -3.47703 350.324L-14.4468 350.324C-15.1411 350.324 -15.7119 349.761 -15.7119 349.059L-15.7119 338.268L-15.7119 324.224L-15.7119 313.433C-15.7119 312.73 -15.1505 312.168 -14.4468 312.168L-3.47538 312.168C-2.7811 312.168 -2.21027 312.731 -2.21027 313.433L-2.21027 322.693C-2.21027 323.679 -1.41207 324.49 -0.413588 324.49L9.98375 324.49C10.678 324.49 11.2489 325.052 11.2489 325.755L11.2489 336.726C11.2489 337.421 10.6863 337.991 9.98375 337.991L-0.413587 337.991C-1.39904 337.991 -2.21027 338.79 -2.21027 339.788Z" stroke="white" stroke-opacity="0.5" stroke-width="0.531561"/>
<path d="M-26.896 369.398L-26.896 369.395L-26.896 358.423C-26.896 357.72 -26.3346 357.158 -25.6309 357.158L-14.8508 357.158L-0.806946 357.158L9.98375 357.158C10.678 357.158 11.2489 357.721 11.2489 358.423L11.2489 369.395C11.2489 370.089 10.6863 370.66 9.98375 370.66L0.723953 370.66C-0.262702 370.66 -1.07272 371.47 -1.07272 372.457L-1.07272 382.854C-1.07272 383.558 -1.63413 384.119 -2.33784 384.119L-13.3199 384.119C-14.0142 384.119 -14.585 383.557 -14.585 382.854L-14.585 372.457C-14.585 371.471 -15.3832 370.66 -16.3817 370.66L-25.6309 370.66C-26.3377 370.66 -26.9047 370.096 -26.896 369.398Z" stroke="white" stroke-opacity="0.5" stroke-width="0.531561"/>
<path d="M-2.21027 259.69L-2.21026 268.95C-2.21026 269.652 -2.78039 270.216 -3.4773 270.226L-14.4468 270.226C-15.1411 270.226 -15.7119 269.663 -15.7119 268.961L-15.7119 258.17L-15.7119 244.126L-15.7119 233.336C-15.7119 232.632 -15.1505 232.07 -14.4468 232.07L-3.47538 232.07C-2.7811 232.07 -2.21027 232.633 -2.21027 233.336L-2.21027 242.595C-2.21027 243.581 -1.41207 244.392 -0.413588 244.392L9.98375 244.392C10.678 244.392 11.2489 244.955 11.2489 245.657L11.2489 256.629C11.2489 257.323 10.6863 257.894 9.98375 257.894L-0.413587 257.894C-1.39904 257.894 -2.21027 258.692 -2.21027 259.69Z" stroke="white" stroke-opacity="0.5" stroke-width="0.531561"/>
<path d="M-10.7899 289.279L-20.0497 289.279C-20.744 289.279 -21.3148 288.717 -21.3148 288.014L-21.3148 277.043C-21.3148 276.339 -20.7534 275.778 -20.0497 275.778L-9.259 275.778L4.78485 275.778L15.5755 275.777C16.2698 275.777 16.8407 276.34 16.8407 277.043L16.8407 288.014C16.8407 288.708 16.2781 289.279 15.5755 289.279L6.31575 289.279C5.3291 289.279 4.51907 290.089 4.51907 291.076L4.51907 301.473C4.51907 302.177 3.95767 302.738 3.25396 302.738L-7.7281 302.738C-8.42239 302.738 -8.99322 302.176 -8.99322 301.473L-8.99322 291.076C-8.99322 290.09 -9.79141 289.279 -10.7899 289.279Z" stroke="white" stroke-opacity="0.5" stroke-width="0.531561"/>
<path d="M-2.21124 179.597L-2.21124 188.856C-2.21124 189.558 -2.78122 190.122 -3.478 190.132L-14.4478 190.132C-15.1421 190.132 -15.7129 189.57 -15.7129 188.867L-15.7129 178.076L-15.7129 164.033L-15.7129 153.242C-15.7129 152.538 -15.1515 151.977 -14.4478 151.977L-3.47636 151.977C-2.78208 151.977 -2.21124 152.539 -2.21124 153.242L-2.21124 162.502C-2.21124 163.487 -1.41305 164.298 -0.414565 164.298L9.98278 164.298C10.6771 164.298 11.2479 164.861 11.2479 165.563L11.2479 176.535C11.2479 177.229 10.6853 177.8 9.98278 177.8L-0.414564 177.8C-1.40001 177.8 -2.21124 178.598 -2.21124 179.597Z" stroke="white" stroke-opacity="0.5" stroke-width="0.531561"/>
<path d="M-26.897 209.221L-26.897 209.217L-26.897 198.246C-26.897 197.551 -26.3344 196.981 -25.6318 196.981L-14.8518 196.981L-0.807922 196.981L9.98278 196.981C10.6771 196.981 11.2479 197.543 11.2479 198.246L11.2479 209.217C11.2479 209.911 10.6853 210.482 9.98278 210.482L0.722976 210.482C-0.262471 210.482 -1.0737 211.28 -1.0737 212.279L-1.0737 222.676C-1.0737 223.371 -1.63631 223.941 -2.33882 223.941L-13.3209 223.941C-14.0152 223.941 -14.586 223.379 -14.586 222.676L-14.586 212.279C-14.586 211.294 -15.3842 210.482 -16.3827 210.482L-25.6318 210.482C-26.3374 210.482 -26.9057 209.909 -26.897 209.221Z" stroke="white" stroke-opacity="0.5" stroke-width="0.531561"/>
<path d="M-2.21027 99.501L-2.21026 108.761C-2.21026 109.466 -2.7835 110.037 -3.47538 110.037L-14.4468 110.037C-15.1411 110.037 -15.7119 109.474 -15.7119 108.771L-15.7119 97.9807L-15.7119 83.9368L-15.7119 73.1461C-15.7119 72.4424 -15.1505 71.881 -14.4468 71.881L-3.47538 71.881C-2.7811 71.881 -2.21027 72.4436 -2.21027 73.1461L-2.21027 82.4059C-2.21027 83.3914 -1.41207 84.2026 -0.413588 84.2026L9.98375 84.2026C10.678 84.2026 11.2489 84.7652 11.2489 85.4677L11.2489 96.4392C11.2489 97.1334 10.6863 97.7043 9.98375 97.7043L-0.413587 97.7043C-1.39904 97.7043 -2.21027 98.5025 -2.21027 99.501Z" stroke="white" stroke-opacity="0.5" stroke-width="0.531561"/>
<path d="M-26.896 129.111L-26.896 129.108L-26.896 118.136C-26.896 117.433 -26.3346 116.871 -25.6309 116.871L-14.8508 116.871L-0.806946 116.871L9.98375 116.871C10.678 116.871 11.2489 117.434 11.2489 118.136L11.2489 129.118C11.2489 129.813 10.6863 130.384 9.98375 130.384L0.723953 130.384C-0.261498 130.384 -1.07272 131.182 -1.07272 132.18L-1.07272 142.578C-1.07272 143.281 -1.63413 143.843 -2.33784 143.843L-13.3199 143.843C-14.0142 143.843 -14.585 143.28 -14.585 142.578L-14.585 132.18C-14.585 131.195 -15.3832 130.384 -16.3817 130.384L-25.6309 130.384C-26.3352 130.384 -26.9048 129.812 -26.896 129.111Z" stroke="white" stroke-opacity="0.5" stroke-width="0.531561"/>
<path d="M-2.21124 19.4159L-2.21124 28.6757C-2.21124 29.3688 -2.78328 29.9408 -3.47636 29.9408L-14.4478 29.9408C-15.1421 29.9408 -15.7129 29.3782 -15.7129 28.6757L-15.7129 17.885L-15.7129 3.84113L-15.7129 -6.94957C-15.7129 -7.64385 -15.1503 -8.21469 -14.4478 -8.21469L-3.47636 -8.21469C-2.78208 -8.21469 -2.21124 -7.65208 -2.21124 -6.94957L-2.21124 2.31023C-2.21124 3.29568 -1.41305 4.10691 -0.414565 4.10691L9.98278 4.10691C10.6771 4.10691 11.2479 4.66951 11.2479 5.37202L11.2479 16.3541C11.2479 17.0484 10.6853 17.6192 9.98278 17.6192L-0.414564 17.6192C-1.40001 17.6192 -2.21124 18.4174 -2.21124 19.4159Z" stroke="white" stroke-opacity="0.5" stroke-width="0.531561"/>
<path d="M-26.897 49.0174L-26.897 49.014L-26.897 38.0426C-26.897 37.3389 -26.3356 36.7775 -25.6318 36.7775L-14.8518 36.7775L-0.807922 36.7775L9.98278 36.7775C10.6771 36.7775 11.2479 37.3401 11.2479 38.0426L11.2479 49.0247C11.2479 49.719 10.6853 50.2898 9.98278 50.2898L0.722976 50.2898C-0.262475 50.2898 -1.0737 51.088 -1.0737 52.0865L-1.0737 62.4838C-1.0737 63.1781 -1.63631 63.7489 -2.33882 63.7489L-13.3209 63.7489C-14.0152 63.7489 -14.586 63.1863 -14.586 62.4838L-14.586 52.0865C-14.586 51.101 -15.3842 50.2898 -16.3827 50.2898L-25.6318 50.2898C-26.3362 50.2898 -26.9057 49.7179 -26.897 49.0174Z" stroke="white" stroke-opacity="0.5" stroke-width="0.531561"/>
<path d="M87.0915 339.788L87.0915 349.048C87.0915 349.749 86.5215 350.314 85.8247 350.324L74.8549 350.324C74.1607 350.324 73.5898 349.761 73.5898 349.059L73.5898 338.268L73.5898 324.224L73.5898 313.433C73.5898 312.73 74.1512 312.168 74.8549 312.168L85.8264 312.168C86.5207 312.168 87.0915 312.731 87.0915 313.433L87.0915 322.693C87.0915 323.679 87.8897 324.49 88.8882 324.49L99.2855 324.49C99.9798 324.49 100.551 325.052 100.551 325.755L100.551 336.726C100.551 337.421 99.988 337.991 99.2855 337.991L88.8882 337.991C87.9027 337.991 87.0915 338.79 87.0915 339.788Z" stroke="white" stroke-opacity="0.5" stroke-width="0.531561"/>
<path d="M63.6709 370.928L72.9201 370.928C73.7706 370.928 74.451 371.619 74.451 372.459L74.451 382.856C74.451 383.707 75.142 384.387 75.9819 384.387L86.9639 384.387C87.8144 384.387 88.4948 383.707 88.4948 382.856L88.4948 372.459C88.4948 371.619 89.1858 370.928 90.0257 370.928L99.2855 370.928C100.136 370.928 100.816 370.237 100.816 369.397L100.816 358.425C100.816 357.575 100.125 356.895 99.2855 356.895L88.4948 356.895L74.451 356.895L63.6709 356.895C62.8204 356.895 62.14 357.575 62.14 358.425L62.14 369.397C62.1294 370.247 62.8204 370.928 63.6709 370.928Z" fill="#367FFF"/>
<path d="M87.0915 259.692L87.0915 268.952C87.0915 269.654 86.5214 270.218 85.8245 270.228L74.8549 270.228C74.1607 270.228 73.5898 269.665 73.5898 268.963L73.5898 258.172L73.5898 244.128L73.5898 233.338C73.5898 232.634 74.1512 232.072 74.8549 232.072L85.8264 232.072C86.5207 232.072 87.0915 232.635 87.0915 233.338L87.0915 242.597C87.0915 243.583 87.8897 244.394 88.8882 244.394L99.2855 244.394C99.9798 244.394 100.551 244.957 100.551 245.659L100.551 256.631C100.551 257.325 99.988 257.896 99.2855 257.896L88.8882 257.896C87.9027 257.896 87.0915 258.694 87.0915 259.692Z" stroke="white" stroke-opacity="0.5" stroke-width="0.531561"/>
<path d="M78.5119 289.279L69.2521 289.279C68.5578 289.279 67.9869 288.717 67.9869 288.014L67.9869 277.043C67.9869 276.339 68.5483 275.778 69.2521 275.778L80.0428 275.778L94.0866 275.778L104.877 275.777C105.572 275.777 106.142 276.34 106.142 277.043L106.142 288.014C106.142 288.708 105.58 289.279 104.877 289.279L95.6175 289.279C94.6309 289.279 93.8208 290.089 93.8208 291.076L93.8208 301.473C93.8208 302.177 93.2594 302.738 92.5557 302.738L81.5737 302.738C80.8794 302.738 80.3085 302.176 80.3085 301.473L80.3085 291.076C80.3085 290.09 79.5103 289.279 78.5119 289.279Z" stroke="white" stroke-opacity="0.5" stroke-width="0.531561"/>
<path d="M87.0915 179.599L87.0915 188.858C87.0915 189.56 86.5215 190.124 85.8247 190.134L74.8549 190.134C74.1607 190.134 73.5898 189.572 73.5898 188.869L73.5898 178.078L73.5898 164.034L73.5898 153.244C73.5898 152.54 74.1512 151.979 74.8549 151.979L85.8264 151.979C86.5207 151.979 87.0915 152.541 87.0915 153.244L87.0915 162.504C87.0915 163.489 87.8897 164.3 88.8882 164.3L99.2855 164.3C99.9798 164.3 100.551 164.863 100.551 165.565L100.551 176.537C100.551 177.231 99.988 177.802 99.2855 177.802L88.8882 177.802C87.9027 177.802 87.0915 178.6 87.0915 179.599Z" stroke="white" stroke-opacity="0.5" stroke-width="0.531561"/>
<path d="M62.4058 209.221L62.4058 209.217L62.4058 198.246C62.4058 197.551 62.9684 196.981 63.6709 196.981L74.451 196.981L88.4948 196.981L99.2855 196.981C99.9798 196.981 100.551 197.543 100.551 198.246L100.551 209.217C100.551 209.911 99.988 210.482 99.2855 210.482L90.0257 210.482C89.0403 210.482 88.229 211.28 88.229 212.279L88.229 222.676C88.229 223.371 87.6664 223.941 86.9639 223.941L75.9819 223.941C75.2876 223.941 74.7167 223.379 74.7167 222.676L74.7167 212.279C74.7167 211.294 73.9185 210.482 72.9201 210.482L63.6709 210.482C62.9653 210.482 62.397 209.909 62.4058 209.221Z" stroke="white" stroke-opacity="0.5" stroke-width="0.531561"/>
<path d="M87.3573 108.761L87.3573 99.501C87.3573 98.6505 88.0483 97.9701 88.8882 97.9701L99.2855 97.9701C100.136 97.9701 100.816 97.279 100.816 96.4392L100.816 85.4677C100.816 84.6172 100.125 83.9368 99.2855 83.9368L88.8882 83.9368C88.0377 83.9368 87.3573 83.2458 87.3573 82.4059L87.3573 73.1461C87.3573 72.2956 86.6662 71.6152 85.8264 71.6152L74.8549 71.6152C74.0044 71.6152 73.324 72.2956 73.324 73.1461L73.324 83.9368L73.3241 97.9807L73.3241 108.771C73.3241 109.622 74.0151 110.302 74.8549 110.302L85.8264 110.302C86.6662 110.302 87.3573 109.611 87.3573 108.761Z" fill="#EEFF26"/>
<path d="M62.4058 129.111L62.4058 129.108L62.4058 118.136C62.4058 117.433 62.9672 116.871 63.6709 116.871L74.451 116.871L88.4948 116.871L99.2855 116.871C99.9798 116.871 100.551 117.434 100.551 118.136L100.551 129.118C100.551 129.813 99.988 130.384 99.2855 130.384L90.0257 130.384C89.0403 130.384 88.229 131.182 88.229 132.18L88.229 142.578C88.229 143.281 87.6676 143.843 86.9639 143.843L75.9819 143.843C75.2876 143.843 74.7167 143.28 74.7167 142.578L74.7167 132.18C74.7167 131.195 73.9185 130.384 72.9201 130.384L63.6709 130.384C62.9665 130.384 62.397 129.812 62.4058 129.111Z" stroke="white" stroke-opacity="0.5" stroke-width="0.531561"/>
<path d="M87.0915 19.4159L87.0915 28.6757C87.0915 29.3688 86.5195 29.9408 85.8264 29.9408L74.8549 29.9408C74.1607 29.9408 73.5898 29.3782 73.5898 28.6757L73.5898 17.885L73.5898 3.84113L73.5898 -6.94957C73.5898 -7.64385 74.1524 -8.21469 74.8549 -8.21469L85.8264 -8.21469C86.5207 -8.21469 87.0915 -7.65208 87.0915 -6.94957L87.0915 2.31023C87.0915 3.29568 87.8897 4.10691 88.8882 4.10691L99.2855 4.10691C99.9798 4.10691 100.551 4.66951 100.551 5.37202L100.551 16.3541C100.551 17.0484 99.988 17.6192 99.2855 17.6192L88.8882 17.6192C87.9027 17.6192 87.0915 18.4174 87.0915 19.4159Z" stroke="white" stroke-opacity="0.5" stroke-width="0.531561"/>
<path d="M62.4058 49.0174L62.4058 49.014L62.4058 38.0426C62.4058 37.3389 62.9672 36.7775 63.6709 36.7775L74.451 36.7775L88.4948 36.7775L99.2855 36.7775C99.9798 36.7775 100.551 37.3401 100.551 38.0426L100.551 49.0247C100.551 49.719 99.988 50.2898 99.2855 50.2898L90.0257 50.2898C89.0403 50.2898 88.229 51.088 88.229 52.0865L88.229 62.4838C88.229 63.1781 87.6664 63.7489 86.9639 63.7489L75.9819 63.7489C75.2876 63.7489 74.7167 63.1863 74.7167 62.4838L74.7167 52.0865C74.7167 51.101 73.9185 50.2898 72.9201 50.2898L63.6709 50.2898C62.9665 50.2898 62.397 49.7179 62.4058 49.0174Z" stroke="white" stroke-opacity="0.5" stroke-width="0.531561"/>
<path d="M354.999 339.788L354.999 349.048C354.999 349.749 354.429 350.314 353.732 350.324L342.762 350.324C342.068 350.324 341.497 349.761 341.497 349.059L341.497 338.268L341.497 324.224L341.497 313.433C341.497 312.73 342.058 312.168 342.762 312.168L353.734 312.168C354.428 312.168 354.999 312.731 354.999 313.433L354.999 322.693C354.999 323.679 355.797 324.49 356.795 324.49L367.193 324.49C367.887 324.49 368.458 325.052 368.458 325.755L368.458 336.726C368.458 337.421 367.895 337.991 367.193 337.991L356.795 337.991C355.81 337.991 354.999 338.79 354.999 339.788Z" stroke="white" stroke-opacity="0.5" stroke-width="0.531561"/>
<path d="M330.313 369.398L330.313 369.395L330.313 358.423C330.313 357.72 330.874 357.158 331.578 357.158L342.358 357.158L356.402 357.158L367.193 357.158C367.887 357.158 368.458 357.721 368.458 358.423L368.458 369.395C368.458 370.089 367.895 370.66 367.193 370.66L357.933 370.66C356.946 370.66 356.136 371.47 356.136 372.457L356.136 382.854C356.136 383.558 355.575 384.119 354.871 384.119L343.889 384.119C343.195 384.119 342.624 383.557 342.624 382.854L342.624 372.457C342.624 371.471 341.826 370.66 340.827 370.66L331.578 370.66C330.871 370.66 330.304 370.096 330.313 369.398Z" stroke="white" stroke-opacity="0.5" stroke-width="0.531561"/>
<path d="M354.999 259.69L354.999 268.95C354.999 269.652 354.429 270.216 353.732 270.226L342.762 270.226C342.068 270.226 341.497 269.663 341.497 268.961L341.497 258.17L341.497 244.126L341.497 233.336C341.497 232.632 342.058 232.07 342.762 232.07L353.734 232.07C354.428 232.07 354.999 232.633 354.999 233.336L354.999 242.595C354.999 243.581 355.797 244.392 356.795 244.392L367.193 244.392C367.887 244.392 368.458 244.955 368.458 245.657L368.458 256.629C368.458 257.323 367.895 257.894 367.193 257.894L356.795 257.894C355.81 257.894 354.999 258.692 354.999 259.69Z" stroke="white" stroke-opacity="0.5" stroke-width="0.531561"/>
<path d="M346.419 289.279L337.159 289.279C336.465 289.279 335.894 288.717 335.894 288.014L335.894 277.043C335.894 276.339 336.456 275.778 337.159 275.778L347.95 275.778L361.994 275.778L372.785 275.777C373.479 275.777 374.05 276.34 374.05 277.043L374.05 288.014C374.05 288.708 373.487 289.279 372.785 289.279L363.525 289.279C362.538 289.279 361.728 290.089 361.728 291.076L361.728 301.473C361.728 302.177 361.167 302.738 360.463 302.738L349.481 302.738C348.787 302.738 348.216 302.176 348.216 301.473L348.216 291.076C348.216 290.09 347.418 289.279 346.419 289.279Z" stroke="white" stroke-opacity="0.5" stroke-width="0.531561"/>
<path d="M354.999 179.597L354.999 188.856C354.999 189.558 354.429 190.122 353.732 190.132L342.762 190.132C342.068 190.132 341.497 189.57 341.497 188.867L341.497 178.076L341.497 164.033L341.497 153.242C341.497 152.538 342.058 151.977 342.762 151.977L353.734 151.977C354.428 151.977 354.999 152.539 354.999 153.242L354.999 162.502C354.999 163.487 355.797 164.298 356.795 164.298L367.193 164.298C367.887 164.298 368.458 164.861 368.458 165.563L368.458 176.535C368.458 177.229 367.895 177.8 367.193 177.8L356.795 177.8C355.81 177.8 354.999 178.598 354.999 179.597Z" stroke="white" stroke-opacity="0.5" stroke-width="0.531561"/>
<path d="M330.313 209.221L330.313 209.217L330.313 198.246C330.313 197.551 330.876 196.981 331.578 196.981L342.358 196.981L356.402 196.981L367.193 196.981C367.887 196.981 368.458 197.543 368.458 198.246L368.458 209.217C368.458 209.911 367.895 210.482 367.193 210.482L357.933 210.482C356.947 210.482 356.136 211.28 356.136 212.279L356.136 222.676C356.136 223.371 355.574 223.941 354.871 223.941L343.889 223.941C343.195 223.941 342.624 223.379 342.624 222.676L342.624 212.279C342.624 211.294 341.826 210.482 340.827 210.482L331.578 210.482C330.873 210.482 330.304 209.909 330.313 209.221Z" stroke="white" stroke-opacity="0.5" stroke-width="0.531561"/>
<path d="M354.999 99.501L354.999 108.761C354.999 109.466 354.425 110.037 353.734 110.037L342.762 110.037C342.068 110.037 341.497 109.474 341.497 108.771L341.497 97.9807L341.497 83.9368L341.497 73.1461C341.497 72.4424 342.058 71.881 342.762 71.881L353.734 71.881C354.428 71.881 354.999 72.4436 354.999 73.1461L354.999 82.4059C354.999 83.3914 355.797 84.2026 356.795 84.2026L367.193 84.2026C367.887 84.2026 368.458 84.7652 368.458 85.4677L368.458 96.4392C368.458 97.1334 367.895 97.7043 367.193 97.7043L356.795 97.7043C355.81 97.7043 354.999 98.5025 354.999 99.501Z" stroke="white" stroke-opacity="0.5" stroke-width="0.531561"/>
<path d="M330.313 129.111L330.313 129.108L330.313 118.136C330.313 117.433 330.874 116.871 331.578 116.871L342.358 116.871L356.402 116.871L367.193 116.871C367.887 116.871 368.458 117.434 368.458 118.136L368.458 129.118C368.458 129.813 367.895 130.384 367.193 130.384L357.933 130.384C356.947 130.384 356.136 131.182 356.136 132.18L356.136 142.578C356.136 143.281 355.575 143.843 354.871 143.843L343.889 143.843C343.195 143.843 342.624 143.28 342.624 142.578L342.624 132.18C342.624 131.195 341.826 130.384 340.827 130.384L331.578 130.384C330.874 130.384 330.304 129.812 330.313 129.111Z" stroke="white" stroke-opacity="0.5" stroke-width="0.531561"/>
<path d="M354.999 19.4159L354.999 28.6757C354.999 29.3688 354.427 29.9408 353.734 29.9408L342.762 29.9408C342.068 29.9408 341.497 29.3782 341.497 28.6757L341.497 17.885L341.497 3.84113L341.497 -6.94957C341.497 -7.64385 342.06 -8.21469 342.762 -8.21469L353.734 -8.21469C354.428 -8.21469 354.999 -7.65208 354.999 -6.94957L354.999 2.31023C354.999 3.29568 355.797 4.10691 356.795 4.10691L367.193 4.10691C367.887 4.10691 368.458 4.66951 368.458 5.37202L368.458 16.3541C368.458 17.0484 367.895 17.6192 367.193 17.6192L356.795 17.6192C355.81 17.6192 354.999 18.4174 354.999 19.4159Z" stroke="white" stroke-opacity="0.5" stroke-width="0.531561"/>
<path d="M330.313 49.0174L330.313 49.014L330.313 38.0426C330.313 37.3389 330.874 36.7775 331.578 36.7775L342.358 36.7775L356.402 36.7775L367.193 36.7775C367.887 36.7775 368.458 37.3401 368.458 38.0426L368.458 49.0247C368.458 49.719 367.895 50.2898 367.193 50.2898L357.933 50.2898C356.947 50.2898 356.136 51.088 356.136 52.0865L356.136 62.4838C356.136 63.1781 355.574 63.7489 354.871 63.7489L343.889 63.7489C343.195 63.7489 342.624 63.1863 342.624 62.4838L342.624 52.0865C342.624 51.101 341.826 50.2898 340.827 50.2898L331.578 50.2898C330.874 50.2898 330.304 49.7179 330.313 49.0174Z" stroke="white" stroke-opacity="0.5" stroke-width="0.531561"/>
<path d="M215.399 36.1299V26.8701C215.399 26.1688 215.969 25.6041 216.666 25.5943H227.635C228.33 25.5943 228.9 26.157 228.9 26.8595V37.6502V51.694V62.4847C228.9 63.1884 228.339 63.7498 227.635 63.7498H216.664C215.97 63.7498 215.399 63.1872 215.399 62.4847V53.2249C215.399 52.2395 214.601 51.4282 213.602 51.4282H203.205C202.51 51.4282 201.94 50.8656 201.94 50.1631V39.1917C201.94 38.4974 202.502 37.9266 203.205 37.9266H213.602C214.588 37.9266 215.399 37.1284 215.399 36.1299Z" stroke="white" stroke-opacity="0.5" stroke-width="0.531561"/>
<path d="M240.084 6.51778V6.5211V17.4925C240.084 18.1963 239.523 18.7577 238.819 18.7577H228.039H213.995H203.205C202.51 18.7577 201.94 18.195 201.94 17.4925V6.5211C201.94 5.82682 202.502 5.25598 203.205 5.25598H212.465C213.451 5.25598 214.261 4.44595 214.261 3.4593V-6.93804C214.261 -7.64175 214.823 -8.20316 215.526 -8.20316H226.508C227.203 -8.20316 227.773 -7.64055 227.773 -6.93804V3.4593C227.773 4.44475 228.572 5.25598 229.57 5.25598H238.819C239.526 5.25598 240.093 5.81969 240.084 6.51778Z" stroke="white" stroke-opacity="0.5" stroke-width="0.531561"/>
<path d="M215.399 116.224V106.964C215.399 106.262 215.969 105.698 216.666 105.688H227.635C228.33 105.688 228.9 106.251 228.9 106.953V117.744V131.788V142.578C228.9 143.282 228.339 143.844 227.635 143.844H216.664C215.97 143.844 215.399 143.281 215.399 142.578V133.319C215.399 132.333 214.601 131.522 213.602 131.522H203.205C202.51 131.522 201.94 130.959 201.94 130.257V119.285C201.94 118.591 202.502 118.02 203.205 118.02H213.602C214.588 118.02 215.399 117.222 215.399 116.224Z" stroke="white" stroke-opacity="0.5" stroke-width="0.531561"/>
<path d="M223.978 86.6388H233.238C233.932 86.6388 234.503 87.2014 234.503 87.9039V98.8754C234.503 99.5791 233.942 100.14 233.238 100.14H222.447H208.404H197.613C196.919 100.14 196.348 99.5779 196.348 98.8754V87.9039C196.348 87.2096 196.91 86.6388 197.613 86.6388H206.873C207.859 86.6388 208.669 85.8288 208.669 84.8421V74.4448C208.669 73.7411 209.231 73.1797 209.935 73.1797H220.917C221.611 73.1797 222.182 73.7423 222.182 74.4448V84.8421C222.182 85.8276 222.98 86.6388 223.978 86.6388Z" stroke="white" stroke-opacity="0.5" stroke-width="0.531561"/>
<path d="M215.399 196.321V187.062C215.399 186.36 215.969 185.795 216.666 185.786H227.635C228.33 185.786 228.9 186.348 228.9 187.051V197.842V211.885V222.676C228.9 223.38 228.339 223.941 227.635 223.941H216.664C215.97 223.941 215.399 223.379 215.399 222.676V213.416C215.399 212.431 214.601 211.62 213.602 211.62H203.205C202.51 211.62 201.94 211.057 201.94 210.355V199.383C201.94 198.689 202.502 198.118 203.205 198.118H213.602C214.588 198.118 215.399 197.32 215.399 196.321Z" stroke="white" stroke-opacity="0.5" stroke-width="0.531561"/>
<path d="M240.084 166.697V166.701V177.672C240.084 178.367 239.522 178.937 238.819 178.937H228.039H213.995H203.205C202.51 178.937 201.94 178.375 201.94 177.672V166.701C201.94 166.007 202.502 165.436 203.205 165.436H212.465C213.45 165.436 214.261 164.637 214.261 163.639V153.242C214.261 152.547 214.824 151.977 215.526 151.977H226.508C227.203 151.977 227.773 152.539 227.773 153.242V163.639C227.773 164.624 228.572 165.436 229.57 165.436H238.819C239.525 165.436 240.093 166.009 240.084 166.697Z" stroke="white" stroke-opacity="0.5" stroke-width="0.531561"/>
<path d="M215.399 276.415V267.155C215.399 266.45 215.972 265.88 216.664 265.88H227.635C228.33 265.88 228.9 266.442 228.9 267.145V277.935V291.979V302.77C228.9 303.474 228.339 304.035 227.635 304.035H216.664C215.97 304.035 215.399 303.472 215.399 302.77V293.51C215.399 292.525 214.601 291.713 213.602 291.713H203.205C202.51 291.713 201.94 291.151 201.94 290.448V279.477C201.94 278.783 202.502 278.212 203.205 278.212H213.602C214.588 278.212 215.399 277.414 215.399 276.415Z" stroke="white" stroke-opacity="0.5" stroke-width="0.531561"/>
<path d="M240.084 246.803V246.806V257.778C240.084 258.481 239.523 259.043 238.819 259.043H228.039H213.995H203.205C202.51 259.043 201.94 258.48 201.94 257.778V246.796C201.94 246.101 202.502 245.531 203.205 245.531H212.465C213.45 245.531 214.261 244.732 214.261 243.734V233.337C214.261 232.633 214.823 232.071 215.526 232.071H226.508C227.203 232.071 227.773 232.634 227.773 233.337V243.734C227.773 244.719 228.572 245.531 229.57 245.531H238.819C239.524 245.531 240.093 246.102 240.084 246.803Z" stroke="white" stroke-opacity="0.5" stroke-width="0.531561"/>
<path d="M215.399 356.5V347.24C215.399 346.547 215.971 345.975 216.664 345.975H227.635C228.33 345.975 228.9 346.538 228.9 347.24V358.031V372.075V382.866C228.9 383.56 228.338 384.131 227.635 384.131H216.664C215.97 384.131 215.399 383.568 215.399 382.866V373.606C215.399 372.62 214.601 371.809 213.602 371.809H203.205C202.51 371.809 201.94 371.247 201.94 370.544V359.562C201.94 358.868 202.502 358.297 203.205 358.297H213.602C214.588 358.297 215.399 357.499 215.399 356.5Z" stroke="white" stroke-opacity="0.5" stroke-width="0.531561"/>
<path d="M240.084 326.899V326.902V337.873C240.084 338.577 239.523 339.139 238.819 339.139H228.039H213.995H203.205C202.51 339.139 201.94 338.576 201.94 337.873V326.891C201.94 326.197 202.502 325.626 203.205 325.626H212.465C213.45 325.626 214.261 324.828 214.261 323.83V313.432C214.261 312.738 214.824 312.167 215.526 312.167H226.508C227.203 312.167 227.773 312.73 227.773 313.432V323.83C227.773 324.815 228.572 325.626 229.57 325.626H238.819C239.524 325.626 240.093 326.198 240.084 326.899Z" stroke="white" stroke-opacity="0.5" stroke-width="0.531561"/>
<path d="M304.436 26.8701V36.1299C304.436 36.9804 303.745 37.6608 302.905 37.6608H292.507C291.657 37.6608 290.977 38.3518 290.977 39.1917V50.1631C290.977 51.0136 291.668 51.694 292.507 51.694H302.905C303.755 51.694 304.436 52.385 304.436 53.2249V62.4847C304.436 63.3352 305.127 64.0156 305.967 64.0156H316.938C317.789 64.0156 318.469 63.3352 318.469 62.4847V51.694V37.6502V26.8595C318.469 26.009 317.778 25.3286 316.938 25.3286H305.967C305.127 25.3392 304.436 26.0196 304.436 26.8701Z" fill="#FF0000"/>
<path d="M329.387 6.51778V6.5211V17.4925C329.387 18.1963 328.826 18.7577 328.122 18.7577H317.342H303.298H292.507C291.813 18.7577 291.242 18.195 291.242 17.4925V6.5211C291.242 5.82682 291.805 5.25598 292.507 5.25598H301.767C302.754 5.25598 303.564 4.44595 303.564 3.4593V-6.93804C303.564 -7.64175 304.125 -8.20316 304.829 -8.20316H315.811C316.505 -8.20316 317.076 -7.64055 317.076 -6.93804V3.4593C317.076 4.44475 317.874 5.25598 318.873 5.25598H328.122C328.829 5.25598 329.396 5.81969 329.387 6.51778Z" stroke="white" stroke-opacity="0.5" stroke-width="0.531561"/>
<path d="M304.701 116.224V106.964C304.701 106.262 305.272 105.698 305.969 105.688H316.938C317.632 105.688 318.203 106.251 318.203 106.953V117.744V131.788V142.578C318.203 143.282 317.642 143.844 316.938 143.844H305.967C305.272 143.844 304.701 143.281 304.701 142.578V133.319C304.701 132.333 303.903 131.522 302.905 131.522H292.507C291.813 131.522 291.242 130.959 291.242 130.257V119.285C291.242 118.591 291.805 118.02 292.507 118.02H302.905C303.89 118.02 304.701 117.222 304.701 116.224Z" stroke="white" stroke-opacity="0.5" stroke-width="0.531561"/>
<path d="M313.281 86.6388H322.541C323.235 86.6388 323.806 87.2014 323.806 87.9039V98.8754C323.806 99.5791 323.245 100.14 322.541 100.14H311.75H297.706H286.916C286.221 100.14 285.651 99.5779 285.651 98.8754V87.9039C285.651 87.2096 286.213 86.6388 286.916 86.6388H296.175C297.162 86.6388 297.972 85.8288 297.972 84.8421V74.4448C297.972 73.7411 298.534 73.1797 299.237 73.1797H310.219C310.914 73.1797 311.484 73.7423 311.484 74.4448V84.8421C311.484 85.8276 312.283 86.6388 313.281 86.6388Z" stroke="white" stroke-opacity="0.5" stroke-width="0.531561"/>
<path d="M304.701 196.321V187.062C304.701 186.36 305.271 185.795 305.968 185.786H316.938C317.632 185.786 318.203 186.348 318.203 187.051V197.842V211.885V222.676C318.203 223.38 317.642 223.941 316.938 223.941H305.967C305.272 223.941 304.701 223.379 304.701 222.676V213.416C304.701 212.431 303.903 211.62 302.905 211.62H292.507C291.813 211.62 291.242 211.057 291.242 210.355V199.383C291.242 198.689 291.805 198.118 292.507 198.118H302.905C303.89 198.118 304.701 197.32 304.701 196.321Z" stroke="white" stroke-opacity="0.5" stroke-width="0.531561"/>
<path d="M329.387 166.697V166.701V177.672C329.387 178.367 328.825 178.937 328.122 178.937H317.342H303.298H292.507C291.813 178.937 291.242 178.375 291.242 177.672V166.701C291.242 166.007 291.805 165.436 292.507 165.436H301.767C302.753 165.436 303.564 164.637 303.564 163.639V153.242C303.564 152.547 304.127 151.977 304.829 151.977H315.811C316.505 151.977 317.076 152.539 317.076 153.242V163.639C317.076 164.624 317.874 165.436 318.873 165.436H328.122C328.828 165.436 329.396 166.009 329.387 166.697Z" stroke="white" stroke-opacity="0.5" stroke-width="0.531561"/>
<path d="M304.701 276.415V267.155C304.701 266.45 305.275 265.88 305.967 265.88H316.938C317.632 265.88 318.203 266.442 318.203 267.145V277.935V291.979V302.77C318.203 303.474 317.642 304.035 316.938 304.035H305.967C305.272 304.035 304.701 303.472 304.701 302.77V293.51C304.701 292.525 303.903 291.713 302.905 291.713H292.507C291.813 291.713 291.242 291.151 291.242 290.448V279.477C291.242 278.783 291.805 278.212 292.507 278.212H302.905C303.89 278.212 304.701 277.414 304.701 276.415Z" stroke="white" stroke-opacity="0.5" stroke-width="0.531561"/>
<path d="M329.387 246.803V246.806V257.778C329.387 258.481 328.826 259.043 328.122 259.043H317.342H303.298H292.507C291.813 259.043 291.242 258.48 291.242 257.778V246.796C291.242 246.101 291.805 245.531 292.507 245.531H301.767C302.753 245.531 303.564 244.732 303.564 243.734V233.337C303.564 232.633 304.125 232.071 304.829 232.071H315.811C316.505 232.071 317.076 232.634 317.076 233.337V243.734C317.076 244.719 317.874 245.531 318.873 245.531H328.122C328.826 245.531 329.396 246.102 329.387 246.803Z" stroke="white" stroke-opacity="0.5" stroke-width="0.531561"/>
<path d="M304.701 356.5V347.24C304.701 346.547 305.274 345.975 305.967 345.975H316.938C317.632 345.975 318.203 346.538 318.203 347.24V358.031V372.075V382.866C318.203 383.56 317.641 384.131 316.938 384.131H305.967C305.272 384.131 304.701 383.568 304.701 382.866V373.606C304.701 372.62 303.903 371.809 302.905 371.809H292.507C291.813 371.809 291.242 371.247 291.242 370.544V359.562C291.242 358.868 291.805 358.297 292.507 358.297H302.905C303.89 358.297 304.701 357.499 304.701 356.5Z" stroke="white" stroke-opacity="0.5" stroke-width="0.531561"/>
<path d="M329.387 326.899V326.902V337.873C329.387 338.577 328.826 339.139 328.122 339.139H317.342H303.298H292.507C291.813 339.139 291.242 338.576 291.242 337.873V326.891C291.242 326.197 291.805 325.626 292.507 325.626H301.767C302.753 325.626 303.564 324.828 303.564 323.83V313.432C303.564 312.738 304.127 312.167 304.829 312.167H315.811C316.505 312.167 317.076 312.73 317.076 313.432V323.83C317.076 324.815 317.874 325.626 318.873 325.626H328.122C328.826 325.626 329.396 326.198 329.387 326.899Z" stroke="white" stroke-opacity="0.5" stroke-width="0.531561"/>
<path d="M176.394 339.788L176.394 349.048C176.394 349.749 175.824 350.314 175.127 350.324L164.158 350.324C163.463 350.324 162.893 349.761 162.893 349.059L162.893 338.268L162.893 324.224L162.893 313.433C162.893 312.73 163.454 312.168 164.158 312.168L175.129 312.168C175.823 312.168 176.394 312.731 176.394 313.433L176.394 322.693C176.394 323.679 177.192 324.49 178.191 324.49L188.588 324.49C189.283 324.49 189.853 325.052 189.853 325.755L189.853 336.726C189.853 337.421 189.291 337.991 188.588 337.991L178.191 337.991C177.205 337.991 176.394 338.79 176.394 339.788Z" stroke="white" stroke-opacity="0.5" stroke-width="0.531561"/>
<path d="M151.709 369.398L151.709 369.395L151.709 358.423C151.709 357.72 152.27 357.158 152.974 357.158L163.754 357.158L177.798 357.158L188.588 357.158C189.283 357.158 189.853 357.721 189.853 358.423L189.853 369.395C189.853 370.089 189.291 370.66 188.588 370.66L179.328 370.66C178.342 370.66 177.532 371.47 177.532 372.457L177.532 382.854C177.532 383.558 176.97 384.119 176.267 384.119L165.285 384.119C164.59 384.119 164.019 383.557 164.019 382.854L164.019 372.457C164.019 371.471 163.221 370.66 162.223 370.66L152.974 370.66C152.267 370.66 151.7 370.096 151.709 369.398Z" stroke="white" stroke-opacity="0.5" stroke-width="0.531561"/>
<path d="M176.394 259.69L176.394 268.95C176.394 269.652 175.824 270.216 175.127 270.226L164.158 270.226C163.463 270.226 162.893 269.663 162.893 268.961L162.893 258.17L162.893 244.126L162.893 233.336C162.893 232.632 163.454 232.07 164.158 232.07L175.129 232.07C175.823 232.07 176.394 232.633 176.394 233.336L176.394 242.595C176.394 243.581 177.192 244.392 178.191 244.392L188.588 244.392C189.283 244.392 189.853 244.955 189.853 245.657L189.853 256.629C189.853 257.323 189.291 257.894 188.588 257.894L178.191 257.894C177.205 257.894 176.394 258.692 176.394 259.69Z" stroke="white" stroke-opacity="0.5" stroke-width="0.531561"/>
<path d="M167.815 289.279L158.555 289.279C157.861 289.279 157.29 288.717 157.29 288.014L157.29 277.043C157.29 276.339 157.851 275.778 158.555 275.778L169.345 275.778L183.389 275.778L194.18 275.777C194.874 275.777 195.445 276.34 195.445 277.043L195.445 288.014C195.445 288.708 194.883 289.279 194.18 289.279L184.92 289.279C183.934 289.279 183.124 290.089 183.124 291.076L183.124 301.473C183.124 302.177 182.562 302.738 181.858 302.738L170.876 302.738C170.182 302.738 169.611 302.176 169.611 301.473L169.611 291.076C169.611 290.09 168.813 289.279 167.815 289.279Z" stroke="white" stroke-opacity="0.5" stroke-width="0.531561"/>
<path d="M176.393 179.597L176.393 188.856C176.393 189.558 175.823 190.122 175.126 190.132L164.157 190.132C163.462 190.132 162.892 189.57 162.892 188.867L162.892 178.076L162.892 164.033L162.892 153.242C162.892 152.538 163.453 151.977 164.157 151.977L175.128 151.977C175.822 151.977 176.393 152.539 176.393 153.242L176.393 162.502C176.393 163.487 177.191 164.298 178.19 164.298L188.587 164.298C189.282 164.298 189.852 164.861 189.852 165.563L189.852 176.535C189.852 177.229 189.29 177.8 188.587 177.8L178.19 177.8C177.204 177.8 176.393 178.598 176.393 179.597Z" stroke="white" stroke-opacity="0.5" stroke-width="0.531561"/>
<path d="M151.708 209.221L151.708 209.217L151.708 198.246C151.708 197.551 152.27 196.981 152.973 196.981L163.753 196.981L177.797 196.981L188.587 196.981C189.282 196.981 189.852 197.543 189.852 198.246L189.852 209.217C189.852 209.911 189.29 210.482 188.587 210.482L179.327 210.482C178.342 210.482 177.531 211.28 177.531 212.279L177.531 222.676C177.531 223.371 176.968 223.941 176.266 223.941L165.284 223.941C164.589 223.941 164.019 223.379 164.019 222.676L164.019 212.279C164.019 211.294 163.22 210.482 162.222 210.482L152.973 210.482C152.267 210.482 151.699 209.909 151.708 209.221Z" stroke="white" stroke-opacity="0.5" stroke-width="0.531561"/>
<path d="M176.394 99.501L176.394 108.761C176.394 109.466 175.821 110.037 175.129 110.037L164.158 110.037C163.463 110.037 162.893 109.474 162.893 108.771L162.893 97.9807L162.893 83.9368L162.893 73.1461C162.893 72.4424 163.454 71.881 164.158 71.881L175.129 71.881C175.823 71.881 176.394 72.4436 176.394 73.1461L176.394 82.4059C176.394 83.3914 177.192 84.2026 178.191 84.2026L188.588 84.2026C189.283 84.2026 189.853 84.7652 189.853 85.4677L189.853 96.4392C189.853 97.1334 189.291 97.7043 188.588 97.7043L178.191 97.7043C177.205 97.7043 176.394 98.5025 176.394 99.501Z" stroke="white" stroke-opacity="0.5" stroke-width="0.531561"/>
<path d="M151.709 129.111L151.709 129.108L151.709 118.136C151.709 117.433 152.27 116.871 152.974 116.871L163.754 116.871L177.798 116.871L188.588 116.871C189.283 116.871 189.853 117.434 189.853 118.136L189.853 129.118C189.853 129.813 189.291 130.384 188.588 130.384L179.328 130.384C178.343 130.384 177.532 131.182 177.532 132.18L177.532 142.578C177.532 143.281 176.97 143.843 176.267 143.843L165.285 143.843C164.59 143.843 164.019 143.28 164.019 142.578L164.019 132.18C164.019 131.195 163.221 130.384 162.223 130.384L152.974 130.384C152.269 130.384 151.7 129.812 151.709 129.111Z" stroke="white" stroke-opacity="0.5" stroke-width="0.531561"/>
<path d="M176.393 19.4159L176.393 28.6757C176.393 29.3688 175.821 29.9408 175.128 29.9408L164.157 29.9408C163.462 29.9408 162.892 29.3782 162.892 28.6757L162.892 17.885L162.892 3.84113L162.892 -6.94957C162.892 -7.64385 163.454 -8.21469 164.157 -8.21469L175.128 -8.21469C175.822 -8.21469 176.393 -7.65208 176.393 -6.94957L176.393 2.31023C176.393 3.29568 177.191 4.10691 178.19 4.10691L188.587 4.10691C189.282 4.10691 189.852 4.66951 189.852 5.37202L189.852 16.3541C189.852 17.0484 189.29 17.6192 188.587 17.6192L178.19 17.6192C177.204 17.6192 176.393 18.4174 176.393 19.4159Z" stroke="white" stroke-opacity="0.5" stroke-width="0.531561"/>
<path d="M151.708 49.0174L151.708 49.014L151.708 38.0426C151.708 37.3389 152.269 36.7775 152.973 36.7775L163.753 36.7775L177.797 36.7775L188.587 36.7775C189.282 36.7775 189.852 37.3401 189.852 38.0426L189.852 49.0247C189.852 49.719 189.29 50.2898 188.587 50.2898L179.327 50.2898C178.342 50.2898 177.531 51.088 177.531 52.0865L177.531 62.4838C177.531 63.1781 176.968 63.7489 176.266 63.7489L165.284 63.7489C164.589 63.7489 164.019 63.1863 164.019 62.4838L164.019 52.0865C164.019 51.101 163.22 50.2898 162.222 50.2898L152.973 50.2898C152.268 50.2898 151.699 49.7179 151.708 49.0174Z" stroke="white" stroke-opacity="0.5" stroke-width="0.531561"/>
<path d="M265.697 339.788L265.697 349.048C265.697 349.749 265.127 350.314 264.43 350.324L253.46 350.324C252.766 350.324 252.195 349.761 252.195 349.059L252.195 338.268L252.195 324.224L252.195 313.433C252.195 312.73 252.757 312.168 253.46 312.168L264.432 312.168C265.126 312.168 265.697 312.731 265.697 313.433L265.697 322.693C265.697 323.679 266.495 324.49 267.494 324.49L277.891 324.49C278.585 324.49 279.156 325.052 279.156 325.755L279.156 336.726C279.156 337.421 278.593 337.991 277.891 337.991L267.494 337.991C266.508 337.991 265.697 338.79 265.697 339.788Z" stroke="white" stroke-opacity="0.5" stroke-width="0.531561"/>
<path d="M241.011 369.4L241.011 369.397L241.011 358.425C241.011 357.722 241.573 357.16 242.276 357.16L253.056 357.16L267.1 357.16L277.891 357.16C278.585 357.16 279.156 357.723 279.156 358.425L279.156 369.397C279.156 370.091 278.593 370.662 277.891 370.662L268.631 370.662C267.645 370.662 266.835 371.472 266.835 372.459L266.835 382.856C266.835 383.56 266.273 384.121 265.569 384.121L254.587 384.121C253.893 384.121 253.322 383.559 253.322 382.856L253.322 372.459C253.322 371.473 252.524 370.662 251.526 370.662L242.276 370.662C241.57 370.662 241.003 370.098 241.011 369.4Z" stroke="white" stroke-opacity="0.5" stroke-width="0.531561"/>
<path d="M265.697 259.692L265.697 268.952C265.697 269.654 265.127 270.218 264.43 270.228L253.46 270.228C252.766 270.228 252.195 269.665 252.195 268.963L252.195 258.172L252.195 244.128L252.195 233.338C252.195 232.634 252.757 232.072 253.46 232.072L264.432 232.072C265.126 232.072 265.697 232.635 265.697 233.338L265.697 242.597C265.697 243.583 266.495 244.394 267.494 244.394L277.891 244.394C278.585 244.394 279.156 244.957 279.156 245.659L279.156 256.631C279.156 257.325 278.593 257.896 277.891 257.896L267.494 257.896C266.508 257.896 265.697 258.694 265.697 259.692Z" stroke="white" stroke-opacity="0.5" stroke-width="0.531561"/>
<path d="M247.858 289.545L257.117 289.545C257.968 289.545 258.648 290.236 258.648 291.076L258.648 301.473C258.648 302.324 259.339 303.004 260.179 303.004L271.161 303.004C272.012 303.004 272.692 302.324 272.692 301.473L272.692 291.076C272.692 290.236 273.383 289.545 274.223 289.545L283.483 289.545C284.333 289.545 285.014 288.854 285.014 288.014L285.014 277.043C285.014 276.192 284.323 275.512 283.483 275.512L272.692 275.512L258.648 275.512L247.858 275.512C247.007 275.512 246.327 276.192 246.327 277.043L246.327 288.014C246.327 288.865 247.018 289.545 247.858 289.545Z" fill="#32F991"/>
<path d="M257.117 289.279L247.858 289.279C247.163 289.279 246.592 288.717 246.592 288.014L246.592 277.043C246.592 276.339 247.154 275.778 247.858 275.778L258.648 275.778L272.692 275.778L283.483 275.777C284.177 275.777 284.748 276.34 284.748 277.043L284.748 288.014C284.748 288.708 284.185 289.279 283.483 289.279L274.223 289.279C273.236 289.279 272.426 290.089 272.426 291.076L272.426 301.473C272.426 302.177 271.865 302.738 271.161 302.738L260.179 302.738C259.485 302.738 258.914 302.176 258.914 301.473L258.914 291.076C258.914 290.09 258.116 289.279 257.117 289.279Z" stroke="white" stroke-opacity="0.5" stroke-width="0.531561"/>
<path d="M265.696 179.599L265.696 188.858C265.696 189.56 265.126 190.124 264.429 190.134L253.459 190.134C252.765 190.134 252.194 189.572 252.194 188.869L252.194 178.078L252.194 164.034L252.194 153.244C252.194 152.54 252.756 151.979 253.459 151.979L264.431 151.979C265.125 151.979 265.696 152.541 265.696 153.244L265.696 162.504C265.696 163.489 266.494 164.3 267.493 164.3L277.89 164.3C278.584 164.3 279.155 164.863 279.155 165.565L279.155 176.537C279.155 177.231 278.593 177.802 277.89 177.802L267.493 177.802C266.507 177.802 265.696 178.6 265.696 179.599Z" stroke="white" stroke-opacity="0.5" stroke-width="0.531561"/>
<path d="M241.01 209.221L241.01 209.217L241.01 198.246C241.01 197.551 241.573 196.981 242.275 196.981L253.055 196.981L267.099 196.981L277.89 196.981C278.584 196.981 279.155 197.543 279.155 198.246L279.155 209.217C279.155 209.911 278.593 210.482 277.89 210.482L268.63 210.482C267.645 210.482 266.834 211.28 266.834 212.279L266.834 222.676C266.834 223.371 266.271 223.941 265.568 223.941L254.586 223.941C253.892 223.941 253.321 223.379 253.321 222.676L253.321 212.279C253.321 211.294 252.523 210.482 251.525 210.482L242.275 210.482C241.57 210.482 241.002 209.909 241.01 209.221Z" stroke="white" stroke-opacity="0.5" stroke-width="0.531561"/>
<path d="M265.696 99.501L265.696 108.761C265.696 109.466 265.123 110.037 264.431 110.037L253.459 110.037C252.765 110.037 252.194 109.474 252.194 108.771L252.194 97.9807L252.194 83.9368L252.194 73.1461C252.194 72.4424 252.756 71.881 253.459 71.881L264.431 71.881C265.125 71.881 265.696 72.4436 265.696 73.1461L265.696 82.4059C265.696 83.3914 266.494 84.2026 267.493 84.2026L277.89 84.2026C278.584 84.2026 279.155 84.7652 279.155 85.4677L279.155 96.4392C279.155 97.1334 278.593 97.7043 277.89 97.7043L267.493 97.7043C266.507 97.7043 265.696 98.5025 265.696 99.501Z" stroke="white" stroke-opacity="0.5" stroke-width="0.531561"/>
<path d="M241.01 129.111L241.01 129.108L241.01 118.136C241.01 117.433 241.572 116.871 242.275 116.871L253.055 116.871L267.099 116.871L277.89 116.871C278.584 116.871 279.155 117.434 279.155 118.136L279.155 129.118C279.155 129.813 278.593 130.384 277.89 130.384L268.63 130.384C267.645 130.384 266.834 131.182 266.834 132.18L266.834 142.578C266.834 143.281 266.272 143.843 265.568 143.843L254.586 143.843C253.892 143.843 253.321 143.28 253.321 142.578L253.321 132.18C253.321 131.195 252.523 130.384 251.525 130.384L242.275 130.384C241.571 130.384 241.001 129.812 241.01 129.111Z" stroke="white" stroke-opacity="0.5" stroke-width="0.531561"/>
<path d="M265.696 19.4159L265.696 28.6757C265.696 29.3688 265.124 29.9408 264.431 29.9408L253.459 29.9408C252.765 29.9408 252.194 29.3782 252.194 28.6757L252.194 17.885L252.194 3.84113L252.194 -6.94957C252.194 -7.64385 252.757 -8.21469 253.459 -8.21469L264.431 -8.21469C265.125 -8.21469 265.696 -7.65208 265.696 -6.94957L265.696 2.31023C265.696 3.29568 266.494 4.10691 267.493 4.10691L277.89 4.10691C278.584 4.10691 279.155 4.66951 279.155 5.37202L279.155 16.3541C279.155 17.0484 278.593 17.6192 277.89 17.6192L267.493 17.6192C266.507 17.6192 265.696 18.4174 265.696 19.4159Z" stroke="white" stroke-opacity="0.5" stroke-width="0.531561"/>
<path d="M241.01 49.0174L241.01 49.014L241.01 38.0426C241.01 37.3389 241.572 36.7775 242.275 36.7775L253.055 36.7775L267.099 36.7775L277.89 36.7775C278.584 36.7775 279.155 37.3401 279.155 38.0426L279.155 49.0247C279.155 49.719 278.593 50.2898 277.89 50.2898L268.63 50.2898C267.645 50.2898 266.834 51.088 266.834 52.0865L266.834 62.4838C266.834 63.1781 266.271 63.7489 265.568 63.7489L254.586 63.7489C253.892 63.7489 253.321 63.1863 253.321 62.4838L253.321 52.0865C253.321 51.101 252.523 50.2898 251.525 50.2898L242.275 50.2898C241.571 50.2898 241.001 49.7179 241.01 49.0174Z" stroke="white" stroke-opacity="0.5" stroke-width="0.531561"/>
</g>
<g filter="url(#filter0_b_1837:34209)">
<rect width="358.272" height="640" fill="black" fill-opacity="0.2"/>
</g>
</g>
<defs>
<filter id="filter0_b_1837:34209" x="-1.06312" y="-1.06312" width="360.399" height="642.126" filterUnits="userSpaceOnUse" color-interpolation-filters="sRGB">
<feFlood flood-opacity="0" result="BackgroundImageFix"/>
<feGaussianBlur in="BackgroundImage" stdDeviation="0.531561"/>
<feComposite in2="SourceAlpha" operator="in" result="effect1_backgroundBlur_1837:34209"/>
<feBlend mode="normal" in="SourceGraphic" in2="effect1_backgroundBlur_1837:34209" result="shape"/>
</filter>
<clipPath id="clip0_1837:34209">
<rect width="358.272" height="640" fill="white"/>
</clipPath>
</defs>
</svg>
