<svg width="40" height="41" viewBox="0 0 40 41" fill="none" xmlns="http://www.w3.org/2000/svg">
<rect x="0.25" y="0.625" width="39.75" height="39.7501" rx="19.875" fill="#C4C4C4"/>
<path d="M29.5 13.9542V14.25H23.25V8H23.5458C23.8566 8 24.1547 8.12346 24.3745 8.34321L29.1567 13.1255C29.3765 13.3453 29.5 13.6433 29.5 13.9542ZM22.8594 15.8125C22.2148 15.8125 21.6875 15.2852 21.6875 14.6406V8H11.9219C11.2747 8 10.75 8.52466 10.75 9.17188V31.8281C10.75 32.4753 11.2747 33 11.9219 33H28.3281C28.9753 33 29.5 32.4753 29.5 31.8281V15.8125H22.8594ZM16.2454 16.5938C17.5398 16.5938 18.5891 17.6431 18.5891 18.9375C18.5891 20.2319 17.5398 21.2812 16.2454 21.2812C14.9509 21.2812 13.9016 20.2319 13.9016 18.9375C13.9016 17.6431 14.951 16.5938 16.2454 16.5938ZM26.4016 28.3125H13.9016L13.9253 25.9451L15.8547 24.0156C16.0835 23.7868 16.4309 23.8105 16.6597 24.0393L18.5891 25.9688L23.6436 20.9143C23.8724 20.6855 24.2434 20.6855 24.4722 20.9143L26.4016 22.8438V28.3125Z" fill="black"/>
</svg>
