<svg width="41" height="41" viewBox="0 0 41 41" fill="none" xmlns="http://www.w3.org/2000/svg">
<rect x="0.416992" y="0.625" width="39.75" height="39.7501" rx="19.875" fill="#32F991"/>
<path d="M27.0577 13.6487C25.2505 11.8372 22.8438 10.8408 20.2861 10.8408C15.0068 10.8408 10.7109 15.1367 10.7109 20.416C10.7109 22.1025 11.1508 23.7501 11.9876 25.2036L10.6289 30.1638L15.7055 28.831C17.103 29.5944 18.6773 29.9956 20.2818 29.9956H20.2861C25.5611 29.9956 29.9519 25.6997 29.9519 20.4203C29.9519 17.8626 28.8649 15.4602 27.0577 13.6487ZM20.2861 28.3824C18.8541 28.3824 17.4523 27.9986 16.2317 27.274L15.9427 27.1014L12.9321 27.8907L13.7344 24.9535L13.5446 24.6516C12.7467 23.3835 12.3283 21.9213 12.3283 20.416C12.3283 16.0295 15.8996 12.4583 20.2904 12.4583C22.4168 12.4583 24.4138 13.2864 25.9147 14.7917C27.4157 16.297 28.3387 18.294 28.3344 20.4203C28.3344 24.8111 24.6725 28.3824 20.2861 28.3824ZM24.651 22.4216C24.4138 22.3009 23.2363 21.7229 23.0163 21.6453C22.7963 21.5633 22.6367 21.5245 22.4772 21.766C22.3176 22.0076 21.8604 22.5424 21.718 22.7063C21.58 22.8659 21.4377 22.8875 21.2005 22.7667C19.7944 22.0637 18.8714 21.5116 17.944 19.92C17.6982 19.4973 18.1899 19.5275 18.6471 18.6131C18.7247 18.4535 18.6859 18.3155 18.6255 18.1948C18.5651 18.074 18.0864 16.8965 17.888 16.4177C17.6939 15.9519 17.4955 16.0166 17.3488 16.008C17.2108 15.9994 17.0512 15.9994 16.8916 15.9994C16.732 15.9994 16.4732 16.0597 16.2533 16.297C16.0333 16.5385 15.4165 17.1165 15.4165 18.294C15.4165 19.4714 16.2748 20.6101 16.3913 20.7697C16.5121 20.9293 18.0777 23.3447 20.4802 24.3841C21.9984 25.0397 22.5936 25.0958 23.3527 24.9837C23.8142 24.9147 24.7674 24.4057 24.9658 23.845C25.1642 23.2843 25.1642 22.8055 25.1039 22.7063C25.0478 22.5985 24.8882 22.5381 24.651 22.4216Z" fill="black"/>
</svg>
