<svg width="18" height="18" viewBox="0 0 18 18" fill="none" xmlns="http://www.w3.org/2000/svg">
<path d="M6.60042 2.96157V0.550481C6.60042 0.356162 6.44445 0.200195 6.25013 0.200195H3.83904C3.64472 0.200195 3.48876 0.356162 3.48876 0.550481V2.96157C3.48876 3.15589 3.33279 3.31185 3.13847 3.31185H0.724828C0.530509 3.31185 0.374542 3.47038 0.374542 3.66214V6.07323C0.374542 6.26755 0.530509 6.42351 0.724828 6.42351H3.4862H6.59786H9.35923C9.55355 6.42351 9.70952 6.26755 9.70952 6.07323V3.66214C9.70952 3.46782 9.55355 3.31185 9.35923 3.31185H6.94814C6.75638 3.31185 6.60042 3.15589 6.60042 2.96157Z" fill="current"/>
<path d="M14.6569 6.42607H17.0679C17.2623 6.42607 17.4182 6.2701 17.4182 6.07578V3.6647C17.4182 3.47038 17.2623 3.31441 17.0679 3.31441H14.6569C14.4625 3.31441 14.3066 3.15844 14.3066 2.96413V0.550481C14.3066 0.356162 14.1506 0.200195 13.9563 0.200195H11.5452C11.3509 0.200195 11.1949 0.356162 11.1949 0.550481V3.31185V6.42351V9.18488C11.1949 9.3792 11.3509 9.53517 11.5452 9.53517H13.9563C14.1506 9.53517 14.3066 9.3792 14.3066 9.18488V6.7738C14.3066 6.58203 14.4625 6.42607 14.6569 6.42607Z" fill="current"/>
<path d="M11.1924 14.4825V16.8935C11.1924 17.0879 11.3483 17.2438 11.5427 17.2438H13.9538C14.1481 17.2438 14.304 17.0879 14.304 16.8935V14.4825C14.304 14.2881 14.46 14.1322 14.6543 14.1322H17.0654C17.2597 14.1322 17.4157 13.9762 17.4157 13.7819V11.3708C17.4157 11.1765 17.2597 11.0205 17.0654 11.0205H14.304H11.1924H8.431C8.23669 11.0205 8.08072 11.1765 8.08072 11.3708V13.7819C8.08072 13.9762 8.23669 14.1322 8.431 14.1322H10.8421C11.0364 14.1322 11.1924 14.2881 11.1924 14.4825Z" fill="current"/>
<path d="M3.13592 11.0179H0.724828C0.530509 11.0179 0.374542 11.1764 0.374542 11.3682V13.7793C0.374542 13.9736 0.530509 14.1296 0.724828 14.1296H3.13592C3.33023 14.1296 3.4862 14.2855 3.4862 14.4799V16.8909C3.4862 17.0853 3.64217 17.2412 3.83649 17.2412H6.24757C6.44189 17.2412 6.59786 17.0853 6.59786 16.8909V14.1296V11.0179V8.25654C6.59786 8.06222 6.44189 7.90625 6.24757 7.90625H3.83649C3.64217 7.90625 3.4862 8.06222 3.4862 8.25654V10.6676C3.4862 10.8619 3.33023 11.0179 3.13592 11.0179Z" fill="current"/>
</svg>
