<svg width="125" height="17" viewBox="0 0 125 17" fill="none" xmlns="http://www.w3.org/2000/svg">
<path d="M11.3718 4.57641L7.55957 9.37557H7.06611L3.3766 4.54061V13.1699H0.625458V0.817871H3.78314L7.38315 5.56334L11.0011 0.817871H14.1229V13.1699H11.3718V4.57641Z" fill="current"/>
<path d="M18.449 9.62397C18.5717 10.4703 19.3848 11.1581 20.8141 11.1581C21.5019 11.1581 22.4556 10.9995 23.0718 10.4703L24.501 12.0581C23.5652 12.976 22.0669 13.3467 20.7604 13.3467C17.6002 13.3467 15.8717 11.493 15.8717 8.70607C15.8717 6.05975 17.6538 4.20605 20.4945 4.20605C23.4578 4.20605 25.401 6.05975 24.8539 9.62397H18.449ZM22.5783 7.77027C22.5246 6.81657 21.5556 6.3768 20.497 6.3768C19.4743 6.3768 18.697 6.90606 18.449 7.77027H22.5783Z" fill="current"/>
<path d="M37.6508 13.1521H34.5979L31.4377 9.09439H29.4433V13.1546H26.6896V0.800049H32.5499C35.5311 0.800049 37.1215 2.79437 37.1215 4.96512C37.1036 6.57081 36.628 8.00007 34.263 8.84638L37.6508 12.9399V13.1521V13.1521ZM29.4433 3.16511V6.76513H32.5831C33.8539 6.76513 34.401 5.81143 34.401 5.03671C34.3831 4.1904 33.836 3.16511 32.5473 3.16511H29.4433Z" fill="current"/>
<path d="M40.8443 9.62397C40.967 10.4703 41.7801 11.1581 43.2094 11.1581C43.8972 11.1581 44.8509 10.9995 45.467 10.4703L46.8963 12.0581C45.9605 12.976 44.4622 13.3467 43.1557 13.3467C39.9954 13.3467 38.267 11.493 38.267 8.70607C38.267 6.05975 40.0491 4.20605 42.8898 4.20605C45.8531 4.20605 47.7963 6.05975 47.2492 9.62397H40.8443ZM44.9761 7.77027C44.9224 6.81657 43.9534 6.3768 42.8949 6.3768C41.8722 6.3768 41.0949 6.90606 40.8469 7.77027H44.9761Z" fill="current"/>
<path d="M48.9469 16.9999V4.451H51.2224L51.381 5.56322C52.1915 4.52259 53.181 4.29248 54.2753 4.29248C56.8347 4.29248 58.581 6.09249 58.581 8.81039C58.581 11.6331 56.7989 13.3462 54.2395 13.3462C53.3216 13.3462 52.2452 13.0292 51.5037 12.1113V16.9999H48.9469ZM56.0216 8.81039C56.0216 7.55755 55.2443 6.57061 53.8867 6.57061C52.7386 6.57061 51.5395 7.15357 51.5395 8.81039C51.5395 10.2755 52.7207 11.0527 53.8867 11.0527C55.1932 11.0527 56.0216 10.1169 56.0216 8.81039Z" fill="current"/>
<path d="M62.6054 4.45087L62.7997 5.40457C63.3827 4.59405 64.1599 4.24121 65.129 4.24121C65.9574 4.24121 66.6477 4.48667 67.2639 5.03638L66.2054 7.04861C65.781 6.74946 65.3412 6.60628 64.8094 6.60628C63.715 6.60628 62.7792 7.31196 62.7792 8.6185V13.1543H60.2378V4.45087H62.6054Z" fill="current"/>
<path d="M70.1071 9.62397C70.2298 10.4703 71.0429 11.1581 72.4721 11.1581C73.1599 11.1581 74.1136 10.9995 74.7298 10.4703L76.1591 12.0581C75.2233 12.976 73.725 13.3467 72.4184 13.3467C69.2582 13.3467 67.5298 11.493 67.5298 8.70607C67.5298 6.05975 69.3119 4.20605 72.1525 4.20605C75.1159 4.20605 77.0591 6.05975 76.5119 9.62397H70.1071ZM74.2363 7.77027C74.1827 6.81657 73.2136 6.3768 72.1551 6.3768C71.1324 6.3768 70.3551 6.90606 70.1071 7.77027H74.2363Z" fill="current"/>
<path d="M83.6941 6.90541C83.0421 6.44773 82.4234 6.27131 81.6308 6.27131C80.7998 6.27131 80.3779 6.57046 80.3779 6.9949C80.3779 7.47047 80.8202 7.73638 81.6666 7.75427C83.3796 7.80797 85.443 8.15825 85.4609 10.5591C85.4788 11.9705 84.4203 13.4892 81.6487 13.4892C80.36 13.4892 79.0356 13.2412 77.5552 12.0063L78.6495 10.2063C79.7259 11.0884 80.7665 11.2827 81.6844 11.3006C82.4259 11.3185 83.0063 11.0193 82.9884 10.5591C82.9884 10.1526 82.6893 9.81763 81.5055 9.78184C79.8819 9.71025 77.8518 9.04036 77.8518 6.99234C77.8518 5.01591 79.7234 4.1875 81.6103 4.1875C82.9501 4.1875 84.0291 4.52244 84.9444 5.31762L83.6941 6.90541Z" fill="current"/>
<path d="M89.0609 9.62397C89.1836 10.4703 89.9967 11.1581 91.426 11.1581C92.1138 11.1581 93.0675 10.9995 93.6837 10.4703L95.1129 12.0581C94.1771 12.976 92.6788 13.3467 91.3723 13.3467C88.2146 13.3467 86.4836 11.493 86.4836 8.70607C86.4836 6.05975 88.2657 4.20605 91.1064 4.20605C94.0723 4.20605 96.0129 6.05975 95.4658 9.62397H89.0609ZM93.1902 7.77027C93.1365 6.81657 92.1675 6.3768 91.1089 6.3768C90.0862 6.3768 89.3089 6.90606 89.0609 7.77027H93.1902Z" fill="current"/>
<path d="M103.443 13.1521V8.54728C103.443 7.20495 102.86 6.51716 101.643 6.51716C100.462 6.49926 99.6665 7.52455 99.6665 8.65211V13.1521H97.1608V4.43335H99.4543L99.5412 5.54557C100.318 4.54073 101.305 4.20323 102.364 4.22113C104.322 4.22113 106 5.13903 106 8.52683V13.1496H103.443V13.1521Z" fill="current"/>
<path d="M111.492 2.05298V4.48708H113.699V6.60413H111.474V9.8871C111.474 10.805 111.985 11.0505 112.464 11.0505C112.763 11.0505 113.241 10.9789 113.522 10.8382L114.105 12.9553C113.471 13.2033 112.957 13.3081 112.269 13.3439C110.382 13.4309 108.951 12.6024 108.951 9.88454V6.60669H107.396V4.48963H108.951V2.33679L111.492 2.05298Z" fill="current"/>
<path d="M122.169 4.4356H124.552V13.1544H122.259L122.118 12.0601C121.535 12.978 120.282 13.3308 119.436 13.3487C116.823 13.3666 114.936 11.6714 114.936 8.79499C114.936 5.90066 116.93 4.20548 119.508 4.24128C120.602 4.24128 121.625 4.66571 122.085 5.44043L122.169 4.4356ZM117.475 8.79243C117.475 10.2396 118.498 11.0859 119.768 11.0859C121.198 11.0859 122.08 9.97368 122.08 8.87936C122.08 7.62652 121.285 6.4785 119.768 6.4785C118.498 6.48106 117.475 7.34527 117.475 8.79243Z" fill="current"/>
</svg>
