<svg width="360" height="640" viewBox="0 0 360 640" fill="none" xmlns="http://www.w3.org/2000/svg">
<g clip-path="url(#clip0_1837:57898)">
<rect width="360" height="640" fill="white"/>
<rect width="360" height="640" fill="black"/>
<mask id="mask0_1837:57898" style="mask-type:alpha" maskUnits="userSpaceOnUse" x="0" y="0" width="360" height="644">
<rect width="360" height="643.086" fill="black"/>
</mask>
<g mask="url(#mask0_1837:57898)">
<path d="M36.9537 435.829V426.525C36.9537 425.811 37.5342 425.236 38.2434 425.226H49.2663C49.9733 425.226 50.5546 425.799 50.5546 426.514V437.357V451.469V462.311C50.5546 463.028 49.9829 463.6 49.2663 463.6H38.242C37.535 463.6 36.9537 463.027 36.9537 462.311V453.007C36.9537 452.026 36.1592 451.219 35.1654 451.219H24.718C24.011 451.219 23.4297 450.646 23.4297 449.93V438.906C23.4297 438.199 24.0026 437.618 24.718 437.618H35.1654C36.1463 437.618 36.9537 436.823 36.9537 435.829Z" stroke="white" stroke-opacity="0.5" stroke-width="0.5"/>
<path d="M61.7926 406.077V406.08V417.104C61.7926 417.821 61.2208 418.393 60.5043 418.393H49.6723H35.5607H24.718C24.011 418.393 23.4297 417.82 23.4297 417.104V406.08C23.4297 405.373 24.0026 404.792 24.718 404.792H34.0224C35.0044 404.792 35.8107 403.985 35.8107 403.003V392.556C35.8107 391.839 36.3824 391.268 37.099 391.268H48.134C48.841 391.268 49.4223 391.841 49.4223 392.556V403.003C49.4223 403.984 50.2167 404.792 51.2105 404.792H60.5043C61.2237 404.792 61.8015 405.366 61.7926 406.077Z" stroke="white" stroke-opacity="0.5" stroke-width="0.5"/>
<path d="M36.9537 516.312V507.007C36.9537 506.293 37.5343 505.718 38.2437 505.708H49.2663C49.9733 505.708 50.5546 506.281 50.5546 506.997V517.839V531.951V542.794C50.5546 543.51 49.9829 544.082 49.2663 544.082H38.242C37.535 544.082 36.9537 543.509 36.9537 542.794V533.489C36.9537 532.508 36.1592 531.701 35.1654 531.701H24.718C24.011 531.701 23.4297 531.128 23.4297 530.413V519.388C23.4297 518.681 24.0026 518.1 24.718 518.1H35.1654C36.1463 518.1 36.9537 517.306 36.9537 516.312Z" stroke="white" stroke-opacity="0.5" stroke-width="0.5"/>
<path d="M45.5924 486.567H54.8968C55.6038 486.567 56.1851 487.14 56.1851 487.855V498.88C56.1851 499.596 55.6134 500.168 54.8968 500.168H44.0541H29.9425H19.0998C18.3928 500.168 17.8115 499.595 17.8115 498.88V487.855C17.8115 487.148 18.3844 486.567 19.0998 486.567H28.4043C29.3862 486.567 30.1925 485.761 30.1925 484.779V474.331C30.1925 473.615 30.7643 473.043 31.4808 473.043H42.5158C43.2228 473.043 43.8041 473.616 43.8041 474.331V484.779C43.8041 485.76 44.5986 486.567 45.5924 486.567Z" stroke="white" stroke-opacity="0.5" stroke-width="0.5"/>
<path d="M36.9537 596.794V587.49C36.9537 586.776 37.5342 586.201 38.2434 586.191H49.2663C49.9733 586.191 50.5546 586.764 50.5546 587.479V598.322V612.433V623.276C50.5546 623.993 49.9829 624.564 49.2663 624.564H38.242C37.535 624.564 36.9537 623.992 36.9537 623.276V613.972C36.9537 612.991 36.1592 612.183 35.1654 612.183H24.718C24.011 612.183 23.4297 611.611 23.4297 610.895V599.871C23.4297 599.164 24.0026 598.583 24.718 598.583H35.1654C36.1463 598.583 36.9537 597.788 36.9537 596.794Z" stroke="white" stroke-opacity="0.5" stroke-width="0.5"/>
<path d="M61.7926 567.03V567.033V578.057C61.7926 578.764 61.2197 579.346 60.5043 579.346H49.6723H35.5607H24.718C24.011 579.346 23.4297 578.773 23.4297 578.057V567.033C23.4297 566.326 24.0026 565.745 24.718 565.745H34.0224C35.0033 565.745 35.8107 564.95 35.8107 563.957V553.509C35.8107 552.802 36.3836 552.221 37.099 552.221H48.134C48.841 552.221 49.4223 552.794 49.4223 553.509V563.957C49.4223 564.937 50.2168 565.745 51.2105 565.745H60.5043C61.2226 565.745 61.8015 566.328 61.7926 567.03Z" stroke="white" stroke-opacity="0.5" stroke-width="0.5"/>
<path d="M61.7926 647.522V647.525V658.55C61.7926 659.266 61.2208 659.838 60.5043 659.838H49.6723H35.5607H24.718C24.011 659.838 23.4297 659.265 23.4297 658.55V647.515C23.4297 646.808 24.0026 646.226 24.718 646.226H34.0224C35.0033 646.226 35.8107 645.432 35.8107 644.438V633.991C35.8107 633.274 36.3824 632.702 37.099 632.702H48.134C48.841 632.702 49.4223 633.275 49.4223 633.991V644.438C49.4223 645.419 50.2167 646.226 51.2105 646.226H60.5043C61.2215 646.226 61.8015 646.809 61.7926 647.522Z" stroke="white" stroke-opacity="0.5" stroke-width="0.5"/>
<path d="M126.687 435.829V426.525C126.687 425.811 127.268 425.236 127.977 425.226H139C139.707 425.226 140.288 425.799 140.288 426.514V437.357V451.469V462.311C140.288 463.028 139.716 463.6 139 463.6H127.975C127.268 463.6 126.687 463.027 126.687 462.311V453.007C126.687 452.026 125.893 451.219 124.899 451.219H114.451C113.744 451.219 113.163 450.646 113.163 449.93V438.906C113.163 438.199 113.736 437.618 114.451 437.618H124.899C125.88 437.618 126.687 436.823 126.687 435.829Z" stroke="white" stroke-opacity="0.5" stroke-width="0.5"/>
<path d="M151.526 406.077V406.08V417.104C151.526 417.821 150.954 418.393 150.238 418.393H139.406H125.294H114.451C113.744 418.393 113.163 417.82 113.163 417.104V406.08C113.163 405.373 113.736 404.792 114.451 404.792H123.756C124.738 404.792 125.544 403.985 125.544 403.003V392.556C125.544 391.839 126.116 391.268 126.832 391.268H137.867C138.574 391.268 139.156 391.841 139.156 392.556V403.003C139.156 403.984 139.95 404.792 140.944 404.792H150.238C150.957 404.792 151.535 405.366 151.526 406.077Z" stroke="white" stroke-opacity="0.5" stroke-width="0.5"/>
<path d="M126.687 516.312V507.007C126.687 506.293 127.268 505.718 127.977 505.708H139C139.707 505.708 140.288 506.281 140.288 506.997V517.839V531.951V542.794C140.288 543.51 139.716 544.082 139 544.082H127.975C127.268 544.082 126.687 543.509 126.687 542.794V533.489C126.687 532.508 125.893 531.701 124.899 531.701H114.451C113.744 531.701 113.163 531.128 113.163 530.413V519.388C113.163 518.681 113.736 518.1 114.451 518.1H124.899C125.88 518.1 126.687 517.306 126.687 516.312Z" stroke="white" stroke-opacity="0.5" stroke-width="0.5"/>
<path d="M144.629 486.317H135.325C134.47 486.317 133.787 485.623 133.787 484.779V474.331C133.787 473.477 133.092 472.793 132.248 472.793H121.213C120.359 472.793 119.675 473.477 119.675 474.331V484.779C119.675 485.623 118.981 486.317 118.137 486.317H108.832C107.978 486.317 107.294 487.011 107.294 487.855V498.88C107.294 499.734 107.988 500.418 108.832 500.418H119.675H133.787H144.629C145.484 500.418 146.168 499.734 146.168 498.88V487.855C146.168 487.001 145.473 486.317 144.629 486.317Z" fill="black"/>
<path d="M135.325 486.567H144.629C145.336 486.567 145.918 487.14 145.918 487.855V498.88C145.918 499.596 145.346 500.168 144.629 500.168H133.787H119.675H108.832C108.125 500.168 107.544 499.595 107.544 498.88V487.855C107.544 487.148 108.117 486.567 108.832 486.567H118.137C119.119 486.567 119.925 485.761 119.925 484.779V474.331C119.925 473.615 120.497 473.043 121.213 473.043H132.248C132.955 473.043 133.537 473.616 133.537 474.331V484.779C133.537 485.76 134.331 486.567 135.325 486.567Z" stroke="white" stroke-opacity="0.5" stroke-width="0.5"/>
<path d="M126.687 596.794V587.49C126.687 586.776 127.268 586.201 127.977 586.191H139C139.707 586.191 140.288 586.764 140.288 587.479V598.322V612.433V623.276C140.288 623.993 139.716 624.564 139 624.564H127.975C127.268 624.564 126.687 623.992 126.687 623.276V613.972C126.687 612.991 125.893 612.183 124.899 612.183H114.451C113.744 612.183 113.163 611.611 113.163 610.895V599.871C113.163 599.164 113.736 598.583 114.451 598.583H124.899C125.88 598.583 126.687 597.788 126.687 596.794Z" stroke="white" stroke-opacity="0.5" stroke-width="0.5"/>
<path d="M151.526 567.03V567.033V578.057C151.526 578.764 150.953 579.346 150.238 579.346H139.406H125.294H114.451C113.744 579.346 113.163 578.773 113.163 578.057V567.033C113.163 566.326 113.736 565.745 114.451 565.745H123.756C124.737 565.745 125.544 564.95 125.544 563.957V553.509C125.544 552.802 126.117 552.221 126.832 552.221H137.867C138.574 552.221 139.156 552.794 139.156 553.509V563.957C139.156 564.937 139.95 565.745 140.944 565.745H150.238C150.956 565.745 151.535 566.328 151.526 567.03Z" stroke="white" stroke-opacity="0.5" stroke-width="0.5"/>
<path d="M151.526 647.522V647.525V658.55C151.526 659.266 150.954 659.838 150.238 659.838H139.406H125.294H114.451C113.744 659.838 113.163 659.265 113.163 658.55V647.515C113.163 646.808 113.736 646.226 114.451 646.226H123.756C124.737 646.226 125.544 645.432 125.544 644.438V633.991C125.544 633.274 126.116 632.702 126.832 632.702H137.867C138.574 632.702 139.156 633.275 139.156 633.991V644.438C139.156 645.419 139.95 646.226 140.944 646.226H150.238C150.955 646.226 151.535 646.809 151.526 647.522Z" stroke="white" stroke-opacity="0.5" stroke-width="0.5"/>
<path d="M-2.2047 660.469L-2.2047 669.774C-2.2047 670.488 -2.78529 671.063 -3.49469 671.073L-14.5173 671.073C-15.2243 671.073 -15.8056 670.5 -15.8056 669.785L-15.8056 658.942L-15.8056 644.83L-15.8056 633.988C-15.8056 633.271 -15.2338 632.699 -14.5173 632.699L-3.49298 632.699C-2.786 632.699 -2.2047 633.272 -2.2047 633.988L-2.2047 643.292C-2.2047 644.273 -1.41022 645.08 -0.416419 645.08L10.0311 645.08C10.738 645.08 11.3193 645.653 11.3193 646.369L11.3193 657.393C11.3193 658.1 10.7465 658.681 10.0311 658.681L-0.416418 658.681C-1.39727 658.681 -2.2047 659.476 -2.2047 660.469Z" stroke="white" stroke-opacity="0.5" stroke-width="0.5"/>
<path d="M-1.9547 589.293L-1.9547 579.989C-1.9547 579.134 -1.26033 578.451 -0.416417 578.451L10.0311 578.451C10.8857 578.451 11.5693 577.756 11.5693 576.912L11.5693 565.888C11.5693 565.033 10.875 564.35 10.0311 564.35L-0.416419 564.35C-1.27102 564.35 -1.9547 563.655 -1.9547 562.811L-1.9547 553.507C-1.9547 552.652 -2.64906 551.969 -3.49298 551.969L-14.5173 551.969C-15.3719 551.969 -16.0556 552.652 -16.0556 553.507L-16.0556 564.35L-16.0556 578.461L-16.0556 589.304C-16.0556 590.159 -15.3612 590.842 -14.5173 590.842L-3.49298 590.842C-2.64906 590.832 -1.9547 590.148 -1.9547 589.293Z" fill="black"/>
<path d="M-2.2047 579.989L-2.2047 589.293C-2.2047 590.008 -2.78514 590.582 -3.49442 590.592L-14.5173 590.592C-15.2243 590.592 -15.8056 590.019 -15.8056 589.304L-15.8056 578.461L-15.8056 564.35L-15.8056 553.507C-15.8056 552.791 -15.2338 552.219 -14.5173 552.219L-3.49298 552.219C-2.786 552.219 -2.2047 552.792 -2.2047 553.507L-2.2047 562.811C-2.2047 563.792 -1.41022 564.6 -0.416419 564.6L10.0311 564.6C10.738 564.6 11.3193 565.173 11.3193 565.888L11.3193 576.912C11.3193 577.619 10.7465 578.201 10.0311 578.201L-0.416418 578.201C-1.39727 578.201 -2.2047 578.995 -2.2047 579.989Z" stroke="white" stroke-opacity="0.5" stroke-width="0.5"/>
<path d="M-25.7553 611.29L-16.4615 611.29C-15.6069 611.29 -14.9232 611.985 -14.9232 612.829L-14.9232 623.276C-14.9232 624.131 -14.2289 624.814 -13.385 624.814L-2.34995 624.814C-1.49535 624.814 -0.81167 624.12 -0.81167 623.276L-0.811671 612.829C-0.811671 611.974 -0.117309 611.29 0.726608 611.29L10.0311 611.29C10.8857 611.29 11.5693 610.596 11.5693 609.752L11.5693 598.728C11.5693 597.873 10.875 597.189 10.0311 597.189L-0.811673 597.189L-14.9232 597.189L-25.7553 597.189C-26.6099 597.189 -27.2936 597.884 -27.2936 598.728L-27.2936 609.752C-27.3042 610.596 -26.6099 611.29 -25.7553 611.29Z" fill="black"/>
<path d="M-27.0436 609.755L-27.0436 609.752L-27.0436 598.728C-27.0436 598.021 -26.4707 597.439 -25.7553 597.439L-14.9232 597.439L-0.811673 597.439L10.0311 597.439C10.738 597.439 11.3193 598.012 11.3193 598.728L11.3193 609.752C11.3193 610.459 10.7465 611.04 10.0311 611.04L0.726608 611.04C-0.254246 611.04 -1.06167 611.835 -1.06167 612.829L-1.06167 623.276C-1.06167 623.983 -1.63455 624.564 -2.34995 624.564L-13.385 624.564C-14.0919 624.564 -14.6732 623.991 -14.6732 623.276L-14.6732 612.829C-14.6732 611.848 -15.4677 611.04 -16.4615 611.04L-25.7553 611.04C-26.4736 611.04 -27.0525 610.457 -27.0436 609.755Z" stroke="white" stroke-opacity="0.5" stroke-width="0.5"/>
<path d="M-2.2047 499.507L-2.2047 508.811C-2.2047 509.529 -2.78825 510.11 -3.49297 510.11L-14.5173 510.11C-15.2243 510.11 -15.8056 509.537 -15.8056 508.822L-15.8056 497.979L-15.8056 483.867L-15.8056 473.025C-15.8056 472.308 -15.2338 471.736 -14.5173 471.736L-3.49298 471.736C-2.786 471.736 -2.2047 472.309 -2.2047 473.025L-2.2047 482.329C-2.2047 483.31 -1.41022 484.117 -0.416419 484.117L10.0311 484.117C10.738 484.117 11.3193 484.69 11.3193 485.406L11.3193 496.43C11.3193 497.137 10.7465 497.718 10.0311 497.718L-0.416418 497.718C-1.39727 497.718 -2.2047 498.513 -2.2047 499.507Z" stroke="white" stroke-opacity="0.5" stroke-width="0.5"/>
<path d="M-27.0436 529.261L-27.0436 529.258L-27.0436 518.234C-27.0436 517.517 -26.4718 516.945 -25.7553 516.945L-14.9232 516.945L-0.811673 516.945L10.0311 516.945C10.738 516.945 11.3193 517.518 11.3193 518.234L11.3193 529.269C11.3193 529.976 10.7465 530.557 10.0311 530.557L0.726608 530.557C-0.254248 530.557 -1.06167 531.351 -1.06167 532.345L-1.06167 542.793C-1.06167 543.509 -1.63342 544.081 -2.34995 544.081L-13.385 544.081C-14.0919 544.081 -14.6732 543.508 -14.6732 542.793L-14.6732 532.345C-14.6732 531.364 -15.4677 530.557 -16.4615 530.557L-25.7553 530.557C-26.4724 530.557 -27.0525 529.975 -27.0436 529.261Z" stroke="white" stroke-opacity="0.5" stroke-width="0.5"/>
<path d="M-2.2047 419.037L-2.2047 428.341C-2.2047 429.047 -2.78713 429.629 -3.49297 429.629L-14.5173 429.629C-15.2243 429.629 -15.8056 429.057 -15.8056 428.341L-15.8056 417.498L-15.8056 403.387L-15.8056 392.544C-15.8056 391.837 -15.2327 391.256 -14.5173 391.256L-3.49298 391.256C-2.786 391.256 -2.2047 391.829 -2.2047 392.544L-2.2047 401.849C-2.2047 402.829 -1.41022 403.637 -0.416419 403.637L10.0311 403.637C10.738 403.637 11.3193 404.21 11.3193 404.925L11.3193 415.96C11.3193 416.667 10.7465 417.248 10.0311 417.248L-0.416418 417.248C-1.39727 417.248 -2.2047 418.043 -2.2047 419.037Z" stroke="white" stroke-opacity="0.5" stroke-width="0.5"/>
<path d="M-27.0436 448.779L-27.0436 448.776L-27.0436 437.751C-27.0436 437.035 -26.4718 436.463 -25.7553 436.463L-14.9232 436.463L-0.811673 436.463L10.0311 436.463C10.738 436.463 11.3193 437.036 11.3193 437.751L11.3193 448.786C11.3193 449.493 10.7465 450.074 10.0311 450.074L0.726608 450.074C-0.254248 450.074 -1.06167 450.869 -1.06167 451.863L-1.06167 462.31C-1.06167 463.017 -1.63455 463.599 -2.34995 463.599L-13.385 463.599C-14.0919 463.599 -14.6732 463.026 -14.6732 462.31L-14.6732 451.863C-14.6732 450.882 -15.4677 450.074 -16.4615 450.074L-25.7553 450.074C-26.4724 450.074 -27.0525 449.492 -27.0436 448.779Z" stroke="white" stroke-opacity="0.5" stroke-width="0.5"/>
<path d="M87.5277 660.473L87.5277 669.778C87.5277 670.492 86.9471 671.067 86.2377 671.077L75.2151 671.077C74.5081 671.077 73.9268 670.504 73.9268 669.788L73.9268 658.946L73.9268 644.834L73.9268 633.991C73.9268 633.275 74.4986 632.703 75.2151 632.703L86.2394 632.703C86.9464 632.703 87.5277 633.276 87.5277 633.991L87.5277 643.296C87.5277 644.277 88.3222 645.084 89.316 645.084L99.7635 645.084C100.47 645.084 101.052 645.657 101.052 646.372L101.052 657.397C101.052 658.104 100.479 658.685 99.7635 658.685L89.316 658.685C88.3351 658.685 87.5277 659.479 87.5277 660.473Z" stroke="white" stroke-opacity="0.5" stroke-width="0.5"/>
<path d="M87.5277 579.991L87.5277 589.295C87.5277 590.01 86.9473 590.584 86.238 590.594L75.2151 590.594C74.5081 590.594 73.9268 590.021 73.9268 589.306L73.9268 578.463L73.9268 564.352L73.9268 553.509C73.9268 552.792 74.4986 552.221 75.2151 552.221L86.2394 552.221C86.9464 552.221 87.5277 552.794 87.5277 553.509L87.5277 562.813C87.5277 563.794 88.3222 564.602 89.316 564.602L99.7635 564.602C100.47 564.602 101.052 565.175 101.052 565.89L101.052 576.914C101.052 577.621 100.479 578.203 99.7635 578.203L89.316 578.203C88.3351 578.203 87.5277 578.997 87.5277 579.991Z" stroke="white" stroke-opacity="0.5" stroke-width="0.5"/>
<path d="M62.6889 609.755L62.6889 609.752L62.6889 598.728C62.6889 598.021 63.2617 597.439 63.9771 597.439L74.8092 597.439L88.9207 597.439L99.7635 597.439C100.47 597.439 101.052 598.012 101.052 598.728L101.052 609.752C101.052 610.459 100.479 611.04 99.7635 611.04L90.459 611.04C89.4782 611.04 88.6707 611.835 88.6708 612.829L88.6708 623.276C88.6708 623.983 88.0979 624.564 87.3825 624.564L76.3475 624.564C75.6405 624.564 75.0592 623.991 75.0592 623.276L75.0592 612.829C75.0592 611.848 74.2647 611.04 73.2709 611.04L63.9771 611.04C63.2588 611.04 62.68 610.457 62.6889 609.755Z" stroke="white" stroke-opacity="0.5" stroke-width="0.5"/>
<path d="M87.5277 499.507L87.5277 508.811C87.5277 509.529 86.9442 510.11 86.2394 510.11L75.2151 510.11C74.5081 510.11 73.9268 509.537 73.9268 508.822L73.9268 497.979L73.9268 483.867L73.9268 473.025C73.9268 472.308 74.4986 471.736 75.2151 471.736L86.2394 471.736C86.9464 471.736 87.5277 472.309 87.5277 473.025L87.5277 482.329C87.5277 483.31 88.3222 484.117 89.316 484.117L99.7635 484.117C100.47 484.117 101.052 484.69 101.052 485.406L101.052 496.43C101.052 497.137 100.479 497.718 99.7635 497.718L89.316 497.718C88.3351 497.718 87.5277 498.513 87.5277 499.507Z" stroke="white" stroke-opacity="0.5" stroke-width="0.5"/>
<path d="M62.6889 529.261L62.6889 529.258L62.6889 518.234C62.6889 517.517 63.2606 516.945 63.9771 516.945L74.8092 516.945L88.9207 516.945L99.7635 516.945C100.47 516.945 101.052 517.518 101.052 518.234L101.052 529.269C101.052 529.976 100.479 530.557 99.7635 530.557L90.459 530.557C89.4782 530.557 88.6707 531.351 88.6708 532.345L88.6708 542.793C88.6708 543.509 88.099 544.081 87.3825 544.081L76.3475 544.081C75.6405 544.081 75.0592 543.508 75.0592 542.793L75.0592 532.345C75.0592 531.364 74.2647 530.557 73.2709 530.557L63.9771 530.557C63.26 530.557 62.6799 529.975 62.6889 529.261Z" stroke="white" stroke-opacity="0.5" stroke-width="0.5"/>
<path d="M87.5277 419.037L87.5277 428.341C87.5277 429.047 86.9453 429.629 86.2394 429.629L75.2151 429.629C74.5081 429.629 73.9268 429.057 73.9268 428.341L73.9268 417.498L73.9268 403.387L73.9268 392.544C73.9268 391.837 74.4997 391.256 75.2151 391.256L86.2394 391.256C86.9464 391.256 87.5277 391.829 87.5277 392.544L87.5277 401.849C87.5277 402.829 88.3222 403.637 89.316 403.637L99.7635 403.637C100.47 403.637 101.052 404.21 101.052 404.925L101.052 415.96C101.052 416.667 100.479 417.248 99.7635 417.248L89.316 417.248C88.3351 417.248 87.5277 418.043 87.5277 419.037Z" stroke="white" stroke-opacity="0.5" stroke-width="0.5"/>
<path d="M62.6889 448.779L62.6889 448.776L62.6889 437.751C62.6889 437.035 63.2606 436.463 63.9771 436.463L74.8092 436.463L88.9207 436.463L99.7635 436.463C100.47 436.463 101.052 437.036 101.052 437.751L101.052 448.786C101.052 449.493 100.479 450.074 99.7635 450.074L90.459 450.074C89.4782 450.074 88.6707 450.869 88.6708 451.863L88.6708 462.31C88.6708 463.017 88.0979 463.599 87.3825 463.599L76.3475 463.599C75.6405 463.599 75.0592 463.026 75.0592 462.31L75.0592 451.863C75.0592 450.882 74.2647 450.074 73.2709 450.074L63.9771 450.074C63.26 450.074 62.6799 449.492 62.6889 448.779Z" stroke="white" stroke-opacity="0.5" stroke-width="0.5"/>
<path d="M356.727 660.469L356.727 669.774C356.727 670.488 356.146 671.063 355.437 671.073L344.414 671.073C343.707 671.073 343.126 670.5 343.126 669.785L343.126 658.942L343.126 644.83L343.126 633.988C343.126 633.271 343.698 632.699 344.414 632.699L355.439 632.699C356.146 632.699 356.727 633.272 356.727 633.988L356.727 643.292C356.727 644.273 357.521 645.08 358.515 645.08L368.963 645.08C369.67 645.08 370.251 645.653 370.251 646.369L370.251 657.393C370.251 658.1 369.678 658.681 368.963 658.681L358.515 658.681C357.534 658.681 356.727 659.476 356.727 660.469Z" stroke="white" stroke-opacity="0.5" stroke-width="0.5"/>
<path d="M356.977 589.293L356.977 579.989C356.977 579.134 357.671 578.451 358.515 578.451L368.963 578.451C369.817 578.451 370.501 577.756 370.501 576.912L370.501 565.888C370.501 565.033 369.807 564.35 368.963 564.35L358.515 564.35C357.661 564.35 356.977 563.655 356.977 562.811L356.977 553.507C356.977 552.652 356.283 551.969 355.439 551.969L344.414 551.969C343.56 551.969 342.876 552.652 342.876 553.507L342.876 564.35L342.876 578.461L342.876 589.304C342.876 590.159 343.57 590.842 344.414 590.842L355.439 590.842C356.283 590.832 356.977 590.148 356.977 589.293Z" fill="black"/>
<path d="M356.727 579.989L356.727 589.293C356.727 590.008 356.147 590.582 355.437 590.592L344.414 590.592C343.707 590.592 343.126 590.019 343.126 589.304L343.126 578.461L343.126 564.35L343.126 553.507C343.126 552.791 343.698 552.219 344.414 552.219L355.439 552.219C356.146 552.219 356.727 552.792 356.727 553.507L356.727 562.811C356.727 563.792 357.521 564.6 358.515 564.6L368.963 564.6C369.67 564.6 370.251 565.173 370.251 565.888L370.251 576.912C370.251 577.619 369.678 578.201 368.963 578.201L358.515 578.201C357.534 578.201 356.727 578.995 356.727 579.989Z" stroke="white" stroke-opacity="0.5" stroke-width="0.5"/>
<path d="M331.888 609.755L331.888 609.752L331.888 598.728C331.888 598.021 332.461 597.439 333.176 597.439L344.008 597.439L358.12 597.439L368.963 597.439C369.67 597.439 370.251 598.012 370.251 598.728L370.251 609.752C370.251 610.459 369.678 611.04 368.963 611.04L359.658 611.04C358.677 611.04 357.87 611.835 357.87 612.829L357.87 623.276C357.87 623.983 357.297 624.564 356.582 624.564L345.547 624.564C344.84 624.564 344.258 623.991 344.258 623.276L344.258 612.829C344.258 611.848 343.464 611.04 342.47 611.04L333.176 611.04C332.458 611.04 331.879 610.457 331.888 609.755Z" stroke="white" stroke-opacity="0.5" stroke-width="0.5"/>
<path d="M356.727 499.507L356.727 508.811C356.727 509.529 356.143 510.11 355.439 510.11L344.414 510.11C343.707 510.11 343.126 509.537 343.126 508.822L343.126 497.979L343.126 483.867L343.126 473.025C343.126 472.308 343.698 471.736 344.414 471.736L355.439 471.736C356.146 471.736 356.727 472.309 356.727 473.025L356.727 482.329C356.727 483.31 357.521 484.117 358.515 484.117L368.963 484.117C369.67 484.117 370.251 484.69 370.251 485.406L370.251 496.43C370.251 497.137 369.678 497.718 368.963 497.718L358.515 497.718C357.534 497.718 356.727 498.513 356.727 499.507Z" stroke="white" stroke-opacity="0.5" stroke-width="0.5"/>
<path d="M331.888 529.261L331.888 529.258L331.888 518.234C331.888 517.517 332.46 516.945 333.176 516.945L344.008 516.945L358.12 516.945L368.963 516.945C369.67 516.945 370.251 517.518 370.251 518.234L370.251 529.269C370.251 529.976 369.678 530.557 368.963 530.557L359.658 530.557C358.677 530.557 357.87 531.351 357.87 532.345L357.87 542.793C357.87 543.509 357.298 544.081 356.582 544.081L345.547 544.081C344.84 544.081 344.258 543.508 344.258 542.793L344.258 532.345C344.258 531.364 343.464 530.557 342.47 530.557L333.176 530.557C332.459 530.557 331.879 529.975 331.888 529.261Z" stroke="white" stroke-opacity="0.5" stroke-width="0.5"/>
<path d="M356.727 419.037L356.727 428.341C356.727 429.047 356.145 429.629 355.439 429.629L344.414 429.629C343.707 429.629 343.126 429.057 343.126 428.341L343.126 417.498L343.126 403.387L343.126 392.544C343.126 391.837 343.699 391.256 344.414 391.256L355.439 391.256C356.146 391.256 356.727 391.829 356.727 392.544L356.727 401.849C356.727 402.829 357.521 403.637 358.515 403.637L368.963 403.637C369.67 403.637 370.251 404.21 370.251 404.925L370.251 415.96C370.251 416.667 369.678 417.248 368.963 417.248L358.515 417.248C357.534 417.248 356.727 418.043 356.727 419.037Z" stroke="white" stroke-opacity="0.5" stroke-width="0.5"/>
<path d="M331.888 448.779L331.888 448.776L331.888 437.751C331.888 437.035 332.46 436.463 333.176 436.463L344.008 436.463L358.12 436.463L368.963 436.463C369.67 436.463 370.251 437.036 370.251 437.751L370.251 448.786C370.251 449.493 369.678 450.074 368.963 450.074L359.658 450.074C358.677 450.074 357.87 450.869 357.87 451.863L357.87 462.31C357.87 463.017 357.297 463.599 356.582 463.599L345.547 463.599C344.84 463.599 344.258 463.026 344.258 462.31L344.258 451.863C344.258 450.882 343.464 450.074 342.47 450.074L333.176 450.074C332.459 450.074 331.879 449.492 331.888 448.779Z" stroke="white" stroke-opacity="0.5" stroke-width="0.5"/>
<path d="M216.42 435.829V426.525C216.42 425.811 217 425.236 217.709 425.226H228.732C229.439 425.226 230.02 425.799 230.02 426.514V437.357V451.469V462.311C230.02 463.028 229.449 463.6 228.732 463.6H217.708C217.001 463.6 216.42 463.027 216.42 462.311V453.007C216.42 452.026 215.625 451.219 214.631 451.219H204.184C203.477 451.219 202.896 450.646 202.896 449.93V438.906C202.896 438.199 203.468 437.618 204.184 437.618H214.631C215.612 437.618 216.42 436.823 216.42 435.829Z" stroke="white" stroke-opacity="0.5" stroke-width="0.5"/>
<path d="M241.258 406.077V406.08V417.104C241.258 417.821 240.687 418.393 239.97 418.393H229.138H215.027H204.184C203.477 418.393 202.896 417.82 202.896 417.104V406.08C202.896 405.373 203.468 404.792 204.184 404.792H213.488C214.47 404.792 215.277 403.985 215.277 403.003V392.556C215.277 391.839 215.848 391.268 216.565 391.268H227.6C228.307 391.268 228.888 391.841 228.888 392.556V403.003C228.888 403.984 229.683 404.792 230.676 404.792H239.97C240.69 404.792 241.267 405.366 241.258 406.077Z" stroke="white" stroke-opacity="0.5" stroke-width="0.5"/>
<path d="M216.17 507.007V516.312C216.17 517.166 215.475 517.85 214.631 517.85H204.184C203.329 517.85 202.646 518.545 202.646 519.388V530.413C202.646 531.267 203.34 531.951 204.184 531.951H214.631C215.486 531.951 216.17 532.645 216.17 533.489V542.794C216.17 543.648 216.864 544.332 217.708 544.332H228.732C229.587 544.332 230.27 543.648 230.27 542.794V531.951V517.839V506.997C230.27 506.142 229.576 505.458 228.732 505.458H217.708C216.864 505.469 216.17 506.153 216.17 507.007Z" fill="black"/>
<path d="M216.42 516.312V507.007C216.42 506.293 217 505.718 217.71 505.708H228.732C229.439 505.708 230.02 506.281 230.02 506.997V517.839V531.951V542.794C230.02 543.51 229.449 544.082 228.732 544.082H217.708C217.001 544.082 216.42 543.509 216.42 542.794V533.489C216.42 532.508 215.625 531.701 214.631 531.701H204.184C203.477 531.701 202.896 531.128 202.896 530.413V519.388C202.896 518.681 203.468 518.1 204.184 518.1H214.631C215.612 518.1 216.42 517.306 216.42 516.312Z" stroke="white" stroke-opacity="0.5" stroke-width="0.5"/>
<path d="M225.058 486.567H234.363C235.07 486.567 235.651 487.14 235.651 487.855V498.88C235.651 499.596 235.079 500.168 234.363 500.168H223.52H209.408H198.566C197.859 500.168 197.277 499.595 197.277 498.88V487.855C197.277 487.148 197.85 486.567 198.566 486.567H207.87C208.852 486.567 209.658 485.761 209.658 484.779V474.331C209.658 473.615 210.23 473.043 210.947 473.043H221.982C222.689 473.043 223.27 473.616 223.27 474.331V484.779C223.27 485.76 224.064 486.567 225.058 486.567Z" stroke="white" stroke-opacity="0.5" stroke-width="0.5"/>
<path d="M216.42 596.794V587.49C216.42 586.776 217 586.201 217.709 586.191H228.732C229.439 586.191 230.02 586.764 230.02 587.479V598.322V612.433V623.276C230.02 623.993 229.449 624.564 228.732 624.564H217.708C217.001 624.564 216.42 623.992 216.42 623.276V613.972C216.42 612.991 215.625 612.183 214.631 612.183H204.184C203.477 612.183 202.896 611.611 202.896 610.895V599.871C202.896 599.164 203.468 598.583 204.184 598.583H214.631C215.612 598.583 216.42 597.788 216.42 596.794Z" stroke="white" stroke-opacity="0.5" stroke-width="0.5"/>
<path d="M241.258 567.03V567.033V578.057C241.258 578.764 240.686 579.346 239.97 579.346H229.138H215.027H204.184C203.477 579.346 202.896 578.773 202.896 578.057V567.033C202.896 566.326 203.468 565.745 204.184 565.745H213.488C214.469 565.745 215.277 564.95 215.277 563.957V553.509C215.277 552.802 215.849 552.221 216.565 552.221H227.6C228.307 552.221 228.888 552.794 228.888 553.509V563.957C228.888 564.937 229.683 565.745 230.676 565.745H239.97C240.688 565.745 241.267 566.328 241.258 567.03Z" stroke="white" stroke-opacity="0.5" stroke-width="0.5"/>
<path d="M241.258 647.522V647.525V658.55C241.258 659.266 240.687 659.838 239.97 659.838H229.138H215.027H204.184C203.477 659.838 202.896 659.265 202.896 658.55V647.515C202.896 646.808 203.468 646.226 204.184 646.226H213.488C214.469 646.226 215.277 645.432 215.277 644.438V633.991C215.277 633.274 215.848 632.702 216.565 632.702H227.6C228.307 632.702 228.888 633.275 228.888 633.991V644.438C228.888 645.419 229.683 646.226 230.676 646.226H239.97C240.687 646.226 241.267 646.809 241.258 647.522Z" stroke="white" stroke-opacity="0.5" stroke-width="0.5"/>
<path d="M306.153 435.829V426.525C306.153 425.811 306.733 425.236 307.443 425.226H318.466C319.173 425.226 319.754 425.799 319.754 426.514V437.357V451.469V462.311C319.754 463.028 319.182 463.6 318.466 463.6H307.441C306.734 463.6 306.153 463.027 306.153 462.311V453.007C306.153 452.026 305.358 451.219 304.365 451.219H293.917C293.21 451.219 292.629 450.646 292.629 449.93V438.906C292.629 438.199 293.202 437.618 293.917 437.618H304.365C305.346 437.618 306.153 436.823 306.153 435.829Z" stroke="white" stroke-opacity="0.5" stroke-width="0.5"/>
<path d="M330.992 406.077V406.08V417.104C330.992 417.821 330.42 418.393 329.704 418.393H318.871H304.76H293.917C293.21 418.393 292.629 417.82 292.629 417.104V406.08C292.629 405.373 293.202 404.792 293.917 404.792H303.222C304.204 404.792 305.01 403.985 305.01 403.003V392.556C305.01 391.839 305.582 391.268 306.298 391.268H317.333C318.04 391.268 318.621 391.841 318.621 392.556V403.003C318.621 403.984 319.416 404.792 320.41 404.792H329.704C330.423 404.792 331.001 405.366 330.992 406.077Z" stroke="white" stroke-opacity="0.5" stroke-width="0.5"/>
<path d="M306.153 516.312V507.007C306.153 506.293 306.734 505.718 307.443 505.708H318.466C319.173 505.708 319.754 506.281 319.754 506.997V517.839V531.951V542.794C319.754 543.51 319.182 544.082 318.466 544.082H307.441C306.734 544.082 306.153 543.509 306.153 542.794V533.489C306.153 532.508 305.358 531.701 304.365 531.701H293.917C293.21 531.701 292.629 531.128 292.629 530.413V519.388C292.629 518.681 293.202 518.1 293.917 518.1H304.365C305.346 518.1 306.153 517.306 306.153 516.312Z" stroke="white" stroke-opacity="0.5" stroke-width="0.5"/>
<path d="M314.791 486.567H324.095C324.802 486.567 325.383 487.14 325.383 487.855V498.88C325.383 499.596 324.812 500.168 324.095 500.168H313.252H299.141H288.298C287.591 500.168 287.01 499.595 287.01 498.88V487.855C287.01 487.148 287.583 486.567 288.298 486.567H297.602C298.584 486.567 299.391 485.761 299.391 484.779V474.331C299.391 473.615 299.963 473.043 300.679 473.043H311.714C312.421 473.043 313.002 473.616 313.002 474.331V484.779C313.002 485.76 313.797 486.567 314.791 486.567Z" stroke="white" stroke-opacity="0.5" stroke-width="0.5"/>
<path d="M306.153 596.794V587.49C306.153 586.776 306.733 586.201 307.443 586.191H318.466C319.173 586.191 319.754 586.764 319.754 587.479V598.322V612.433V623.276C319.754 623.993 319.182 624.564 318.466 624.564H307.441C306.734 624.564 306.153 623.992 306.153 623.276V613.972C306.153 612.991 305.358 612.183 304.365 612.183H293.917C293.21 612.183 292.629 611.611 292.629 610.895V599.871C292.629 599.164 293.202 598.583 293.917 598.583H304.365C305.346 598.583 306.153 597.788 306.153 596.794Z" stroke="white" stroke-opacity="0.5" stroke-width="0.5"/>
<path d="M330.992 567.03V567.033V578.057C330.992 578.764 330.419 579.346 329.704 579.346H318.871H304.76H293.917C293.21 579.346 292.629 578.773 292.629 578.057V567.033C292.629 566.326 293.202 565.745 293.917 565.745H303.222C304.202 565.745 305.01 564.95 305.01 563.957V553.509C305.01 552.802 305.583 552.221 306.298 552.221H317.333C318.04 552.221 318.621 552.794 318.621 553.509V563.957C318.621 564.937 319.416 565.745 320.41 565.745H329.704C330.422 565.745 331.001 566.328 330.992 567.03Z" stroke="white" stroke-opacity="0.5" stroke-width="0.5"/>
<path d="M330.992 647.522V647.525V658.55C330.992 659.266 330.42 659.838 329.704 659.838H318.871H304.76H293.917C293.21 659.838 292.629 659.265 292.629 658.55V647.515C292.629 646.808 293.202 646.226 293.917 646.226H303.222C304.202 646.226 305.01 645.432 305.01 644.438V633.991C305.01 633.274 305.582 632.702 306.298 632.702H317.333C318.04 632.702 318.621 633.275 318.621 633.991V644.438C318.621 645.419 319.416 646.226 320.41 646.226H329.704C330.421 646.226 331.001 646.809 330.992 647.522Z" stroke="white" stroke-opacity="0.5" stroke-width="0.5"/>
<path d="M177.261 660.469L177.261 669.774C177.261 670.488 176.681 671.063 175.971 671.073L164.949 671.073C164.242 671.073 163.66 670.5 163.66 669.785L163.66 658.942L163.66 644.83L163.66 633.988C163.66 633.271 164.232 632.699 164.949 632.699L175.973 632.699C176.68 632.699 177.261 633.272 177.261 633.988L177.261 643.292C177.261 644.273 178.056 645.08 179.049 645.08L189.497 645.08C190.204 645.08 190.785 645.653 190.785 646.369L190.785 657.393C190.785 658.1 190.212 658.681 189.497 658.681L179.049 658.681C178.069 658.681 177.261 659.476 177.261 660.469Z" stroke="white" stroke-opacity="0.5" stroke-width="0.5"/>
<path d="M177.261 579.989L177.261 589.293C177.261 590.008 176.681 590.582 175.971 590.592L164.949 590.592C164.242 590.592 163.66 590.019 163.66 589.304L163.66 578.461L163.66 564.35L163.66 553.507C163.66 552.791 164.232 552.219 164.949 552.219L175.973 552.219C176.68 552.219 177.261 552.792 177.261 553.507L177.261 562.811C177.261 563.792 178.056 564.6 179.049 564.6L189.497 564.6C190.204 564.6 190.785 565.173 190.785 565.888L190.785 576.912C190.785 577.619 190.212 578.201 189.497 578.201L179.049 578.201C178.069 578.201 177.261 578.995 177.261 579.989Z" stroke="white" stroke-opacity="0.5" stroke-width="0.5"/>
<path d="M152.422 609.755L152.422 609.752L152.422 598.728C152.422 598.021 152.995 597.439 153.711 597.439L164.543 597.439L178.654 597.439L189.497 597.439C190.204 597.439 190.785 598.012 190.785 598.728L190.785 609.752C190.785 610.459 190.212 611.04 189.497 611.04L180.192 611.04C179.212 611.04 178.404 611.835 178.404 612.829L178.404 623.276C178.404 623.983 177.831 624.564 177.116 624.564L166.081 624.564C165.374 624.564 164.793 623.991 164.793 623.276L164.793 612.829C164.793 611.848 163.998 611.04 163.004 611.04L153.711 611.04C152.992 611.04 152.413 610.457 152.422 609.755Z" stroke="white" stroke-opacity="0.5" stroke-width="0.5"/>
<path d="M177.261 499.507L177.261 508.811C177.261 509.529 176.678 510.11 175.973 510.11L164.949 510.11C164.242 510.11 163.66 509.537 163.66 508.822L163.66 497.979L163.66 483.867L163.66 473.025C163.66 472.308 164.232 471.736 164.949 471.736L175.973 471.736C176.68 471.736 177.261 472.309 177.261 473.025L177.261 482.329C177.261 483.31 178.056 484.117 179.049 484.117L189.497 484.117C190.204 484.117 190.785 484.69 190.785 485.406L190.785 496.43C190.785 497.137 190.212 497.718 189.497 497.718L179.049 497.718C178.069 497.718 177.261 498.513 177.261 499.507Z" stroke="white" stroke-opacity="0.5" stroke-width="0.5"/>
<path d="M152.422 529.261L152.422 529.258L152.422 518.234C152.422 517.517 152.994 516.945 153.711 516.945L164.543 516.945L178.654 516.945L189.497 516.945C190.204 516.945 190.785 517.518 190.785 518.234L190.785 529.269C190.785 529.976 190.212 530.557 189.497 530.557L180.192 530.557C179.212 530.557 178.404 531.351 178.404 532.345L178.404 542.793C178.404 543.509 177.832 544.081 177.116 544.081L166.081 544.081C165.374 544.081 164.793 543.508 164.793 542.793L164.793 532.345C164.793 531.364 163.998 530.557 163.004 530.557L153.711 530.557C152.993 530.557 152.413 529.975 152.422 529.261Z" stroke="white" stroke-opacity="0.5" stroke-width="0.5"/>
<path d="M177.261 419.037L177.261 428.341C177.261 429.047 176.679 429.629 175.973 429.629L164.949 429.629C164.242 429.629 163.66 429.057 163.66 428.341L163.66 417.498L163.66 403.387L163.66 392.544C163.66 391.837 164.233 391.256 164.949 391.256L175.973 391.256C176.68 391.256 177.261 391.829 177.261 392.544L177.261 401.849C177.261 402.829 178.056 403.637 179.049 403.637L189.497 403.637C190.204 403.637 190.785 404.21 190.785 404.925L190.785 415.96C190.785 416.667 190.212 417.248 189.497 417.248L179.049 417.248C178.069 417.248 177.261 418.043 177.261 419.037Z" stroke="white" stroke-opacity="0.5" stroke-width="0.5"/>
<path d="M152.422 448.779L152.422 448.776L152.422 437.751C152.422 437.035 152.994 436.463 153.711 436.463L164.543 436.463L178.654 436.463L189.497 436.463C190.204 436.463 190.785 437.036 190.785 437.751L190.785 448.786C190.785 449.493 190.212 450.074 189.497 450.074L180.192 450.074C179.212 450.074 178.404 450.869 178.404 451.863L178.404 462.31C178.404 463.017 177.831 463.599 177.116 463.599L166.081 463.599C165.374 463.599 164.793 463.026 164.793 462.31L164.793 451.863C164.793 450.882 163.998 450.074 163.004 450.074L153.711 450.074C152.993 450.074 152.413 449.492 152.422 448.779Z" stroke="white" stroke-opacity="0.5" stroke-width="0.5"/>
<path d="M266.994 660.473L266.994 669.778C266.994 670.492 266.413 671.067 265.704 671.077L254.681 671.077C253.974 671.077 253.393 670.504 253.393 669.788L253.393 658.946L253.393 644.834L253.393 633.991C253.393 633.275 253.964 632.703 254.681 632.703L265.705 632.703C266.412 632.703 266.994 633.276 266.994 633.991L266.994 643.296C266.994 644.277 267.788 645.084 268.782 645.084L279.229 645.084C279.936 645.084 280.518 645.657 280.518 646.372L280.518 657.397C280.518 658.104 279.945 658.685 279.229 658.685L268.782 658.685C267.801 658.685 266.994 659.479 266.994 660.473Z" stroke="white" stroke-opacity="0.5" stroke-width="0.5"/>
<path d="M266.994 579.991L266.994 589.295C266.994 590.01 266.413 590.584 265.704 590.594L254.681 590.594C253.974 590.594 253.393 590.021 253.393 589.306L253.393 578.463L253.393 564.352L253.393 553.509C253.393 552.792 253.964 552.221 254.681 552.221L265.705 552.221C266.412 552.221 266.994 552.794 266.994 553.509L266.994 562.813C266.994 563.794 267.788 564.602 268.782 564.602L279.229 564.602C279.936 564.602 280.518 565.175 280.518 565.89L280.518 576.914C280.518 577.621 279.945 578.203 279.229 578.203L268.782 578.203C267.801 578.203 266.994 578.997 266.994 579.991Z" stroke="white" stroke-opacity="0.5" stroke-width="0.5"/>
<path d="M242.155 609.755L242.155 609.752L242.155 598.728C242.155 598.021 242.728 597.439 243.443 597.439L254.275 597.439L268.387 597.439L279.229 597.439C279.936 597.439 280.518 598.012 280.518 598.728L280.518 609.752C280.518 610.459 279.945 611.04 279.229 611.04L269.925 611.04C268.944 611.04 268.137 611.835 268.137 612.829L268.137 623.276C268.137 623.983 267.564 624.564 266.848 624.564L255.813 624.564C255.106 624.564 254.525 623.991 254.525 623.276L254.525 612.829C254.525 611.848 253.731 611.04 252.737 611.04L243.443 611.04C242.725 611.04 242.146 610.457 242.155 609.755Z" stroke="white" stroke-opacity="0.5" stroke-width="0.5"/>
<path d="M266.994 499.507L266.994 508.811C266.994 509.529 266.41 510.11 265.705 510.11L254.681 510.11C253.974 510.11 253.393 509.537 253.393 508.822L253.393 497.979L253.393 483.867L253.393 473.025C253.393 472.308 253.964 471.736 254.681 471.736L265.705 471.736C266.412 471.736 266.994 472.309 266.994 473.025L266.994 482.329C266.994 483.31 267.788 484.117 268.782 484.117L279.229 484.117C279.936 484.117 280.518 484.69 280.518 485.406L280.518 496.43C280.518 497.137 279.945 497.718 279.229 497.718L268.782 497.718C267.801 497.718 266.994 498.513 266.994 499.507Z" stroke="white" stroke-opacity="0.5" stroke-width="0.5"/>
<path d="M242.155 529.261L242.155 529.258L242.155 518.234C242.155 517.517 242.726 516.945 243.443 516.945L254.275 516.945L268.387 516.945L279.229 516.945C279.936 516.945 280.518 517.518 280.518 518.234L280.518 529.269C280.518 529.976 279.945 530.557 279.229 530.557L269.925 530.557C268.944 530.557 268.137 531.351 268.137 532.345L268.137 542.793C268.137 543.509 267.565 544.081 266.848 544.081L255.813 544.081C255.106 544.081 254.525 543.508 254.525 542.793L254.525 532.345C254.525 531.364 253.731 530.557 252.737 530.557L243.443 530.557C242.726 530.557 242.146 529.975 242.155 529.261Z" stroke="white" stroke-opacity="0.5" stroke-width="0.5"/>
<path d="M266.994 419.037L266.994 428.341C266.994 429.047 266.411 429.629 265.705 429.629L254.681 429.629C253.974 429.629 253.393 429.057 253.393 428.341L253.393 417.498L253.393 403.387L253.393 392.544C253.393 391.837 253.966 391.256 254.681 391.256L265.705 391.256C266.412 391.256 266.994 391.829 266.994 392.544L266.994 401.849C266.994 402.829 267.788 403.637 268.782 403.637L279.229 403.637C279.936 403.637 280.518 404.21 280.518 404.925L280.518 415.96C280.518 416.667 279.945 417.248 279.229 417.248L268.782 417.248C267.801 417.248 266.994 418.043 266.994 419.037Z" stroke="white" stroke-opacity="0.5" stroke-width="0.5"/>
<path d="M242.155 448.779L242.155 448.776L242.155 437.751C242.155 437.035 242.726 436.463 243.443 436.463L254.275 436.463L268.387 436.463L279.229 436.463C279.936 436.463 280.518 437.036 280.518 437.751L280.518 448.786C280.518 449.493 279.945 450.074 279.229 450.074L269.925 450.074C268.944 450.074 268.137 450.869 268.137 451.863L268.137 462.31C268.137 463.017 267.564 463.599 266.848 463.599L255.813 463.599C255.106 463.599 254.525 463.026 254.525 462.31L254.525 451.863C254.525 450.882 253.731 450.074 252.737 450.074L243.443 450.074C242.726 450.074 242.146 449.492 242.155 448.779Z" stroke="white" stroke-opacity="0.5" stroke-width="0.5"/>
<path d="M36.9537 36.306V27.0015C36.9537 26.2873 37.5342 25.7125 38.2434 25.7026H49.2663C49.9733 25.7026 50.5546 26.2754 50.5546 26.9908V37.8336V51.9451V62.7879C50.5546 63.5044 49.9829 64.0762 49.2663 64.0762H38.242C37.535 64.0762 36.9537 63.5033 36.9537 62.7879V53.4834C36.9537 52.5026 36.1592 51.6951 35.1654 51.6951H24.718C24.011 51.6951 23.4297 51.1223 23.4297 50.4069V39.3825C23.4297 38.6756 24.0026 38.0943 24.718 38.0943H35.1654C36.1463 38.0943 36.9537 37.2998 36.9537 36.306Z" stroke="white" stroke-opacity="0.5" stroke-width="0.5"/>
<path d="M61.7926 6.55144V6.55457V17.5789C61.7926 18.2954 61.2208 18.8672 60.5043 18.8672H49.6723H35.5607H24.718C24.011 18.8672 23.4297 18.2943 23.4297 17.5789V6.55457C23.4297 5.84759 24.0026 5.26628 24.718 5.26628H34.0224C35.0044 5.26628 35.8107 4.45999 35.8107 3.478V-6.96947C35.8107 -7.686 36.3824 -8.25776 37.099 -8.25776H48.134C48.841 -8.25776 49.4223 -7.68487 49.4223 -6.96947V3.478C49.4223 4.45886 50.2167 5.26628 51.2105 5.26628H60.5043C61.2237 5.26628 61.8015 5.84021 61.7926 6.55144Z" stroke="white" stroke-opacity="0.5" stroke-width="0.5"/>
<path d="M36.9537 116.786V107.482C36.9537 106.768 37.5343 106.193 38.2437 106.183H49.2663C49.9733 106.183 50.5546 106.756 50.5546 107.471V118.314V132.426V143.268C50.5546 143.985 49.9829 144.557 49.2663 144.557H38.242C37.535 144.557 36.9537 143.984 36.9537 143.268V133.964C36.9537 132.983 36.1592 132.176 35.1654 132.176H24.718C24.011 132.176 23.4297 131.603 23.4297 130.887V119.863C23.4297 119.156 24.0026 118.575 24.718 118.575H35.1654C36.1463 118.575 36.9537 117.78 36.9537 116.786Z" stroke="white" stroke-opacity="0.5" stroke-width="0.5"/>
<path d="M45.5924 87.0417H54.8968C55.6038 87.0417 56.1851 87.6146 56.1851 88.33V99.3543C56.1851 100.071 55.6134 100.643 54.8968 100.643H44.0541H29.9425H19.0998C18.3928 100.643 17.8115 100.07 17.8115 99.3543V88.33C17.8115 87.623 18.3844 87.0417 19.0998 87.0417H28.4043C29.3862 87.0417 30.1925 86.2354 30.1925 85.2534V74.806C30.1925 74.0894 30.7643 73.5177 31.4808 73.5177H42.5158C43.2228 73.5177 43.8041 74.0905 43.8041 74.806V85.2534C43.8041 86.2343 44.5986 87.0417 45.5924 87.0417Z" stroke="white" stroke-opacity="0.5" stroke-width="0.5"/>
<path d="M36.9537 197.269V187.964C36.9537 187.25 37.5342 186.675 38.2434 186.665H49.2663C49.9733 186.665 50.5546 187.238 50.5546 187.954V198.796V212.908V223.751C50.5546 224.467 49.9829 225.039 49.2663 225.039H38.242C37.535 225.039 36.9537 224.466 36.9537 223.751V214.446C36.9537 213.465 36.1592 212.658 35.1654 212.658H24.718C24.011 212.658 23.4297 212.085 23.4297 211.37V200.345C23.4297 199.638 24.0026 199.057 24.718 199.057H35.1654C36.1463 199.057 36.9537 198.263 36.9537 197.269Z" stroke="white" stroke-opacity="0.5" stroke-width="0.5"/>
<path d="M61.7926 167.505V167.508V178.532C61.7926 179.239 61.2197 179.82 60.5043 179.82H49.6723H35.5607H24.718C24.011 179.82 23.4297 179.247 23.4297 178.532V167.508C23.4297 166.801 24.0026 166.219 24.718 166.219H34.0224C35.0033 166.219 35.8107 165.425 35.8107 164.431V153.984C35.8107 153.277 36.3836 152.695 37.099 152.695H48.134C48.841 152.695 49.4223 153.268 49.4223 153.984V164.431C49.4223 165.412 50.2168 166.219 51.2105 166.219H60.5043C61.2226 166.219 61.8015 166.803 61.7926 167.505Z" stroke="white" stroke-opacity="0.5" stroke-width="0.5"/>
<path d="M36.9537 277.751V268.447C36.9537 267.729 37.5373 267.148 38.242 267.148H49.2663C49.9733 267.148 50.5546 267.721 50.5546 268.436V279.279V293.39V304.233C50.5546 304.95 49.9829 305.521 49.2663 305.521H38.242C37.535 305.521 36.9537 304.949 36.9537 304.233V294.929C36.9537 293.948 36.1592 293.14 35.1654 293.14H24.718C24.011 293.14 23.4297 292.568 23.4297 291.852V280.828C23.4297 280.121 24.0026 279.54 24.718 279.54H35.1654C36.1463 279.54 36.9537 278.745 36.9537 277.751Z" stroke="white" stroke-opacity="0.5" stroke-width="0.5"/>
<path d="M60.5043 246.451H51.2105C50.3559 246.451 49.6723 245.757 49.6723 244.913V234.465C49.6723 233.611 48.9779 232.927 48.134 232.927H37.099C36.2444 232.927 35.5607 233.611 35.5607 234.465V244.913C35.5607 245.767 34.8663 246.451 34.0224 246.451H24.718C23.8634 246.451 23.1797 247.145 23.1797 247.989V259.024C23.1797 259.879 23.874 260.562 24.718 260.562H35.5607H49.6723H60.5043C61.3589 260.562 62.0426 259.879 62.0426 259.024V248C62.0533 247.145 61.3589 246.451 60.5043 246.451Z" fill="black"/>
<path d="M61.7926 247.997V248V259.024C61.7926 259.741 61.2208 260.312 60.5043 260.312H49.6723H35.5607H24.718C24.011 260.312 23.4297 259.74 23.4297 259.024V247.989C23.4297 247.282 24.0026 246.701 24.718 246.701H34.0224C35.0033 246.701 35.8107 245.906 35.8107 244.913V234.465C35.8107 233.749 36.3824 233.177 37.099 233.177H48.134C48.841 233.177 49.4223 233.75 49.4223 234.465V244.913C49.4223 245.894 50.2167 246.701 51.2105 246.701H60.5043C61.2215 246.701 61.8015 247.283 61.7926 247.997Z" stroke="white" stroke-opacity="0.5" stroke-width="0.5"/>
<path d="M36.9537 358.221V348.917C36.9537 348.211 37.5362 347.628 38.242 347.628H49.2663C49.9733 347.628 50.5546 348.201 50.5546 348.917V359.759V373.871V384.714C50.5546 385.421 49.9817 386.002 49.2663 386.002H38.242C37.535 386.002 36.9537 385.429 36.9537 384.714V375.409C36.9537 374.428 36.1592 373.621 35.1654 373.621H24.718C24.011 373.621 23.4297 373.048 23.4297 372.333V361.298C23.4297 360.591 24.0026 360.009 24.718 360.009H35.1654C36.1463 360.009 36.9537 359.215 36.9537 358.221Z" stroke="white" stroke-opacity="0.5" stroke-width="0.5"/>
<path d="M60.5043 326.931H51.2105C50.3559 326.931 49.6723 326.237 49.6723 325.393V314.946C49.6723 314.091 48.9779 313.407 48.134 313.407H37.099C36.2444 313.407 35.5607 314.102 35.5607 314.946V325.393C35.5607 326.248 34.8663 326.931 34.0224 326.931H24.718C23.8634 326.931 23.1797 327.626 23.1797 328.47V339.505C23.1797 340.359 23.874 341.043 24.718 341.043H35.5607H49.6723H60.5043C61.3589 341.043 62.0426 340.359 62.0426 339.505V328.48C62.0533 327.626 61.3589 326.931 60.5043 326.931Z" fill="black"/>
<path d="M61.7926 328.477V328.48V339.505C61.7926 340.221 61.2208 340.793 60.5043 340.793H49.6723H35.5607H24.718C24.011 340.793 23.4297 340.22 23.4297 339.505V328.47C23.4297 327.763 24.0026 327.181 24.718 327.181H34.0224C35.0033 327.181 35.8107 326.387 35.8107 325.393V314.946C35.8107 314.239 36.3836 313.657 37.099 313.657H48.134C48.841 313.657 49.4223 314.23 49.4223 314.946V325.393C49.4223 326.374 50.2167 327.181 51.2105 327.181H60.5043C61.2215 327.181 61.8015 327.764 61.7926 328.477Z" stroke="white" stroke-opacity="0.5" stroke-width="0.5"/>
<path d="M126.687 36.306V27.0015C126.687 26.2873 127.268 25.7125 127.977 25.7026H139C139.707 25.7026 140.288 26.2754 140.288 26.9908V37.8336V51.9451V62.7879C140.288 63.5044 139.716 64.0762 139 64.0762H127.975C127.268 64.0762 126.687 63.5033 126.687 62.7879V53.4834C126.687 52.5026 125.893 51.6951 124.899 51.6951H114.451C113.744 51.6951 113.163 51.1223 113.163 50.4069V39.3825C113.163 38.6756 113.736 38.0943 114.451 38.0943H124.899C125.88 38.0943 126.687 37.2998 126.687 36.306Z" stroke="white" stroke-opacity="0.5" stroke-width="0.5"/>
<path d="M151.526 6.55144V6.55457V17.5789C151.526 18.2954 150.954 18.8672 150.238 18.8672H139.406H125.294H114.451C113.744 18.8672 113.163 18.2943 113.163 17.5789V6.55457C113.163 5.84759 113.736 5.26628 114.451 5.26628H123.756C124.738 5.26628 125.544 4.45999 125.544 3.478V-6.96947C125.544 -7.686 126.116 -8.25776 126.832 -8.25776H137.867C138.574 -8.25776 139.156 -7.68487 139.156 -6.96947V3.478C139.156 4.45886 139.95 5.26628 140.944 5.26628H150.238C150.957 5.26628 151.535 5.84021 151.526 6.55144Z" stroke="white" stroke-opacity="0.5" stroke-width="0.5"/>
<path d="M126.687 116.786V107.482C126.687 106.768 127.268 106.193 127.977 106.183H139C139.707 106.183 140.288 106.756 140.288 107.471V118.314V132.426V143.268C140.288 143.985 139.716 144.557 139 144.557H127.975C127.268 144.557 126.687 143.984 126.687 143.268V133.964C126.687 132.983 125.893 132.176 124.899 132.176H114.451C113.744 132.176 113.163 131.603 113.163 130.887V119.863C113.163 119.156 113.736 118.575 114.451 118.575H124.899C125.88 118.575 126.687 117.78 126.687 116.786Z" stroke="white" stroke-opacity="0.5" stroke-width="0.5"/>
<path d="M144.629 86.7917H135.325C134.47 86.7917 133.787 86.0973 133.787 85.2534V74.806C133.787 73.9514 133.092 73.2677 132.248 73.2677H121.213C120.359 73.2677 119.675 73.9514 119.675 74.806V85.2534C119.675 86.0973 118.981 86.7917 118.137 86.7917H108.832C107.978 86.7917 107.294 87.486 107.294 88.33V99.3543C107.294 100.209 107.988 100.893 108.832 100.893H119.675H133.787H144.629C145.484 100.893 146.168 100.209 146.168 99.3543V88.33C146.168 87.4754 145.473 86.7917 144.629 86.7917Z" fill="black"/>
<path d="M135.325 87.0417H144.629C145.336 87.0417 145.918 87.6146 145.918 88.33V99.3543C145.918 100.071 145.346 100.643 144.629 100.643H133.787H119.675H108.832C108.125 100.643 107.544 100.07 107.544 99.3543V88.33C107.544 87.623 108.117 87.0417 108.832 87.0417H118.137C119.119 87.0417 119.925 86.2354 119.925 85.2534V74.806C119.925 74.0894 120.497 73.5177 121.213 73.5177H132.248C132.955 73.5177 133.537 74.0905 133.537 74.806V85.2534C133.537 86.2343 134.331 87.0417 135.325 87.0417Z" stroke="white" stroke-opacity="0.5" stroke-width="0.5"/>
<path d="M126.687 197.269V187.964C126.687 187.25 127.268 186.675 127.977 186.665H139C139.707 186.665 140.288 187.238 140.288 187.954V198.796V212.908V223.751C140.288 224.467 139.716 225.039 139 225.039H127.975C127.268 225.039 126.687 224.466 126.687 223.751V214.446C126.687 213.465 125.893 212.658 124.899 212.658H114.451C113.744 212.658 113.163 212.085 113.163 211.37V200.345C113.163 199.638 113.736 199.057 114.451 199.057H124.899C125.88 199.057 126.687 198.263 126.687 197.269Z" stroke="white" stroke-opacity="0.5" stroke-width="0.5"/>
<path d="M151.526 167.505V167.508V178.532C151.526 179.239 150.953 179.82 150.238 179.82H139.406H125.294H114.451C113.744 179.82 113.163 179.247 113.163 178.532V167.508C113.163 166.801 113.736 166.219 114.451 166.219H123.756C124.737 166.219 125.544 165.425 125.544 164.431V153.984C125.544 153.277 126.117 152.695 126.832 152.695H137.867C138.574 152.695 139.156 153.268 139.156 153.984V164.431C139.156 165.412 139.95 166.219 140.944 166.219H150.238C150.956 166.219 151.535 166.803 151.526 167.505Z" stroke="white" stroke-opacity="0.5" stroke-width="0.5"/>
<path d="M126.687 277.751V268.447C126.687 267.729 127.271 267.148 127.975 267.148H139C139.707 267.148 140.288 267.721 140.288 268.436V279.279V293.39V304.233C140.288 304.95 139.716 305.521 139 305.521H127.975C127.268 305.521 126.687 304.949 126.687 304.233V294.929C126.687 293.948 125.893 293.14 124.899 293.14H114.451C113.744 293.14 113.163 292.568 113.163 291.852V280.828C113.163 280.121 113.736 279.54 114.451 279.54H124.899C125.88 279.54 126.687 278.745 126.687 277.751Z" stroke="white" stroke-opacity="0.5" stroke-width="0.5"/>
<path d="M151.526 247.997V248V259.024C151.526 259.741 150.954 260.312 150.238 260.312H139.406H125.294H114.451C113.744 260.312 113.163 259.74 113.163 259.024V247.989C113.163 247.282 113.736 246.701 114.451 246.701H123.756C124.737 246.701 125.544 245.906 125.544 244.913V234.465C125.544 233.749 126.116 233.177 126.832 233.177H137.867C138.574 233.177 139.156 233.75 139.156 234.465V244.913C139.156 245.894 139.95 246.701 140.944 246.701H150.238C150.955 246.701 151.535 247.283 151.526 247.997Z" stroke="white" stroke-opacity="0.5" stroke-width="0.5"/>
<path d="M126.687 358.221V348.917C126.687 348.211 127.27 347.628 127.975 347.628H139C139.707 347.628 140.288 348.201 140.288 348.917V359.759V373.871V384.714C140.288 385.421 139.715 386.002 139 386.002H127.975C127.268 386.002 126.687 385.429 126.687 384.714V375.409C126.687 374.428 125.893 373.621 124.899 373.621H114.451C113.744 373.621 113.163 373.048 113.163 372.333V361.298C113.163 360.591 113.736 360.009 114.451 360.009H124.899C125.88 360.009 126.687 359.215 126.687 358.221Z" stroke="white" stroke-opacity="0.5" stroke-width="0.5"/>
<path d="M151.526 328.477V328.48V339.505C151.526 340.221 150.954 340.793 150.238 340.793H139.406H125.294H114.451C113.744 340.793 113.163 340.22 113.163 339.505V328.47C113.163 327.763 113.736 327.181 114.451 327.181H123.756C124.737 327.181 125.544 326.387 125.544 325.393V314.946C125.544 314.239 126.117 313.657 126.832 313.657H137.867C138.574 313.657 139.156 314.23 139.156 314.946V325.393C139.156 326.374 139.95 327.181 140.944 327.181H150.238C150.955 327.181 151.535 327.764 151.526 328.477Z" stroke="white" stroke-opacity="0.5" stroke-width="0.5"/>
<path d="M-2.2047 341.428L-2.2047 350.733C-2.2047 351.447 -2.78514 352.022 -3.49442 352.032L-14.5173 352.032C-15.2243 352.032 -15.8056 351.459 -15.8056 350.744L-15.8056 339.901L-15.8056 325.789L-15.8056 314.946C-15.8056 314.23 -15.2338 313.658 -14.5173 313.658L-3.49298 313.658C-2.786 313.658 -2.2047 314.231 -2.2047 314.946L-2.2047 324.251C-2.2047 325.232 -1.41022 326.039 -0.416419 326.039L10.0311 326.039C10.738 326.039 11.3193 326.612 11.3193 327.328L11.3193 338.352C11.3193 339.059 10.7465 339.64 10.0311 339.64L-0.416418 339.64C-1.39727 339.64 -2.2047 340.435 -2.2047 341.428Z" stroke="white" stroke-opacity="0.5" stroke-width="0.5"/>
<path d="M-27.0436 371.181L-27.0436 371.178L-27.0436 360.154C-27.0436 359.437 -26.4718 358.865 -25.7553 358.865L-14.9232 358.865L-0.811673 358.865L10.0311 358.865C10.738 358.865 11.3193 359.438 11.3193 360.154L11.3193 371.178C11.3193 371.885 10.7465 372.466 10.0311 372.466L0.726608 372.466C-0.25538 372.466 -1.06167 373.272 -1.06167 374.254L-1.06167 384.702C-1.06167 385.418 -1.63342 385.99 -2.34995 385.99L-13.385 385.99C-14.0919 385.99 -14.6732 385.417 -14.6732 384.702L-14.6732 374.254C-14.6732 373.274 -15.4677 372.466 -16.4615 372.466L-25.7553 372.466C-26.4747 372.466 -27.0525 371.892 -27.0436 371.181Z" stroke="white" stroke-opacity="0.5" stroke-width="0.5"/>
<path d="M-2.2047 260.946L-2.2047 270.25C-2.2047 270.965 -2.78529 271.54 -3.49469 271.549L-14.5173 271.549C-15.2243 271.549 -15.8056 270.976 -15.8056 270.261L-15.8056 259.418L-15.8056 245.307L-15.8056 234.464C-15.8056 233.748 -15.2338 233.176 -14.5173 233.176L-3.49298 233.176C-2.786 233.176 -2.2047 233.749 -2.2047 234.464L-2.2047 243.769C-2.2047 244.749 -1.41022 245.557 -0.416419 245.557L10.0311 245.557C10.738 245.557 11.3193 246.13 11.3193 246.845L11.3193 257.869C11.3193 258.576 10.7465 259.158 10.0311 259.158L-0.416418 259.158C-1.39727 259.158 -2.2047 259.952 -2.2047 260.946Z" stroke="white" stroke-opacity="0.5" stroke-width="0.5"/>
<path d="M-10.8434 290.693L-20.1478 290.693C-20.8548 290.693 -21.4361 290.12 -21.4361 289.404L-21.4361 278.38C-21.4361 277.664 -20.8643 277.092 -20.1478 277.092L-9.30508 277.092L4.80649 277.092L15.6492 277.092C16.3562 277.092 16.9375 277.665 16.9375 278.38L16.9375 289.404C16.9375 290.111 16.3646 290.693 15.6492 290.693L6.34477 290.693C5.36278 290.693 4.55649 291.499 4.55649 292.481L4.55649 302.928C4.55649 303.645 3.98474 304.217 3.26822 304.217L-7.7668 304.217C-8.47378 304.217 -9.05508 303.644 -9.05508 302.928L-9.05508 292.481C-9.05508 291.5 -9.84956 290.693 -10.8434 290.693Z" stroke="white" stroke-opacity="0.5" stroke-width="0.5"/>
<path d="M-2.2047 180.464L-2.2047 189.768C-2.2047 190.482 -2.78514 191.057 -3.49442 191.067L-14.5173 191.067C-15.2243 191.067 -15.8056 190.494 -15.8056 189.779L-15.8056 178.936L-15.8056 164.824L-15.8056 153.982C-15.8056 153.265 -15.2338 152.693 -14.5173 152.693L-3.49298 152.693C-2.786 152.693 -2.2047 153.266 -2.2047 153.982L-2.2047 163.286C-2.2047 164.267 -1.41022 165.074 -0.416419 165.074L10.0311 165.074C10.738 165.074 11.3193 165.647 11.3193 166.363L11.3193 177.387C11.3193 178.094 10.7465 178.675 10.0311 178.675L-0.416418 178.675C-1.39727 178.675 -2.2047 179.47 -2.2047 180.464Z" stroke="white" stroke-opacity="0.5" stroke-width="0.5"/>
<path d="M-27.0436 210.23L-27.0436 210.227L-27.0436 199.202C-27.0436 198.495 -26.4707 197.914 -25.7553 197.914L-14.9232 197.914L-0.811673 197.914L10.0311 197.914C10.738 197.914 11.3193 198.487 11.3193 199.202L11.3193 210.227C11.3193 210.934 10.7465 211.515 10.0311 211.515L0.726608 211.515C-0.254246 211.515 -1.06167 212.309 -1.06167 213.303L-1.06167 223.751C-1.06167 224.458 -1.63455 225.039 -2.34995 225.039L-13.385 225.039C-14.0919 225.039 -14.6732 224.466 -14.6732 223.751L-14.6732 213.303C-14.6732 212.322 -15.4677 211.515 -16.4615 211.515L-25.7553 211.515C-26.4736 211.515 -27.0525 210.931 -27.0436 210.23Z" stroke="white" stroke-opacity="0.5" stroke-width="0.5"/>
<path d="M-2.2047 99.9811L-2.2047 109.286C-2.2047 110.003 -2.78825 110.585 -3.49297 110.585L-14.5173 110.585C-15.2243 110.585 -15.8056 110.012 -15.8056 109.296L-15.8056 98.4535L-15.8056 84.342L-15.8056 73.4992C-15.8056 72.7827 -15.2338 72.2109 -14.5173 72.2109L-3.49298 72.2109C-2.786 72.2109 -2.2047 72.7838 -2.2047 73.4992L-2.2047 82.8037C-2.2047 83.7845 -1.41022 84.592 -0.416419 84.592L10.0311 84.592C10.738 84.592 11.3193 85.1648 11.3193 85.8802L11.3193 96.9046C11.3193 97.6115 10.7465 98.1928 10.0311 98.1928L-0.416418 98.1928C-1.39727 98.1928 -2.2047 98.9873 -2.2047 99.9811Z" stroke="white" stroke-opacity="0.5" stroke-width="0.5"/>
<path d="M-27.0436 129.736L-27.0436 129.733L-27.0436 118.708C-27.0436 117.992 -26.4718 117.42 -25.7553 117.42L-14.9232 117.42L-0.811673 117.42L10.0311 117.42C10.738 117.42 11.3193 117.993 11.3193 118.708L11.3193 129.743C11.3193 130.45 10.7465 131.031 10.0311 131.031L0.726608 131.031C-0.254248 131.031 -1.06167 131.826 -1.06167 132.82L-1.06167 143.267C-1.06167 143.984 -1.63342 144.556 -2.34995 144.556L-13.385 144.556C-14.0919 144.556 -14.6732 143.983 -14.6732 143.267L-14.6732 132.82C-14.6732 131.839 -15.4677 131.031 -16.4615 131.031L-25.7553 131.031C-26.4724 131.031 -27.0525 130.449 -27.0436 129.736Z" stroke="white" stroke-opacity="0.5" stroke-width="0.5"/>
<path d="M-2.2047 19.5113L-2.2047 28.8158C-2.2047 29.5216 -2.78713 30.1041 -3.49297 30.1041L-14.5173 30.1041C-15.2243 30.1041 -15.8056 29.5312 -15.8056 28.8158L-15.8056 17.9731L-15.8056 3.86148L-15.8056 -6.98125C-15.8056 -7.68823 -15.2327 -8.26953 -14.5173 -8.26953L-3.49298 -8.26953C-2.786 -8.26953 -2.2047 -7.69665 -2.2047 -6.98125L-2.2047 2.3232C-2.2047 3.30406 -1.41022 4.11148 -0.416419 4.11148L10.0311 4.11148C10.738 4.11148 11.3193 4.68436 11.3193 5.39976L11.3193 16.4348C11.3193 17.1417 10.7465 17.723 10.0311 17.723L-0.416418 17.7231C-1.39727 17.7231 -2.2047 18.5175 -2.2047 19.5113Z" stroke="white" stroke-opacity="0.5" stroke-width="0.5"/>
<path d="M-27.0436 49.2552L-27.0436 49.2521L-27.0436 38.2277C-27.0436 37.5112 -26.4718 36.9395 -25.7553 36.9395L-14.9232 36.9395L-0.811673 36.9395L10.0311 36.9395C10.738 36.9395 11.3193 37.5123 11.3193 38.2277L11.3193 49.2627C11.3193 49.9697 10.7465 50.551 10.0311 50.551L0.726608 50.551C-0.254248 50.551 -1.06167 51.3455 -1.06167 52.3393L-1.06167 62.7868C-1.06167 63.4938 -1.63455 64.0751 -2.34995 64.0751L-13.385 64.0751C-14.0919 64.0751 -14.6732 63.5022 -14.6732 62.7868L-14.6732 52.3393C-14.6732 51.3585 -15.4677 50.551 -16.4615 50.551L-25.7553 50.551C-26.4724 50.551 -27.0525 49.9687 -27.0436 49.2552Z" stroke="white" stroke-opacity="0.5" stroke-width="0.5"/>
<path d="M87.5277 341.428L87.5277 350.733C87.5277 351.447 86.9473 352.022 86.238 352.032L75.2151 352.032C74.5081 352.032 73.9268 351.459 73.9268 350.744L73.9268 339.901L73.9268 325.789L73.9268 314.946C73.9268 314.23 74.4986 313.658 75.2151 313.658L86.2394 313.658C86.9464 313.658 87.5277 314.231 87.5277 314.946L87.5277 324.251C87.5277 325.232 88.3222 326.039 89.316 326.039L99.7635 326.039C100.47 326.039 101.052 326.612 101.052 327.328L101.052 338.352C101.052 339.059 100.479 339.64 99.7635 339.64L89.316 339.64C88.3351 339.64 87.5277 340.435 87.5277 341.428Z" stroke="white" stroke-opacity="0.5" stroke-width="0.5"/>
<path d="M63.9771 372.718L73.2709 372.718C74.1255 372.718 74.8092 373.412 74.8092 374.256L74.8092 384.704C74.8092 385.558 75.5035 386.242 76.3475 386.242L87.3825 386.242C88.2371 386.242 88.9208 385.558 88.9208 384.704L88.9208 374.256C88.9208 373.412 89.6151 372.718 90.459 372.718L99.7635 372.718C100.618 372.718 101.302 372.024 101.302 371.18L101.302 360.155C101.302 359.301 100.607 358.617 99.7635 358.617L88.9207 358.617L74.8092 358.617L63.9771 358.617C63.1225 358.617 62.4389 359.301 62.4389 360.155L62.4389 371.18C62.4282 372.034 63.1225 372.718 63.9771 372.718Z" fill="black"/>
<path d="M62.6889 371.183L62.6889 371.18L62.6889 360.155C62.6889 359.439 63.2606 358.867 63.9771 358.867L74.8092 358.867L88.9207 358.867L99.7635 358.867C100.47 358.867 101.052 359.44 101.052 360.155L101.052 371.18C101.052 371.887 100.479 372.468 99.7635 372.468L90.459 372.468C89.477 372.468 88.6707 373.274 88.6708 374.256L88.6708 384.704C88.6708 385.42 88.099 385.992 87.3825 385.992L76.3475 385.992C75.6405 385.992 75.0592 385.419 75.0592 384.704L75.0592 374.256C75.0592 373.276 74.2647 372.468 73.2709 372.468L63.9771 372.468C63.2577 372.468 62.6799 371.894 62.6889 371.183Z" stroke="white" stroke-opacity="0.5" stroke-width="0.5"/>
<path d="M87.5277 260.948L87.5277 270.252C87.5277 270.967 86.9471 271.542 86.2377 271.551L75.2151 271.551C74.5081 271.551 73.9268 270.978 73.9268 270.263L73.9268 259.42L73.9268 245.309L73.9268 234.466C73.9268 233.749 74.4986 233.178 75.2151 233.178L86.2394 233.178C86.9464 233.178 87.5277 233.751 87.5277 234.466L87.5277 243.77C87.5277 244.751 88.3222 245.559 89.316 245.559L99.7635 245.559C100.47 245.559 101.052 246.132 101.052 246.847L101.052 257.871C101.052 258.578 100.479 259.16 99.7635 259.16L89.316 259.16C88.3351 259.16 87.5277 259.954 87.5277 260.948Z" stroke="white" stroke-opacity="0.5" stroke-width="0.5"/>
<path d="M78.89 290.693L69.5856 290.693C68.8786 290.693 68.2973 290.12 68.2973 289.404L68.2973 278.38C68.2973 277.664 68.8691 277.092 69.5856 277.092L80.4283 277.092L94.5399 277.092L105.383 277.092C106.09 277.092 106.671 277.665 106.671 278.38L106.671 289.404C106.671 290.111 106.098 290.693 105.383 290.693L96.0782 290.693C95.0962 290.693 94.2899 291.499 94.2899 292.481L94.2899 302.928C94.2899 303.645 93.7181 304.217 93.0016 304.217L81.9666 304.217C81.2596 304.217 80.6783 303.644 80.6783 302.928L80.6783 292.481C80.6783 291.5 79.8838 290.693 78.89 290.693Z" stroke="white" stroke-opacity="0.5" stroke-width="0.5"/>
<path d="M87.5277 180.466L87.5277 189.77C87.5277 190.484 86.9473 191.059 86.238 191.069L75.2151 191.069C74.5081 191.069 73.9268 190.496 73.9268 189.781L73.9268 178.938L73.9268 164.826L73.9268 153.984C73.9268 153.267 74.4986 152.695 75.2151 152.695L86.2394 152.695C86.9464 152.695 87.5277 153.268 87.5277 153.984L87.5277 163.288C87.5277 164.269 88.3222 165.076 89.316 165.076L99.7635 165.076C100.47 165.076 101.052 165.649 101.052 166.365L101.052 177.389C101.052 178.096 100.479 178.677 99.7635 178.677L89.316 178.677C88.3351 178.677 87.5277 179.472 87.5277 180.466Z" stroke="white" stroke-opacity="0.5" stroke-width="0.5"/>
<path d="M62.6889 210.23L62.6889 210.227L62.6889 199.202C62.6889 198.495 63.2617 197.914 63.9771 197.914L74.8092 197.914L88.9207 197.914L99.7635 197.914C100.47 197.914 101.052 198.487 101.052 199.202L101.052 210.227C101.052 210.934 100.479 211.515 99.7635 211.515L90.459 211.515C89.4782 211.515 88.6707 212.309 88.6708 213.303L88.6708 223.751C88.6708 224.458 88.0979 225.039 87.3825 225.039L76.3475 225.039C75.6405 225.039 75.0592 224.466 75.0592 223.751L75.0592 213.303C75.0592 212.322 74.2647 211.515 73.2709 211.515L63.9771 211.515C63.2588 211.515 62.68 210.931 62.6889 210.23Z" stroke="white" stroke-opacity="0.5" stroke-width="0.5"/>
<path d="M87.7777 109.286L87.7777 99.9811C87.7777 99.1265 88.4721 98.4428 89.316 98.4428L99.7635 98.4428C100.618 98.4428 101.302 97.7485 101.302 96.9046L101.302 85.8802C101.302 85.0256 100.607 84.342 99.7635 84.342L89.316 84.342C88.4614 84.342 87.7777 83.6476 87.7777 82.8037L87.7777 73.4992C87.7777 72.6446 87.0834 71.9609 86.2394 71.9609L75.2151 71.9609C74.3605 71.9609 73.6768 72.6446 73.6768 73.4992L73.6768 84.342L73.6768 98.4535L73.6768 109.296C73.6768 110.151 74.3712 110.835 75.2151 110.835L86.2394 110.835C87.0834 110.835 87.7777 110.14 87.7777 109.286Z" fill="black"/>
<path d="M87.5277 99.9811L87.5277 109.286C87.5277 110.003 86.9442 110.585 86.2394 110.585L75.2151 110.585C74.5081 110.585 73.9268 110.012 73.9268 109.296L73.9268 98.4535L73.9268 84.342L73.9268 73.4992C73.9268 72.7827 74.4986 72.2109 75.2151 72.2109L86.2394 72.2109C86.9464 72.2109 87.5277 72.7838 87.5277 73.4992L87.5277 82.8037C87.5277 83.7845 88.3222 84.592 89.316 84.592L99.7635 84.592C100.47 84.592 101.052 85.1648 101.052 85.8802L101.052 96.9046C101.052 97.6115 100.479 98.1928 99.7635 98.1928L89.316 98.1928C88.3351 98.1928 87.5277 98.9873 87.5277 99.9811Z" stroke="white" stroke-opacity="0.5" stroke-width="0.5"/>
<path d="M62.6889 129.736L62.6889 129.733L62.6889 118.708C62.6889 117.992 63.2606 117.42 63.9771 117.42L74.8092 117.42L88.9207 117.42L99.7635 117.42C100.47 117.42 101.052 117.993 101.052 118.708L101.052 129.743C101.052 130.45 100.479 131.031 99.7635 131.031L90.459 131.031C89.4782 131.031 88.6707 131.826 88.6708 132.82L88.6708 143.267C88.6708 143.984 88.099 144.556 87.3825 144.556L76.3475 144.556C75.6405 144.556 75.0592 143.983 75.0592 143.267L75.0592 132.82C75.0592 131.839 74.2647 131.031 73.2709 131.031L63.9771 131.031C63.26 131.031 62.6799 130.449 62.6889 129.736Z" stroke="white" stroke-opacity="0.5" stroke-width="0.5"/>
<path d="M87.5277 19.5113L87.5277 28.8158C87.5277 29.5216 86.9453 30.1041 86.2394 30.1041L75.2151 30.1041C74.5081 30.1041 73.9268 29.5312 73.9268 28.8158L73.9268 17.9731L73.9268 3.86148L73.9268 -6.98125C73.9268 -7.68823 74.4997 -8.26953 75.2151 -8.26953L86.2394 -8.26953C86.9464 -8.26953 87.5277 -7.69665 87.5277 -6.98125L87.5277 2.3232C87.5277 3.30406 88.3222 4.11148 89.316 4.11148L99.7635 4.11148C100.47 4.11148 101.052 4.68436 101.052 5.39976L101.052 16.4348C101.052 17.1417 100.479 17.723 99.7635 17.723L89.316 17.7231C88.3351 17.7231 87.5277 18.5175 87.5277 19.5113Z" stroke="white" stroke-opacity="0.5" stroke-width="0.5"/>
<path d="M62.6889 49.2552L62.6889 49.2521L62.6889 38.2277C62.6889 37.5112 63.2606 36.9395 63.9771 36.9395L74.8092 36.9395L88.9207 36.9395L99.7635 36.9395C100.47 36.9395 101.052 37.5123 101.052 38.2277L101.052 49.2627C101.052 49.9697 100.479 50.551 99.7635 50.551L90.459 50.551C89.4782 50.551 88.6707 51.3455 88.6708 52.3393L88.6708 62.7868C88.6708 63.4938 88.0979 64.0751 87.3825 64.0751L76.3475 64.0751C75.6405 64.0751 75.0592 63.5022 75.0592 62.7868L75.0592 52.3393C75.0592 51.3585 74.2647 50.551 73.2709 50.551L63.9771 50.551C63.26 50.551 62.6799 49.9687 62.6889 49.2552Z" stroke="white" stroke-opacity="0.5" stroke-width="0.5"/>
<path d="M356.727 341.428L356.727 350.733C356.727 351.447 356.147 352.022 355.437 352.032L344.414 352.032C343.707 352.032 343.126 351.459 343.126 350.744L343.126 339.901L343.126 325.789L343.126 314.946C343.126 314.23 343.698 313.658 344.414 313.658L355.439 313.658C356.146 313.658 356.727 314.231 356.727 314.946L356.727 324.251C356.727 325.232 357.521 326.039 358.515 326.039L368.963 326.039C369.67 326.039 370.251 326.612 370.251 327.328L370.251 338.352C370.251 339.059 369.678 339.64 368.963 339.64L358.515 339.64C357.534 339.64 356.727 340.435 356.727 341.428Z" stroke="white" stroke-opacity="0.5" stroke-width="0.5"/>
<path d="M331.888 371.181L331.888 371.178L331.888 360.154C331.888 359.437 332.46 358.865 333.176 358.865L344.008 358.865L358.12 358.865L368.963 358.865C369.67 358.865 370.251 359.438 370.251 360.154L370.251 371.178C370.251 371.885 369.678 372.466 368.963 372.466L359.658 372.466C358.676 372.466 357.87 373.272 357.87 374.254L357.87 384.702C357.87 385.418 357.298 385.99 356.582 385.99L345.547 385.99C344.84 385.99 344.258 385.417 344.258 384.702L344.258 374.254C344.258 373.274 343.464 372.466 342.47 372.466L333.176 372.466C332.457 372.466 331.879 371.892 331.888 371.181Z" stroke="white" stroke-opacity="0.5" stroke-width="0.5"/>
<path d="M356.727 260.946L356.727 270.25C356.727 270.965 356.146 271.54 355.437 271.549L344.414 271.549C343.707 271.549 343.126 270.976 343.126 270.261L343.126 259.418L343.126 245.307L343.126 234.464C343.126 233.748 343.698 233.176 344.414 233.176L355.439 233.176C356.146 233.176 356.727 233.749 356.727 234.464L356.727 243.769C356.727 244.749 357.521 245.557 358.515 245.557L368.963 245.557C369.67 245.557 370.251 246.13 370.251 246.845L370.251 257.869C370.251 258.576 369.678 259.158 368.963 259.158L358.515 259.158C357.534 259.158 356.727 259.952 356.727 260.946Z" stroke="white" stroke-opacity="0.5" stroke-width="0.5"/>
<path d="M348.089 290.693L338.785 290.693C338.078 290.693 337.497 290.12 337.497 289.404L337.497 278.38C337.497 277.664 338.068 277.092 338.785 277.092L349.628 277.092L363.739 277.092L374.582 277.092C375.289 277.092 375.87 277.665 375.87 278.38L375.87 289.404C375.87 290.111 375.297 290.693 374.582 290.693L365.277 290.693C364.295 290.693 363.489 291.499 363.489 292.481L363.489 302.928C363.489 303.645 362.917 304.217 362.201 304.217L351.166 304.217C350.459 304.217 349.878 303.644 349.878 302.928L349.878 292.481C349.878 291.5 349.083 290.693 348.089 290.693Z" stroke="white" stroke-opacity="0.5" stroke-width="0.5"/>
<path d="M356.727 180.464L356.727 189.768C356.727 190.482 356.147 191.057 355.437 191.067L344.414 191.067C343.707 191.067 343.126 190.494 343.126 189.779L343.126 178.936L343.126 164.824L343.126 153.982C343.126 153.265 343.698 152.693 344.414 152.693L355.439 152.693C356.146 152.693 356.727 153.266 356.727 153.982L356.727 163.286C356.727 164.267 357.521 165.074 358.515 165.074L368.963 165.074C369.67 165.074 370.251 165.647 370.251 166.363L370.251 177.387C370.251 178.094 369.678 178.675 368.963 178.675L358.515 178.675C357.534 178.675 356.727 179.47 356.727 180.464Z" stroke="white" stroke-opacity="0.5" stroke-width="0.5"/>
<path d="M331.888 210.23L331.888 210.227L331.888 199.202C331.888 198.495 332.461 197.914 333.176 197.914L344.008 197.914L358.12 197.914L368.963 197.914C369.67 197.914 370.251 198.487 370.251 199.202L370.251 210.227C370.251 210.934 369.678 211.515 368.963 211.515L359.658 211.515C358.677 211.515 357.87 212.309 357.87 213.303L357.87 223.751C357.87 224.458 357.297 225.039 356.582 225.039L345.547 225.039C344.84 225.039 344.258 224.466 344.258 223.751L344.258 213.303C344.258 212.322 343.464 211.515 342.47 211.515L333.176 211.515C332.458 211.515 331.879 210.931 331.888 210.23Z" stroke="white" stroke-opacity="0.5" stroke-width="0.5"/>
<path d="M356.727 99.9811L356.727 109.286C356.727 110.003 356.143 110.585 355.439 110.585L344.414 110.585C343.707 110.585 343.126 110.012 343.126 109.296L343.126 98.4535L343.126 84.342L343.126 73.4992C343.126 72.7827 343.698 72.2109 344.414 72.2109L355.439 72.2109C356.146 72.2109 356.727 72.7838 356.727 73.4992L356.727 82.8037C356.727 83.7845 357.521 84.592 358.515 84.592L368.963 84.592C369.67 84.592 370.251 85.1648 370.251 85.8802L370.251 96.9046C370.251 97.6115 369.678 98.1928 368.963 98.1928L358.515 98.1928C357.534 98.1928 356.727 98.9873 356.727 99.9811Z" stroke="white" stroke-opacity="0.5" stroke-width="0.5"/>
<path d="M331.888 129.736L331.888 129.733L331.888 118.708C331.888 117.992 332.46 117.42 333.176 117.42L344.008 117.42L358.12 117.42L368.963 117.42C369.67 117.42 370.251 117.993 370.251 118.708L370.251 129.743C370.251 130.45 369.678 131.031 368.963 131.031L359.658 131.031C358.677 131.031 357.87 131.826 357.87 132.82L357.87 143.267C357.87 143.984 357.298 144.556 356.582 144.556L345.547 144.556C344.84 144.556 344.258 143.983 344.258 143.267L344.258 132.82C344.258 131.839 343.464 131.031 342.47 131.031L333.176 131.031C332.459 131.031 331.879 130.449 331.888 129.736Z" stroke="white" stroke-opacity="0.5" stroke-width="0.5"/>
<path d="M356.727 19.5113L356.727 28.8158C356.727 29.5216 356.145 30.1041 355.439 30.1041L344.414 30.1041C343.707 30.1041 343.126 29.5312 343.126 28.8158L343.126 17.9731L343.126 3.86148L343.126 -6.98125C343.126 -7.68823 343.699 -8.26953 344.414 -8.26953L355.439 -8.26953C356.146 -8.26953 356.727 -7.69665 356.727 -6.98125L356.727 2.3232C356.727 3.30406 357.521 4.11148 358.515 4.11148L368.963 4.11148C369.67 4.11148 370.251 4.68436 370.251 5.39976L370.251 16.4348C370.251 17.1417 369.678 17.723 368.963 17.723L358.515 17.7231C357.534 17.7231 356.727 18.5175 356.727 19.5113Z" stroke="white" stroke-opacity="0.5" stroke-width="0.5"/>
<path d="M331.888 49.2552L331.888 49.2521L331.888 38.2277C331.888 37.5112 332.46 36.9395 333.176 36.9395L344.008 36.9395L358.12 36.9395L368.963 36.9395C369.67 36.9395 370.251 37.5123 370.251 38.2277L370.251 49.2627C370.251 49.9697 369.678 50.551 368.963 50.551L359.658 50.551C358.677 50.551 357.87 51.3455 357.87 52.3393L357.87 62.7868C357.87 63.4938 357.297 64.0751 356.582 64.0751L345.547 64.0751C344.84 64.0751 344.258 63.5022 344.258 62.7868L344.258 52.3393C344.258 51.3585 343.464 50.551 342.47 50.551L333.176 50.551C332.459 50.551 331.879 49.9687 331.888 49.2552Z" stroke="white" stroke-opacity="0.5" stroke-width="0.5"/>
<path d="M216.421 36.306V27.0015C216.421 26.2873 217.001 25.7125 217.71 25.7026H228.733C229.44 25.7026 230.021 26.2754 230.021 26.9908V37.8336V51.9451V62.7879C230.021 63.5044 229.45 64.0762 228.733 64.0762H217.709C217.002 64.0762 216.421 63.5033 216.421 62.7879V53.4834C216.421 52.5026 215.626 51.6951 214.632 51.6951H204.185C203.478 51.6951 202.896 51.1223 202.896 50.4069V39.3825C202.896 38.6756 203.469 38.0943 204.185 38.0943H214.632C215.613 38.0943 216.421 37.2998 216.421 36.306Z" stroke="white" stroke-opacity="0.5" stroke-width="0.5"/>
<path d="M241.259 6.55144V6.55457V17.5789C241.259 18.2954 240.688 18.8672 239.971 18.8672H229.139H215.027H204.185C203.478 18.8672 202.896 18.2943 202.896 17.5789V6.55457C202.896 5.84759 203.469 5.26628 204.185 5.26628H213.489C214.471 5.26628 215.277 4.45999 215.277 3.478V-6.96947C215.277 -7.686 215.849 -8.25776 216.566 -8.25776H227.601C228.308 -8.25776 228.889 -7.68487 228.889 -6.96947V3.478C228.889 4.45886 229.684 5.26628 230.677 5.26628H239.971C240.691 5.26628 241.268 5.84021 241.259 6.55144Z" stroke="white" stroke-opacity="0.5" stroke-width="0.5"/>
<path d="M216.421 116.786V107.482C216.421 106.768 217.001 106.193 217.711 106.183H228.733C229.44 106.183 230.021 106.756 230.021 107.471V118.314V132.426V143.268C230.021 143.985 229.45 144.557 228.733 144.557H217.709C217.002 144.557 216.421 143.984 216.421 143.268V133.964C216.421 132.983 215.626 132.176 214.632 132.176H204.185C203.478 132.176 202.896 131.603 202.896 130.887V119.863C202.896 119.156 203.469 118.575 204.185 118.575H214.632C215.613 118.575 216.421 117.78 216.421 116.786Z" stroke="white" stroke-opacity="0.5" stroke-width="0.5"/>
<path d="M225.058 87.0417H234.363C235.07 87.0417 235.651 87.6146 235.651 88.33V99.3543C235.651 100.071 235.079 100.643 234.363 100.643H223.52H209.408H198.566C197.859 100.643 197.277 100.07 197.277 99.3543V88.33C197.277 87.623 197.85 87.0417 198.566 87.0417H207.87C208.852 87.0417 209.658 86.2354 209.658 85.2534V74.806C209.658 74.0894 210.23 73.5177 210.947 73.5177H221.982C222.689 73.5177 223.27 74.0905 223.27 74.806V85.2534C223.27 86.2343 224.064 87.0417 225.058 87.0417Z" stroke="white" stroke-opacity="0.5" stroke-width="0.5"/>
<path d="M216.421 197.269V187.964C216.421 187.25 217.001 186.675 217.71 186.665H228.733C229.44 186.665 230.021 187.238 230.021 187.954V198.796V212.908V223.751C230.021 224.467 229.45 225.039 228.733 225.039H217.709C217.002 225.039 216.421 224.466 216.421 223.751V214.446C216.421 213.465 215.626 212.658 214.632 212.658H204.185C203.478 212.658 202.896 212.085 202.896 211.37V200.345C202.896 199.638 203.469 199.057 204.185 199.057H214.632C215.613 199.057 216.421 198.263 216.421 197.269Z" stroke="white" stroke-opacity="0.5" stroke-width="0.5"/>
<path d="M241.259 167.505V167.508V178.532C241.259 179.239 240.687 179.82 239.971 179.82H229.139H215.027H204.185C203.478 179.82 202.896 179.247 202.896 178.532V167.508C202.896 166.801 203.469 166.219 204.185 166.219H213.489C214.47 166.219 215.277 165.425 215.277 164.431V153.984C215.277 153.277 215.85 152.695 216.566 152.695H227.601C228.308 152.695 228.889 153.268 228.889 153.984V164.431C228.889 165.412 229.684 166.219 230.677 166.219H239.971C240.689 166.219 241.268 166.803 241.259 167.505Z" stroke="white" stroke-opacity="0.5" stroke-width="0.5"/>
<path d="M216.421 277.751V268.447C216.421 267.729 217.004 267.148 217.709 267.148H228.733C229.44 267.148 230.021 267.721 230.021 268.436V279.279V293.39V304.233C230.021 304.95 229.45 305.521 228.733 305.521H217.709C217.002 305.521 216.421 304.949 216.421 304.233V294.929C216.421 293.948 215.626 293.14 214.632 293.14H204.185C203.478 293.14 202.896 292.568 202.896 291.852V280.828C202.896 280.121 203.469 279.54 204.185 279.54H214.632C215.613 279.54 216.421 278.745 216.421 277.751Z" stroke="white" stroke-opacity="0.5" stroke-width="0.5"/>
<path d="M241.259 247.997V248V259.024C241.259 259.741 240.688 260.312 239.971 260.312H229.139H215.027H204.185C203.478 260.312 202.896 259.74 202.896 259.024V247.989C202.896 247.282 203.469 246.701 204.185 246.701H213.489C214.47 246.701 215.277 245.906 215.277 244.913V234.465C215.277 233.749 215.849 233.177 216.566 233.177H227.601C228.308 233.177 228.889 233.75 228.889 234.465V244.913C228.889 245.894 229.684 246.701 230.677 246.701H239.971C240.688 246.701 241.268 247.283 241.259 247.997Z" stroke="white" stroke-opacity="0.5" stroke-width="0.5"/>
<path d="M216.421 358.221V348.917C216.421 348.211 217.003 347.628 217.709 347.628H228.733C229.44 347.628 230.021 348.201 230.021 348.917V359.759V373.871V384.714C230.021 385.421 229.449 386.002 228.733 386.002H217.709C217.002 386.002 216.421 385.429 216.421 384.714V375.409C216.421 374.428 215.626 373.621 214.632 373.621H204.185C203.478 373.621 202.896 373.048 202.896 372.333V361.298C202.896 360.591 203.469 360.009 204.185 360.009H214.632C215.613 360.009 216.421 359.215 216.421 358.221Z" stroke="white" stroke-opacity="0.5" stroke-width="0.5"/>
<path d="M241.259 328.477V328.48V339.505C241.259 340.221 240.688 340.793 239.971 340.793H229.139H215.027H204.185C203.478 340.793 202.896 340.22 202.896 339.505V328.47C202.896 327.763 203.469 327.181 204.185 327.181H213.489C214.47 327.181 215.277 326.387 215.277 325.393V314.946C215.277 314.239 215.85 313.657 216.566 313.657H227.601C228.308 313.657 228.889 314.23 228.889 314.946V325.393C228.889 326.374 229.684 327.181 230.677 327.181H239.971C240.688 327.181 241.268 327.764 241.259 328.477Z" stroke="white" stroke-opacity="0.5" stroke-width="0.5"/>
<path d="M305.903 27.0015V36.306C305.903 37.1606 305.209 37.8443 304.365 37.8443H293.917C293.063 37.8443 292.379 38.5386 292.379 39.3825V50.4069C292.379 51.2615 293.073 51.9451 293.917 51.9451H304.365C305.219 51.9451 305.903 52.6395 305.903 53.4834V62.7879C305.903 63.6425 306.597 64.3262 307.441 64.3262H318.466C319.32 64.3262 320.004 63.6425 320.004 62.7879V51.9451V37.8336V26.9908C320.004 26.1362 319.309 25.4526 318.466 25.4526H307.441C306.597 25.4632 305.903 26.1469 305.903 27.0015Z" fill="black"/>
<path d="M306.153 36.306V27.0015C306.153 26.2873 306.733 25.7125 307.443 25.7026H318.466C319.173 25.7026 319.754 26.2754 319.754 26.9908V37.8336V51.9451V62.7879C319.754 63.5044 319.182 64.0762 318.466 64.0762H307.441C306.734 64.0762 306.153 63.5033 306.153 62.7879V53.4834C306.153 52.5026 305.358 51.6951 304.365 51.6951H293.917C293.21 51.6951 292.629 51.1223 292.629 50.4069V39.3825C292.629 38.6756 293.202 38.0943 293.917 38.0943H304.365C305.346 38.0943 306.153 37.2998 306.153 36.306Z" stroke="white" stroke-opacity="0.5" stroke-width="0.5"/>
<path d="M330.992 6.55144V6.55457V17.5789C330.992 18.2954 330.42 18.8672 329.704 18.8672H318.871H304.76H293.917C293.21 18.8672 292.629 18.2943 292.629 17.5789V6.55457C292.629 5.84759 293.202 5.26628 293.917 5.26628H303.222C304.204 5.26628 305.01 4.45999 305.01 3.478V-6.96947C305.01 -7.686 305.582 -8.25776 306.298 -8.25776H317.333C318.04 -8.25776 318.621 -7.68487 318.621 -6.96947V3.478C318.621 4.45886 319.416 5.26628 320.41 5.26628H329.704C330.423 5.26628 331.001 5.84021 330.992 6.55144Z" stroke="white" stroke-opacity="0.5" stroke-width="0.5"/>
<path d="M306.153 116.786V107.482C306.153 106.768 306.734 106.193 307.443 106.183H318.466C319.173 106.183 319.754 106.756 319.754 107.471V118.314V132.426V143.268C319.754 143.985 319.182 144.557 318.466 144.557H307.441C306.734 144.557 306.153 143.984 306.153 143.268V133.964C306.153 132.983 305.358 132.176 304.365 132.176H293.917C293.21 132.176 292.629 131.603 292.629 130.887V119.863C292.629 119.156 293.202 118.575 293.917 118.575H304.365C305.346 118.575 306.153 117.78 306.153 116.786Z" stroke="white" stroke-opacity="0.5" stroke-width="0.5"/>
<path d="M314.791 87.0417H324.095C324.802 87.0417 325.383 87.6146 325.383 88.33V99.3543C325.383 100.071 324.812 100.643 324.095 100.643H313.252H299.141H288.298C287.591 100.643 287.01 100.07 287.01 99.3543V88.33C287.01 87.623 287.583 87.0417 288.298 87.0417H297.602C298.584 87.0417 299.391 86.2354 299.391 85.2534V74.806C299.391 74.0894 299.963 73.5177 300.679 73.5177H311.714C312.421 73.5177 313.002 74.0905 313.002 74.806V85.2534C313.002 86.2343 313.797 87.0417 314.791 87.0417Z" stroke="white" stroke-opacity="0.5" stroke-width="0.5"/>
<path d="M306.153 197.269V187.964C306.153 187.25 306.733 186.675 307.443 186.665H318.466C319.173 186.665 319.754 187.238 319.754 187.954V198.796V212.908V223.751C319.754 224.467 319.182 225.039 318.466 225.039H307.441C306.734 225.039 306.153 224.466 306.153 223.751V214.446C306.153 213.465 305.358 212.658 304.365 212.658H293.917C293.21 212.658 292.629 212.085 292.629 211.37V200.345C292.629 199.638 293.202 199.057 293.917 199.057H304.365C305.346 199.057 306.153 198.263 306.153 197.269Z" stroke="white" stroke-opacity="0.5" stroke-width="0.5"/>
<path d="M330.992 167.505V167.508V178.532C330.992 179.239 330.419 179.82 329.704 179.82H318.871H304.76H293.917C293.21 179.82 292.629 179.247 292.629 178.532V167.508C292.629 166.801 293.202 166.219 293.917 166.219H303.222C304.202 166.219 305.01 165.425 305.01 164.431V153.984C305.01 153.277 305.583 152.695 306.298 152.695H317.333C318.04 152.695 318.621 153.268 318.621 153.984V164.431C318.621 165.412 319.416 166.219 320.41 166.219H329.704C330.422 166.219 331.001 166.803 330.992 167.505Z" stroke="white" stroke-opacity="0.5" stroke-width="0.5"/>
<path d="M306.153 277.751V268.447C306.153 267.729 306.736 267.148 307.441 267.148H318.466C319.173 267.148 319.754 267.721 319.754 268.436V279.279V293.39V304.233C319.754 304.95 319.182 305.521 318.466 305.521H307.441C306.734 305.521 306.153 304.949 306.153 304.233V294.929C306.153 293.948 305.358 293.14 304.365 293.14H293.917C293.21 293.14 292.629 292.568 292.629 291.852V280.828C292.629 280.121 293.202 279.54 293.917 279.54H304.365C305.346 279.54 306.153 278.745 306.153 277.751Z" stroke="white" stroke-opacity="0.5" stroke-width="0.5"/>
<path d="M330.992 247.997V248V259.024C330.992 259.741 330.42 260.312 329.704 260.312H318.871H304.76H293.917C293.21 260.312 292.629 259.74 292.629 259.024V247.989C292.629 247.282 293.202 246.701 293.917 246.701H303.222C304.202 246.701 305.01 245.906 305.01 244.913V234.465C305.01 233.749 305.582 233.177 306.298 233.177H317.333C318.04 233.177 318.621 233.75 318.621 234.465V244.913C318.621 245.894 319.416 246.701 320.41 246.701H329.704C330.421 246.701 331.001 247.283 330.992 247.997Z" stroke="white" stroke-opacity="0.5" stroke-width="0.5"/>
<path d="M306.153 358.221V348.917C306.153 348.211 306.735 347.628 307.441 347.628H318.466C319.173 347.628 319.754 348.201 319.754 348.917V359.759V373.871V384.714C319.754 385.421 319.181 386.002 318.466 386.002H307.441C306.734 386.002 306.153 385.429 306.153 384.714V375.409C306.153 374.428 305.358 373.621 304.365 373.621H293.917C293.21 373.621 292.629 373.048 292.629 372.333V361.298C292.629 360.591 293.202 360.009 293.917 360.009H304.365C305.346 360.009 306.153 359.215 306.153 358.221Z" stroke="white" stroke-opacity="0.5" stroke-width="0.5"/>
<path d="M330.992 328.477V328.48V339.505C330.992 340.221 330.42 340.793 329.704 340.793H318.871H304.76H293.917C293.21 340.793 292.629 340.22 292.629 339.505V328.47C292.629 327.763 293.202 327.181 293.917 327.181H303.222C304.202 327.181 305.01 326.387 305.01 325.393V314.946C305.01 314.239 305.583 313.657 306.298 313.657H317.333C318.04 313.657 318.621 314.23 318.621 314.946V325.393C318.621 326.374 319.416 327.181 320.41 327.181H329.704C330.421 327.181 331.001 327.764 330.992 328.477Z" stroke="white" stroke-opacity="0.5" stroke-width="0.5"/>
<path d="M177.261 341.428L177.261 350.733C177.261 351.447 176.681 352.022 175.971 352.032L164.949 352.032C164.242 352.032 163.66 351.459 163.66 350.744L163.66 339.901L163.66 325.789L163.66 314.946C163.66 314.23 164.232 313.658 164.949 313.658L175.973 313.658C176.68 313.658 177.261 314.231 177.261 314.946L177.261 324.251C177.261 325.232 178.056 326.039 179.049 326.039L189.497 326.039C190.204 326.039 190.785 326.612 190.785 327.328L190.785 338.352C190.785 339.059 190.212 339.64 189.497 339.64L179.049 339.64C178.069 339.64 177.261 340.435 177.261 341.428Z" stroke="white" stroke-opacity="0.5" stroke-width="0.5"/>
<path d="M152.422 371.181L152.422 371.178L152.422 360.154C152.422 359.437 152.994 358.865 153.711 358.865L164.543 358.865L178.654 358.865L189.497 358.865C190.204 358.865 190.785 359.438 190.785 360.154L190.785 371.178C190.785 371.885 190.212 372.466 189.497 372.466L180.192 372.466C179.21 372.466 178.404 373.272 178.404 374.254L178.404 384.702C178.404 385.418 177.832 385.99 177.116 385.99L166.081 385.99C165.374 385.99 164.793 385.417 164.793 384.702L164.793 374.254C164.793 373.274 163.998 372.466 163.004 372.466L153.711 372.466C152.991 372.466 152.413 371.892 152.422 371.181Z" stroke="white" stroke-opacity="0.5" stroke-width="0.5"/>
<path d="M177.261 260.946L177.261 270.25C177.261 270.965 176.681 271.54 175.971 271.549L164.949 271.549C164.242 271.549 163.66 270.976 163.66 270.261L163.66 259.418L163.66 245.307L163.66 234.464C163.66 233.748 164.232 233.176 164.949 233.176L175.973 233.176C176.68 233.176 177.261 233.749 177.261 234.464L177.261 243.769C177.261 244.749 178.056 245.557 179.049 245.557L189.497 245.557C190.204 245.557 190.785 246.13 190.785 246.845L190.785 257.869C190.785 258.576 190.212 259.158 189.497 259.158L179.049 259.158C178.069 259.158 177.261 259.952 177.261 260.946Z" stroke="white" stroke-opacity="0.5" stroke-width="0.5"/>
<path d="M168.623 290.693L159.319 290.693C158.612 290.693 158.031 290.12 158.031 289.404L158.031 278.38C158.031 277.664 158.602 277.092 159.319 277.092L170.162 277.092L184.273 277.092L195.116 277.092C195.823 277.092 196.404 277.665 196.404 278.38L196.404 289.404C196.404 290.111 195.831 290.693 195.116 290.693L185.812 290.693C184.83 290.693 184.023 291.499 184.023 292.481L184.023 302.928C184.023 303.645 183.452 304.217 182.735 304.217L171.7 304.217C170.993 304.217 170.412 303.644 170.412 302.928L170.412 292.481C170.412 291.5 169.617 290.693 168.623 290.693Z" stroke="white" stroke-opacity="0.5" stroke-width="0.5"/>
<path d="M177.261 180.464L177.261 189.768C177.261 190.482 176.681 191.057 175.971 191.067L164.949 191.067C164.242 191.067 163.66 190.494 163.66 189.779L163.66 178.936L163.66 164.824L163.66 153.982C163.66 153.265 164.232 152.693 164.949 152.693L175.973 152.693C176.68 152.693 177.261 153.266 177.261 153.982L177.261 163.286C177.261 164.267 178.056 165.074 179.049 165.074L189.497 165.074C190.204 165.074 190.785 165.647 190.785 166.363L190.785 177.387C190.785 178.094 190.212 178.675 189.497 178.675L179.049 178.675C178.069 178.675 177.261 179.47 177.261 180.464Z" stroke="white" stroke-opacity="0.5" stroke-width="0.5"/>
<path d="M152.422 210.23L152.422 210.227L152.422 199.202C152.422 198.495 152.995 197.914 153.711 197.914L164.543 197.914L178.654 197.914L189.497 197.914C190.204 197.914 190.785 198.487 190.785 199.202L190.785 210.227C190.785 210.934 190.212 211.515 189.497 211.515L180.192 211.515C179.212 211.515 178.404 212.309 178.404 213.303L178.404 223.751C178.404 224.458 177.831 225.039 177.116 225.039L166.081 225.039C165.374 225.039 164.793 224.466 164.793 223.751L164.793 213.303C164.793 212.322 163.998 211.515 163.004 211.515L153.711 211.515C152.992 211.515 152.413 210.931 152.422 210.23Z" stroke="white" stroke-opacity="0.5" stroke-width="0.5"/>
<path d="M177.261 99.9811L177.261 109.286C177.261 110.003 176.678 110.585 175.973 110.585L164.949 110.585C164.242 110.585 163.66 110.012 163.66 109.296L163.66 98.4535L163.66 84.342L163.66 73.4992C163.66 72.7827 164.232 72.2109 164.949 72.2109L175.973 72.2109C176.68 72.2109 177.261 72.7838 177.261 73.4992L177.261 82.8037C177.261 83.7845 178.056 84.592 179.049 84.592L189.497 84.592C190.204 84.592 190.785 85.1648 190.785 85.8802L190.785 96.9046C190.785 97.6115 190.212 98.1928 189.497 98.1928L179.049 98.1928C178.069 98.1928 177.261 98.9873 177.261 99.9811Z" stroke="white" stroke-opacity="0.5" stroke-width="0.5"/>
<path d="M152.422 129.736L152.422 129.733L152.422 118.708C152.422 117.992 152.994 117.42 153.711 117.42L164.543 117.42L178.654 117.42L189.497 117.42C190.204 117.42 190.785 117.993 190.785 118.708L190.785 129.743C190.785 130.45 190.212 131.031 189.497 131.031L180.192 131.031C179.212 131.031 178.404 131.826 178.404 132.82L178.404 143.267C178.404 143.984 177.832 144.556 177.116 144.556L166.081 144.556C165.374 144.556 164.793 143.983 164.793 143.267L164.793 132.82C164.793 131.839 163.998 131.031 163.004 131.031L153.711 131.031C152.993 131.031 152.413 130.449 152.422 129.736Z" stroke="white" stroke-opacity="0.5" stroke-width="0.5"/>
<path d="M177.261 19.5113L177.261 28.8158C177.261 29.5216 176.679 30.1041 175.973 30.1041L164.949 30.1041C164.242 30.1041 163.66 29.5312 163.66 28.8158L163.66 17.9731L163.66 3.86148L163.66 -6.98125C163.66 -7.68823 164.233 -8.26953 164.949 -8.26953L175.973 -8.26953C176.68 -8.26953 177.261 -7.69665 177.261 -6.98125L177.261 2.3232C177.261 3.30406 178.056 4.11148 179.049 4.11148L189.497 4.11148C190.204 4.11148 190.785 4.68436 190.785 5.39976L190.785 16.4348C190.785 17.1417 190.212 17.723 189.497 17.723L179.049 17.7231C178.069 17.7231 177.261 18.5175 177.261 19.5113Z" stroke="white" stroke-opacity="0.5" stroke-width="0.5"/>
<path d="M152.422 49.2552L152.422 49.2521L152.422 38.2277C152.422 37.5112 152.994 36.9395 153.711 36.9395L164.543 36.9395L178.654 36.9395L189.497 36.9395C190.204 36.9395 190.785 37.5123 190.785 38.2277L190.785 49.2627C190.785 49.9697 190.212 50.551 189.497 50.551L180.192 50.551C179.212 50.551 178.404 51.3455 178.404 52.3393L178.404 62.7868C178.404 63.4938 177.831 64.0751 177.116 64.0751L166.081 64.0751C165.374 64.0751 164.793 63.5022 164.793 62.7868L164.793 52.3393C164.793 51.3585 163.998 50.551 163.004 50.551L153.711 50.551C152.993 50.551 152.413 49.9687 152.422 49.2552Z" stroke="white" stroke-opacity="0.5" stroke-width="0.5"/>
<path d="M266.994 341.428L266.994 350.733C266.994 351.447 266.413 352.022 265.704 352.032L254.681 352.032C253.974 352.032 253.393 351.459 253.393 350.744L253.393 339.901L253.393 325.789L253.393 314.946C253.393 314.23 253.964 313.658 254.681 313.658L265.705 313.658C266.412 313.658 266.994 314.231 266.994 314.946L266.994 324.251C266.994 325.232 267.788 326.039 268.782 326.039L279.229 326.039C279.936 326.039 280.518 326.612 280.518 327.328L280.518 338.352C280.518 339.059 279.945 339.64 279.229 339.64L268.782 339.64C267.801 339.64 266.994 340.435 266.994 341.428Z" stroke="white" stroke-opacity="0.5" stroke-width="0.5"/>
<path d="M242.155 371.183L242.155 371.18L242.155 360.155C242.155 359.439 242.726 358.867 243.443 358.867L254.275 358.867L268.387 358.867L279.229 358.867C279.936 358.867 280.518 359.44 280.518 360.155L280.518 371.18C280.518 371.887 279.945 372.468 279.229 372.468L269.925 372.468C268.943 372.468 268.137 373.274 268.137 374.256L268.137 384.704C268.137 385.42 267.565 385.992 266.848 385.992L255.813 385.992C255.106 385.992 254.525 385.419 254.525 384.704L254.525 374.256C254.525 373.276 253.731 372.468 252.737 372.468L243.443 372.468C242.724 372.468 242.146 371.894 242.155 371.183Z" stroke="white" stroke-opacity="0.5" stroke-width="0.5"/>
<path d="M266.994 260.948L266.994 270.252C266.994 270.967 266.413 271.542 265.704 271.551L254.681 271.551C253.974 271.551 253.393 270.978 253.393 270.263L253.393 259.42L253.393 245.309L253.393 234.466C253.393 233.749 253.964 233.178 254.681 233.178L265.705 233.178C266.412 233.178 266.994 233.751 266.994 234.466L266.994 243.77C266.994 244.751 267.788 245.559 268.782 245.559L279.229 245.559C279.936 245.559 280.518 246.132 280.518 246.847L280.518 257.871C280.518 258.578 279.945 259.16 279.229 259.16L268.782 259.16C267.801 259.16 266.994 259.954 266.994 260.948Z" stroke="white" stroke-opacity="0.5" stroke-width="0.5"/>
<path d="M249.051 290.943L258.356 290.943C259.21 290.943 259.894 291.637 259.894 292.481L259.894 302.928C259.894 303.783 260.589 304.467 261.432 304.467L272.467 304.467C273.322 304.467 274.006 303.783 274.006 302.928L274.006 292.481C274.006 291.637 274.7 290.943 275.544 290.943L284.848 290.943C285.703 290.943 286.387 290.248 286.387 289.404L286.387 278.38C286.387 277.525 285.692 276.842 284.848 276.842L274.006 276.842L259.894 276.842L249.051 276.842C248.197 276.842 247.513 277.525 247.513 278.38L247.513 289.404C247.513 290.259 248.207 290.943 249.051 290.943Z" fill="black"/>
<path d="M258.356 290.693L249.051 290.693C248.344 290.693 247.763 290.12 247.763 289.404L247.763 278.38C247.763 277.664 248.335 277.092 249.051 277.092L259.894 277.092L274.006 277.092L284.848 277.092C285.555 277.092 286.137 277.665 286.137 278.38L286.137 289.404C286.137 290.111 285.564 290.693 284.848 290.693L275.544 290.693C274.562 290.693 273.756 291.499 273.756 292.481L273.756 302.928C273.756 303.645 273.184 304.217 272.467 304.217L261.432 304.217C260.725 304.217 260.144 303.644 260.144 302.928L260.144 292.481C260.144 291.5 259.35 290.693 258.356 290.693Z" stroke="white" stroke-opacity="0.5" stroke-width="0.5"/>
<path d="M266.994 180.466L266.994 189.77C266.994 190.484 266.413 191.059 265.704 191.069L254.681 191.069C253.974 191.069 253.393 190.496 253.393 189.781L253.393 178.938L253.393 164.826L253.393 153.984C253.393 153.267 253.964 152.695 254.681 152.695L265.705 152.695C266.412 152.695 266.994 153.268 266.994 153.984L266.994 163.288C266.994 164.269 267.788 165.076 268.782 165.076L279.229 165.076C279.936 165.076 280.518 165.649 280.518 166.365L280.518 177.389C280.518 178.096 279.945 178.677 279.229 178.677L268.782 178.677C267.801 178.677 266.994 179.472 266.994 180.466Z" stroke="white" stroke-opacity="0.5" stroke-width="0.5"/>
<path d="M242.155 210.23L242.155 210.227L242.155 199.202C242.155 198.495 242.728 197.914 243.443 197.914L254.275 197.914L268.387 197.914L279.229 197.914C279.936 197.914 280.518 198.487 280.518 199.202L280.518 210.227C280.518 210.934 279.945 211.515 279.229 211.515L269.925 211.515C268.944 211.515 268.137 212.309 268.137 213.303L268.137 223.751C268.137 224.458 267.564 225.039 266.848 225.039L255.813 225.039C255.106 225.039 254.525 224.466 254.525 223.751L254.525 213.303C254.525 212.322 253.731 211.515 252.737 211.515L243.443 211.515C242.725 211.515 242.146 210.931 242.155 210.23Z" stroke="white" stroke-opacity="0.5" stroke-width="0.5"/>
<path d="M266.994 99.9811L266.994 109.286C266.994 110.003 266.41 110.585 265.705 110.585L254.681 110.585C253.974 110.585 253.393 110.012 253.393 109.296L253.393 98.4535L253.393 84.342L253.393 73.4992C253.393 72.7827 253.964 72.2109 254.681 72.2109L265.705 72.2109C266.412 72.2109 266.994 72.7838 266.994 73.4992L266.994 82.8037C266.994 83.7845 267.788 84.592 268.782 84.592L279.229 84.592C279.936 84.592 280.518 85.1648 280.518 85.8802L280.518 96.9046C280.518 97.6115 279.945 98.1928 279.229 98.1928L268.782 98.1928C267.801 98.1928 266.994 98.9873 266.994 99.9811Z" stroke="white" stroke-opacity="0.5" stroke-width="0.5"/>
<path d="M242.155 129.736L242.155 129.733L242.155 118.708C242.155 117.992 242.726 117.42 243.443 117.42L254.275 117.42L268.387 117.42L279.229 117.42C279.936 117.42 280.518 117.993 280.518 118.708L280.518 129.743C280.518 130.45 279.945 131.031 279.229 131.031L269.925 131.031C268.944 131.031 268.137 131.826 268.137 132.82L268.137 143.267C268.137 143.984 267.565 144.556 266.848 144.556L255.813 144.556C255.106 144.556 254.525 143.983 254.525 143.267L254.525 132.82C254.525 131.839 253.731 131.031 252.737 131.031L243.443 131.031C242.726 131.031 242.146 130.449 242.155 129.736Z" stroke="white" stroke-opacity="0.5" stroke-width="0.5"/>
<path d="M266.994 19.5113L266.994 28.8158C266.994 29.5216 266.411 30.1041 265.705 30.1041L254.681 30.1041C253.974 30.1041 253.393 29.5312 253.393 28.8158L253.393 17.9731L253.393 3.86148L253.393 -6.98125C253.393 -7.68823 253.966 -8.26953 254.681 -8.26953L265.705 -8.26953C266.412 -8.26953 266.994 -7.69665 266.994 -6.98125L266.994 2.3232C266.994 3.30406 267.788 4.11148 268.782 4.11148L279.229 4.11148C279.936 4.11148 280.518 4.68436 280.518 5.39976L280.518 16.4348C280.518 17.1417 279.945 17.723 279.229 17.723L268.782 17.7231C267.801 17.7231 266.994 18.5175 266.994 19.5113Z" stroke="white" stroke-opacity="0.5" stroke-width="0.5"/>
<path d="M242.155 49.2552L242.155 49.2521L242.155 38.2277C242.155 37.5112 242.726 36.9395 243.443 36.9395L254.275 36.9395L268.387 36.9395L279.229 36.9395C279.936 36.9395 280.518 37.5123 280.518 38.2277L280.518 49.2627C280.518 49.9697 279.945 50.551 279.229 50.551L269.925 50.551C268.944 50.551 268.137 51.3455 268.137 52.3393L268.137 62.7868C268.137 63.4938 267.564 64.0751 266.848 64.0751L255.813 64.0751C255.106 64.0751 254.525 63.5022 254.525 62.7868L254.525 52.3393C254.525 51.3585 253.731 50.551 252.737 50.551L243.443 50.551C242.726 50.551 242.146 49.9687 242.155 49.2552Z" stroke="white" stroke-opacity="0.5" stroke-width="0.5"/>
</g>
</g>
<defs>
<clipPath id="clip0_1837:57898">
<rect width="360" height="640" fill="white"/>
</clipPath>
</defs>
</svg>
