<svg width="360" height="640" viewBox="0 0 360 640" fill="none" xmlns="http://www.w3.org/2000/svg">
<g clip-path="url(#clip0_1837:35827)">
<rect width="358.272" height="640" transform="translate(0.796875)" fill="white"/>
<rect x="0.796875" width="382.724" height="680.399" fill="black"/>
<mask id="mask0_1837:35827" style="mask-type:alpha" maskUnits="userSpaceOnUse" x="0" y="0" width="360" height="640">
<rect x="0.796875" width="358.272" height="640" fill="black"/>
</mask>
<g mask="url(#mask0_1837:35827)">
<path d="M37.5921 433.737V424.478C37.5921 423.776 38.1621 423.212 38.8589 423.202H49.8286C50.5229 423.202 51.0938 423.764 51.0938 424.467V435.258V449.301V460.092C51.0938 460.796 50.5324 461.357 49.8286 461.357H38.8572C38.1629 461.357 37.5921 460.795 37.5921 460.092V450.832C37.5921 449.847 36.7939 449.036 35.7954 449.036H25.3981C24.7038 449.036 24.133 448.473 24.133 447.771V436.799C24.133 436.105 24.6956 435.534 25.3981 435.534H35.7954C36.7809 435.534 37.5921 434.736 37.5921 433.737Z" stroke="white" stroke-opacity="0.5" stroke-width="0.531561"/>
<path d="M62.2778 404.127V404.13V415.102C62.2778 415.806 61.7164 416.367 61.0127 416.367H50.2326H36.1888H25.3981C24.7038 416.367 24.133 415.804 24.133 415.102V404.13C24.133 403.436 24.6956 402.865 25.3981 402.865H34.6579C35.6445 402.865 36.4546 402.055 36.4546 401.069V390.671C36.4546 389.968 37.016 389.406 37.7197 389.406H48.7017C49.396 389.406 49.9669 389.969 49.9669 390.671V401.069C49.9669 402.054 50.765 402.865 51.7635 402.865H61.0127C61.7195 402.865 62.2866 403.429 62.2778 404.127Z" stroke="white" stroke-opacity="0.5" stroke-width="0.531561"/>
<path d="M37.5921 513.833V504.573C37.5921 503.872 38.1622 503.307 38.8591 503.297H49.8286C50.5229 503.297 51.0938 503.86 51.0938 504.563V515.353V529.397V540.188C51.0938 540.892 50.5324 541.453 49.8286 541.453H38.8572C38.1629 541.453 37.5921 540.89 37.5921 540.188V530.928C37.5921 529.943 36.7939 529.131 35.7954 529.131H25.3981C24.7038 529.131 24.133 528.569 24.133 527.866V516.895C24.133 516.201 24.6956 515.63 25.3981 515.63H35.7954C36.7809 515.63 37.5921 514.832 37.5921 513.833Z" stroke="white" stroke-opacity="0.5" stroke-width="0.531561"/>
<path d="M46.1717 484.248H55.4315C56.1258 484.248 56.6967 484.811 56.6967 485.513V496.485C56.6967 497.188 56.1352 497.75 55.4315 497.75H44.6408H30.597H19.8063C19.112 497.75 18.5412 497.187 18.5412 496.485V485.513C18.5412 484.819 19.1038 484.248 19.8063 484.248H29.0661C30.0527 484.248 30.8628 483.438 30.8628 482.452V472.054C30.8628 471.35 31.4242 470.789 32.1279 470.789H43.1099C43.8042 470.789 44.3751 471.352 44.3751 472.054V482.452C44.3751 483.437 45.1732 484.248 46.1717 484.248Z" stroke="white" stroke-opacity="0.5" stroke-width="0.531561"/>
<path d="M37.5921 593.929V584.669C37.5921 583.968 38.1621 583.403 38.8589 583.393H49.8286C50.5229 583.393 51.0938 583.956 51.0938 584.658V595.449V609.493V620.284C51.0938 620.987 50.5324 621.549 49.8286 621.549H38.8572C38.1629 621.549 37.5921 620.986 37.5921 620.284V611.024C37.5921 610.038 36.7939 609.227 35.7954 609.227H25.3981C24.7038 609.227 24.133 608.664 24.133 607.962V596.991C24.133 596.296 24.6956 595.725 25.3981 595.725H35.7954C36.7809 595.725 37.5921 594.927 37.5921 593.929Z" stroke="white" stroke-opacity="0.5" stroke-width="0.531561"/>
<path d="M62.2778 564.307V564.31V575.282C62.2778 575.976 61.7152 576.547 61.0127 576.547H50.2326H36.1888H25.3981C24.7038 576.547 24.133 575.984 24.133 575.282V564.31C24.133 563.616 24.6956 563.045 25.3981 563.045H34.6579C35.6433 563.045 36.4546 562.247 36.4546 561.248V550.851C36.4546 550.157 37.0172 549.586 37.7197 549.586H48.7017C49.396 549.586 49.9669 550.149 49.9669 550.851V561.248C49.9669 562.234 50.765 563.045 51.7635 563.045H61.0127C61.7183 563.045 62.2866 563.618 62.2778 564.307Z" stroke="white" stroke-opacity="0.5" stroke-width="0.531561"/>
<path d="M62.2778 644.412V644.416V655.387C62.2778 656.091 61.7164 656.652 61.0127 656.652H50.2326H36.1888H25.3981C24.7038 656.652 24.133 656.09 24.133 655.387V644.405C24.133 643.711 24.6956 643.14 25.3981 643.14H34.6579C35.6433 643.14 36.4546 642.342 36.4546 641.343V630.946C36.4546 630.242 37.016 629.681 37.7197 629.681H48.7017C49.396 629.681 49.9669 630.243 49.9669 630.946V641.343C49.9669 642.329 50.765 643.14 51.7635 643.14H61.0127C61.7171 643.14 62.2866 643.712 62.2778 644.412Z" stroke="white" stroke-opacity="0.5" stroke-width="0.531561"/>
<path d="M126.894 433.737V424.478C126.894 423.776 127.464 423.212 128.161 423.202H139.13C139.825 423.202 140.396 423.764 140.396 424.467V435.258V449.301V460.092C140.396 460.796 139.834 461.357 139.13 461.357H128.159C127.465 461.357 126.894 460.795 126.894 460.092V450.832C126.894 449.847 126.096 449.036 125.097 449.036H114.7C114.006 449.036 113.435 448.473 113.435 447.771V436.799C113.435 436.105 113.997 435.534 114.7 435.534H125.097C126.083 435.534 126.894 434.736 126.894 433.737Z" stroke="white" stroke-opacity="0.5" stroke-width="0.531561"/>
<path d="M151.58 404.127V404.13V415.102C151.58 415.806 151.018 416.367 150.314 416.367H139.534H125.491H114.7C114.006 416.367 113.435 415.804 113.435 415.102V404.13C113.435 403.436 113.997 402.865 114.7 402.865H123.96C124.946 402.865 125.756 402.055 125.756 401.069V390.671C125.756 389.968 126.318 389.406 127.021 389.406H138.003C138.698 389.406 139.269 389.969 139.269 390.671V401.069C139.269 402.054 140.067 402.865 141.065 402.865H150.314C151.021 402.865 151.588 403.429 151.58 404.127Z" stroke="white" stroke-opacity="0.5" stroke-width="0.531561"/>
<path d="M126.894 513.833V504.573C126.894 503.872 127.464 503.307 128.161 503.297H139.13C139.825 503.297 140.396 503.86 140.396 504.563V515.353V529.397V540.188C140.396 540.892 139.834 541.453 139.13 541.453H128.159C127.465 541.453 126.894 540.89 126.894 540.188V530.928C126.894 529.943 126.096 529.131 125.097 529.131H114.7C114.006 529.131 113.435 528.569 113.435 527.866V516.895C113.435 516.201 113.997 515.63 114.7 515.63H125.097C126.083 515.63 126.894 514.832 126.894 513.833Z" stroke="white" stroke-opacity="0.5" stroke-width="0.531561"/>
<path d="M144.733 483.982H135.473C134.623 483.982 133.943 483.291 133.943 482.452V472.054C133.943 471.204 133.252 470.523 132.412 470.523H121.43C120.579 470.523 119.899 471.204 119.899 472.054V482.452C119.899 483.291 119.208 483.982 118.368 483.982H109.108C108.258 483.982 107.577 484.673 107.577 485.513V496.485C107.577 497.335 108.268 498.016 109.108 498.016H119.899H133.943H144.733C145.584 498.016 146.264 497.335 146.264 496.485V485.513C146.264 484.663 145.573 483.982 144.733 483.982Z" fill="#32F991"/>
<path d="M126.894 593.929V584.669C126.894 583.968 127.464 583.403 128.161 583.393H139.13C139.825 583.393 140.396 583.956 140.396 584.658V595.449V609.493V620.284C140.396 620.987 139.834 621.549 139.13 621.549H128.159C127.465 621.549 126.894 620.986 126.894 620.284V611.024C126.894 610.038 126.096 609.227 125.097 609.227H114.7C114.006 609.227 113.435 608.664 113.435 607.962V596.991C113.435 596.296 113.997 595.725 114.7 595.725H125.097C126.083 595.725 126.894 594.927 126.894 593.929Z" stroke="white" stroke-opacity="0.5" stroke-width="0.531561"/>
<path d="M151.58 564.307V564.31V575.282C151.58 575.976 151.017 576.547 150.314 576.547H139.534H125.491H114.7C114.006 576.547 113.435 575.984 113.435 575.282V564.31C113.435 563.616 113.997 563.045 114.7 563.045H123.96C124.945 563.045 125.756 562.247 125.756 561.248V550.851C125.756 550.157 126.319 549.586 127.021 549.586H138.003C138.698 549.586 139.269 550.149 139.269 550.851V561.248C139.269 562.234 140.067 563.045 141.065 563.045H150.314C151.02 563.045 151.588 563.618 151.58 564.307Z" stroke="white" stroke-opacity="0.5" stroke-width="0.531561"/>
<path d="M151.58 644.412V644.416V655.387C151.58 656.091 151.018 656.652 150.314 656.652H139.534H125.491H114.7C114.006 656.652 113.435 656.09 113.435 655.387V644.405C113.435 643.711 113.997 643.14 114.7 643.14H123.96C124.945 643.14 125.756 642.342 125.756 641.343V630.946C125.756 630.242 126.318 629.681 127.021 629.681H138.003C138.698 629.681 139.269 630.243 139.269 630.946V641.343C139.269 642.329 140.067 643.14 141.065 643.14H150.314C151.019 643.14 151.588 643.712 151.58 644.412Z" stroke="white" stroke-opacity="0.5" stroke-width="0.531561"/>
<path d="M-1.41339 657.3L-1.41339 666.56C-1.41339 667.261 -1.98352 667.826 -2.68043 667.835L-13.6499 667.835C-14.3442 667.835 -14.9151 667.273 -14.9151 666.57L-14.9151 655.78L-14.9151 641.736L-14.9151 630.945C-14.9151 630.241 -14.3536 629.68 -13.6499 629.68L-2.67851 629.68C-1.98423 629.68 -1.41339 630.242 -1.41339 630.945L-1.41339 640.205C-1.41339 641.19 -0.615199 642.001 0.383287 642.001L10.7806 642.001C11.4749 642.001 12.0457 642.564 12.0457 643.267L12.0457 654.238C12.0457 654.932 11.4831 655.503 10.7806 655.503L0.383288 655.503C-0.602163 655.503 -1.41339 656.301 -1.41339 657.3Z" stroke="white" stroke-opacity="0.5" stroke-width="0.531561"/>
<path d="M-1.41339 577.204L-1.41339 586.464C-1.41339 587.165 -1.98337 587.73 -2.68015 587.74L-13.6499 587.74C-14.3442 587.74 -14.9151 587.177 -14.9151 586.475L-14.9151 575.684L-14.9151 561.64L-14.9151 550.849C-14.9151 550.146 -14.3536 549.584 -13.6499 549.584L-2.67851 549.584C-1.98423 549.584 -1.41339 550.147 -1.41339 550.849L-1.41339 560.109C-1.41339 561.095 -0.615199 561.906 0.383287 561.906L10.7806 561.906C11.4749 561.906 12.0457 562.468 12.0457 563.171L12.0457 574.142C12.0457 574.837 11.4831 575.407 10.7806 575.407L0.383288 575.407C-0.602163 575.407 -1.41339 576.206 -1.41339 577.204Z" stroke="white" stroke-opacity="0.5" stroke-width="0.531561"/>
<path d="M-24.834 608.356L-15.5848 608.356C-14.7343 608.356 -14.0539 609.047 -14.0539 609.886L-14.0539 620.284C-14.0539 621.134 -13.3629 621.815 -12.523 621.815L-1.54097 621.815C-0.690468 621.815 -0.0100684 621.124 -0.0100685 620.284L-0.0100694 609.886C-0.0100695 609.036 0.680961 608.356 1.52083 608.356L10.7806 608.356C11.6311 608.356 12.3115 607.664 12.3115 606.825L12.3115 595.853C12.3115 595.003 11.6205 594.322 10.7806 594.322L-0.0100708 594.322L-14.0539 594.322L-24.834 594.322C-25.6845 594.322 -26.3649 595.013 -26.3649 595.853L-26.3649 606.825C-26.3755 607.664 -25.6845 608.356 -24.834 608.356Z" fill="#F7A334"/>
<path d="M-1.41339 497.108L-1.41339 506.368C-1.41339 507.073 -1.98662 507.644 -2.67851 507.644L-13.6499 507.644C-14.3442 507.644 -14.9151 507.081 -14.9151 506.379L-14.9151 495.588L-14.9151 481.544L-14.9151 470.754C-14.9151 470.05 -14.3536 469.488 -13.6499 469.488L-2.67851 469.488C-1.98423 469.488 -1.41339 470.051 -1.41339 470.754L-1.41339 480.013C-1.41339 480.999 -0.615199 481.81 0.383287 481.81L10.7806 481.81C11.4749 481.81 12.0457 482.373 12.0457 483.075L12.0457 494.047C12.0457 494.741 11.4831 495.312 10.7806 495.312L0.383288 495.312C-0.602163 495.312 -1.41339 496.11 -1.41339 497.108Z" stroke="white" stroke-opacity="0.5" stroke-width="0.531561"/>
<path d="M-26.0991 526.72L-26.0991 526.717L-26.0991 515.746C-26.0991 515.042 -25.5377 514.481 -24.834 514.481L-14.0539 514.481L-0.0100708 514.481L10.7806 514.481C11.4749 514.481 12.0457 515.043 12.0457 515.746L12.0457 526.728C12.0457 527.422 11.4831 527.993 10.7806 527.993L1.52083 527.993C0.535377 527.993 -0.27585 528.791 -0.27585 529.79L-0.275849 540.187C-0.275849 540.891 -0.837255 541.452 -1.54097 541.452L-12.523 541.452C-13.2173 541.452 -13.7881 540.889 -13.7881 540.187L-13.7881 529.79C-13.7881 528.804 -14.5863 527.993 -15.5848 527.993L-24.834 527.993C-25.5384 527.993 -26.1079 527.421 -26.0991 526.72Z" stroke="white" stroke-opacity="0.5" stroke-width="0.531561"/>
<path d="M-1.41339 417.025L-1.41339 426.285C-1.41339 426.978 -1.98543 427.55 -2.67851 427.55L-13.6499 427.55C-14.3442 427.55 -14.9151 426.988 -14.9151 426.285L-14.9151 415.494L-14.9151 401.451L-14.9151 390.66C-14.9151 389.966 -14.3524 389.395 -13.6499 389.395L-2.67851 389.395C-1.98423 389.395 -1.41339 389.957 -1.41339 390.66L-1.41339 399.92C-1.41339 400.905 -0.615199 401.716 0.383287 401.716L10.7806 401.716C11.4749 401.716 12.0457 402.279 12.0457 402.981L12.0457 413.963C12.0457 414.658 11.4831 415.229 10.7806 415.229L0.383288 415.229C-0.602163 415.229 -1.41339 416.027 -1.41339 417.025Z" stroke="white" stroke-opacity="0.5" stroke-width="0.531561"/>
<path d="M-26.0991 446.625L-26.0991 446.621L-26.0991 435.65C-26.0991 434.946 -25.5377 434.385 -24.834 434.385L-14.0539 434.385L-0.0100708 434.385L10.7806 434.385C11.4749 434.385 12.0457 434.948 12.0457 435.65L12.0457 446.632C12.0457 447.326 11.4831 447.897 10.7806 447.897L1.52083 447.897C0.535377 447.897 -0.27585 448.695 -0.27585 449.694L-0.275849 460.091C-0.275849 460.786 -0.838455 461.356 -1.54097 461.356L-12.523 461.356C-13.2173 461.356 -13.7881 460.794 -13.7881 460.091L-13.7881 449.694C-13.7881 448.708 -14.5863 447.897 -15.5848 447.897L-24.834 447.897C-25.5384 447.897 -26.1079 447.325 -26.0991 446.625Z" stroke="white" stroke-opacity="0.5" stroke-width="0.531561"/>
<path d="M87.8893 657.302L87.8893 666.562C87.8893 667.263 87.3192 667.828 86.6223 667.837L75.6528 667.837C74.9585 667.837 74.3877 667.275 74.3877 666.572L74.3877 655.781L74.3877 641.738L74.3877 630.947C74.3877 630.243 74.9491 629.682 75.6528 629.682L86.6242 629.682C87.3185 629.682 87.8893 630.244 87.8893 630.947L87.8893 640.207C87.8893 641.192 88.6875 642.003 89.686 642.003L100.083 642.003C100.778 642.003 101.348 642.566 101.348 643.269L101.348 654.24C101.348 654.934 100.786 655.505 100.083 655.505L89.686 655.505C88.7006 655.505 87.8893 656.303 87.8893 657.302Z" stroke="white" stroke-opacity="0.5" stroke-width="0.531561"/>
<path d="M87.8893 577.206L87.8893 586.466C87.8893 587.167 87.3194 587.732 86.6226 587.742L75.6528 587.742C74.9585 587.742 74.3877 587.179 74.3877 586.476L74.3877 575.686L74.3877 561.642L74.3877 550.851C74.3877 550.148 74.9491 549.586 75.6528 549.586L86.6242 549.586C87.3185 549.586 87.8893 550.149 87.8893 550.851L87.8893 560.111C87.8893 561.096 88.6875 561.908 89.686 561.908L100.083 561.908C100.778 561.908 101.348 562.47 101.348 563.173L101.348 574.144C101.348 574.839 100.786 575.409 100.083 575.409L89.686 575.409C88.7006 575.409 87.8893 576.208 87.8893 577.206Z" stroke="white" stroke-opacity="0.5" stroke-width="0.531561"/>
<path d="M63.2036 606.828L63.2036 606.825L63.2036 595.853C63.2036 595.159 63.7662 594.588 64.4687 594.588L75.2488 594.588L89.2927 594.588L100.083 594.588C100.778 594.588 101.348 595.151 101.348 595.853L101.348 606.825C101.348 607.519 100.786 608.09 100.083 608.09L90.8236 608.09C89.8381 608.09 89.0269 608.888 89.0269 609.886L89.0269 620.284C89.0269 620.978 88.4643 621.549 87.7618 621.549L76.7797 621.549C76.0854 621.549 75.5146 620.986 75.5146 620.284L75.5146 609.886C75.5146 608.901 74.7164 608.09 73.7179 608.09L64.4687 608.09C63.7631 608.09 63.1949 607.517 63.2036 606.828Z" stroke="white" stroke-opacity="0.5" stroke-width="0.531561"/>
<path d="M87.8893 497.108L87.8893 506.368C87.8893 507.073 87.3161 507.644 86.6242 507.644L75.6528 507.644C74.9585 507.644 74.3877 507.081 74.3877 506.379L74.3877 495.588L74.3877 481.544L74.3877 470.754C74.3877 470.05 74.9491 469.488 75.6528 469.488L86.6242 469.488C87.3185 469.488 87.8893 470.051 87.8893 470.754L87.8893 480.013C87.8893 480.999 88.6875 481.81 89.686 481.81L100.083 481.81C100.778 481.81 101.348 482.373 101.348 483.075L101.348 494.047C101.348 494.741 100.786 495.312 100.083 495.312L89.686 495.312C88.7006 495.312 87.8893 496.11 87.8893 497.108Z" stroke="white" stroke-opacity="0.5" stroke-width="0.531561"/>
<path d="M63.2036 526.72L63.2036 526.717L63.2036 515.746C63.2036 515.042 63.765 514.481 64.4687 514.481L75.2488 514.481L89.2927 514.481L100.083 514.481C100.778 514.481 101.348 515.043 101.348 515.746L101.348 526.728C101.348 527.422 100.786 527.993 100.083 527.993L90.8236 527.993C89.8381 527.993 89.0269 528.791 89.0269 529.79L89.0269 540.187C89.0269 540.891 88.4655 541.452 87.7618 541.452L76.7797 541.452C76.0854 541.452 75.5146 540.889 75.5146 540.187L75.5146 529.79C75.5146 528.804 74.7164 527.993 73.7179 527.993L64.4687 527.993C63.7644 527.993 63.1949 527.421 63.2036 526.72Z" stroke="white" stroke-opacity="0.5" stroke-width="0.531561"/>
<path d="M87.8893 417.025L87.8893 426.285C87.8893 426.978 87.3173 427.55 86.6242 427.55L75.6528 427.55C74.9585 427.55 74.3877 426.988 74.3877 426.285L74.3877 415.494L74.3877 401.451L74.3877 390.66C74.3877 389.966 74.9503 389.395 75.6528 389.395L86.6242 389.395C87.3185 389.395 87.8893 389.957 87.8893 390.66L87.8893 399.92C87.8893 400.905 88.6875 401.716 89.686 401.716L100.083 401.716C100.778 401.716 101.348 402.279 101.348 402.981L101.348 413.963C101.348 414.658 100.786 415.229 100.083 415.229L89.686 415.229C88.7006 415.229 87.8893 416.027 87.8893 417.025Z" stroke="white" stroke-opacity="0.5" stroke-width="0.531561"/>
<path d="M63.2036 446.625L63.2036 446.621L63.2036 435.65C63.2036 434.946 63.765 434.385 64.4687 434.385L75.2488 434.385L89.2927 434.385L100.083 434.385C100.778 434.385 101.348 434.948 101.348 435.65L101.348 446.632C101.348 447.326 100.786 447.897 100.083 447.897L90.8236 447.897C89.8381 447.897 89.0269 448.695 89.0269 449.694L89.0269 460.091C89.0269 460.786 88.4643 461.356 87.7618 461.356L76.7797 461.356C76.0854 461.356 75.5146 460.794 75.5146 460.091L75.5146 449.694C75.5146 448.708 74.7164 447.897 73.7179 447.897L64.4687 447.897C63.7644 447.897 63.1949 447.325 63.2036 446.625Z" stroke="white" stroke-opacity="0.5" stroke-width="0.531561"/>
<path d="M355.797 657.3L355.797 666.56C355.797 667.261 355.226 667.826 354.53 667.835L343.56 667.835C342.866 667.835 342.295 667.273 342.295 666.57L342.295 655.78L342.295 641.736L342.295 630.945C342.295 630.241 342.856 629.68 343.56 629.68L354.531 629.68C355.226 629.68 355.797 630.242 355.797 630.945L355.797 640.205C355.797 641.19 356.595 642.001 357.593 642.001L367.991 642.001C368.685 642.001 369.256 642.564 369.256 643.267L369.256 654.238C369.256 654.932 368.693 655.503 367.991 655.503L357.593 655.503C356.608 655.503 355.797 656.301 355.797 657.3Z" stroke="white" stroke-opacity="0.5" stroke-width="0.531561"/>
<path d="M355.797 577.204L355.797 586.464C355.797 587.165 355.227 587.73 354.53 587.74L343.56 587.74C342.866 587.74 342.295 587.177 342.295 586.475L342.295 575.684L342.295 561.64L342.295 550.849C342.295 550.146 342.856 549.584 343.56 549.584L354.531 549.584C355.226 549.584 355.797 550.147 355.797 550.849L355.797 560.109C355.797 561.095 356.595 561.906 357.593 561.906L367.991 561.906C368.685 561.906 369.256 562.468 369.256 563.171L369.256 574.142C369.256 574.837 368.693 575.407 367.991 575.407L357.593 575.407C356.608 575.407 355.797 576.206 355.797 577.204Z" stroke="white" stroke-opacity="0.5" stroke-width="0.531561"/>
<path d="M332.376 608.356L341.625 608.356C342.476 608.356 343.156 609.047 343.156 609.886L343.156 620.284C343.156 621.134 343.847 621.815 344.687 621.815L355.669 621.815C356.519 621.815 357.2 621.124 357.2 620.284L357.2 609.886C357.2 609.036 357.891 608.356 358.731 608.356L367.991 608.356C368.841 608.356 369.521 607.664 369.521 606.825L369.521 595.853C369.521 595.003 368.83 594.322 367.991 594.322L357.2 594.322L343.156 594.322L332.376 594.322C331.525 594.322 330.845 595.013 330.845 595.853L330.845 606.825C330.834 607.664 331.525 608.356 332.376 608.356Z" fill="#F7A334"/>
<path d="M355.797 497.108L355.797 506.368C355.797 507.073 355.223 507.644 354.531 507.644L343.56 507.644C342.866 507.644 342.295 507.081 342.295 506.379L342.295 495.588L342.295 481.544L342.295 470.754C342.295 470.05 342.856 469.488 343.56 469.488L354.531 469.488C355.226 469.488 355.797 470.051 355.797 470.754L355.797 480.013C355.797 480.999 356.595 481.81 357.593 481.81L367.991 481.81C368.685 481.81 369.256 482.373 369.256 483.075L369.256 494.047C369.256 494.741 368.693 495.312 367.991 495.312L357.593 495.312C356.608 495.312 355.797 496.11 355.797 497.108Z" stroke="white" stroke-opacity="0.5" stroke-width="0.531561"/>
<path d="M331.111 526.72L331.111 526.717L331.111 515.746C331.111 515.042 331.672 514.481 332.376 514.481L343.156 514.481L357.2 514.481L367.991 514.481C368.685 514.481 369.256 515.043 369.256 515.746L369.256 526.728C369.256 527.422 368.693 527.993 367.991 527.993L358.731 527.993C357.745 527.993 356.934 528.791 356.934 529.79L356.934 540.187C356.934 540.891 356.373 541.452 355.669 541.452L344.687 541.452C343.993 541.452 343.422 540.889 343.422 540.187L343.422 529.79C343.422 528.804 342.624 527.993 341.625 527.993L332.376 527.993C331.672 527.993 331.102 527.421 331.111 526.72Z" stroke="white" stroke-opacity="0.5" stroke-width="0.531561"/>
<path d="M355.797 417.025L355.797 426.285C355.797 426.978 355.225 427.55 354.531 427.55L343.56 427.55C342.866 427.55 342.295 426.988 342.295 426.285L342.295 415.494L342.295 401.451L342.295 390.66C342.295 389.966 342.858 389.395 343.56 389.395L354.531 389.395C355.226 389.395 355.797 389.957 355.797 390.66L355.797 399.92C355.797 400.905 356.595 401.716 357.593 401.716L367.991 401.716C368.685 401.716 369.256 402.279 369.256 402.981L369.256 413.963C369.256 414.658 368.693 415.229 367.991 415.229L357.593 415.229C356.608 415.229 355.797 416.027 355.797 417.025Z" stroke="white" stroke-opacity="0.5" stroke-width="0.531561"/>
<path d="M331.111 446.625L331.111 446.621L331.111 435.65C331.111 434.946 331.672 434.385 332.376 434.385L343.156 434.385L357.2 434.385L367.991 434.385C368.685 434.385 369.256 434.948 369.256 435.65L369.256 446.632C369.256 447.326 368.693 447.897 367.991 447.897L358.731 447.897C357.745 447.897 356.934 448.695 356.934 449.694L356.934 460.091C356.934 460.786 356.372 461.356 355.669 461.356L344.687 461.356C343.993 461.356 343.422 460.794 343.422 460.091L343.422 449.694C343.422 448.708 342.624 447.897 341.625 447.897L332.376 447.897C331.672 447.897 331.102 447.325 331.111 446.625Z" stroke="white" stroke-opacity="0.5" stroke-width="0.531561"/>
<path d="M216.197 433.737V424.478C216.197 423.776 216.767 423.212 217.463 423.202H228.433C229.127 423.202 229.698 423.764 229.698 424.467V435.258V449.301V460.092C229.698 460.796 229.137 461.357 228.433 461.357H217.462C216.767 461.357 216.197 460.795 216.197 460.092V450.832C216.197 449.847 215.398 449.036 214.4 449.036H204.003C203.308 449.036 202.737 448.473 202.737 447.771V436.799C202.737 436.105 203.3 435.534 204.003 435.534H214.4C215.385 435.534 216.197 434.736 216.197 433.737Z" stroke="white" stroke-opacity="0.5" stroke-width="0.531561"/>
<path d="M240.882 404.127V404.13V415.102C240.882 415.806 240.321 416.367 239.617 416.367H228.837H214.793H204.003C203.308 416.367 202.737 415.804 202.737 415.102V404.13C202.737 403.436 203.3 402.865 204.003 402.865H213.262C214.249 402.865 215.059 402.055 215.059 401.069V390.671C215.059 389.968 215.62 389.406 216.324 389.406H227.306C228.001 389.406 228.571 389.969 228.571 390.671V401.069C228.571 402.054 229.37 402.865 230.368 402.865H239.617C240.324 402.865 240.891 403.429 240.882 404.127Z" stroke="white" stroke-opacity="0.5" stroke-width="0.531561"/>
<path d="M216.197 513.833V504.573C216.197 503.872 216.767 503.307 217.464 503.297H228.433C229.127 503.297 229.698 503.86 229.698 504.563V515.353V529.397V540.188C229.698 540.892 229.137 541.453 228.433 541.453H217.462C216.767 541.453 216.197 540.89 216.197 540.188V530.928C216.197 529.943 215.398 529.131 214.4 529.131H204.003C203.308 529.131 202.737 528.569 202.737 527.866V516.895C202.737 516.201 203.3 515.63 204.003 515.63H214.4C215.385 515.63 216.197 514.832 216.197 513.833Z" stroke="white" stroke-opacity="0.5" stroke-width="0.531561"/>
<path d="M224.776 484.248H234.036C234.73 484.248 235.301 484.811 235.301 485.513V496.485C235.301 497.188 234.74 497.75 234.036 497.75H223.245H209.201H198.411C197.716 497.75 197.146 497.187 197.146 496.485V485.513C197.146 484.819 197.708 484.248 198.411 484.248H207.671C208.657 484.248 209.467 483.438 209.467 482.452V472.054C209.467 471.35 210.029 470.789 210.732 470.789H221.714C222.409 470.789 222.98 471.352 222.98 472.054V482.452C222.98 483.437 223.778 484.248 224.776 484.248Z" stroke="white" stroke-opacity="0.5" stroke-width="0.531561"/>
<path d="M216.197 593.929V584.669C216.197 583.968 216.767 583.403 217.463 583.393H228.433C229.127 583.393 229.698 583.956 229.698 584.658V595.449V609.493V620.284C229.698 620.987 229.137 621.549 228.433 621.549H217.462C216.767 621.549 216.197 620.986 216.197 620.284V611.024C216.197 610.038 215.398 609.227 214.4 609.227H204.003C203.308 609.227 202.737 608.664 202.737 607.962V596.991C202.737 596.296 203.3 595.725 204.003 595.725H214.4C215.385 595.725 216.197 594.927 216.197 593.929Z" stroke="white" stroke-opacity="0.5" stroke-width="0.531561"/>
<path d="M240.882 564.307V564.31V575.282C240.882 575.976 240.32 576.547 239.617 576.547H228.837H214.793H204.003C203.308 576.547 202.737 575.984 202.737 575.282V564.31C202.737 563.616 203.3 563.045 204.003 563.045H213.262C214.248 563.045 215.059 562.247 215.059 561.248V550.851C215.059 550.157 215.622 549.586 216.324 549.586H227.306C228.001 549.586 228.571 550.149 228.571 550.851V561.248C228.571 562.234 229.37 563.045 230.368 563.045H239.617C240.323 563.045 240.891 563.618 240.882 564.307Z" stroke="white" stroke-opacity="0.5" stroke-width="0.531561"/>
<path d="M240.882 644.412V644.416V655.387C240.882 656.091 240.321 656.652 239.617 656.652H228.837H214.793H204.003C203.308 656.652 202.737 656.09 202.737 655.387V644.405C202.737 643.711 203.3 643.14 204.003 643.14H213.262C214.248 643.14 215.059 642.342 215.059 641.343V630.946C215.059 630.242 215.62 629.681 216.324 629.681H227.306C228.001 629.681 228.571 630.243 228.571 630.946V641.343C228.571 642.329 229.37 643.14 230.368 643.14H239.617C240.322 643.14 240.891 643.712 240.882 644.412Z" stroke="white" stroke-opacity="0.5" stroke-width="0.531561"/>
<path d="M305.499 433.737V424.478C305.499 423.776 306.069 423.212 306.766 423.202H317.736C318.43 423.202 319.001 423.764 319.001 424.467V435.258V449.301V460.092C319.001 460.796 318.44 461.357 317.736 461.357H306.764C306.07 461.357 305.499 460.795 305.499 460.092V450.832C305.499 449.847 304.701 449.036 303.703 449.036H293.305C292.611 449.036 292.04 448.473 292.04 447.771V436.799C292.04 436.105 292.603 435.534 293.305 435.534H303.703C304.688 435.534 305.499 434.736 305.499 433.737Z" stroke="white" stroke-opacity="0.5" stroke-width="0.531561"/>
<path d="M330.185 404.127V404.13V415.102C330.185 415.806 329.624 416.367 328.92 416.367H318.14H304.096H293.305C292.611 416.367 292.04 415.804 292.04 415.102V404.13C292.04 403.436 292.603 402.865 293.305 402.865H302.565C303.552 402.865 304.362 402.055 304.362 401.069V390.671C304.362 389.968 304.923 389.406 305.627 389.406H316.609C317.303 389.406 317.874 389.969 317.874 390.671V401.069C317.874 402.054 318.672 402.865 319.671 402.865H328.92C329.627 402.865 330.194 403.429 330.185 404.127Z" stroke="white" stroke-opacity="0.5" stroke-width="0.531561"/>
<path d="M305.499 513.833V504.573C305.499 503.872 306.069 503.307 306.766 503.297H317.736C318.43 503.297 319.001 503.86 319.001 504.563V515.353V529.397V540.188C319.001 540.892 318.44 541.453 317.736 541.453H306.764C306.07 541.453 305.499 540.89 305.499 540.188V530.928C305.499 529.943 304.701 529.131 303.703 529.131H293.305C292.611 529.131 292.04 528.569 292.04 527.866V516.895C292.04 516.201 292.603 515.63 293.305 515.63H303.703C304.688 515.63 305.499 514.832 305.499 513.833Z" stroke="white" stroke-opacity="0.5" stroke-width="0.531561"/>
<path d="M314.079 484.248H323.339C324.033 484.248 324.604 484.811 324.604 485.513V496.485C324.604 497.188 324.042 497.75 323.339 497.75H312.548H298.504H287.714C287.019 497.75 286.448 497.187 286.448 496.485V485.513C286.448 484.819 287.011 484.248 287.714 484.248H296.973C297.96 484.248 298.77 483.438 298.77 482.452V472.054C298.77 471.35 299.331 470.789 300.035 470.789H311.017C311.711 470.789 312.282 471.352 312.282 472.054V482.452C312.282 483.437 313.08 484.248 314.079 484.248Z" stroke="white" stroke-opacity="0.5" stroke-width="0.531561"/>
<path d="M305.499 593.929V584.669C305.499 583.968 306.069 583.403 306.766 583.393H317.736C318.43 583.393 319.001 583.956 319.001 584.658V595.449V609.493V620.284C319.001 620.987 318.44 621.549 317.736 621.549H306.764C306.07 621.549 305.499 620.986 305.499 620.284V611.024C305.499 610.038 304.701 609.227 303.703 609.227H293.305C292.611 609.227 292.04 608.664 292.04 607.962V596.991C292.04 596.296 292.603 595.725 293.305 595.725H303.703C304.688 595.725 305.499 594.927 305.499 593.929Z" stroke="white" stroke-opacity="0.5" stroke-width="0.531561"/>
<path d="M330.185 564.307V564.31V575.282C330.185 575.976 329.622 576.547 328.92 576.547H318.14H304.096H293.305C292.611 576.547 292.04 575.984 292.04 575.282V564.31C292.04 563.616 292.603 563.045 293.305 563.045H302.565C303.551 563.045 304.362 562.247 304.362 561.248V550.851C304.362 550.157 304.924 549.586 305.627 549.586H316.609C317.303 549.586 317.874 550.149 317.874 550.851V561.248C317.874 562.234 318.672 563.045 319.671 563.045H328.92C329.626 563.045 330.194 563.618 330.185 564.307Z" stroke="white" stroke-opacity="0.5" stroke-width="0.531561"/>
<path d="M330.185 644.412V644.416V655.387C330.185 656.091 329.624 656.652 328.92 656.652H318.14H304.096H293.305C292.611 656.652 292.04 656.09 292.04 655.387V644.405C292.04 643.711 292.603 643.14 293.305 643.14H302.565C303.551 643.14 304.362 642.342 304.362 641.343V630.946C304.362 630.242 304.923 629.681 305.627 629.681H316.609C317.303 629.681 317.874 630.243 317.874 630.946V641.343C317.874 642.329 318.672 643.14 319.671 643.14H328.92C329.624 643.14 330.194 643.712 330.185 644.412Z" stroke="white" stroke-opacity="0.5" stroke-width="0.531561"/>
<path d="M177.192 657.3L177.192 666.56C177.192 667.261 176.622 667.826 175.925 667.835L164.956 667.835C164.261 667.835 163.69 667.273 163.69 666.57L163.69 655.78L163.69 641.736L163.69 630.945C163.69 630.241 164.252 629.68 164.956 629.68L175.927 629.68C176.621 629.68 177.192 630.242 177.192 630.945L177.192 640.205C177.192 641.19 177.99 642.001 178.989 642.001L189.386 642.001C190.08 642.001 190.651 642.564 190.651 643.267L190.651 654.238C190.651 654.932 190.089 655.503 189.386 655.503L178.989 655.503C178.003 655.503 177.192 656.301 177.192 657.3Z" stroke="white" stroke-opacity="0.5" stroke-width="0.531561"/>
<path d="M177.192 577.204L177.192 586.464C177.192 587.165 176.622 587.73 175.925 587.74L164.956 587.74C164.261 587.74 163.69 587.177 163.69 586.475L163.69 575.684L163.69 561.64L163.69 550.849C163.69 550.146 164.252 549.584 164.956 549.584L175.927 549.584C176.621 549.584 177.192 550.147 177.192 550.849L177.192 560.109C177.192 561.095 177.99 561.906 178.989 561.906L189.386 561.906C190.08 561.906 190.651 562.468 190.651 563.171L190.651 574.142C190.651 574.837 190.089 575.407 189.386 575.407L178.989 575.407C178.003 575.407 177.192 576.206 177.192 577.204Z" stroke="white" stroke-opacity="0.5" stroke-width="0.531561"/>
<path d="M153.771 608.356L163.021 608.356C163.871 608.356 164.552 609.047 164.552 609.886L164.552 620.284C164.552 621.134 165.243 621.815 166.082 621.815L177.065 621.815C177.915 621.815 178.595 621.124 178.595 620.284L178.595 609.886C178.595 609.036 179.286 608.356 180.126 608.356L189.386 608.356C190.237 608.356 190.917 607.664 190.917 606.825L190.917 595.853C190.917 595.003 190.226 594.322 189.386 594.322L178.595 594.322L164.552 594.322L153.771 594.322C152.921 594.322 152.241 595.013 152.241 595.853L152.241 606.825C152.23 607.664 152.921 608.356 153.771 608.356Z" fill="#FB2D11"/>
<path d="M177.192 497.108L177.192 506.368C177.192 507.073 176.619 507.644 175.927 507.644L164.956 507.644C164.261 507.644 163.69 507.081 163.69 506.379L163.69 495.588L163.69 481.544L163.69 470.754C163.69 470.05 164.252 469.488 164.956 469.488L175.927 469.488C176.621 469.488 177.192 470.051 177.192 470.754L177.192 480.013C177.192 480.999 177.99 481.81 178.989 481.81L189.386 481.81C190.08 481.81 190.651 482.373 190.651 483.075L190.651 494.047C190.651 494.741 190.089 495.312 189.386 495.312L178.989 495.312C178.003 495.312 177.192 496.11 177.192 497.108Z" stroke="white" stroke-opacity="0.5" stroke-width="0.531561"/>
<path d="M152.506 526.72L152.506 526.717L152.506 515.746C152.506 515.042 153.068 514.481 153.771 514.481L164.552 514.481L178.595 514.481L189.386 514.481C190.08 514.481 190.651 515.043 190.651 515.746L190.651 526.728C190.651 527.422 190.089 527.993 189.386 527.993L180.126 527.993C179.141 527.993 178.33 528.791 178.33 529.79L178.33 540.187C178.33 540.891 177.768 541.452 177.065 541.452L166.082 541.452C165.388 541.452 164.817 540.889 164.817 540.187L164.817 529.79C164.817 528.804 164.019 527.993 163.021 527.993L153.771 527.993C153.067 527.993 152.498 527.421 152.506 526.72Z" stroke="white" stroke-opacity="0.5" stroke-width="0.531561"/>
<path d="M177.192 417.025L177.192 426.285C177.192 426.978 176.62 427.55 175.927 427.55L164.956 427.55C164.261 427.55 163.69 426.988 163.69 426.285L163.69 415.494L163.69 401.451L163.69 390.66C163.69 389.966 164.253 389.395 164.956 389.395L175.927 389.395C176.621 389.395 177.192 389.957 177.192 390.66L177.192 399.92C177.192 400.905 177.99 401.716 178.989 401.716L189.386 401.716C190.08 401.716 190.651 402.279 190.651 402.981L190.651 413.963C190.651 414.658 190.089 415.229 189.386 415.229L178.989 415.229C178.003 415.229 177.192 416.027 177.192 417.025Z" stroke="white" stroke-opacity="0.5" stroke-width="0.531561"/>
<path d="M152.506 446.625L152.506 446.621L152.506 435.65C152.506 434.946 153.068 434.385 153.771 434.385L164.552 434.385L178.595 434.385L189.386 434.385C190.08 434.385 190.651 434.948 190.651 435.65L190.651 446.632C190.651 447.326 190.089 447.897 189.386 447.897L180.126 447.897C179.141 447.897 178.33 448.695 178.33 449.694L178.33 460.091C178.33 460.786 177.767 461.356 177.065 461.356L166.082 461.356C165.388 461.356 164.817 460.794 164.817 460.091L164.817 449.694C164.817 448.708 164.019 447.897 163.021 447.897L153.771 447.897C153.067 447.897 152.498 447.325 152.506 446.625Z" stroke="white" stroke-opacity="0.5" stroke-width="0.531561"/>
<path d="M266.494 657.302L266.494 666.562C266.494 667.263 265.924 667.828 265.227 667.837L254.257 667.837C253.563 667.837 252.992 667.275 252.992 666.572L252.992 655.781L252.992 641.738L252.992 630.947C252.992 630.243 253.554 629.682 254.257 629.682L265.229 629.682C265.923 629.682 266.494 630.244 266.494 630.947L266.494 640.207C266.494 641.192 267.292 642.003 268.291 642.003L278.688 642.003C279.382 642.003 279.953 642.566 279.953 643.269L279.953 654.24C279.953 654.934 279.39 655.505 278.688 655.505L268.291 655.505C267.305 655.505 266.494 656.303 266.494 657.302Z" stroke="white" stroke-opacity="0.5" stroke-width="0.531561"/>
<path d="M266.494 577.206L266.494 586.466C266.494 587.167 265.924 587.732 265.227 587.742L254.257 587.742C253.563 587.742 252.992 587.179 252.992 586.476L252.992 575.686L252.992 561.642L252.992 550.851C252.992 550.148 253.554 549.586 254.257 549.586L265.229 549.586C265.923 549.586 266.494 550.149 266.494 550.851L266.494 560.111C266.494 561.096 267.292 561.908 268.291 561.908L278.688 561.908C279.382 561.908 279.953 562.47 279.953 563.173L279.953 574.144C279.953 574.839 279.39 575.409 278.688 575.409L268.291 575.409C267.305 575.409 266.494 576.208 266.494 577.206Z" stroke="white" stroke-opacity="0.5" stroke-width="0.531561"/>
<path d="M241.808 606.828L241.808 606.825L241.808 595.853C241.808 595.159 242.371 594.588 243.073 594.588L253.853 594.588L267.897 594.588L278.688 594.588C279.382 594.588 279.953 595.151 279.953 595.853L279.953 606.825C279.953 607.519 279.39 608.09 278.688 608.09L269.428 608.09C268.443 608.09 267.631 608.888 267.631 609.886L267.631 620.284C267.631 620.978 267.069 621.549 266.366 621.549L255.384 621.549C254.69 621.549 254.119 620.986 254.119 620.284L254.119 609.886C254.119 608.901 253.321 608.09 252.322 608.09L243.073 608.09C242.368 608.09 241.799 607.517 241.808 606.828Z" stroke="white" stroke-opacity="0.5" stroke-width="0.531561"/>
<path d="M266.76 506.368L266.76 497.108C266.76 496.258 267.451 495.577 268.291 495.577L278.688 495.577C279.538 495.577 280.219 494.886 280.219 494.047L280.219 483.075C280.219 482.225 279.528 481.544 278.688 481.544L268.291 481.544C267.44 481.544 266.76 480.853 266.76 480.013L266.76 470.754C266.76 469.903 266.069 469.223 265.229 469.223L254.257 469.223C253.407 469.223 252.726 469.903 252.726 470.754L252.726 481.544L252.726 495.588L252.726 506.379C252.726 507.229 253.417 507.91 254.257 507.91L265.229 507.91C266.069 507.91 266.76 507.219 266.76 506.368Z" fill="white"/>
<path d="M241.808 526.72L241.808 526.717L241.808 515.746C241.808 515.042 242.37 514.481 243.073 514.481L253.853 514.481L267.897 514.481L278.688 514.481C279.382 514.481 279.953 515.043 279.953 515.746L279.953 526.728C279.953 527.422 279.39 527.993 278.688 527.993L269.428 527.993C268.443 527.993 267.631 528.791 267.631 529.79L267.631 540.187C267.631 540.891 267.07 541.452 266.366 541.452L255.384 541.452C254.69 541.452 254.119 540.889 254.119 540.187L254.119 529.79C254.119 528.804 253.321 527.993 252.322 527.993L243.073 527.993C242.369 527.993 241.799 527.421 241.808 526.72Z" stroke="white" stroke-opacity="0.5" stroke-width="0.531561"/>
<path d="M266.494 417.025L266.494 426.285C266.494 426.978 265.922 427.55 265.229 427.55L254.257 427.55C253.563 427.55 252.992 426.988 252.992 426.285L252.992 415.494L252.992 401.451L252.992 390.66C252.992 389.966 253.555 389.395 254.257 389.395L265.229 389.395C265.923 389.395 266.494 389.957 266.494 390.66L266.494 399.92C266.494 400.905 267.292 401.716 268.291 401.716L278.688 401.716C279.382 401.716 279.953 402.279 279.953 402.981L279.953 413.963C279.953 414.658 279.39 415.229 278.688 415.229L268.291 415.229C267.305 415.229 266.494 416.027 266.494 417.025Z" stroke="white" stroke-opacity="0.5" stroke-width="0.531561"/>
<path d="M241.808 446.625L241.808 446.621L241.808 435.65C241.808 434.946 242.37 434.385 243.073 434.385L253.853 434.385L267.897 434.385L278.688 434.385C279.382 434.385 279.953 434.948 279.953 435.65L279.953 446.632C279.953 447.326 279.39 447.897 278.688 447.897L269.428 447.897C268.443 447.897 267.631 448.695 267.631 449.694L267.631 460.091C267.631 460.786 267.069 461.356 266.366 461.356L255.384 461.356C254.69 461.356 254.119 460.794 254.119 460.091L254.119 449.694C254.119 448.708 253.321 447.897 252.322 447.897L243.073 447.897C242.369 447.897 241.799 447.325 241.808 446.625Z" stroke="white" stroke-opacity="0.5" stroke-width="0.531561"/>
<path d="M37.5921 36.1279V26.8682C37.5921 26.1668 38.1621 25.6021 38.8589 25.5924H49.8286C50.5229 25.5924 51.0938 26.155 51.0938 26.8575V37.6482V51.692V62.4828C51.0938 63.1865 50.5324 63.7479 49.8286 63.7479H38.8572C38.1629 63.7479 37.5921 63.1853 37.5921 62.4828V53.2229C37.5921 52.2375 36.7939 51.4263 35.7954 51.4263H25.3981C24.7038 51.4263 24.133 50.8637 24.133 50.1611V39.1897C24.133 38.4955 24.6956 37.9246 25.3981 37.9246H35.7954C36.7809 37.9246 37.5921 37.1264 37.5921 36.1279Z" stroke="white" stroke-opacity="0.5" stroke-width="0.531561"/>
<path d="M62.2778 6.51778V6.5211V17.4925C62.2778 18.1963 61.7164 18.7577 61.0127 18.7577H50.2326H36.1888H25.3981C24.7038 18.7577 24.133 18.195 24.133 17.4925V6.5211C24.133 5.82682 24.6956 5.25598 25.3981 5.25598H34.6579C35.6445 5.25598 36.4546 4.44595 36.4546 3.4593V-6.93804C36.4546 -7.64175 37.016 -8.20316 37.7197 -8.20316H48.7017C49.396 -8.20316 49.9669 -7.64055 49.9669 -6.93804V3.4593C49.9669 4.44475 50.765 5.25598 51.7635 5.25598H61.0127C61.7195 5.25598 62.2866 5.81969 62.2778 6.51778Z" stroke="white" stroke-opacity="0.5" stroke-width="0.531561"/>
<path d="M37.5921 116.224V106.964C37.5921 106.262 38.1622 105.698 38.8591 105.688H49.8286C50.5229 105.688 51.0938 106.251 51.0938 106.953V117.744V131.788V142.578C51.0938 143.282 50.5324 143.844 49.8286 143.844H38.8572C38.1629 143.844 37.5921 143.281 37.5921 142.578V133.319C37.5921 132.333 36.7939 131.522 35.7954 131.522H25.3981C24.7038 131.522 24.133 130.959 24.133 130.257V119.285C24.133 118.591 24.6956 118.02 25.3981 118.02H35.7954C36.7809 118.02 37.5921 117.222 37.5921 116.224Z" stroke="white" stroke-opacity="0.5" stroke-width="0.531561"/>
<path d="M46.1717 86.6388H55.4315C56.1258 86.6388 56.6967 87.2014 56.6967 87.9039V98.8754C56.6967 99.5791 56.1352 100.14 55.4315 100.14H44.6408H30.597H19.8063C19.112 100.14 18.5412 99.5779 18.5412 98.8754V87.9039C18.5412 87.2096 19.1038 86.6388 19.8063 86.6388H29.0661C30.0527 86.6388 30.8628 85.8288 30.8628 84.8421V74.4448C30.8628 73.7411 31.4242 73.1797 32.1279 73.1797H43.1099C43.8042 73.1797 44.3751 73.7423 44.3751 74.4448V84.8421C44.3751 85.8276 45.1732 86.6388 46.1717 86.6388Z" stroke="white" stroke-opacity="0.5" stroke-width="0.531561"/>
<path d="M37.5921 196.319V187.06C37.5921 186.358 38.1621 185.794 38.8589 185.784H49.8286C50.5229 185.784 51.0938 186.346 51.0938 187.049V197.84V211.883V222.674C51.0938 223.378 50.5324 223.939 49.8286 223.939H38.8572C38.1629 223.939 37.5921 223.377 37.5921 222.674V213.414C37.5921 212.429 36.7939 211.618 35.7954 211.618H25.3981C24.7038 211.618 24.133 211.055 24.133 210.353V199.381C24.133 198.687 24.6956 198.116 25.3981 198.116H35.7954C36.7809 198.116 37.5921 197.318 37.5921 196.319Z" stroke="white" stroke-opacity="0.5" stroke-width="0.531561"/>
<path d="M62.2778 166.697V166.701V177.672C62.2778 178.367 61.7152 178.937 61.0127 178.937H50.2326H36.1888H25.3981C24.7038 178.937 24.133 178.375 24.133 177.672V166.701C24.133 166.007 24.6956 165.436 25.3981 165.436H34.6579C35.6433 165.436 36.4546 164.637 36.4546 163.639V153.242C36.4546 152.547 37.0172 151.977 37.7197 151.977H48.7017C49.396 151.977 49.9669 152.539 49.9669 153.242V163.639C49.9669 164.624 50.765 165.436 51.7635 165.436H61.0127C61.7183 165.436 62.2866 166.009 62.2778 166.697Z" stroke="white" stroke-opacity="0.5" stroke-width="0.531561"/>
<path d="M37.5921 276.415V267.155C37.5921 266.45 38.1653 265.88 38.8572 265.88H49.8286C50.5229 265.88 51.0938 266.442 51.0938 267.145V277.935V291.979V302.77C51.0938 303.474 50.5324 304.035 49.8286 304.035H38.8572C38.1629 304.035 37.5921 303.472 37.5921 302.77V293.51C37.5921 292.525 36.7939 291.713 35.7954 291.713H25.3981C24.7038 291.713 24.133 291.151 24.133 290.448V279.477C24.133 278.783 24.6956 278.212 25.3981 278.212H35.7954C36.7809 278.212 37.5921 277.414 37.5921 276.415Z" stroke="white" stroke-opacity="0.5" stroke-width="0.531561"/>
<path d="M62.2778 246.803V246.806V257.778C62.2778 258.481 61.7164 259.043 61.0127 259.043H50.2326H36.1888H25.3981C24.7038 259.043 24.133 258.48 24.133 257.778V246.796C24.133 246.101 24.6956 245.531 25.3981 245.531H34.6579C35.6433 245.531 36.4546 244.732 36.4546 243.734V233.337C36.4546 232.633 37.016 232.071 37.7197 232.071H48.7017C49.396 232.071 49.9669 232.634 49.9669 233.337V243.734C49.9669 244.719 50.765 245.531 51.7635 245.531H61.0127C61.7171 245.531 62.2866 246.102 62.2778 246.803Z" stroke="white" stroke-opacity="0.5" stroke-width="0.531561"/>
<path d="M37.5921 356.5V347.24C37.5921 346.547 38.1641 345.975 38.8572 345.975H49.8286C50.5229 345.975 51.0938 346.538 51.0938 347.24V358.031V372.075V382.866C51.0938 383.56 50.5312 384.131 49.8286 384.131H38.8572C38.1629 384.131 37.5921 383.568 37.5921 382.866V373.606C37.5921 372.62 36.7939 371.809 35.7954 371.809H25.3981C24.7038 371.809 24.133 371.247 24.133 370.544V359.562C24.133 358.868 24.6956 358.297 25.3981 358.297H35.7954C36.7809 358.297 37.5921 357.499 37.5921 356.5Z" stroke="white" stroke-opacity="0.5" stroke-width="0.531561"/>
<path d="M61.0127 325.36H51.7635C50.913 325.36 50.2326 324.669 50.2326 323.83V313.432C50.2326 312.582 49.5416 311.901 48.7017 311.901H37.7197C36.8692 311.901 36.1888 312.592 36.1888 313.432V323.83C36.1888 324.68 35.4978 325.36 34.6579 325.36H25.3981C24.5476 325.36 23.8672 326.051 23.8672 326.891V337.873C23.8672 338.724 24.5582 339.404 25.3981 339.404H36.1888H50.2326H61.0127C61.8632 339.404 62.5436 338.724 62.5436 337.873V326.902C62.5542 326.051 61.8632 325.36 61.0127 325.36Z" fill="#BAF734"/>
<path d="M126.894 36.1279V26.8682C126.894 26.1668 127.464 25.6021 128.161 25.5924H139.13C139.825 25.5924 140.396 26.155 140.396 26.8575V37.6482V51.692V62.4828C140.396 63.1865 139.834 63.7479 139.13 63.7479H128.159C127.465 63.7479 126.894 63.1853 126.894 62.4828V53.2229C126.894 52.2375 126.096 51.4263 125.097 51.4263H114.7C114.006 51.4263 113.435 50.8637 113.435 50.1611V39.1897C113.435 38.4955 113.997 37.9246 114.7 37.9246H125.097C126.083 37.9246 126.894 37.1264 126.894 36.1279Z" stroke="white" stroke-opacity="0.5" stroke-width="0.531561"/>
<path d="M151.58 6.51778V6.5211V17.4925C151.58 18.1963 151.018 18.7577 150.314 18.7577H139.534H125.491H114.7C114.006 18.7577 113.435 18.195 113.435 17.4925V6.5211C113.435 5.82682 113.997 5.25598 114.7 5.25598H123.96C124.946 5.25598 125.756 4.44595 125.756 3.4593V-6.93804C125.756 -7.64175 126.318 -8.20316 127.021 -8.20316H138.003C138.698 -8.20316 139.269 -7.64055 139.269 -6.93804V3.4593C139.269 4.44475 140.067 5.25598 141.065 5.25598H150.314C151.021 5.25598 151.588 5.81969 151.58 6.51778Z" stroke="white" stroke-opacity="0.5" stroke-width="0.531561"/>
<path d="M126.894 116.224V106.964C126.894 106.262 127.464 105.698 128.161 105.688H139.13C139.825 105.688 140.396 106.251 140.396 106.953V117.744V131.788V142.578C140.396 143.282 139.834 143.844 139.13 143.844H128.159C127.465 143.844 126.894 143.281 126.894 142.578V133.319C126.894 132.333 126.096 131.522 125.097 131.522H114.7C114.006 131.522 113.435 130.959 113.435 130.257V119.285C113.435 118.591 113.997 118.02 114.7 118.02H125.097C126.083 118.02 126.894 117.222 126.894 116.224Z" stroke="white" stroke-opacity="0.5" stroke-width="0.531561"/>
<path d="M144.733 86.373H135.473C134.623 86.373 133.943 85.682 133.943 84.8421V74.4448C133.943 73.5943 133.252 72.9139 132.412 72.9139H121.43C120.579 72.9139 119.899 73.5943 119.899 74.4448V84.8421C119.899 85.682 119.208 86.373 118.368 86.373H109.108C108.258 86.373 107.577 87.064 107.577 87.9039V98.8754C107.577 99.7258 108.268 100.406 109.108 100.406H119.899H133.943H144.733C145.584 100.406 146.264 99.7258 146.264 98.8754V87.9039C146.264 87.0534 145.573 86.373 144.733 86.373Z" fill="#32F991"/>
<path d="M126.894 196.319V187.06C126.894 186.358 127.464 185.794 128.161 185.784H139.13C139.825 185.784 140.396 186.346 140.396 187.049V197.84V211.883V222.674C140.396 223.378 139.834 223.939 139.13 223.939H128.159C127.465 223.939 126.894 223.377 126.894 222.674V213.414C126.894 212.429 126.096 211.618 125.097 211.618H114.7C114.006 211.618 113.435 211.055 113.435 210.353V199.381C113.435 198.687 113.997 198.116 114.7 198.116H125.097C126.083 198.116 126.894 197.318 126.894 196.319Z" stroke="white" stroke-opacity="0.5" stroke-width="0.531561"/>
<path d="M151.58 166.697V166.701V177.672C151.58 178.367 151.017 178.937 150.314 178.937H139.534H125.491H114.7C114.006 178.937 113.435 178.375 113.435 177.672V166.701C113.435 166.007 113.997 165.436 114.7 165.436H123.96C124.945 165.436 125.756 164.637 125.756 163.639V153.242C125.756 152.547 126.319 151.977 127.021 151.977H138.003C138.698 151.977 139.269 152.539 139.269 153.242V163.639C139.269 164.624 140.067 165.436 141.065 165.436H150.314C151.02 165.436 151.588 166.009 151.58 166.697Z" stroke="white" stroke-opacity="0.5" stroke-width="0.531561"/>
<path d="M126.894 276.415V267.155C126.894 266.45 127.467 265.88 128.159 265.88H139.13C139.825 265.88 140.396 266.442 140.396 267.145V277.935V291.979V302.77C140.396 303.474 139.834 304.035 139.13 304.035H128.159C127.465 304.035 126.894 303.472 126.894 302.77V293.51C126.894 292.525 126.096 291.713 125.097 291.713H114.7C114.006 291.713 113.435 291.151 113.435 290.448V279.477C113.435 278.783 113.997 278.212 114.7 278.212H125.097C126.083 278.212 126.894 277.414 126.894 276.415Z" stroke="white" stroke-opacity="0.5" stroke-width="0.531561"/>
<path d="M151.58 246.803V246.806V257.778C151.58 258.481 151.018 259.043 150.314 259.043H139.534H125.491H114.7C114.006 259.043 113.435 258.48 113.435 257.778V246.796C113.435 246.101 113.997 245.531 114.7 245.531H123.96C124.945 245.531 125.756 244.732 125.756 243.734V233.337C125.756 232.633 126.318 232.071 127.021 232.071H138.003C138.698 232.071 139.269 232.634 139.269 233.337V243.734C139.269 244.719 140.067 245.531 141.065 245.531H150.314C151.019 245.531 151.588 246.102 151.58 246.803Z" stroke="white" stroke-opacity="0.5" stroke-width="0.531561"/>
<path d="M126.894 356.5V347.24C126.894 346.547 127.466 345.975 128.159 345.975H139.13C139.825 345.975 140.396 346.538 140.396 347.24V358.031V372.075V382.866C140.396 383.56 139.833 384.131 139.13 384.131H128.159C127.465 384.131 126.894 383.568 126.894 382.866V373.606C126.894 372.62 126.096 371.809 125.097 371.809H114.7C114.006 371.809 113.435 371.247 113.435 370.544V359.562C113.435 358.868 113.997 358.297 114.7 358.297H125.097C126.083 358.297 126.894 357.499 126.894 356.5Z" stroke="white" stroke-opacity="0.5" stroke-width="0.531561"/>
<path d="M151.58 326.899V326.902V337.873C151.58 338.577 151.018 339.139 150.314 339.139H139.534H125.491H114.7C114.006 339.139 113.435 338.576 113.435 337.873V326.891C113.435 326.197 113.997 325.626 114.7 325.626H123.96C124.945 325.626 125.756 324.828 125.756 323.83V313.432C125.756 312.738 126.319 312.167 127.021 312.167H138.003C138.698 312.167 139.269 312.73 139.269 313.432V323.83C139.269 324.815 140.067 325.626 141.065 325.626H150.314C151.019 325.626 151.588 326.198 151.58 326.899Z" stroke="white" stroke-opacity="0.5" stroke-width="0.531561"/>
<path d="M-1.41339 339.788L-1.41339 349.048C-1.41339 349.749 -1.98337 350.314 -2.68015 350.324L-13.6499 350.324C-14.3442 350.324 -14.9151 349.761 -14.9151 349.059L-14.9151 338.268L-14.9151 324.224L-14.9151 313.433C-14.9151 312.73 -14.3536 312.168 -13.6499 312.168L-2.67851 312.168C-1.98423 312.168 -1.41339 312.731 -1.41339 313.433L-1.41339 322.693C-1.41339 323.679 -0.615199 324.49 0.383287 324.49L10.7806 324.49C11.4749 324.49 12.0457 325.052 12.0457 325.755L12.0457 336.726C12.0457 337.421 11.4831 337.991 10.7806 337.991L0.383288 337.991C-0.602163 337.991 -1.41339 338.79 -1.41339 339.788Z" stroke="white" stroke-opacity="0.5" stroke-width="0.531561"/>
<path d="M-26.0991 369.398L-26.0991 369.395L-26.0991 358.423C-26.0991 357.72 -25.5377 357.158 -24.834 357.158L-14.0539 357.158L-0.0100708 357.158L10.7806 357.158C11.4749 357.158 12.0457 357.721 12.0457 358.423L12.0457 369.395C12.0457 370.089 11.4831 370.66 10.7806 370.66L1.52083 370.66C0.534173 370.66 -0.27585 371.47 -0.27585 372.457L-0.275849 382.854C-0.275849 383.558 -0.837255 384.119 -1.54097 384.119L-12.523 384.119C-13.2173 384.119 -13.7881 383.557 -13.7881 382.854L-13.7881 372.457C-13.7881 371.471 -14.5863 370.66 -15.5848 370.66L-24.834 370.66C-25.5408 370.66 -26.1078 370.096 -26.0991 369.398Z" stroke="white" stroke-opacity="0.5" stroke-width="0.531561"/>
<path d="M-1.41339 259.69L-1.41339 268.95C-1.41339 269.652 -1.98352 270.216 -2.68043 270.226L-13.6499 270.226C-14.3442 270.226 -14.9151 269.663 -14.9151 268.961L-14.9151 258.17L-14.9151 244.126L-14.9151 233.336C-14.9151 232.632 -14.3536 232.07 -13.6499 232.07L-2.67851 232.07C-1.98423 232.07 -1.41339 232.633 -1.41339 233.336L-1.41339 242.595C-1.41339 243.581 -0.615199 244.392 0.383287 244.392L10.7806 244.392C11.4749 244.392 12.0457 244.955 12.0457 245.657L12.0457 256.629C12.0457 257.323 11.4831 257.894 10.7806 257.894L0.383288 257.894C-0.602163 257.894 -1.41339 258.692 -1.41339 259.69Z" stroke="white" stroke-opacity="0.5" stroke-width="0.531561"/>
<path d="M-9.99302 289.279L-19.2528 289.279C-19.9471 289.279 -20.5179 288.717 -20.5179 288.014L-20.5179 277.043C-20.5179 276.339 -19.9565 275.778 -19.2528 275.778L-8.46213 275.778L5.58173 275.778L16.3724 275.777C17.0667 275.777 17.6375 276.34 17.6375 277.043L17.6375 288.014C17.6375 288.708 17.0749 289.279 16.3724 289.279L7.11262 289.279C6.12597 289.279 5.31595 290.089 5.31595 291.076L5.31595 301.473C5.31595 302.177 4.75454 302.738 4.05083 302.738L-6.93123 302.738C-7.62551 302.738 -8.19634 302.176 -8.19634 301.473L-8.19634 291.076C-8.19634 290.09 -8.99454 289.279 -9.99302 289.279Z" stroke="white" stroke-opacity="0.5" stroke-width="0.531561"/>
<path d="M-1.41339 179.595L-1.41339 188.855C-1.41339 189.556 -1.98337 190.121 -2.68015 190.13L-13.6499 190.13C-14.3442 190.13 -14.9151 189.568 -14.9151 188.865L-14.9151 178.074L-14.9151 164.031L-14.9151 153.24C-14.9151 152.536 -14.3536 151.975 -13.6499 151.975L-2.67851 151.975C-1.98423 151.975 -1.41339 152.537 -1.41339 153.24L-1.41339 162.5C-1.41339 163.485 -0.615199 164.296 0.383287 164.296L10.7806 164.296C11.4749 164.296 12.0457 164.859 12.0457 165.561L12.0457 176.533C12.0457 177.227 11.4831 177.798 10.7806 177.798L0.383288 177.798C-0.602163 177.798 -1.41339 178.596 -1.41339 179.595Z" stroke="white" stroke-opacity="0.5" stroke-width="0.531561"/>
<path d="M-24.834 210.746L-15.5848 210.746C-14.7343 210.746 -14.0539 211.437 -14.0539 212.277L-14.0539 222.674C-14.0539 223.525 -13.3629 224.205 -12.523 224.205L-1.54097 224.205C-0.690468 224.205 -0.0100684 223.514 -0.0100685 222.674L-0.0100694 212.277C-0.0100695 211.427 0.680961 210.746 1.52083 210.746L10.7806 210.746C11.6311 210.746 12.3115 210.055 12.3115 209.215L12.3115 198.244C12.3115 197.393 11.6205 196.713 10.7806 196.713L-0.0100708 196.713L-14.0539 196.713L-24.834 196.713C-25.6845 196.713 -26.3649 197.404 -26.3649 198.244L-26.3649 209.215C-26.3755 210.055 -25.6845 210.746 -24.834 210.746Z" fill="#F7A334"/>
<path d="M-1.41339 99.499L-1.41339 108.759C-1.41339 109.464 -1.98662 110.035 -2.67851 110.035L-13.6499 110.035C-14.3442 110.035 -14.9151 109.472 -14.9151 108.769L-14.9151 97.9787L-14.9151 83.9349L-14.9151 73.1442C-14.9151 72.4405 -14.3536 71.8791 -13.6499 71.8791L-2.67851 71.8791C-1.98423 71.8791 -1.41339 72.4417 -1.41339 73.1442L-1.41339 82.404C-1.41339 83.3894 -0.615199 84.2007 0.383287 84.2007L10.7806 84.2007C11.4749 84.2007 12.0457 84.7633 12.0457 85.4658L12.0457 96.4372C12.0457 97.1315 11.4831 97.7023 10.7806 97.7023L0.383288 97.7023C-0.602163 97.7023 -1.41339 98.5005 -1.41339 99.499Z" stroke="white" stroke-opacity="0.5" stroke-width="0.531561"/>
<path d="M-26.0991 129.111L-26.0991 129.108L-26.0991 118.136C-26.0991 117.433 -25.5377 116.871 -24.834 116.871L-14.0539 116.871L-0.0100708 116.871L10.7806 116.871C11.4749 116.871 12.0457 117.434 12.0457 118.136L12.0457 129.118C12.0457 129.813 11.4831 130.384 10.7806 130.384L1.52083 130.384C0.535377 130.384 -0.27585 131.182 -0.27585 132.18L-0.275849 142.578C-0.275849 143.281 -0.837255 143.843 -1.54097 143.843L-12.523 143.843C-13.2173 143.843 -13.7881 143.28 -13.7881 142.578L-13.7881 132.18C-13.7881 131.195 -14.5863 130.384 -15.5848 130.384L-24.834 130.384C-25.5384 130.384 -26.1079 129.812 -26.0991 129.111Z" stroke="white" stroke-opacity="0.5" stroke-width="0.531561"/>
<path d="M-1.41339 19.4159L-1.41339 28.6757C-1.41339 29.3688 -1.98543 29.9408 -2.67851 29.9408L-13.6499 29.9408C-14.3442 29.9408 -14.9151 29.3782 -14.9151 28.6757L-14.9151 17.885L-14.9151 3.84113L-14.9151 -6.94957C-14.9151 -7.64385 -14.3524 -8.21469 -13.6499 -8.21469L-2.67851 -8.21469C-1.98423 -8.21469 -1.41339 -7.65208 -1.41339 -6.94957L-1.41339 2.31023C-1.41339 3.29568 -0.615199 4.10691 0.383287 4.10691L10.7806 4.10691C11.4749 4.10691 12.0457 4.66951 12.0457 5.37202L12.0457 16.3541C12.0457 17.0484 11.4831 17.6192 10.7806 17.6192L0.383288 17.6192C-0.602163 17.6192 -1.41339 18.4174 -1.41339 19.4159Z" stroke="white" stroke-opacity="0.5" stroke-width="0.531561"/>
<path d="M-26.0991 49.0154L-26.0991 49.0121L-26.0991 38.0407C-26.0991 37.337 -25.5377 36.7755 -24.834 36.7755L-14.0539 36.7755L-0.0100708 36.7755L10.7806 36.7755C11.4749 36.7755 12.0457 37.3382 12.0457 38.0407L12.0457 49.0227C12.0457 49.717 11.4831 50.2878 10.7806 50.2878L1.52083 50.2878C0.535377 50.2878 -0.27585 51.086 -0.27585 52.0845L-0.275849 62.4819C-0.275849 63.1761 -0.838455 63.747 -1.54097 63.747L-12.523 63.747C-13.2173 63.747 -13.7881 63.1844 -13.7881 62.4819L-13.7881 52.0845C-13.7881 51.0991 -14.5863 50.2878 -15.5848 50.2878L-24.834 50.2878C-25.5384 50.2878 -26.1079 49.7159 -26.0991 49.0154Z" stroke="white" stroke-opacity="0.5" stroke-width="0.531561"/>
<path d="M87.8893 339.788L87.8893 349.048C87.8893 349.749 87.3194 350.314 86.6226 350.324L75.6528 350.324C74.9585 350.324 74.3877 349.761 74.3877 349.059L74.3877 338.268L74.3877 324.224L74.3877 313.433C74.3877 312.73 74.9491 312.168 75.6528 312.168L86.6242 312.168C87.3185 312.168 87.8893 312.731 87.8893 313.433L87.8893 322.693C87.8893 323.679 88.6875 324.49 89.686 324.49L100.083 324.49C100.778 324.49 101.348 325.052 101.348 325.755L101.348 336.726C101.348 337.421 100.786 337.991 100.083 337.991L89.686 337.991C88.7006 337.991 87.8893 338.79 87.8893 339.788Z" stroke="white" stroke-opacity="0.5" stroke-width="0.531561"/>
<path d="M63.2036 369.4L63.2036 369.397L63.2036 358.425C63.2036 357.722 63.765 357.16 64.4687 357.16L75.2488 357.16L89.2927 357.16L100.083 357.16C100.778 357.16 101.348 357.723 101.348 358.425L101.348 369.397C101.348 370.091 100.786 370.662 100.083 370.662L90.8236 370.662C89.8369 370.662 89.0269 371.472 89.0269 372.459L89.0269 382.856C89.0269 383.56 88.4655 384.121 87.7618 384.121L76.7797 384.121C76.0854 384.121 75.5146 383.559 75.5146 382.856L75.5146 372.459C75.5146 371.473 74.7164 370.662 73.7179 370.662L64.4687 370.662C63.762 370.662 63.1949 370.098 63.2036 369.4Z" stroke="white" stroke-opacity="0.5" stroke-width="0.531561"/>
<path d="M87.8893 259.692L87.8893 268.952C87.8893 269.654 87.3192 270.218 86.6223 270.228L75.6528 270.228C74.9585 270.228 74.3877 269.665 74.3877 268.963L74.3877 258.172L74.3877 244.128L74.3877 233.338C74.3877 232.634 74.9491 232.072 75.6528 232.072L86.6242 232.072C87.3185 232.072 87.8893 232.635 87.8893 233.338L87.8893 242.597C87.8893 243.583 88.6875 244.394 89.686 244.394L100.083 244.394C100.778 244.394 101.348 244.957 101.348 245.659L101.348 256.631C101.348 257.325 100.786 257.896 100.083 257.896L89.686 257.896C88.7006 257.896 87.8893 258.694 87.8893 259.692Z" stroke="white" stroke-opacity="0.5" stroke-width="0.531561"/>
<path d="M79.3097 289.279L70.0499 289.279C69.3556 289.279 68.7848 288.717 68.7848 288.014L68.7848 277.043C68.7848 276.339 69.3462 275.778 70.0499 275.778L80.8406 275.778L94.8845 275.778L105.675 275.777C106.369 275.777 106.94 276.34 106.94 277.043L106.94 288.014C106.94 288.708 106.378 289.279 105.675 289.279L96.4154 289.279C95.4287 289.279 94.6187 290.089 94.6187 291.076L94.6187 301.473C94.6187 302.177 94.0573 302.738 93.3536 302.738L82.3715 302.738C81.6772 302.738 81.1064 302.176 81.1064 301.473L81.1064 291.076C81.1064 290.09 80.3082 289.279 79.3097 289.279Z" stroke="white" stroke-opacity="0.5" stroke-width="0.531561"/>
<path d="M87.8893 179.597L87.8893 188.856C87.8893 189.558 87.3194 190.122 86.6226 190.132L75.6528 190.132C74.9585 190.132 74.3877 189.57 74.3877 188.867L74.3877 178.076L74.3877 164.033L74.3877 153.242C74.3877 152.538 74.9491 151.977 75.6528 151.977L86.6242 151.977C87.3185 151.977 87.8893 152.539 87.8893 153.242L87.8893 162.502C87.8893 163.487 88.6875 164.298 89.686 164.298L100.083 164.298C100.778 164.298 101.348 164.861 101.348 165.563L101.348 176.535C101.348 177.229 100.786 177.8 100.083 177.8L89.686 177.8C88.7006 177.8 87.8893 178.598 87.8893 179.597Z" stroke="white" stroke-opacity="0.5" stroke-width="0.531561"/>
<path d="M63.2036 209.219L63.2036 209.215L63.2036 198.244C63.2036 197.55 63.7662 196.979 64.4687 196.979L75.2488 196.979L89.2927 196.979L100.083 196.979C100.778 196.979 101.348 197.541 101.348 198.244L101.348 209.215C101.348 209.91 100.786 210.48 100.083 210.48L90.8236 210.48C89.8381 210.48 89.0269 211.279 89.0269 212.277L89.0269 222.674C89.0269 223.369 88.4643 223.939 87.7618 223.939L76.7797 223.939C76.0854 223.939 75.5146 223.377 75.5146 222.674L75.5146 212.277C75.5146 211.292 74.7164 210.48 73.7179 210.48L64.4687 210.48C63.7631 210.48 63.1949 209.907 63.2036 209.219Z" stroke="white" stroke-opacity="0.5" stroke-width="0.531561"/>
<path d="M87.8893 99.499L87.8893 108.759C87.8893 109.464 87.3161 110.035 86.6242 110.035L75.6528 110.035C74.9585 110.035 74.3877 109.472 74.3877 108.769L74.3877 97.9787L74.3877 83.9349L74.3877 73.1442C74.3877 72.4405 74.9491 71.8791 75.6528 71.8791L86.6242 71.8791C87.3185 71.8791 87.8893 72.4417 87.8893 73.1442L87.8893 82.404C87.8893 83.3894 88.6875 84.2007 89.686 84.2007L100.083 84.2007C100.778 84.2007 101.348 84.7633 101.348 85.4658L101.348 96.4372C101.348 97.1315 100.786 97.7023 100.083 97.7023L89.686 97.7023C88.7006 97.7023 87.8893 98.5005 87.8893 99.499Z" stroke="white" stroke-opacity="0.5" stroke-width="0.531561"/>
<path d="M63.2036 129.111L63.2036 129.108L63.2036 118.136C63.2036 117.433 63.765 116.871 64.4687 116.871L75.2488 116.871L89.2927 116.871L100.083 116.871C100.778 116.871 101.348 117.434 101.348 118.136L101.348 129.118C101.348 129.813 100.786 130.384 100.083 130.384L90.8236 130.384C89.8381 130.384 89.0269 131.182 89.0269 132.18L89.0269 142.578C89.0269 143.281 88.4655 143.843 87.7618 143.843L76.7797 143.843C76.0854 143.843 75.5146 143.28 75.5146 142.578L75.5146 132.18C75.5146 131.195 74.7164 130.384 73.7179 130.384L64.4687 130.384C63.7644 130.384 63.1949 129.812 63.2036 129.111Z" stroke="white" stroke-opacity="0.5" stroke-width="0.531561"/>
<path d="M87.8893 19.4159L87.8893 28.6757C87.8893 29.3688 87.3173 29.9408 86.6242 29.9408L75.6528 29.9408C74.9585 29.9408 74.3877 29.3782 74.3877 28.6757L74.3877 17.885L74.3877 3.84113L74.3877 -6.94957C74.3877 -7.64385 74.9503 -8.21469 75.6528 -8.21469L86.6242 -8.21469C87.3185 -8.21469 87.8893 -7.65208 87.8893 -6.94957L87.8893 2.31023C87.8893 3.29568 88.6875 4.10691 89.686 4.10691L100.083 4.10691C100.778 4.10691 101.348 4.66951 101.348 5.37202L101.348 16.3541C101.348 17.0484 100.786 17.6192 100.083 17.6192L89.686 17.6192C88.7006 17.6192 87.8893 18.4174 87.8893 19.4159Z" stroke="white" stroke-opacity="0.5" stroke-width="0.531561"/>
<path d="M63.2036 49.0154L63.2036 49.0121L63.2036 38.0407C63.2036 37.337 63.765 36.7755 64.4687 36.7755L75.2488 36.7755L89.2927 36.7755L100.083 36.7755C100.778 36.7755 101.348 37.3382 101.348 38.0407L101.348 49.0227C101.348 49.717 100.786 50.2878 100.083 50.2878L90.8236 50.2878C89.8381 50.2878 89.0269 51.086 89.0269 52.0845L89.0269 62.4819C89.0269 63.1761 88.4643 63.747 87.7618 63.747L76.7797 63.747C76.0854 63.747 75.5146 63.1844 75.5146 62.4819L75.5146 52.0845C75.5146 51.0991 74.7164 50.2878 73.7179 50.2878L64.4687 50.2878C63.7644 50.2878 63.1949 49.7159 63.2036 49.0154Z" stroke="white" stroke-opacity="0.5" stroke-width="0.531561"/>
<path d="M355.797 339.788L355.797 349.048C355.797 349.749 355.227 350.314 354.53 350.324L343.56 350.324C342.866 350.324 342.295 349.761 342.295 349.059L342.295 338.268L342.295 324.224L342.295 313.433C342.295 312.73 342.856 312.168 343.56 312.168L354.531 312.168C355.226 312.168 355.797 312.731 355.797 313.433L355.797 322.693C355.797 323.679 356.595 324.49 357.593 324.49L367.991 324.49C368.685 324.49 369.256 325.052 369.256 325.755L369.256 336.726C369.256 337.421 368.693 337.991 367.991 337.991L357.593 337.991C356.608 337.991 355.797 338.79 355.797 339.788Z" stroke="white" stroke-opacity="0.5" stroke-width="0.531561"/>
<path d="M331.111 369.398L331.111 369.395L331.111 358.423C331.111 357.72 331.672 357.158 332.376 357.158L343.156 357.158L357.2 357.158L367.991 357.158C368.685 357.158 369.256 357.721 369.256 358.423L369.256 369.395C369.256 370.089 368.693 370.66 367.991 370.66L358.731 370.66C357.744 370.66 356.934 371.47 356.934 372.457L356.934 382.854C356.934 383.558 356.373 384.119 355.669 384.119L344.687 384.119C343.993 384.119 343.422 383.557 343.422 382.854L343.422 372.457C343.422 371.471 342.624 370.66 341.625 370.66L332.376 370.66C331.669 370.66 331.102 370.096 331.111 369.398Z" stroke="white" stroke-opacity="0.5" stroke-width="0.531561"/>
<path d="M355.797 259.69L355.797 268.95C355.797 269.652 355.226 270.216 354.53 270.226L343.56 270.226C342.866 270.226 342.295 269.663 342.295 268.961L342.295 258.17L342.295 244.126L342.295 233.336C342.295 232.632 342.856 232.07 343.56 232.07L354.531 232.07C355.226 232.07 355.797 232.633 355.797 233.336L355.797 242.595C355.797 243.581 356.595 244.392 357.593 244.392L367.991 244.392C368.685 244.392 369.256 244.955 369.256 245.657L369.256 256.629C369.256 257.323 368.693 257.894 367.991 257.894L357.593 257.894C356.608 257.894 355.797 258.692 355.797 259.69Z" stroke="white" stroke-opacity="0.5" stroke-width="0.531561"/>
<path d="M347.217 289.279L337.957 289.279C337.263 289.279 336.692 288.717 336.692 288.014L336.692 277.043C336.692 276.339 337.253 275.778 337.957 275.778L348.748 275.778L362.792 275.778L373.582 275.777C374.277 275.777 374.848 276.34 374.848 277.043L374.848 288.014C374.848 288.708 374.285 289.279 373.582 289.279L364.323 289.279C363.336 289.279 362.526 290.089 362.526 291.076L362.526 301.473C362.526 302.177 361.965 302.738 361.261 302.738L350.279 302.738C349.584 302.738 349.014 302.176 349.014 301.473L349.014 291.076C349.014 290.09 348.215 289.279 347.217 289.279Z" stroke="white" stroke-opacity="0.5" stroke-width="0.531561"/>
<path d="M355.797 179.595L355.797 188.855C355.797 189.556 355.227 190.121 354.53 190.13L343.56 190.13C342.866 190.13 342.295 189.568 342.295 188.865L342.295 178.074L342.295 164.031L342.295 153.24C342.295 152.536 342.856 151.975 343.56 151.975L354.531 151.975C355.226 151.975 355.797 152.537 355.797 153.24L355.797 162.5C355.797 163.485 356.595 164.296 357.593 164.296L367.991 164.296C368.685 164.296 369.256 164.859 369.256 165.561L369.256 176.533C369.256 177.227 368.693 177.798 367.991 177.798L357.593 177.798C356.608 177.798 355.797 178.596 355.797 179.595Z" stroke="white" stroke-opacity="0.5" stroke-width="0.531561"/>
<path d="M332.376 210.746L341.625 210.746C342.476 210.746 343.156 211.437 343.156 212.277L343.156 222.674C343.156 223.525 343.847 224.205 344.687 224.205L355.669 224.205C356.519 224.205 357.2 223.514 357.2 222.674L357.2 212.277C357.2 211.427 357.891 210.746 358.731 210.746L367.991 210.746C368.841 210.746 369.521 210.055 369.521 209.215L369.521 198.244C369.521 197.393 368.83 196.713 367.991 196.713L357.2 196.713L343.156 196.713L332.376 196.713C331.525 196.713 330.845 197.404 330.845 198.244L330.845 209.215C330.834 210.055 331.525 210.746 332.376 210.746Z" fill="#F7A334"/>
<path d="M355.797 99.499L355.797 108.759C355.797 109.464 355.223 110.035 354.531 110.035L343.56 110.035C342.866 110.035 342.295 109.472 342.295 108.769L342.295 97.9787L342.295 83.9349L342.295 73.1442C342.295 72.4405 342.856 71.8791 343.56 71.8791L354.531 71.8791C355.226 71.8791 355.797 72.4417 355.797 73.1442L355.797 82.404C355.797 83.3894 356.595 84.2007 357.593 84.2007L367.991 84.2007C368.685 84.2007 369.256 84.7633 369.256 85.4658L369.256 96.4372C369.256 97.1315 368.693 97.7023 367.991 97.7023L357.593 97.7023C356.608 97.7023 355.797 98.5005 355.797 99.499Z" stroke="white" stroke-opacity="0.5" stroke-width="0.531561"/>
<path d="M331.111 129.111L331.111 129.108L331.111 118.136C331.111 117.433 331.672 116.871 332.376 116.871L343.156 116.871L357.2 116.871L367.991 116.871C368.685 116.871 369.256 117.434 369.256 118.136L369.256 129.118C369.256 129.813 368.693 130.384 367.991 130.384L358.731 130.384C357.745 130.384 356.934 131.182 356.934 132.18L356.934 142.578C356.934 143.281 356.373 143.843 355.669 143.843L344.687 143.843C343.993 143.843 343.422 143.28 343.422 142.578L343.422 132.18C343.422 131.195 342.624 130.384 341.625 130.384L332.376 130.384C331.672 130.384 331.102 129.812 331.111 129.111Z" stroke="white" stroke-opacity="0.5" stroke-width="0.531561"/>
<path d="M355.797 19.4159L355.797 28.6757C355.797 29.3688 355.225 29.9408 354.531 29.9408L343.56 29.9408C342.866 29.9408 342.295 29.3782 342.295 28.6757L342.295 17.885L342.295 3.84113L342.295 -6.94957C342.295 -7.64385 342.858 -8.21469 343.56 -8.21469L354.531 -8.21469C355.226 -8.21469 355.797 -7.65208 355.797 -6.94957L355.797 2.31023C355.797 3.29568 356.595 4.10691 357.593 4.10691L367.991 4.10691C368.685 4.10691 369.256 4.66951 369.256 5.37202L369.256 16.3541C369.256 17.0484 368.693 17.6192 367.991 17.6192L357.593 17.6192C356.608 17.6192 355.797 18.4174 355.797 19.4159Z" stroke="white" stroke-opacity="0.5" stroke-width="0.531561"/>
<path d="M331.111 49.0154L331.111 49.0121L331.111 38.0407C331.111 37.337 331.672 36.7755 332.376 36.7755L343.156 36.7755L357.2 36.7755L367.991 36.7755C368.685 36.7755 369.256 37.3382 369.256 38.0407L369.256 49.0227C369.256 49.717 368.693 50.2878 367.991 50.2878L358.731 50.2878C357.745 50.2878 356.934 51.086 356.934 52.0845L356.934 62.4819C356.934 63.1761 356.372 63.747 355.669 63.747L344.687 63.747C343.993 63.747 343.422 63.1844 343.422 62.4819L343.422 52.0845C343.422 51.0991 342.624 50.2878 341.625 50.2878L332.376 50.2878C331.672 50.2878 331.102 49.7159 331.111 49.0154Z" stroke="white" stroke-opacity="0.5" stroke-width="0.531561"/>
<path d="M216.197 36.1279V26.8682C216.197 26.1668 216.767 25.6021 217.463 25.5924H228.433C229.127 25.5924 229.698 26.155 229.698 26.8575V37.6482V51.692V62.4828C229.698 63.1865 229.137 63.7479 228.433 63.7479H217.462C216.767 63.7479 216.197 63.1853 216.197 62.4828V53.2229C216.197 52.2375 215.398 51.4263 214.4 51.4263H204.003C203.308 51.4263 202.737 50.8637 202.737 50.1611V39.1897C202.737 38.4955 203.3 37.9246 204.003 37.9246H214.4C215.385 37.9246 216.197 37.1264 216.197 36.1279Z" stroke="white" stroke-opacity="0.5" stroke-width="0.531561"/>
<path d="M240.882 6.51778V6.5211V17.4925C240.882 18.1963 240.321 18.7577 239.617 18.7577H228.837H214.793H204.003C203.308 18.7577 202.737 18.195 202.737 17.4925V6.5211C202.737 5.82682 203.3 5.25598 204.003 5.25598H213.262C214.249 5.25598 215.059 4.44595 215.059 3.4593V-6.93804C215.059 -7.64175 215.62 -8.20316 216.324 -8.20316H227.306C228.001 -8.20316 228.571 -7.64055 228.571 -6.93804V3.4593C228.571 4.44475 229.37 5.25598 230.368 5.25598H239.617C240.324 5.25598 240.891 5.81969 240.882 6.51778Z" stroke="white" stroke-opacity="0.5" stroke-width="0.531561"/>
<path d="M216.197 116.224V106.964C216.197 106.262 216.767 105.698 217.464 105.688H228.433C229.127 105.688 229.698 106.251 229.698 106.953V117.744V131.788V142.578C229.698 143.282 229.137 143.844 228.433 143.844H217.462C216.767 143.844 216.197 143.281 216.197 142.578V133.319C216.197 132.333 215.398 131.522 214.4 131.522H204.003C203.308 131.522 202.737 130.959 202.737 130.257V119.285C202.737 118.591 203.3 118.02 204.003 118.02H214.4C215.385 118.02 216.197 117.222 216.197 116.224Z" stroke="white" stroke-opacity="0.5" stroke-width="0.531561"/>
<path d="M224.776 86.6388H234.036C234.73 86.6388 235.301 87.2014 235.301 87.9039V98.8754C235.301 99.5791 234.74 100.14 234.036 100.14H223.245H209.201H198.411C197.716 100.14 197.146 99.5779 197.146 98.8754V87.9039C197.146 87.2096 197.708 86.6388 198.411 86.6388H207.671C208.657 86.6388 209.467 85.8288 209.467 84.8421V74.4448C209.467 73.7411 210.029 73.1797 210.732 73.1797H221.714C222.409 73.1797 222.98 73.7423 222.98 74.4448V84.8421C222.98 85.8276 223.778 86.6388 224.776 86.6388Z" stroke="white" stroke-opacity="0.5" stroke-width="0.531561"/>
<path d="M216.197 196.319V187.06C216.197 186.358 216.767 185.794 217.463 185.784H228.433C229.127 185.784 229.698 186.346 229.698 187.049V197.84V211.883V222.674C229.698 223.378 229.137 223.939 228.433 223.939H217.462C216.767 223.939 216.197 223.377 216.197 222.674V213.414C216.197 212.429 215.398 211.618 214.4 211.618H204.003C203.308 211.618 202.737 211.055 202.737 210.353V199.381C202.737 198.687 203.3 198.116 204.003 198.116H214.4C215.385 198.116 216.197 197.318 216.197 196.319Z" stroke="white" stroke-opacity="0.5" stroke-width="0.531561"/>
<path d="M240.882 166.697V166.701V177.672C240.882 178.367 240.32 178.937 239.617 178.937H228.837H214.793H204.003C203.308 178.937 202.737 178.375 202.737 177.672V166.701C202.737 166.007 203.3 165.436 204.003 165.436H213.262C214.248 165.436 215.059 164.637 215.059 163.639V153.242C215.059 152.547 215.622 151.977 216.324 151.977H227.306C228.001 151.977 228.571 152.539 228.571 153.242V163.639C228.571 164.624 229.37 165.436 230.368 165.436H239.617C240.323 165.436 240.891 166.009 240.882 166.697Z" stroke="white" stroke-opacity="0.5" stroke-width="0.531561"/>
<path d="M216.197 276.415V267.155C216.197 266.45 216.77 265.88 217.462 265.88H228.433C229.127 265.88 229.698 266.442 229.698 267.145V277.935V291.979V302.77C229.698 303.474 229.137 304.035 228.433 304.035H217.462C216.767 304.035 216.197 303.472 216.197 302.77V293.51C216.197 292.525 215.398 291.713 214.4 291.713H204.003C203.308 291.713 202.737 291.151 202.737 290.448V279.477C202.737 278.783 203.3 278.212 204.003 278.212H214.4C215.385 278.212 216.197 277.414 216.197 276.415Z" stroke="white" stroke-opacity="0.5" stroke-width="0.531561"/>
<path d="M240.882 246.803V246.806V257.778C240.882 258.481 240.321 259.043 239.617 259.043H228.837H214.793H204.003C203.308 259.043 202.737 258.48 202.737 257.778V246.796C202.737 246.101 203.3 245.531 204.003 245.531H213.262C214.248 245.531 215.059 244.732 215.059 243.734V233.337C215.059 232.633 215.62 232.071 216.324 232.071H227.306C228.001 232.071 228.571 232.634 228.571 233.337V243.734C228.571 244.719 229.37 245.531 230.368 245.531H239.617C240.322 245.531 240.891 246.102 240.882 246.803Z" stroke="white" stroke-opacity="0.5" stroke-width="0.531561"/>
<path d="M216.197 356.5V347.24C216.197 346.547 216.769 345.975 217.462 345.975H228.433C229.127 345.975 229.698 346.538 229.698 347.24V358.031V372.075V382.866C229.698 383.56 229.136 384.131 228.433 384.131H217.462C216.767 384.131 216.197 383.568 216.197 382.866V373.606C216.197 372.62 215.398 371.809 214.4 371.809H204.003C203.308 371.809 202.737 371.247 202.737 370.544V359.562C202.737 358.868 203.3 358.297 204.003 358.297H214.4C215.385 358.297 216.197 357.499 216.197 356.5Z" stroke="white" stroke-opacity="0.5" stroke-width="0.531561"/>
<path d="M240.882 326.899V326.902V337.873C240.882 338.577 240.321 339.139 239.617 339.139H228.837H214.793H204.003C203.308 339.139 202.737 338.576 202.737 337.873V326.891C202.737 326.197 203.3 325.626 204.003 325.626H213.262C214.248 325.626 215.059 324.828 215.059 323.83V313.432C215.059 312.738 215.622 312.167 216.324 312.167H227.306C228.001 312.167 228.571 312.73 228.571 313.432V323.83C228.571 324.815 229.37 325.626 230.368 325.626H239.617C240.322 325.626 240.891 326.198 240.882 326.899Z" stroke="white" stroke-opacity="0.5" stroke-width="0.531561"/>
<path d="M305.499 36.1279V26.8682C305.499 26.1668 306.069 25.6021 306.766 25.5924H317.736C318.43 25.5924 319.001 26.155 319.001 26.8575V37.6482V51.692V62.4828C319.001 63.1865 318.44 63.7479 317.736 63.7479H306.764C306.07 63.7479 305.499 63.1853 305.499 62.4828V53.2229C305.499 52.2375 304.701 51.4263 303.703 51.4263H293.305C292.611 51.4263 292.04 50.8637 292.04 50.1611V39.1897C292.04 38.4955 292.603 37.9246 293.305 37.9246H303.703C304.688 37.9246 305.499 37.1264 305.499 36.1279Z" stroke="white" stroke-opacity="0.5" stroke-width="0.531561"/>
<path d="M330.185 6.51778V6.5211V17.4925C330.185 18.1963 329.624 18.7577 328.92 18.7577H318.14H304.096H293.305C292.611 18.7577 292.04 18.195 292.04 17.4925V6.5211C292.04 5.82682 292.603 5.25598 293.305 5.25598H302.565C303.552 5.25598 304.362 4.44595 304.362 3.4593V-6.93804C304.362 -7.64175 304.923 -8.20316 305.627 -8.20316H316.609C317.303 -8.20316 317.874 -7.64055 317.874 -6.93804V3.4593C317.874 4.44475 318.672 5.25598 319.671 5.25598H328.92C329.627 5.25598 330.194 5.81969 330.185 6.51778Z" stroke="white" stroke-opacity="0.5" stroke-width="0.531561"/>
<path d="M305.499 116.224V106.964C305.499 106.262 306.069 105.698 306.766 105.688H317.736C318.43 105.688 319.001 106.251 319.001 106.953V117.744V131.788V142.578C319.001 143.282 318.44 143.844 317.736 143.844H306.764C306.07 143.844 305.499 143.281 305.499 142.578V133.319C305.499 132.333 304.701 131.522 303.703 131.522H293.305C292.611 131.522 292.04 130.959 292.04 130.257V119.285C292.04 118.591 292.603 118.02 293.305 118.02H303.703C304.688 118.02 305.499 117.222 305.499 116.224Z" stroke="white" stroke-opacity="0.5" stroke-width="0.531561"/>
<path d="M314.079 86.6388H323.339C324.033 86.6388 324.604 87.2014 324.604 87.9039V98.8754C324.604 99.5791 324.042 100.14 323.339 100.14H312.548H298.504H287.714C287.019 100.14 286.448 99.5779 286.448 98.8754V87.9039C286.448 87.2096 287.011 86.6388 287.714 86.6388H296.973C297.96 86.6388 298.77 85.8288 298.77 84.8421V74.4448C298.77 73.7411 299.331 73.1797 300.035 73.1797H311.017C311.711 73.1797 312.282 73.7423 312.282 74.4448V84.8421C312.282 85.8276 313.08 86.6388 314.079 86.6388Z" stroke="white" stroke-opacity="0.5" stroke-width="0.531561"/>
<path d="M305.499 196.319V187.06C305.499 186.358 306.069 185.794 306.766 185.784H317.736C318.43 185.784 319.001 186.346 319.001 187.049V197.84V211.883V222.674C319.001 223.378 318.44 223.939 317.736 223.939H306.764C306.07 223.939 305.499 223.377 305.499 222.674V213.414C305.499 212.429 304.701 211.618 303.703 211.618H293.305C292.611 211.618 292.04 211.055 292.04 210.353V199.381C292.04 198.687 292.603 198.116 293.305 198.116H303.703C304.688 198.116 305.499 197.318 305.499 196.319Z" stroke="white" stroke-opacity="0.5" stroke-width="0.531561"/>
<path d="M330.185 166.697V166.701V177.672C330.185 178.367 329.622 178.937 328.92 178.937H318.14H304.096H293.305C292.611 178.937 292.04 178.375 292.04 177.672V166.701C292.04 166.007 292.603 165.436 293.305 165.436H302.565C303.551 165.436 304.362 164.637 304.362 163.639V153.242C304.362 152.547 304.924 151.977 305.627 151.977H316.609C317.303 151.977 317.874 152.539 317.874 153.242V163.639C317.874 164.624 318.672 165.436 319.671 165.436H328.92C329.626 165.436 330.194 166.009 330.185 166.697Z" stroke="white" stroke-opacity="0.5" stroke-width="0.531561"/>
<path d="M305.499 276.415V267.155C305.499 266.45 306.073 265.88 306.764 265.88H317.736C318.43 265.88 319.001 266.442 319.001 267.145V277.935V291.979V302.77C319.001 303.474 318.44 304.035 317.736 304.035H306.764C306.07 304.035 305.499 303.472 305.499 302.77V293.51C305.499 292.525 304.701 291.713 303.703 291.713H293.305C292.611 291.713 292.04 291.151 292.04 290.448V279.477C292.04 278.783 292.603 278.212 293.305 278.212H303.703C304.688 278.212 305.499 277.414 305.499 276.415Z" stroke="white" stroke-opacity="0.5" stroke-width="0.531561"/>
<path d="M330.185 246.803V246.806V257.778C330.185 258.481 329.624 259.043 328.92 259.043H318.14H304.096H293.305C292.611 259.043 292.04 258.48 292.04 257.778V246.796C292.04 246.101 292.603 245.531 293.305 245.531H302.565C303.551 245.531 304.362 244.732 304.362 243.734V233.337C304.362 232.633 304.923 232.071 305.627 232.071H316.609C317.303 232.071 317.874 232.634 317.874 233.337V243.734C317.874 244.719 318.672 245.531 319.671 245.531H328.92C329.624 245.531 330.194 246.102 330.185 246.803Z" stroke="white" stroke-opacity="0.5" stroke-width="0.531561"/>
<path d="M305.499 356.5V347.24C305.499 346.547 306.071 345.975 306.764 345.975H317.736C318.43 345.975 319.001 346.538 319.001 347.24V358.031V372.075V382.866C319.001 383.56 318.438 384.131 317.736 384.131H306.764C306.07 384.131 305.499 383.568 305.499 382.866V373.606C305.499 372.62 304.701 371.809 303.703 371.809H293.305C292.611 371.809 292.04 371.247 292.04 370.544V359.562C292.04 358.868 292.603 358.297 293.305 358.297H303.703C304.688 358.297 305.499 357.499 305.499 356.5Z" stroke="white" stroke-opacity="0.5" stroke-width="0.531561"/>
<path d="M330.185 326.899V326.902V337.873C330.185 338.577 329.624 339.139 328.92 339.139H318.14H304.096H293.305C292.611 339.139 292.04 338.576 292.04 337.873V326.891C292.04 326.197 292.603 325.626 293.305 325.626H302.565C303.551 325.626 304.362 324.828 304.362 323.83V313.432C304.362 312.738 304.924 312.167 305.627 312.167H316.609C317.303 312.167 317.874 312.73 317.874 313.432V323.83C317.874 324.815 318.672 325.626 319.671 325.626H328.92C329.624 325.626 330.194 326.198 330.185 326.899Z" stroke="white" stroke-opacity="0.5" stroke-width="0.531561"/>
<path d="M177.192 339.788L177.192 349.048C177.192 349.749 176.622 350.314 175.925 350.324L164.956 350.324C164.261 350.324 163.69 349.761 163.69 349.059L163.69 338.268L163.69 324.224L163.69 313.433C163.69 312.73 164.252 312.168 164.956 312.168L175.927 312.168C176.621 312.168 177.192 312.731 177.192 313.433L177.192 322.693C177.192 323.679 177.99 324.49 178.989 324.49L189.386 324.49C190.08 324.49 190.651 325.052 190.651 325.755L190.651 336.726C190.651 337.421 190.089 337.991 189.386 337.991L178.989 337.991C178.003 337.991 177.192 338.79 177.192 339.788Z" stroke="white" stroke-opacity="0.5" stroke-width="0.531561"/>
<path d="M152.506 369.398L152.506 369.395L152.506 358.423C152.506 357.72 153.068 357.158 153.771 357.158L164.552 357.158L178.595 357.158L189.386 357.158C190.08 357.158 190.651 357.721 190.651 358.423L190.651 369.395C190.651 370.089 190.089 370.66 189.386 370.66L180.126 370.66C179.14 370.66 178.33 371.47 178.33 372.457L178.33 382.854C178.33 383.558 177.768 384.119 177.065 384.119L166.082 384.119C165.388 384.119 164.817 383.557 164.817 382.854L164.817 372.457C164.817 371.471 164.019 370.66 163.021 370.66L153.771 370.66C153.065 370.66 152.498 370.096 152.506 369.398Z" stroke="white" stroke-opacity="0.5" stroke-width="0.531561"/>
<path d="M177.192 259.69L177.192 268.95C177.192 269.652 176.622 270.216 175.925 270.226L164.956 270.226C164.261 270.226 163.69 269.663 163.69 268.961L163.69 258.17L163.69 244.126L163.69 233.336C163.69 232.632 164.252 232.07 164.956 232.07L175.927 232.07C176.621 232.07 177.192 232.633 177.192 233.336L177.192 242.595C177.192 243.581 177.99 244.392 178.989 244.392L189.386 244.392C190.08 244.392 190.651 244.955 190.651 245.657L190.651 256.629C190.651 257.323 190.089 257.894 189.386 257.894L178.989 257.894C178.003 257.894 177.192 258.692 177.192 259.69Z" stroke="white" stroke-opacity="0.5" stroke-width="0.531561"/>
<path d="M168.612 289.279L159.353 289.279C158.658 289.279 158.088 288.717 158.088 288.014L158.088 277.043C158.088 276.339 158.649 275.778 159.353 275.778L170.143 275.778L184.187 275.778L194.978 275.777C195.672 275.777 196.243 276.34 196.243 277.043L196.243 288.014C196.243 288.708 195.68 289.279 194.978 289.279L185.718 289.279C184.731 289.279 183.921 290.089 183.921 291.076L183.921 301.473C183.921 302.177 183.36 302.738 182.656 302.738L171.674 302.738C170.98 302.738 170.409 302.176 170.409 301.473L170.409 291.076C170.409 290.09 169.611 289.279 168.612 289.279Z" stroke="white" stroke-opacity="0.5" stroke-width="0.531561"/>
<path d="M177.192 179.595L177.192 188.855C177.192 189.556 176.622 190.121 175.925 190.13L164.956 190.13C164.261 190.13 163.69 189.568 163.69 188.865L163.69 178.074L163.69 164.031L163.69 153.24C163.69 152.536 164.252 151.975 164.956 151.975L175.927 151.975C176.621 151.975 177.192 152.537 177.192 153.24L177.192 162.5C177.192 163.485 177.99 164.296 178.989 164.296L189.386 164.296C190.08 164.296 190.651 164.859 190.651 165.561L190.651 176.533C190.651 177.227 190.089 177.798 189.386 177.798L178.989 177.798C178.003 177.798 177.192 178.596 177.192 179.595Z" stroke="white" stroke-opacity="0.5" stroke-width="0.531561"/>
<path d="M153.771 210.746L163.021 210.746C163.871 210.746 164.552 211.437 164.552 212.277L164.552 222.674C164.552 223.525 165.243 224.205 166.082 224.205L177.065 224.205C177.915 224.205 178.595 223.514 178.595 222.674L178.595 212.277C178.595 211.427 179.286 210.746 180.126 210.746L189.386 210.746C190.237 210.746 190.917 210.055 190.917 209.215L190.917 198.244C190.917 197.393 190.226 196.713 189.386 196.713L178.595 196.713L164.552 196.713L153.771 196.713C152.921 196.713 152.241 197.404 152.241 198.244L152.241 209.215C152.23 210.055 152.921 210.746 153.771 210.746Z" fill="#FB2D11"/>
<path d="M177.192 99.499L177.192 108.759C177.192 109.464 176.619 110.035 175.927 110.035L164.956 110.035C164.261 110.035 163.69 109.472 163.69 108.769L163.69 97.9787L163.69 83.9349L163.69 73.1442C163.69 72.4405 164.252 71.8791 164.956 71.8791L175.927 71.8791C176.621 71.8791 177.192 72.4417 177.192 73.1442L177.192 82.404C177.192 83.3894 177.99 84.2007 178.989 84.2007L189.386 84.2007C190.08 84.2007 190.651 84.7633 190.651 85.4658L190.651 96.4372C190.651 97.1315 190.089 97.7023 189.386 97.7023L178.989 97.7023C178.003 97.7023 177.192 98.5005 177.192 99.499Z" stroke="white" stroke-opacity="0.5" stroke-width="0.531561"/>
<path d="M152.506 129.111L152.506 129.108L152.506 118.136C152.506 117.433 153.068 116.871 153.771 116.871L164.552 116.871L178.595 116.871L189.386 116.871C190.08 116.871 190.651 117.434 190.651 118.136L190.651 129.118C190.651 129.813 190.089 130.384 189.386 130.384L180.126 130.384C179.141 130.384 178.33 131.182 178.33 132.18L178.33 142.578C178.33 143.281 177.768 143.843 177.065 143.843L166.082 143.843C165.388 143.843 164.817 143.28 164.817 142.578L164.817 132.18C164.817 131.195 164.019 130.384 163.021 130.384L153.771 130.384C153.067 130.384 152.498 129.812 152.506 129.111Z" stroke="white" stroke-opacity="0.5" stroke-width="0.531561"/>
<path d="M177.192 19.4159L177.192 28.6757C177.192 29.3688 176.62 29.9408 175.927 29.9408L164.956 29.9408C164.261 29.9408 163.69 29.3782 163.69 28.6757L163.69 17.885L163.69 3.84113L163.69 -6.94957C163.69 -7.64385 164.253 -8.21469 164.956 -8.21469L175.927 -8.21469C176.621 -8.21469 177.192 -7.65208 177.192 -6.94957L177.192 2.31023C177.192 3.29568 177.99 4.10691 178.989 4.10691L189.386 4.10691C190.08 4.10691 190.651 4.66951 190.651 5.37202L190.651 16.3541C190.651 17.0484 190.089 17.6192 189.386 17.6192L178.989 17.6192C178.003 17.6192 177.192 18.4174 177.192 19.4159Z" stroke="white" stroke-opacity="0.5" stroke-width="0.531561"/>
<path d="M152.506 49.0154L152.506 49.0121L152.506 38.0407C152.506 37.337 153.068 36.7755 153.771 36.7755L164.552 36.7755L178.595 36.7755L189.386 36.7755C190.08 36.7755 190.651 37.3382 190.651 38.0407L190.651 49.0227C190.651 49.717 190.089 50.2878 189.386 50.2878L180.126 50.2878C179.141 50.2878 178.33 51.086 178.33 52.0845L178.33 62.4819C178.33 63.1761 177.767 63.747 177.065 63.747L166.082 63.747C165.388 63.747 164.817 63.1844 164.817 62.4819L164.817 52.0845C164.817 51.0991 164.019 50.2878 163.021 50.2878L153.771 50.2878C153.067 50.2878 152.498 49.7159 152.506 49.0154Z" stroke="white" stroke-opacity="0.5" stroke-width="0.531561"/>
<path d="M266.76 349.048L266.76 339.788C266.76 338.938 267.451 338.257 268.291 338.257L278.688 338.257C279.538 338.257 280.219 337.566 280.219 336.726L280.219 325.755C280.219 324.904 279.528 324.224 278.688 324.224L268.291 324.224C267.44 324.224 266.76 323.533 266.76 322.693L266.76 313.433C266.76 312.583 266.069 311.902 265.229 311.902L254.257 311.902C253.407 311.902 252.726 312.583 252.726 313.433L252.726 324.224L252.726 338.268L252.726 349.059C252.726 349.909 253.417 350.589 254.257 350.589L265.229 350.589C266.069 350.579 266.76 349.898 266.76 349.048Z" fill="#367FFF"/>
<path d="M241.808 369.4L241.808 369.397L241.808 358.425C241.808 357.722 242.37 357.16 243.073 357.16L253.853 357.16L267.897 357.16L278.688 357.16C279.382 357.16 279.953 357.723 279.953 358.425L279.953 369.397C279.953 370.091 279.39 370.662 278.688 370.662L269.428 370.662C268.441 370.662 267.631 371.472 267.631 372.459L267.631 382.856C267.631 383.56 267.07 384.121 266.366 384.121L255.384 384.121C254.69 384.121 254.119 383.559 254.119 382.856L254.119 372.459C254.119 371.473 253.321 370.662 252.322 370.662L243.073 370.662C242.366 370.662 241.799 370.098 241.808 369.4Z" stroke="white" stroke-opacity="0.5" stroke-width="0.531561"/>
<path d="M266.494 259.692L266.494 268.952C266.494 269.654 265.924 270.218 265.227 270.228L254.257 270.228C253.563 270.228 252.992 269.665 252.992 268.963L252.992 258.172L252.992 244.128L252.992 233.338C252.992 232.634 253.554 232.072 254.257 232.072L265.229 232.072C265.923 232.072 266.494 232.635 266.494 233.338L266.494 242.597C266.494 243.583 267.292 244.394 268.291 244.394L278.688 244.394C279.382 244.394 279.953 244.957 279.953 245.659L279.953 256.631C279.953 257.325 279.39 257.896 278.688 257.896L268.291 257.896C267.305 257.896 266.494 258.694 266.494 259.692Z" stroke="white" stroke-opacity="0.5" stroke-width="0.531561"/>
<path d="M257.914 289.279L248.654 289.279C247.96 289.279 247.389 288.717 247.389 288.014L247.389 277.043C247.389 276.339 247.951 275.778 248.654 275.778L259.445 275.778L273.489 275.778L284.28 275.777C284.974 275.777 285.545 276.34 285.545 277.043L285.545 288.014C285.545 288.708 284.982 289.279 284.28 289.279L275.02 289.279C274.033 289.279 273.223 290.089 273.223 291.076L273.223 301.473C273.223 302.177 272.662 302.738 271.958 302.738L260.976 302.738C260.282 302.738 259.711 302.176 259.711 301.473L259.711 291.076C259.711 290.09 258.913 289.279 257.914 289.279Z" stroke="white" stroke-opacity="0.5" stroke-width="0.531561"/>
<path d="M266.494 179.597L266.494 188.856C266.494 189.558 265.924 190.122 265.227 190.132L254.257 190.132C253.563 190.132 252.992 189.57 252.992 188.867L252.992 178.076L252.992 164.033L252.992 153.242C252.992 152.538 253.554 151.977 254.257 151.977L265.229 151.977C265.923 151.977 266.494 152.539 266.494 153.242L266.494 162.502C266.494 163.487 267.292 164.298 268.291 164.298L278.688 164.298C279.382 164.298 279.953 164.861 279.953 165.563L279.953 176.535C279.953 177.229 279.39 177.8 278.688 177.8L268.291 177.8C267.305 177.8 266.494 178.598 266.494 179.597Z" stroke="white" stroke-opacity="0.5" stroke-width="0.531561"/>
<path d="M241.808 209.219L241.808 209.215L241.808 198.244C241.808 197.55 242.371 196.979 243.073 196.979L253.853 196.979L267.897 196.979L278.688 196.979C279.382 196.979 279.953 197.541 279.953 198.244L279.953 209.215C279.953 209.91 279.39 210.48 278.688 210.48L269.428 210.48C268.443 210.48 267.631 211.279 267.631 212.277L267.631 222.674C267.631 223.369 267.069 223.939 266.366 223.939L255.384 223.939C254.69 223.939 254.119 223.377 254.119 222.674L254.119 212.277C254.119 211.292 253.321 210.48 252.322 210.48L243.073 210.48C242.368 210.48 241.799 209.907 241.808 209.219Z" stroke="white" stroke-opacity="0.5" stroke-width="0.531561"/>
<path d="M266.76 108.759L266.76 99.499C266.76 98.6485 267.451 97.9681 268.291 97.9681L278.688 97.9681C279.538 97.9681 280.219 97.2771 280.219 96.4372L280.219 85.4658C280.219 84.6153 279.528 83.9349 278.688 83.9349L268.291 83.9349C267.44 83.9349 266.76 83.2438 266.76 82.404L266.76 73.1442C266.76 72.2937 266.069 71.6133 265.229 71.6133L254.257 71.6133C253.407 71.6133 252.726 72.2937 252.726 73.1442L252.726 83.9349L252.726 97.9787L252.726 108.769C252.726 109.62 253.417 110.3 254.257 110.3L265.229 110.3C266.069 110.3 266.76 109.609 266.76 108.759Z" fill="white"/>
<path d="M241.808 129.111L241.808 129.108L241.808 118.136C241.808 117.433 242.37 116.871 243.073 116.871L253.853 116.871L267.897 116.871L278.688 116.871C279.382 116.871 279.953 117.434 279.953 118.136L279.953 129.118C279.953 129.813 279.39 130.384 278.688 130.384L269.428 130.384C268.443 130.384 267.631 131.182 267.631 132.18L267.631 142.578C267.631 143.281 267.07 143.843 266.366 143.843L255.384 143.843C254.69 143.843 254.119 143.28 254.119 142.578L254.119 132.18C254.119 131.195 253.321 130.384 252.322 130.384L243.073 130.384C242.369 130.384 241.799 129.812 241.808 129.111Z" stroke="white" stroke-opacity="0.5" stroke-width="0.531561"/>
<path d="M266.494 19.4159L266.494 28.6757C266.494 29.3688 265.922 29.9408 265.229 29.9408L254.257 29.9408C253.563 29.9408 252.992 29.3782 252.992 28.6757L252.992 17.885L252.992 3.84113L252.992 -6.94957C252.992 -7.64385 253.555 -8.21469 254.257 -8.21469L265.229 -8.21469C265.923 -8.21469 266.494 -7.65208 266.494 -6.94957L266.494 2.31023C266.494 3.29568 267.292 4.10691 268.291 4.10691L278.688 4.10691C279.382 4.10691 279.953 4.66951 279.953 5.37202L279.953 16.3541C279.953 17.0484 279.39 17.6192 278.688 17.6192L268.291 17.6192C267.305 17.6192 266.494 18.4174 266.494 19.4159Z" stroke="white" stroke-opacity="0.5" stroke-width="0.531561"/>
<path d="M241.808 49.0154L241.808 49.0121L241.808 38.0407C241.808 37.337 242.37 36.7755 243.073 36.7755L253.853 36.7755L267.897 36.7755L278.688 36.7755C279.382 36.7755 279.953 37.3382 279.953 38.0407L279.953 49.0227C279.953 49.717 279.39 50.2878 278.688 50.2878L269.428 50.2878C268.443 50.2878 267.631 51.086 267.631 52.0845L267.631 62.4819C267.631 63.1761 267.069 63.747 266.366 63.747L255.384 63.747C254.69 63.747 254.119 63.1844 254.119 62.4819L254.119 52.0845C254.119 51.0991 253.321 50.2878 252.322 50.2878L243.073 50.2878C242.369 50.2878 241.799 49.7159 241.808 49.0154Z" stroke="white" stroke-opacity="0.5" stroke-width="0.531561"/>
</g>
<g filter="url(#filter0_b_1837:35827)">
<rect x="0.796875" width="358.272" height="640" fill="black" fill-opacity="0.2"/>
</g>
</g>
<defs>
<filter id="filter0_b_1837:35827" x="-0.266248" y="-1.06312" width="360.399" height="642.126" filterUnits="userSpaceOnUse" color-interpolation-filters="sRGB">
<feFlood flood-opacity="0" result="BackgroundImageFix"/>
<feGaussianBlur in="BackgroundImage" stdDeviation="0.531561"/>
<feComposite in2="SourceAlpha" operator="in" result="effect1_backgroundBlur_1837:35827"/>
<feBlend mode="normal" in="SourceGraphic" in2="effect1_backgroundBlur_1837:35827" result="shape"/>
</filter>
<clipPath id="clip0_1837:35827">
<rect width="358.272" height="640" fill="white" transform="translate(0.796875)"/>
</clipPath>
</defs>
</svg>
