<svg width="359" height="640" viewBox="0 0 359 640" fill="none" xmlns="http://www.w3.org/2000/svg">
<g clip-path="url(#clip0_1837:37118)">
<rect width="358.272" height="640" transform="translate(0.594727)" fill="white"/>
<rect x="0.594727" width="382.724" height="680.399" fill="black"/>
<mask id="mask0_1837:37118" style="mask-type:alpha" maskUnits="userSpaceOnUse" x="0" y="0" width="359" height="640">
<rect x="0.594727" width="358.272" height="640" fill="black"/>
</mask>
<g mask="url(#mask0_1837:37118)">
<path d="M37.1232 424.479V433.739C37.1232 434.59 36.4322 435.27 35.5923 435.27H25.195C24.3445 435.27 23.6641 435.961 23.6641 436.801V447.772C23.6641 448.623 24.3551 449.303 25.195 449.303H35.5923C36.4428 449.303 37.1232 449.994 37.1232 450.834V460.094C37.1232 460.945 37.8142 461.625 38.6541 461.625H49.6255C50.476 461.625 51.1564 460.945 51.1564 460.094V449.303V435.26V424.469C51.1564 423.618 50.4654 422.938 49.6255 422.938H38.6541C37.8142 422.949 37.1232 423.629 37.1232 424.479Z" fill="#FB2D11"/>
<path d="M62.0747 404.129V404.132V415.104C62.0747 415.808 61.5133 416.369 60.8096 416.369H50.0295H35.9857H25.195C24.5007 416.369 23.9298 415.806 23.9298 415.104V404.132C23.9298 403.438 24.4924 402.867 25.195 402.867H34.4548C35.4414 402.867 36.2514 402.057 36.2514 401.071V390.673C36.2514 389.97 36.8128 389.408 37.5166 389.408H48.4986C49.1929 389.408 49.7637 389.971 49.7637 390.673V401.071C49.7637 402.056 50.5619 402.867 51.5604 402.867H60.8096C61.5164 402.867 62.0834 403.431 62.0747 404.129Z" stroke="white" stroke-opacity="0.5" stroke-width="0.531561"/>
<path d="M37.389 513.835V504.575C37.389 503.874 37.9591 503.309 38.656 503.299H49.6255C50.3198 503.299 50.8906 503.862 50.8906 504.565V515.355V529.399V540.19C50.8906 540.894 50.3292 541.455 49.6255 541.455H38.6541C37.9598 541.455 37.389 540.892 37.389 540.19V530.93C37.389 529.945 36.5908 529.133 35.5923 529.133H25.195C24.5007 529.133 23.9298 528.571 23.9298 527.868V516.897C23.9298 516.203 24.4924 515.632 25.195 515.632H35.5923C36.5778 515.632 37.389 514.833 37.389 513.835Z" stroke="white" stroke-opacity="0.5" stroke-width="0.531561"/>
<path d="M45.9686 484.25H55.2284C55.9227 484.25 56.4935 484.813 56.4935 485.515V496.487C56.4935 497.19 55.9321 497.752 55.2284 497.752H44.4377H30.3939H19.6032C18.9089 497.752 18.338 497.189 18.338 496.487V485.515C18.338 484.821 18.9006 484.25 19.6032 484.25H28.863C29.8496 484.25 30.6596 483.44 30.6596 482.453V472.056C30.6596 471.352 31.221 470.791 31.9248 470.791H42.9068C43.6011 470.791 44.1719 471.354 44.1719 472.056V482.453C44.1719 483.439 44.9701 484.25 45.9686 484.25Z" stroke="white" stroke-opacity="0.5" stroke-width="0.531561"/>
<path d="M37.389 593.931V584.671C37.389 583.97 37.959 583.405 38.6557 583.395H49.6255C50.3198 583.395 50.8906 583.958 50.8906 584.66V595.451V609.495V620.286C50.8906 620.989 50.3292 621.551 49.6255 621.551H38.6541C37.9598 621.551 37.389 620.988 37.389 620.286V611.026C37.389 610.04 36.5908 609.229 35.5923 609.229H25.195C24.5007 609.229 23.9298 608.666 23.9298 607.964V596.992C23.9298 596.298 24.4924 595.727 25.195 595.727H35.5923C36.5778 595.727 37.389 594.929 37.389 593.931Z" stroke="white" stroke-opacity="0.5" stroke-width="0.531561"/>
<path d="M62.0747 564.309V564.312V575.284C62.0747 575.978 61.5121 576.549 60.8096 576.549H50.0295H35.9857H25.195C24.5007 576.549 23.9298 575.986 23.9298 575.284V564.312C23.9298 563.618 24.4924 563.047 25.195 563.047H34.4548C35.4402 563.047 36.2514 562.249 36.2514 561.25V550.853C36.2514 550.159 36.814 549.588 37.5166 549.588H48.4986C49.1929 549.588 49.7637 550.15 49.7637 550.853V561.25C49.7637 562.236 50.5619 563.047 51.5604 563.047H60.8096C61.5152 563.047 62.0834 563.62 62.0747 564.309Z" stroke="white" stroke-opacity="0.5" stroke-width="0.531561"/>
<path d="M62.0747 644.414V644.418V655.389C62.0747 656.093 61.5133 656.654 60.8096 656.654H50.0295H35.9857H25.195C24.5007 656.654 23.9298 656.092 23.9298 655.389V644.407C23.9298 643.713 24.4924 643.142 25.195 643.142H34.4548C35.4402 643.142 36.2514 642.344 36.2514 641.345V630.948C36.2514 630.244 36.8128 629.683 37.5166 629.683H48.4986C49.1929 629.683 49.7637 630.245 49.7637 630.948V641.345C49.7637 642.331 50.5619 643.142 51.5604 643.142H60.8096C61.5139 643.142 62.0835 643.714 62.0747 644.414Z" stroke="white" stroke-opacity="0.5" stroke-width="0.531561"/>
<path d="M126.691 433.739V424.479C126.691 423.778 127.261 423.213 127.957 423.204H138.927C139.622 423.204 140.192 423.766 140.192 424.469V435.26V449.303V460.094C140.192 460.798 139.631 461.359 138.927 461.359H127.956C127.262 461.359 126.691 460.797 126.691 460.094V450.834C126.691 449.849 125.893 449.038 124.894 449.038H114.497C113.802 449.038 113.232 448.475 113.232 447.772V436.801C113.232 436.107 113.794 435.536 114.497 435.536H124.894C125.88 435.536 126.691 434.738 126.691 433.739Z" stroke="white" stroke-opacity="0.5" stroke-width="0.531561"/>
<path d="M151.376 404.129V404.132V415.104C151.376 415.808 150.815 416.369 150.111 416.369H139.331H125.287H114.497C113.802 416.369 113.232 415.806 113.232 415.104V404.132C113.232 403.438 113.794 402.867 114.497 402.867H123.757C124.743 402.867 125.553 402.057 125.553 401.071V390.673C125.553 389.97 126.115 389.408 126.818 389.408H137.8C138.495 389.408 139.065 389.971 139.065 390.673V401.071C139.065 402.056 139.864 402.867 140.862 402.867H150.111C150.818 402.867 151.385 403.431 151.376 404.129Z" stroke="white" stroke-opacity="0.5" stroke-width="0.531561"/>
<path d="M126.691 513.835V504.575C126.691 503.874 127.261 503.309 127.958 503.299H138.927C139.622 503.299 140.192 503.862 140.192 504.565V515.355V529.399V540.19C140.192 540.894 139.631 541.455 138.927 541.455H127.956C127.262 541.455 126.691 540.892 126.691 540.19V530.93C126.691 529.945 125.893 529.133 124.894 529.133H114.497C113.802 529.133 113.232 528.571 113.232 527.868V516.897C113.232 516.203 113.794 515.632 114.497 515.632H124.894C125.88 515.632 126.691 514.833 126.691 513.835Z" stroke="white" stroke-opacity="0.5" stroke-width="0.531561"/>
<path d="M144.53 483.984H135.27C134.42 483.984 133.739 483.293 133.739 482.453V472.056C133.739 471.206 133.048 470.525 132.209 470.525H121.227C120.376 470.525 119.696 471.206 119.696 472.056V482.453C119.696 483.293 119.005 483.984 118.165 483.984H108.905C108.054 483.984 107.374 484.675 107.374 485.515V496.487C107.374 497.337 108.065 498.018 108.905 498.018H119.696H133.739H144.53C145.381 498.018 146.061 497.337 146.061 496.487V485.515C146.061 484.665 145.37 483.984 144.53 483.984Z" fill="black"/>
<path d="M135.27 484.25H144.53C145.224 484.25 145.795 484.813 145.795 485.515V496.487C145.795 497.19 145.234 497.752 144.53 497.752H133.739H119.696H108.905C108.211 497.752 107.64 497.189 107.64 496.487V485.515C107.64 484.821 108.202 484.25 108.905 484.25H118.165C119.151 484.25 119.961 483.44 119.961 482.453V472.056C119.961 471.352 120.523 470.791 121.227 470.791H132.209C132.903 470.791 133.474 471.354 133.474 472.056V482.453C133.474 483.439 134.272 484.25 135.27 484.25Z" stroke="white" stroke-opacity="0.5" stroke-width="0.531561"/>
<path d="M126.691 593.931V584.671C126.691 583.97 127.261 583.405 127.957 583.395H138.927C139.622 583.395 140.192 583.958 140.192 584.66V595.451V609.495V620.286C140.192 620.989 139.631 621.551 138.927 621.551H127.956C127.262 621.551 126.691 620.988 126.691 620.286V611.026C126.691 610.04 125.893 609.229 124.894 609.229H114.497C113.802 609.229 113.232 608.666 113.232 607.964V596.992C113.232 596.298 113.794 595.727 114.497 595.727H124.894C125.88 595.727 126.691 594.929 126.691 593.931Z" stroke="white" stroke-opacity="0.5" stroke-width="0.531561"/>
<path d="M150.111 562.781H140.862C140.012 562.781 139.331 562.09 139.331 561.25V550.853C139.331 550.002 138.64 549.322 137.8 549.322H126.818C125.968 549.322 125.287 550.013 125.287 550.853V561.25C125.287 562.101 124.596 562.781 123.757 562.781H114.497C113.646 562.781 112.966 563.472 112.966 564.312V575.284C112.966 576.134 113.657 576.814 114.497 576.814H125.287H139.331H150.111C150.962 576.814 151.642 576.123 151.642 575.284V564.312C151.653 563.472 150.962 562.781 150.111 562.781Z" fill="#BAF734"/>
<path d="M151.376 644.414V644.418V655.389C151.376 656.093 150.815 656.654 150.111 656.654H139.331H125.287H114.497C113.802 656.654 113.232 656.092 113.232 655.389V644.407C113.232 643.713 113.794 643.142 114.497 643.142H123.757C124.742 643.142 125.553 642.344 125.553 641.345V630.948C125.553 630.244 126.115 629.683 126.818 629.683H137.8C138.495 629.683 139.065 630.245 139.065 630.948V641.345C139.065 642.331 139.864 643.142 140.862 643.142H150.111C150.816 643.142 151.385 643.714 151.376 644.414Z" stroke="white" stroke-opacity="0.5" stroke-width="0.531561"/>
<path d="M-1.61652 657.302L-1.61651 666.562C-1.61651 667.263 -2.18664 667.828 -2.88355 667.837L-13.8531 667.837C-14.5473 667.837 -15.1182 667.275 -15.1182 666.572L-15.1182 655.781L-15.1182 641.738L-15.1182 630.947C-15.1182 630.243 -14.5568 629.682 -13.8531 629.682L-2.88163 629.682C-2.18735 629.682 -1.61652 630.244 -1.61652 630.947L-1.61652 640.207C-1.61652 641.192 -0.818324 642.003 0.180162 642.003L10.5775 642.003C11.2718 642.003 11.8426 642.566 11.8426 643.269L11.8426 654.24C11.8426 654.934 11.28 655.505 10.5775 655.505L0.180163 655.505C-0.805288 655.505 -1.61652 656.303 -1.61652 657.302Z" stroke="white" stroke-opacity="0.5" stroke-width="0.531561"/>
<path d="M-1.61652 577.206L-1.61651 586.466C-1.61651 587.167 -2.18649 587.732 -2.88328 587.742L-13.8531 587.742C-14.5473 587.742 -15.1182 587.179 -15.1182 586.476L-15.1182 575.686L-15.1182 561.642L-15.1182 550.851C-15.1182 550.148 -14.5568 549.586 -13.8531 549.586L-2.88163 549.586C-2.18735 549.586 -1.61652 550.149 -1.61652 550.851L-1.61652 560.111C-1.61652 561.096 -0.818324 561.908 0.180162 561.908L10.5775 561.908C11.2718 561.908 11.8426 562.47 11.8426 563.173L11.8426 574.144C11.8426 574.839 11.28 575.409 10.5775 575.409L0.180163 575.409C-0.805288 575.409 -1.61652 576.208 -1.61652 577.206Z" stroke="white" stroke-opacity="0.5" stroke-width="0.531561"/>
<path d="M-25.0371 608.357L-15.7879 608.357C-14.9374 608.357 -14.257 609.048 -14.257 609.888L-14.257 620.286C-14.257 621.136 -13.566 621.817 -12.7262 621.817L-1.74409 621.817C-0.893593 621.817 -0.213193 621.126 -0.213194 620.286L-0.213194 609.888C-0.213194 609.038 0.477836 608.357 1.3177 608.357L10.5775 608.357C11.428 608.357 12.1084 607.666 12.1084 606.827L12.1084 595.855C12.1084 595.005 11.4174 594.324 10.5775 594.324L-0.213196 594.324L-14.257 594.324L-25.0371 594.324C-25.8876 594.324 -26.568 595.015 -26.568 595.855L-26.568 606.827C-26.5786 607.666 -25.8876 608.357 -25.0371 608.357Z" fill="black"/>
<path d="M-26.3022 606.83L-26.3022 606.827L-26.3022 595.855C-26.3022 595.161 -25.7396 594.59 -25.0371 594.59L-14.257 594.59L-0.213196 594.59L10.5775 594.59C11.2718 594.59 11.8426 595.153 11.8426 595.855L11.8426 606.827C11.8426 607.521 11.28 608.092 10.5775 608.092L1.3177 608.092C0.332256 608.092 -0.478975 608.89 -0.478975 609.888L-0.478974 620.286C-0.478974 620.98 -1.04158 621.551 -1.74409 621.551L-12.7262 621.551C-13.4204 621.551 -13.9913 620.988 -13.9913 620.286L-13.9913 609.888C-13.9913 608.903 -14.7895 608.092 -15.7879 608.092L-25.0371 608.092C-25.7427 608.092 -26.311 607.519 -26.3022 606.83Z" stroke="white" stroke-opacity="0.5" stroke-width="0.531561"/>
<path d="M-1.61652 497.11L-1.61651 506.37C-1.61651 507.075 -2.18975 507.646 -2.88163 507.646L-13.8531 507.646C-14.5473 507.646 -15.1182 507.083 -15.1182 506.381L-15.1182 495.59L-15.1182 481.546L-15.1182 470.756C-15.1182 470.052 -14.5568 469.49 -13.8531 469.49L-2.88163 469.49C-2.18735 469.49 -1.61652 470.053 -1.61652 470.756L-1.61652 480.015C-1.61652 481.001 -0.818324 481.812 0.180162 481.812L10.5775 481.812C11.2718 481.812 11.8426 482.375 11.8426 483.077L11.8426 494.049C11.8426 494.743 11.28 495.314 10.5775 495.314L0.180163 495.314C-0.805288 495.314 -1.61652 496.112 -1.61652 497.11Z" stroke="white" stroke-opacity="0.5" stroke-width="0.531561"/>
<path d="M-26.3022 526.722L-26.3022 526.719L-26.3022 515.748C-26.3022 515.044 -25.7408 514.483 -25.0371 514.483L-14.257 514.483L-0.213196 514.483L10.5775 514.483C11.2718 514.483 11.8426 515.045 11.8426 515.748L11.8426 526.73C11.8426 527.424 11.28 527.995 10.5775 527.995L1.3177 527.995C0.332252 527.995 -0.478975 528.793 -0.478975 529.792L-0.478974 540.189C-0.478974 540.893 -1.04038 541.454 -1.74409 541.454L-12.7262 541.454C-13.4204 541.454 -13.9913 540.891 -13.9913 540.189L-13.9913 529.792C-13.9913 528.806 -14.7895 527.995 -15.7879 527.995L-25.0371 527.995C-25.7415 527.995 -26.311 527.423 -26.3022 526.722Z" stroke="white" stroke-opacity="0.5" stroke-width="0.531561"/>
<path d="M-1.61652 417.025L-1.61651 426.285C-1.61651 426.978 -2.18855 427.55 -2.88163 427.55L-13.8531 427.55C-14.5473 427.55 -15.1182 426.988 -15.1182 426.285L-15.1182 415.494L-15.1182 401.451L-15.1182 390.66C-15.1182 389.966 -14.5556 389.395 -13.8531 389.395L-2.88163 389.395C-2.18735 389.395 -1.61652 389.957 -1.61652 390.66L-1.61652 399.92C-1.61652 400.905 -0.818324 401.716 0.180162 401.716L10.5775 401.716C11.2718 401.716 11.8426 402.279 11.8426 402.981L11.8426 413.963C11.8426 414.658 11.28 415.229 10.5775 415.229L0.180163 415.229C-0.805288 415.229 -1.61652 416.027 -1.61652 417.025Z" stroke="white" stroke-opacity="0.5" stroke-width="0.531561"/>
<path d="M-26.3022 446.627L-26.3022 446.623L-26.3022 435.652C-26.3022 434.948 -25.7408 434.387 -25.0371 434.387L-14.257 434.387L-0.213196 434.387L10.5775 434.387C11.2718 434.387 11.8426 434.949 11.8426 435.652L11.8426 446.634C11.8426 447.328 11.28 447.899 10.5775 447.899L1.3177 447.899C0.332252 447.899 -0.478975 448.697 -0.478975 449.696L-0.478974 460.093C-0.478974 460.787 -1.04158 461.358 -1.74409 461.358L-12.7262 461.358C-13.4204 461.358 -13.9913 460.796 -13.9913 460.093L-13.9913 449.696C-13.9913 448.71 -14.7895 447.899 -15.7879 447.899L-25.0371 447.899C-25.7415 447.899 -26.311 447.327 -26.3022 446.627Z" stroke="white" stroke-opacity="0.5" stroke-width="0.531561"/>
<path d="M87.6862 657.304L87.6862 666.563C87.6862 667.265 87.1161 667.83 86.4192 667.839L75.4497 667.839C74.7554 667.839 74.1846 667.277 74.1846 666.574L74.1846 655.783L74.1846 641.74L74.1846 630.949C74.1846 630.245 74.746 629.684 75.4497 629.684L86.4211 629.684C87.1154 629.684 87.6862 630.246 87.6862 630.949L87.6862 640.209C87.6862 641.194 88.4844 642.005 89.4829 642.005L99.8802 642.005C100.575 642.005 101.145 642.568 101.145 643.27L101.145 654.242C101.145 654.936 100.583 655.507 99.8802 655.507L89.4829 655.507C88.4974 655.507 87.6862 656.305 87.6862 657.304Z" stroke="white" stroke-opacity="0.5" stroke-width="0.531561"/>
<path d="M87.6862 577.208L87.6862 586.468C87.6862 587.169 87.1162 587.734 86.4195 587.744L75.4497 587.744C74.7554 587.744 74.1846 587.181 74.1846 586.478L74.1846 575.688L74.1846 561.644L74.1846 550.853C74.1846 550.149 74.746 549.588 75.4497 549.588L86.4211 549.588C87.1154 549.588 87.6862 550.151 87.6862 550.853L87.6862 560.113C87.6862 561.098 88.4844 561.91 89.4829 561.91L99.8802 561.91C100.575 561.91 101.145 562.472 101.145 563.175L101.145 574.146C101.145 574.84 100.583 575.411 99.8802 575.411L89.4829 575.411C88.4974 575.411 87.6862 576.21 87.6862 577.208Z" stroke="white" stroke-opacity="0.5" stroke-width="0.531561"/>
<path d="M63.0005 606.83L63.0005 606.827L63.0005 595.855C63.0005 595.161 63.5631 594.59 64.2656 594.59L75.0457 594.59L89.0895 594.59L99.8802 594.59C100.575 594.59 101.145 595.153 101.145 595.855L101.145 606.827C101.145 607.521 100.583 608.092 99.8802 608.092L90.6204 608.092C89.635 608.092 88.8238 608.89 88.8238 609.888L88.8238 620.286C88.8238 620.98 88.2612 621.551 87.5586 621.551L76.5766 621.551C75.8823 621.551 75.3115 620.988 75.3115 620.286L75.3115 609.888C75.3115 608.903 74.5133 608.092 73.5148 608.092L64.2656 608.092C63.56 608.092 62.9918 607.519 63.0005 606.83Z" stroke="white" stroke-opacity="0.5" stroke-width="0.531561"/>
<path d="M87.6862 497.11L87.6862 506.37C87.6862 507.075 87.113 507.646 86.4211 507.646L75.4497 507.646C74.7554 507.646 74.1846 507.083 74.1846 506.381L74.1846 495.59L74.1846 481.546L74.1846 470.756C74.1846 470.052 74.746 469.49 75.4497 469.49L86.4211 469.49C87.1154 469.49 87.6862 470.053 87.6862 470.756L87.6862 480.015C87.6862 481.001 88.4844 481.812 89.4829 481.812L99.8802 481.812C100.575 481.812 101.145 482.375 101.145 483.077L101.145 494.049C101.145 494.743 100.583 495.314 99.8802 495.314L89.4829 495.314C88.4974 495.314 87.6862 496.112 87.6862 497.11Z" stroke="white" stroke-opacity="0.5" stroke-width="0.531561"/>
<path d="M63.0005 526.722L63.0005 526.719L63.0005 515.748C63.0005 515.044 63.5619 514.483 64.2656 514.483L75.0457 514.483L89.0895 514.483L99.8802 514.483C100.575 514.483 101.145 515.045 101.145 515.748L101.145 526.73C101.145 527.424 100.583 527.995 99.8802 527.995L90.6204 527.995C89.635 527.995 88.8238 528.793 88.8238 529.792L88.8238 540.189C88.8238 540.893 88.2624 541.454 87.5586 541.454L76.5766 541.454C75.8823 541.454 75.3115 540.891 75.3115 540.189L75.3115 529.792C75.3115 528.806 74.5133 527.995 73.5148 527.995L64.2656 527.995C63.5613 527.995 62.9917 527.423 63.0005 526.722Z" stroke="white" stroke-opacity="0.5" stroke-width="0.531561"/>
<path d="M87.6862 417.025L87.6862 426.285C87.6862 426.978 87.1142 427.55 86.4211 427.55L75.4497 427.55C74.7554 427.55 74.1846 426.988 74.1846 426.285L74.1846 415.494L74.1846 401.451L74.1846 390.66C74.1846 389.966 74.7472 389.395 75.4497 389.395L86.4211 389.395C87.1154 389.395 87.6862 389.957 87.6862 390.66L87.6862 399.92C87.6862 400.905 88.4844 401.716 89.4829 401.716L99.8802 401.716C100.575 401.716 101.145 402.279 101.145 402.981L101.145 413.963C101.145 414.658 100.583 415.229 99.8802 415.229L89.4829 415.229C88.4974 415.229 87.6862 416.027 87.6862 417.025Z" stroke="white" stroke-opacity="0.5" stroke-width="0.531561"/>
<path d="M63.0005 446.627L63.0005 446.623L63.0005 435.652C63.0005 434.948 63.5619 434.387 64.2656 434.387L75.0457 434.387L89.0895 434.387L99.8802 434.387C100.575 434.387 101.145 434.949 101.145 435.652L101.145 446.634C101.145 447.328 100.583 447.899 99.8802 447.899L90.6204 447.899C89.635 447.899 88.8238 448.697 88.8238 449.696L88.8238 460.093C88.8238 460.787 88.2612 461.358 87.5586 461.358L76.5766 461.358C75.8823 461.358 75.3115 460.796 75.3115 460.093L75.3115 449.696C75.3115 448.71 74.5133 447.899 73.5148 447.899L64.2656 447.899C63.5613 447.899 62.9917 447.327 63.0005 446.627Z" stroke="white" stroke-opacity="0.5" stroke-width="0.531561"/>
<path d="M355.859 666.562L355.859 657.302C355.859 656.451 356.55 655.771 357.39 655.771L367.787 655.771C368.638 655.771 369.318 655.08 369.318 654.24L369.318 643.269C369.318 642.418 368.627 641.738 367.787 641.738L357.39 641.738C356.54 641.738 355.859 641.047 355.859 640.207L355.859 630.947C355.859 630.096 355.168 629.416 354.328 629.416L343.357 629.416C342.506 629.416 341.826 630.096 341.826 630.947L341.826 641.738L341.826 655.781L341.826 666.572C341.826 667.423 342.517 668.103 343.357 668.103L354.328 668.103C355.168 668.092 355.859 667.412 355.859 666.562Z" fill="#367FFF"/>
<path d="M355.593 577.206L355.593 586.466C355.593 587.167 355.023 587.732 354.327 587.742L343.357 587.742C342.663 587.742 342.092 587.179 342.092 586.476L342.092 575.686L342.092 561.642L342.092 550.851C342.092 550.148 342.653 549.586 343.357 549.586L354.328 549.586C355.023 549.586 355.593 550.149 355.593 550.851L355.593 560.111C355.593 561.096 356.392 561.908 357.39 561.908L367.787 561.908C368.482 561.908 369.053 562.47 369.053 563.173L369.053 574.144C369.053 574.839 368.49 575.409 367.787 575.409L357.39 575.409C356.405 575.409 355.593 576.208 355.593 577.206Z" stroke="white" stroke-opacity="0.5" stroke-width="0.531561"/>
<path d="M330.908 606.83L330.908 606.827L330.908 595.855C330.908 595.161 331.47 594.59 332.173 594.59L342.953 594.59L356.997 594.59L367.787 594.59C368.482 594.59 369.053 595.153 369.053 595.855L369.053 606.827C369.053 607.521 368.49 608.092 367.787 608.092L358.528 608.092C357.542 608.092 356.731 608.89 356.731 609.888L356.731 620.286C356.731 620.98 356.168 621.551 355.466 621.551L344.484 621.551C343.79 621.551 343.219 620.988 343.219 620.286L343.219 609.888C343.219 608.903 342.42 608.092 341.422 608.092L332.173 608.092C331.467 608.092 330.899 607.519 330.908 606.83Z" stroke="white" stroke-opacity="0.5" stroke-width="0.531561"/>
<path d="M355.593 497.11L355.593 506.37C355.593 507.075 355.02 507.646 354.328 507.646L343.357 507.646C342.663 507.646 342.092 507.083 342.092 506.381L342.092 495.59L342.092 481.546L342.092 470.756C342.092 470.052 342.653 469.49 343.357 469.49L354.328 469.49C355.023 469.49 355.593 470.053 355.593 470.756L355.593 480.015C355.593 481.001 356.392 481.812 357.39 481.812L367.787 481.812C368.482 481.812 369.053 482.375 369.053 483.077L369.053 494.049C369.053 494.743 368.49 495.314 367.787 495.314L357.39 495.314C356.405 495.314 355.593 496.112 355.593 497.11Z" stroke="white" stroke-opacity="0.5" stroke-width="0.531561"/>
<path d="M330.908 526.722L330.908 526.719L330.908 515.748C330.908 515.044 331.469 514.483 332.173 514.483L342.953 514.483L356.997 514.483L367.787 514.483C368.482 514.483 369.053 515.045 369.053 515.748L369.053 526.73C369.053 527.424 368.49 527.995 367.787 527.995L358.528 527.995C357.542 527.995 356.731 528.793 356.731 529.792L356.731 540.189C356.731 540.893 356.17 541.454 355.466 541.454L344.484 541.454C343.79 541.454 343.219 540.891 343.219 540.189L343.219 529.792C343.219 528.806 342.421 527.995 341.422 527.995L332.173 527.995C331.468 527.995 330.899 527.423 330.908 526.722Z" stroke="white" stroke-opacity="0.5" stroke-width="0.531561"/>
<path d="M355.593 417.025L355.593 426.285C355.593 426.978 355.021 427.55 354.328 427.55L343.357 427.55C342.663 427.55 342.092 426.988 342.092 426.285L342.092 415.494L342.092 401.451L342.092 390.66C342.092 389.966 342.654 389.395 343.357 389.395L354.328 389.395C355.023 389.395 355.593 389.957 355.593 390.66L355.593 399.92C355.593 400.905 356.392 401.716 357.39 401.716L367.787 401.716C368.482 401.716 369.053 402.279 369.053 402.981L369.053 413.963C369.053 414.658 368.49 415.229 367.787 415.229L357.39 415.229C356.405 415.229 355.593 416.027 355.593 417.025Z" stroke="white" stroke-opacity="0.5" stroke-width="0.531561"/>
<path d="M330.908 446.627L330.908 446.623L330.908 435.652C330.908 434.948 331.469 434.387 332.173 434.387L342.953 434.387L356.997 434.387L367.787 434.387C368.482 434.387 369.053 434.949 369.053 435.652L369.053 446.634C369.053 447.328 368.49 447.899 367.787 447.899L358.528 447.899C357.542 447.899 356.731 448.697 356.731 449.696L356.731 460.093C356.731 460.787 356.168 461.358 355.466 461.358L344.484 461.358C343.79 461.358 343.219 460.796 343.219 460.093L343.219 449.696C343.219 448.71 342.421 447.899 341.422 447.899L332.173 447.899C331.468 447.899 330.899 447.327 330.908 446.627Z" stroke="white" stroke-opacity="0.5" stroke-width="0.531561"/>
<path d="M215.993 433.739V424.479C215.993 423.778 216.563 423.213 217.26 423.204H228.23C228.924 423.204 229.495 423.766 229.495 424.469V435.26V449.303V460.094C229.495 460.798 228.934 461.359 228.23 461.359H217.259C216.564 461.359 215.993 460.797 215.993 460.094V450.834C215.993 449.849 215.195 449.038 214.197 449.038H203.799C203.105 449.038 202.534 448.475 202.534 447.772V436.801C202.534 436.107 203.097 435.536 203.799 435.536H214.197C215.182 435.536 215.993 434.738 215.993 433.739Z" stroke="white" stroke-opacity="0.5" stroke-width="0.531561"/>
<path d="M240.679 404.129V404.132V415.104C240.679 415.808 240.118 416.369 239.414 416.369H228.634H214.59H203.799C203.105 416.369 202.534 415.806 202.534 415.104V404.132C202.534 403.438 203.097 402.867 203.799 402.867H213.059C214.046 402.867 214.856 402.057 214.856 401.071V390.673C214.856 389.97 215.417 389.408 216.121 389.408H227.103C227.797 389.408 228.368 389.971 228.368 390.673V401.071C228.368 402.056 229.166 402.867 230.165 402.867H239.414C240.121 402.867 240.688 403.431 240.679 404.129Z" stroke="white" stroke-opacity="0.5" stroke-width="0.531561"/>
<path d="M215.993 513.835V504.575C215.993 503.874 216.564 503.309 217.261 503.299H228.23C228.924 503.299 229.495 503.862 229.495 504.565V515.355V529.399V540.19C229.495 540.894 228.934 541.455 228.23 541.455H217.259C216.564 541.455 215.993 540.892 215.993 540.19V530.93C215.993 529.945 215.195 529.133 214.197 529.133H203.799C203.105 529.133 202.534 528.571 202.534 527.868V516.897C202.534 516.203 203.097 515.632 203.799 515.632H214.197C215.182 515.632 215.993 514.833 215.993 513.835Z" stroke="white" stroke-opacity="0.5" stroke-width="0.531561"/>
<path d="M224.573 484.25H233.833C234.527 484.25 235.098 484.813 235.098 485.515V496.487C235.098 497.19 234.537 497.752 233.833 497.752H223.042H208.998H198.208C197.513 497.752 196.943 497.189 196.943 496.487V485.515C196.943 484.821 197.505 484.25 198.208 484.25H207.467C208.454 484.25 209.264 483.44 209.264 482.453V472.056C209.264 471.352 209.826 470.791 210.529 470.791H221.511C222.206 470.791 222.776 471.354 222.776 472.056V482.453C222.776 483.439 223.575 484.25 224.573 484.25Z" stroke="white" stroke-opacity="0.5" stroke-width="0.531561"/>
<path d="M215.993 593.931V584.671C215.993 583.97 216.563 583.405 217.26 583.395H228.23C228.924 583.395 229.495 583.958 229.495 584.66V595.451V609.495V620.286C229.495 620.989 228.934 621.551 228.23 621.551H217.259C216.564 621.551 215.993 620.988 215.993 620.286V611.026C215.993 610.04 215.195 609.229 214.197 609.229H203.799C203.105 609.229 202.534 608.666 202.534 607.964V596.992C202.534 596.298 203.097 595.727 203.799 595.727H214.197C215.182 595.727 215.993 594.929 215.993 593.931Z" stroke="white" stroke-opacity="0.5" stroke-width="0.531561"/>
<path d="M240.679 564.309V564.312V575.284C240.679 575.978 240.117 576.549 239.414 576.549H228.634H214.59H203.799C203.105 576.549 202.534 575.986 202.534 575.284V564.312C202.534 563.618 203.097 563.047 203.799 563.047H213.059C214.045 563.047 214.856 562.249 214.856 561.25V550.853C214.856 550.159 215.419 549.588 216.121 549.588H227.103C227.797 549.588 228.368 550.15 228.368 550.853V561.25C228.368 562.236 229.166 563.047 230.165 563.047H239.414C240.12 563.047 240.688 563.62 240.679 564.309Z" stroke="white" stroke-opacity="0.5" stroke-width="0.531561"/>
<path d="M240.679 644.414V644.418V655.389C240.679 656.093 240.118 656.654 239.414 656.654H228.634H214.59H203.799C203.105 656.654 202.534 656.092 202.534 655.389V644.407C202.534 643.713 203.097 643.142 203.799 643.142H213.059C214.045 643.142 214.856 642.344 214.856 641.345V630.948C214.856 630.244 215.417 629.683 216.121 629.683H227.103C227.797 629.683 228.368 630.245 228.368 630.948V641.345C228.368 642.331 229.166 643.142 230.165 643.142H239.414C240.118 643.142 240.688 643.714 240.679 644.414Z" stroke="white" stroke-opacity="0.5" stroke-width="0.531561"/>
<path d="M305.296 433.739V424.479C305.296 423.778 305.866 423.213 306.563 423.204H317.533C318.227 423.204 318.798 423.766 318.798 424.469V435.26V449.303V460.094C318.798 460.798 318.236 461.359 317.533 461.359H306.561C305.867 461.359 305.296 460.797 305.296 460.094V450.834C305.296 449.849 304.498 449.038 303.5 449.038H293.102C292.408 449.038 291.837 448.475 291.837 447.772V436.801C291.837 436.107 292.4 435.536 293.102 435.536H303.5C304.485 435.536 305.296 434.738 305.296 433.739Z" stroke="white" stroke-opacity="0.5" stroke-width="0.531561"/>
<path d="M329.982 404.129V404.132V415.104C329.982 415.808 329.421 416.369 328.717 416.369H317.937H303.893H293.102C292.408 416.369 291.837 415.806 291.837 415.104V404.132C291.837 403.438 292.4 402.867 293.102 402.867H302.362C303.349 402.867 304.159 402.057 304.159 401.071V390.673C304.159 389.97 304.72 389.408 305.424 389.408H316.406C317.1 389.408 317.671 389.971 317.671 390.673V401.071C317.671 402.056 318.469 402.867 319.468 402.867H328.717C329.424 402.867 329.991 403.431 329.982 404.129Z" stroke="white" stroke-opacity="0.5" stroke-width="0.531561"/>
<path d="M305.296 513.835V504.575C305.296 503.874 305.866 503.309 306.563 503.299H317.533C318.227 503.299 318.798 503.862 318.798 504.565V515.355V529.399V540.19C318.798 540.894 318.236 541.455 317.533 541.455H306.561C305.867 541.455 305.296 540.892 305.296 540.19V530.93C305.296 529.945 304.498 529.133 303.5 529.133H293.102C292.408 529.133 291.837 528.571 291.837 527.868V516.897C291.837 516.203 292.4 515.632 293.102 515.632H303.5C304.485 515.632 305.296 514.833 305.296 513.835Z" stroke="white" stroke-opacity="0.5" stroke-width="0.531561"/>
<path d="M313.876 484.25H323.136C323.83 484.25 324.401 484.813 324.401 485.515V496.487C324.401 497.19 323.839 497.752 323.136 497.752H312.345H298.301H287.51C286.816 497.752 286.245 497.189 286.245 496.487V485.515C286.245 484.821 286.808 484.25 287.51 484.25H296.77C297.757 484.25 298.567 483.44 298.567 482.453V472.056C298.567 471.352 299.128 470.791 299.832 470.791H310.814C311.508 470.791 312.079 471.354 312.079 472.056V482.453C312.079 483.439 312.877 484.25 313.876 484.25Z" stroke="white" stroke-opacity="0.5" stroke-width="0.531561"/>
<path d="M305.296 593.931V584.671C305.296 583.97 305.866 583.405 306.563 583.395H317.533C318.227 583.395 318.798 583.958 318.798 584.66V595.451V609.495V620.286C318.798 620.989 318.236 621.551 317.533 621.551H306.561C305.867 621.551 305.296 620.988 305.296 620.286V611.026C305.296 610.04 304.498 609.229 303.5 609.229H293.102C292.408 609.229 291.837 608.666 291.837 607.964V596.992C291.837 596.298 292.4 595.727 293.102 595.727H303.5C304.485 595.727 305.296 594.929 305.296 593.931Z" stroke="white" stroke-opacity="0.5" stroke-width="0.531561"/>
<path d="M329.982 564.309V564.312V575.284C329.982 575.978 329.419 576.549 328.717 576.549H317.937H303.893H293.102C292.408 576.549 291.837 575.986 291.837 575.284V564.312C291.837 563.618 292.4 563.047 293.102 563.047H302.362C303.347 563.047 304.159 562.249 304.159 561.25V550.853C304.159 550.159 304.721 549.588 305.424 549.588H316.406C317.1 549.588 317.671 550.15 317.671 550.853V561.25C317.671 562.236 318.469 563.047 319.468 563.047H328.717C329.422 563.047 329.991 563.62 329.982 564.309Z" stroke="white" stroke-opacity="0.5" stroke-width="0.531561"/>
<path d="M329.982 644.414V644.418V655.389C329.982 656.093 329.421 656.654 328.717 656.654H317.937H303.893H293.102C292.408 656.654 291.837 656.092 291.837 655.389V644.407C291.837 643.713 292.4 643.142 293.102 643.142H302.362C303.347 643.142 304.159 642.344 304.159 641.345V630.948C304.159 630.244 304.72 629.683 305.424 629.683H316.406C317.1 629.683 317.671 630.245 317.671 630.948V641.345C317.671 642.331 318.469 643.142 319.468 643.142H328.717C329.421 643.142 329.991 643.714 329.982 644.414Z" stroke="white" stroke-opacity="0.5" stroke-width="0.531561"/>
<path d="M176.989 657.302L176.989 666.562C176.989 667.263 176.419 667.828 175.722 667.837L164.752 667.837C164.058 667.837 163.487 667.275 163.487 666.572L163.487 655.781L163.487 641.738L163.487 630.947C163.487 630.243 164.049 629.682 164.752 629.682L175.724 629.682C176.418 629.682 176.989 630.244 176.989 630.947L176.989 640.207C176.989 641.192 177.787 642.003 178.786 642.003L189.183 642.003C189.877 642.003 190.448 642.566 190.448 643.269L190.448 654.24C190.448 654.934 189.885 655.505 189.183 655.505L178.786 655.505C177.8 655.505 176.989 656.303 176.989 657.302Z" stroke="white" stroke-opacity="0.5" stroke-width="0.531561"/>
<path d="M176.989 577.206L176.989 586.466C176.989 587.167 176.419 587.732 175.722 587.742L164.752 587.742C164.058 587.742 163.487 587.179 163.487 586.476L163.487 575.686L163.487 561.642L163.487 550.851C163.487 550.148 164.049 549.586 164.752 549.586L175.724 549.586C176.418 549.586 176.989 550.149 176.989 550.851L176.989 560.111C176.989 561.096 177.787 561.908 178.786 561.908L189.183 561.908C189.877 561.908 190.448 562.47 190.448 563.173L190.448 574.144C190.448 574.839 189.885 575.409 189.183 575.409L178.786 575.409C177.8 575.409 176.989 576.208 176.989 577.206Z" stroke="white" stroke-opacity="0.5" stroke-width="0.531561"/>
<path d="M152.303 606.83L152.303 606.827L152.303 595.855C152.303 595.161 152.866 594.59 153.568 594.59L164.348 594.59L178.392 594.59L189.183 594.59C189.877 594.59 190.448 595.153 190.448 595.855L190.448 606.827C190.448 607.521 189.885 608.092 189.183 608.092L179.923 608.092C178.938 608.092 178.126 608.89 178.126 609.888L178.126 620.286C178.126 620.98 177.564 621.551 176.861 621.551L165.879 621.551C165.185 621.551 164.614 620.988 164.614 620.286L164.614 609.888C164.614 608.903 163.816 608.092 162.818 608.092L153.568 608.092C152.863 608.092 152.295 607.519 152.303 606.83Z" stroke="white" stroke-opacity="0.5" stroke-width="0.531561"/>
<path d="M176.989 497.11L176.989 506.37C176.989 507.075 176.416 507.646 175.724 507.646L164.752 507.646C164.058 507.646 163.487 507.083 163.487 506.381L163.487 495.59L163.487 481.546L163.487 470.756C163.487 470.052 164.049 469.49 164.752 469.49L175.724 469.49C176.418 469.49 176.989 470.053 176.989 470.756L176.989 480.015C176.989 481.001 177.787 481.812 178.786 481.812L189.183 481.812C189.877 481.812 190.448 482.375 190.448 483.077L190.448 494.049C190.448 494.743 189.885 495.314 189.183 495.314L178.786 495.314C177.8 495.314 176.989 496.112 176.989 497.11Z" stroke="white" stroke-opacity="0.5" stroke-width="0.531561"/>
<path d="M152.303 526.722L152.303 526.719L152.303 515.748C152.303 515.044 152.865 514.483 153.568 514.483L164.348 514.483L178.392 514.483L189.183 514.483C189.877 514.483 190.448 515.045 190.448 515.748L190.448 526.73C190.448 527.424 189.885 527.995 189.183 527.995L179.923 527.995C178.938 527.995 178.126 528.793 178.126 529.792L178.126 540.189C178.126 540.893 177.565 541.454 176.861 541.454L165.879 541.454C165.185 541.454 164.614 540.891 164.614 540.189L164.614 529.792C164.614 528.806 163.816 527.995 162.818 527.995L153.568 527.995C152.864 527.995 152.294 527.423 152.303 526.722Z" stroke="white" stroke-opacity="0.5" stroke-width="0.531561"/>
<path d="M176.989 417.025L176.989 426.285C176.989 426.978 176.417 427.55 175.724 427.55L164.752 427.55C164.058 427.55 163.487 426.988 163.487 426.285L163.487 415.494L163.487 401.451L163.487 390.66C163.487 389.966 164.05 389.395 164.752 389.395L175.724 389.395C176.418 389.395 176.989 389.957 176.989 390.66L176.989 399.92C176.989 400.905 177.787 401.716 178.786 401.716L189.183 401.716C189.877 401.716 190.448 402.279 190.448 402.981L190.448 413.963C190.448 414.658 189.885 415.229 189.183 415.229L178.786 415.229C177.8 415.229 176.989 416.027 176.989 417.025Z" stroke="white" stroke-opacity="0.5" stroke-width="0.531561"/>
<path d="M152.303 446.627L152.303 446.623L152.303 435.652C152.303 434.948 152.865 434.387 153.568 434.387L164.348 434.387L178.392 434.387L189.183 434.387C189.877 434.387 190.448 434.949 190.448 435.652L190.448 446.634C190.448 447.328 189.885 447.899 189.183 447.899L179.923 447.899C178.938 447.899 178.126 448.697 178.126 449.696L178.126 460.093C178.126 460.787 177.564 461.358 176.861 461.358L165.879 461.358C165.185 461.358 164.614 460.796 164.614 460.093L164.614 449.696C164.614 448.71 163.816 447.899 162.818 447.899L153.568 447.899C152.864 447.899 152.294 447.327 152.303 446.627Z" stroke="white" stroke-opacity="0.5" stroke-width="0.531561"/>
<path d="M266.291 657.304L266.291 666.563C266.291 667.265 265.721 667.83 265.024 667.839L254.054 667.839C253.36 667.839 252.789 667.277 252.789 666.574L252.789 655.783L252.789 641.74L252.789 630.949C252.789 630.245 253.35 629.684 254.054 629.684L265.026 629.684C265.72 629.684 266.291 630.246 266.291 630.949L266.291 640.209C266.291 641.194 267.089 642.005 268.087 642.005L278.485 642.005C279.179 642.005 279.75 642.568 279.75 643.27L279.75 654.242C279.75 654.936 279.187 655.507 278.485 655.507L268.087 655.507C267.102 655.507 266.291 656.305 266.291 657.304Z" stroke="white" stroke-opacity="0.5" stroke-width="0.531561"/>
<path d="M266.291 577.208L266.291 586.468C266.291 587.169 265.721 587.734 265.024 587.744L254.054 587.744C253.36 587.744 252.789 587.181 252.789 586.478L252.789 575.688L252.789 561.644L252.789 550.853C252.789 550.149 253.35 549.588 254.054 549.588L265.026 549.588C265.72 549.588 266.291 550.151 266.291 550.853L266.291 560.113C266.291 561.098 267.089 561.91 268.087 561.91L278.485 561.91C279.179 561.91 279.75 562.472 279.75 563.175L279.75 574.146C279.75 574.84 279.187 575.411 278.485 575.411L268.087 575.411C267.102 575.411 266.291 576.21 266.291 577.208Z" stroke="white" stroke-opacity="0.5" stroke-width="0.531561"/>
<path d="M241.605 606.83L241.605 606.827L241.605 595.855C241.605 595.161 242.168 594.59 242.87 594.59L253.65 594.59L267.694 594.59L278.485 594.59C279.179 594.59 279.75 595.153 279.75 595.855L279.75 606.827C279.75 607.521 279.187 608.092 278.485 608.092L269.225 608.092C268.239 608.092 267.428 608.89 267.428 609.888L267.428 620.286C267.428 620.98 266.866 621.551 266.163 621.551L255.181 621.551C254.487 621.551 253.916 620.988 253.916 620.286L253.916 609.888C253.916 608.903 253.118 608.092 252.119 608.092L242.87 608.092C242.165 608.092 241.596 607.519 241.605 606.83Z" stroke="white" stroke-opacity="0.5" stroke-width="0.531561"/>
<path d="M266.291 497.11L266.291 506.37C266.291 507.075 265.717 507.646 265.026 507.646L254.054 507.646C253.36 507.646 252.789 507.083 252.789 506.381L252.789 495.59L252.789 481.546L252.789 470.756C252.789 470.052 253.35 469.49 254.054 469.49L265.026 469.49C265.72 469.49 266.291 470.053 266.291 470.756L266.291 480.015C266.291 481.001 267.089 481.812 268.087 481.812L278.485 481.812C279.179 481.812 279.75 482.375 279.75 483.077L279.75 494.049C279.75 494.743 279.187 495.314 278.485 495.314L268.087 495.314C267.102 495.314 266.291 496.112 266.291 497.11Z" stroke="white" stroke-opacity="0.5" stroke-width="0.531561"/>
<path d="M241.605 526.722L241.605 526.719L241.605 515.748C241.605 515.044 242.166 514.483 242.87 514.483L253.65 514.483L267.694 514.483L278.485 514.483C279.179 514.483 279.75 515.045 279.75 515.748L279.75 526.73C279.75 527.424 279.187 527.995 278.485 527.995L269.225 527.995C268.239 527.995 267.428 528.793 267.428 529.792L267.428 540.189C267.428 540.893 266.867 541.454 266.163 541.454L255.181 541.454C254.487 541.454 253.916 540.891 253.916 540.189L253.916 529.792C253.916 528.806 253.118 527.995 252.119 527.995L242.87 527.995C242.166 527.995 241.596 527.423 241.605 526.722Z" stroke="white" stroke-opacity="0.5" stroke-width="0.531561"/>
<path d="M266.291 417.025L266.291 426.285C266.291 426.978 265.719 427.55 265.026 427.55L254.054 427.55C253.36 427.55 252.789 426.988 252.789 426.285L252.789 415.494L252.789 401.451L252.789 390.66C252.789 389.966 253.352 389.395 254.054 389.395L265.026 389.395C265.72 389.395 266.291 389.957 266.291 390.66L266.291 399.92C266.291 400.905 267.089 401.716 268.087 401.716L278.485 401.716C279.179 401.716 279.75 402.279 279.75 402.981L279.75 413.963C279.75 414.658 279.187 415.229 278.485 415.229L268.087 415.229C267.102 415.229 266.291 416.027 266.291 417.025Z" stroke="white" stroke-opacity="0.5" stroke-width="0.531561"/>
<path d="M241.605 446.627L241.605 446.623L241.605 435.652C241.605 434.948 242.166 434.387 242.87 434.387L253.65 434.387L267.694 434.387L278.485 434.387C279.179 434.387 279.75 434.949 279.75 435.652L279.75 446.634C279.75 447.328 279.187 447.899 278.485 447.899L269.225 447.899C268.239 447.899 267.428 448.697 267.428 449.696L267.428 460.093C267.428 460.787 266.866 461.358 266.163 461.358L255.181 461.358C254.487 461.358 253.916 460.796 253.916 460.093L253.916 449.696C253.916 448.71 253.118 447.899 252.119 447.899L242.87 447.899C242.166 447.899 241.596 447.327 241.605 446.627Z" stroke="white" stroke-opacity="0.5" stroke-width="0.531561"/>
<path d="M37.389 36.1319V26.8721C37.389 26.1708 37.959 25.606 38.6557 25.5963H49.6255C50.3198 25.5963 50.8906 26.1589 50.8906 26.8614V37.6521V51.696V62.4867C50.8906 63.1904 50.3292 63.7518 49.6255 63.7518H38.6541C37.9598 63.7518 37.389 63.1892 37.389 62.4867V53.2269C37.389 52.2414 36.5908 51.4302 35.5923 51.4302H25.195C24.5007 51.4302 23.9298 50.8676 23.9298 50.1651V39.1937C23.9298 38.4994 24.4924 37.9285 25.195 37.9285H35.5923C36.5778 37.9285 37.389 37.1303 37.389 36.1319Z" stroke="white" stroke-opacity="0.5" stroke-width="0.531561"/>
<path d="M62.0747 6.51973V6.52305V17.4945C62.0747 18.1982 61.5133 18.7596 60.8096 18.7596H50.0295H35.9857H25.195C24.5007 18.7596 23.9298 18.197 23.9298 17.4945V6.52305C23.9298 5.82877 24.4924 5.25793 25.195 5.25793H34.4548C35.4414 5.25793 36.2514 4.44791 36.2514 3.46125V-6.93609C36.2514 -7.6398 36.8128 -8.20121 37.5166 -8.20121H48.4986C49.1929 -8.20121 49.7637 -7.6386 49.7637 -6.93609V3.46125C49.7637 4.4467 50.5619 5.25793 51.5604 5.25793H60.8096C61.5164 5.25793 62.0834 5.82165 62.0747 6.51973Z" stroke="white" stroke-opacity="0.5" stroke-width="0.531561"/>
<path d="M37.389 116.228V106.968C37.389 106.266 37.9591 105.702 38.656 105.692H49.6255C50.3198 105.692 50.8906 106.255 50.8906 106.957V117.748V131.792V142.582C50.8906 143.286 50.3292 143.848 49.6255 143.848H38.6541C37.9598 143.848 37.389 143.285 37.389 142.582V133.323C37.389 132.337 36.5908 131.526 35.5923 131.526H25.195C24.5007 131.526 23.9298 130.963 23.9298 130.261V119.289C23.9298 118.595 24.4924 118.024 25.195 118.024H35.5923C36.5778 118.024 37.389 117.226 37.389 116.228Z" stroke="white" stroke-opacity="0.5" stroke-width="0.531561"/>
<path d="M45.9686 86.6408H55.2284C55.9227 86.6408 56.4935 87.2034 56.4935 87.9059V98.8773C56.4935 99.581 55.9321 100.142 55.2284 100.142H44.4377H30.3939H19.6032C18.9089 100.142 18.338 99.5798 18.338 98.8773V87.9059C18.338 87.2116 18.9006 86.6408 19.6032 86.6408H28.863C29.8496 86.6408 30.6596 85.8308 30.6596 84.8441V74.4468C30.6596 73.743 31.221 73.1816 31.9248 73.1816H42.9068C43.6011 73.1816 44.1719 73.7442 44.1719 74.4468V84.8441C44.1719 85.8295 44.9701 86.6408 45.9686 86.6408Z" stroke="white" stroke-opacity="0.5" stroke-width="0.531561"/>
<path d="M37.389 196.323V187.063C37.389 186.362 37.959 185.797 38.6557 185.788H49.6255C50.3198 185.788 50.8906 186.35 50.8906 187.053V197.844V211.887V222.678C50.8906 223.382 50.3292 223.943 49.6255 223.943H38.6541C37.9598 223.943 37.389 223.381 37.389 222.678V213.418C37.389 212.433 36.5908 211.622 35.5923 211.622H25.195C24.5007 211.622 23.9298 211.059 23.9298 210.356V199.385C23.9298 198.691 24.4924 198.12 25.195 198.12H35.5923C36.5778 198.12 37.389 197.322 37.389 196.323Z" stroke="white" stroke-opacity="0.5" stroke-width="0.531561"/>
<path d="M62.0747 166.699V166.703V177.674C62.0747 178.368 61.5121 178.939 60.8096 178.939H50.0295H35.9857H25.195C24.5007 178.939 23.9298 178.377 23.9298 177.674V166.703C23.9298 166.008 24.4924 165.438 25.195 165.438H34.4548C35.4402 165.438 36.2514 164.639 36.2514 163.641V153.244C36.2514 152.549 36.814 151.979 37.5166 151.979H48.4986C49.1929 151.979 49.7637 152.541 49.7637 153.244V163.641C49.7637 164.626 50.5619 165.438 51.5604 165.438H60.8096C61.5152 165.438 62.0834 166.011 62.0747 166.699Z" stroke="white" stroke-opacity="0.5" stroke-width="0.531561"/>
<path d="M37.389 276.417V267.157C37.389 266.452 37.9622 265.881 38.6541 265.881H49.6255C50.3198 265.881 50.8906 266.444 50.8906 267.147V277.937V291.981V302.772C50.8906 303.476 50.3292 304.037 49.6255 304.037H38.6541C37.9598 304.037 37.389 303.474 37.389 302.772V293.512C37.389 292.527 36.5908 291.715 35.5923 291.715H25.195C24.5007 291.715 23.9298 291.153 23.9298 290.45V279.479C23.9298 278.785 24.4924 278.214 25.195 278.214H35.5923C36.5778 278.214 37.389 277.416 37.389 276.417Z" stroke="white" stroke-opacity="0.5" stroke-width="0.531561"/>
<path d="M62.0747 246.805V246.808V257.78C62.0747 258.483 61.5133 259.045 60.8096 259.045H50.0295H35.9857H25.195C24.5007 259.045 23.9298 258.482 23.9298 257.78V246.798C23.9298 246.103 24.4924 245.532 25.195 245.532H34.4548C35.4402 245.532 36.2514 244.734 36.2514 243.736V233.338C36.2514 232.635 36.8128 232.073 37.5166 232.073H48.4986C49.1929 232.073 49.7637 232.636 49.7637 233.338V243.736C49.7637 244.721 50.5619 245.532 51.5604 245.532H60.8096C61.5139 245.532 62.0835 246.104 62.0747 246.805Z" stroke="white" stroke-opacity="0.5" stroke-width="0.531561"/>
<path d="M37.389 356.502V347.242C37.389 346.549 37.961 345.977 38.6541 345.977H49.6255C50.3198 345.977 50.8906 346.54 50.8906 347.242V358.033V372.077V382.868C50.8906 383.562 50.328 384.133 49.6255 384.133H38.6541C37.9598 384.133 37.389 383.57 37.389 382.868V373.608C37.389 372.622 36.5908 371.811 35.5923 371.811H25.195C24.5007 371.811 23.9298 371.248 23.9298 370.546V359.564C23.9298 358.87 24.4924 358.299 25.195 358.299H35.5923C36.5778 358.299 37.389 357.501 37.389 356.502Z" stroke="white" stroke-opacity="0.5" stroke-width="0.531561"/>
<path d="M60.8096 325.362H51.5604C50.7099 325.362 50.0295 324.671 50.0295 323.831V313.434C50.0295 312.584 49.3385 311.903 48.4986 311.903H37.5166C36.6661 311.903 35.9857 312.594 35.9857 313.434V323.831C35.9857 324.682 35.2946 325.362 34.4548 325.362H25.195C24.3445 325.362 23.6641 326.053 23.6641 326.893V337.875C23.6641 338.726 24.3551 339.406 25.195 339.406H35.9857H50.0295H60.8096C61.6601 339.406 62.3405 338.726 62.3405 337.875V326.904C62.3511 326.053 61.6601 325.362 60.8096 325.362Z" fill="black"/>
<path d="M62.0747 326.901V326.904V337.875C62.0747 338.579 61.5133 339.14 60.8096 339.14H50.0295H35.9857H25.195C24.5007 339.14 23.9298 338.578 23.9298 337.875V326.893C23.9298 326.199 24.4924 325.628 25.195 325.628H34.4548C35.4402 325.628 36.2514 324.83 36.2514 323.831V313.434C36.2514 312.74 36.814 312.169 37.5166 312.169H48.4986C49.1929 312.169 49.7637 312.732 49.7637 313.434V323.831C49.7637 324.817 50.5619 325.628 51.5604 325.628H60.8096C61.5139 325.628 62.0835 326.2 62.0747 326.901Z" stroke="white" stroke-opacity="0.5" stroke-width="0.531561"/>
<path d="M126.691 36.1319V26.8721C126.691 26.1708 127.261 25.606 127.957 25.5963H138.927C139.622 25.5963 140.192 26.1589 140.192 26.8614V37.6521V51.696V62.4867C140.192 63.1904 139.631 63.7518 138.927 63.7518H127.956C127.262 63.7518 126.691 63.1892 126.691 62.4867V53.2269C126.691 52.2414 125.893 51.4302 124.894 51.4302H114.497C113.802 51.4302 113.232 50.8676 113.232 50.1651V39.1937C113.232 38.4994 113.794 37.9285 114.497 37.9285H124.894C125.88 37.9285 126.691 37.1303 126.691 36.1319Z" stroke="white" stroke-opacity="0.5" stroke-width="0.531561"/>
<path d="M151.376 6.51973V6.52305V17.4945C151.376 18.1982 150.815 18.7596 150.111 18.7596H139.331H125.287H114.497C113.802 18.7596 113.232 18.197 113.232 17.4945V6.52305C113.232 5.82877 113.794 5.25793 114.497 5.25793H123.757C124.743 5.25793 125.553 4.44791 125.553 3.46125V-6.93609C125.553 -7.6398 126.115 -8.20121 126.818 -8.20121H137.8C138.495 -8.20121 139.065 -7.6386 139.065 -6.93609V3.46125C139.065 4.4467 139.864 5.25793 140.862 5.25793H150.111C150.818 5.25793 151.385 5.82165 151.376 6.51973Z" stroke="white" stroke-opacity="0.5" stroke-width="0.531561"/>
<path d="M126.692 116.228V106.968C126.692 106.266 127.262 105.702 127.959 105.692H138.928C139.623 105.692 140.193 106.255 140.193 106.957V117.748V131.792V142.582C140.193 143.286 139.632 143.848 138.928 143.848H127.957C127.263 143.848 126.692 143.285 126.692 142.582V133.323C126.692 132.337 125.894 131.526 124.895 131.526H114.498C113.803 131.526 113.233 130.963 113.233 130.261V119.289C113.233 118.595 113.795 118.024 114.498 118.024H124.895C125.88 118.024 126.692 117.226 126.692 116.228Z" stroke="white" stroke-opacity="0.5" stroke-width="0.531561"/>
<path d="M144.531 86.375H135.271C134.421 86.375 133.74 85.684 133.74 84.8441V74.4468C133.74 73.5963 133.049 72.9159 132.21 72.9159H121.227C120.377 72.9159 119.697 73.5963 119.697 74.4468V84.8441C119.697 85.684 119.006 86.375 118.166 86.375H108.906C108.055 86.375 107.375 87.066 107.375 87.9059V98.8773C107.375 99.7278 108.066 100.408 108.906 100.408H119.697H133.74H144.531C145.382 100.408 146.062 99.7278 146.062 98.8773V87.9059C146.062 87.0554 145.371 86.375 144.531 86.375Z" fill="black"/>
<path d="M135.271 86.6408H144.531C145.225 86.6408 145.796 87.2034 145.796 87.9059V98.8773C145.796 99.581 145.235 100.142 144.531 100.142H133.74H119.697H108.906C108.212 100.142 107.641 99.5798 107.641 98.8773V87.9059C107.641 87.2116 108.203 86.6408 108.906 86.6408H118.166C119.152 86.6408 119.962 85.8308 119.962 84.8441V74.4468C119.962 73.743 120.524 73.1816 121.227 73.1816H132.21C132.904 73.1816 133.475 73.7442 133.475 74.4468V84.8441C133.475 85.8295 134.273 86.6408 135.271 86.6408Z" stroke="white" stroke-opacity="0.5" stroke-width="0.531561"/>
<path d="M126.691 196.323V187.063C126.691 186.362 127.261 185.797 127.957 185.788H138.927C139.622 185.788 140.192 186.35 140.192 187.053V197.844V211.887V222.678C140.192 223.382 139.631 223.943 138.927 223.943H127.956C127.262 223.943 126.691 223.381 126.691 222.678V213.418C126.691 212.433 125.893 211.622 124.894 211.622H114.497C113.802 211.622 113.232 211.059 113.232 210.356V199.385C113.232 198.691 113.794 198.12 114.497 198.12H124.894C125.88 198.12 126.691 197.322 126.691 196.323Z" stroke="white" stroke-opacity="0.5" stroke-width="0.531561"/>
<path d="M150.112 165.172H140.863C140.013 165.172 139.332 164.481 139.332 163.641V153.244C139.332 152.393 138.641 151.713 137.801 151.713H126.819C125.969 151.713 125.288 152.404 125.288 153.244V163.641C125.288 164.491 124.597 165.172 123.757 165.172H114.498C113.647 165.172 112.967 165.863 112.967 166.703V177.674C112.967 178.525 113.658 179.205 114.498 179.205H125.288H139.332H150.112C150.963 179.205 151.643 178.514 151.643 177.674V166.703C151.654 165.863 150.963 165.172 150.112 165.172Z" fill="#9F47FC"/>
<path d="M126.692 276.417V267.157C126.692 266.452 127.265 265.881 127.957 265.881H138.928C139.623 265.881 140.193 266.444 140.193 267.147V277.937V291.981V302.772C140.193 303.476 139.632 304.037 138.928 304.037H127.957C127.263 304.037 126.692 303.474 126.692 302.772V293.512C126.692 292.527 125.894 291.715 124.895 291.715H114.498C113.803 291.715 113.233 291.153 113.233 290.45V279.479C113.233 278.785 113.795 278.214 114.498 278.214H124.895C125.88 278.214 126.692 277.416 126.692 276.417Z" stroke="white" stroke-opacity="0.5" stroke-width="0.531561"/>
<path d="M151.377 246.805V246.808V257.78C151.377 258.483 150.816 259.045 150.112 259.045H139.332H125.288H114.498C113.803 259.045 113.233 258.482 113.233 257.78V246.798C113.233 246.103 113.795 245.532 114.498 245.532H123.757C124.743 245.532 125.554 244.734 125.554 243.736V233.338C125.554 232.635 126.116 232.073 126.819 232.073H137.801C138.496 232.073 139.066 232.636 139.066 233.338V243.736C139.066 244.721 139.865 245.532 140.863 245.532H150.112C150.817 245.532 151.386 246.104 151.377 246.805Z" stroke="white" stroke-opacity="0.5" stroke-width="0.531561"/>
<path d="M126.692 356.502V347.242C126.692 346.549 127.264 345.977 127.957 345.977H138.928C139.623 345.977 140.193 346.54 140.193 347.242V358.033V372.077V382.868C140.193 383.562 139.631 384.133 138.928 384.133H127.957C127.263 384.133 126.692 383.57 126.692 382.868V373.608C126.692 372.622 125.894 371.811 124.895 371.811H114.498C113.803 371.811 113.233 371.248 113.233 370.546V359.564C113.233 358.87 113.795 358.299 114.498 358.299H124.895C125.88 358.299 126.692 357.501 126.692 356.502Z" stroke="white" stroke-opacity="0.5" stroke-width="0.531561"/>
<path d="M151.377 326.901V326.904V337.875C151.377 338.579 150.816 339.14 150.112 339.14H139.332H125.288H114.498C113.803 339.14 113.233 338.578 113.233 337.875V326.893C113.233 326.199 113.795 325.628 114.498 325.628H123.757C124.743 325.628 125.554 324.83 125.554 323.831V313.434C125.554 312.74 126.117 312.169 126.819 312.169H137.801C138.496 312.169 139.066 312.732 139.066 313.434V323.831C139.066 324.817 139.865 325.628 140.863 325.628H150.112C150.817 325.628 151.386 326.2 151.377 326.901Z" stroke="white" stroke-opacity="0.5" stroke-width="0.531561"/>
<path d="M-1.61554 339.79L-1.61554 349.05C-1.61554 349.751 -2.18552 350.316 -2.8823 350.326L-13.8521 350.326C-14.5464 350.326 -15.1172 349.763 -15.1172 349.06L-15.1172 338.27L-15.1172 324.226L-15.1172 313.435C-15.1172 312.731 -14.5558 312.17 -13.8521 312.17L-2.88066 312.17C-2.18637 312.17 -1.61554 312.733 -1.61554 313.435L-1.61554 322.695C-1.61554 323.68 -0.817347 324.492 0.181138 324.492L10.5785 324.492C11.2728 324.492 11.8436 325.054 11.8436 325.757L11.8436 336.728C11.8436 337.423 11.281 337.993 10.5785 337.993L0.181139 337.993C-0.804311 337.993 -1.61554 338.792 -1.61554 339.79Z" stroke="white" stroke-opacity="0.5" stroke-width="0.531561"/>
<path d="M-25.0361 370.928L-15.787 370.928C-14.9365 370.928 -14.2561 371.619 -14.2561 372.459L-14.2561 382.856C-14.2561 383.707 -13.565 384.387 -12.7252 384.387L-1.74311 384.387C-0.892616 384.387 -0.212217 383.707 -0.212217 382.856L-0.212218 372.459C-0.212218 371.619 0.478812 370.928 1.31868 370.928L10.5785 370.928C11.429 370.928 12.1094 370.237 12.1094 369.397L12.1094 358.425C12.1094 357.575 11.4183 356.895 10.5785 356.895L-0.212219 356.895L-14.2561 356.895L-25.0361 356.895C-25.8866 356.895 -26.567 357.575 -26.567 358.425L-26.567 369.397C-26.5777 370.247 -25.8866 370.928 -25.0361 370.928Z" fill="white"/>
<path d="M-1.61554 259.692L-1.61554 268.952C-1.61554 269.654 -2.18567 270.218 -2.88257 270.228L-13.8521 270.228C-14.5464 270.228 -15.1172 269.665 -15.1172 268.963L-15.1172 258.172L-15.1172 244.128L-15.1172 233.338C-15.1172 232.634 -14.5558 232.072 -13.8521 232.072L-2.88066 232.072C-2.18637 232.072 -1.61554 232.635 -1.61554 233.338L-1.61554 242.597C-1.61554 243.583 -0.817347 244.394 0.181138 244.394L10.5785 244.394C11.2728 244.394 11.8436 244.957 11.8436 245.659L11.8436 256.631C11.8436 257.325 11.281 257.896 10.5785 257.896L0.181139 257.896C-0.804311 257.896 -1.61554 258.694 -1.61554 259.692Z" stroke="white" stroke-opacity="0.5" stroke-width="0.531561"/>
<path d="M-10.1952 289.281L-19.455 289.281C-20.1493 289.281 -20.7201 288.719 -20.7201 288.016L-20.7201 277.045C-20.7201 276.341 -20.1587 275.779 -19.455 275.779L-8.66427 275.779L5.37958 275.779L16.1703 275.779C16.8646 275.779 17.4354 276.342 17.4354 277.045L17.4354 288.016C17.4354 288.71 16.8728 289.281 16.1703 289.281L6.91048 289.281C5.92382 289.281 5.1138 290.091 5.1138 291.078L5.1138 301.475C5.1138 302.179 4.55239 302.74 3.84868 302.74L-7.13338 302.74C-7.82766 302.74 -8.39849 302.178 -8.39849 301.475L-8.39849 291.078C-8.39849 290.092 -9.19668 289.281 -10.1952 289.281Z" stroke="white" stroke-opacity="0.5" stroke-width="0.531561"/>
<path d="M-1.61652 179.599L-1.61651 188.858C-1.61651 189.56 -2.18649 190.124 -2.88328 190.134L-13.8531 190.134C-14.5473 190.134 -15.1182 189.572 -15.1182 188.869L-15.1182 178.078L-15.1182 164.034L-15.1182 153.244C-15.1182 152.54 -14.5568 151.979 -13.8531 151.979L-2.88163 151.979C-2.18735 151.979 -1.61652 152.541 -1.61652 153.244L-1.61652 162.504C-1.61652 163.489 -0.818324 164.3 0.180162 164.3L10.5775 164.3C11.2718 164.3 11.8426 164.863 11.8426 165.565L11.8426 176.537C11.8426 177.231 11.28 177.802 10.5775 177.802L0.180163 177.802C-0.805288 177.802 -1.61652 178.6 -1.61652 179.599Z" stroke="white" stroke-opacity="0.5" stroke-width="0.531561"/>
<path d="M-26.3022 209.222L-26.3022 209.219L-26.3022 198.248C-26.3022 197.553 -25.7396 196.983 -25.0371 196.983L-14.257 196.983L-0.213196 196.983L10.5775 196.983C11.2718 196.983 11.8426 197.545 11.8426 198.248L11.8426 209.219C11.8426 209.913 11.28 210.484 10.5775 210.484L1.3177 210.484C0.332256 210.484 -0.478975 211.282 -0.478975 212.281L-0.478974 222.678C-0.478974 223.373 -1.04158 223.943 -1.74409 223.943L-12.7262 223.943C-13.4204 223.943 -13.9913 223.381 -13.9913 222.678L-13.9913 212.281C-13.9913 211.295 -14.7895 210.484 -15.7879 210.484L-25.0371 210.484C-25.7427 210.484 -26.311 209.911 -26.3022 209.222Z" stroke="white" stroke-opacity="0.5" stroke-width="0.531561"/>
<path d="M-1.61554 99.5029L-1.61554 108.763C-1.61554 109.468 -2.18877 110.038 -2.88065 110.038L-13.8521 110.038C-14.5464 110.038 -15.1172 109.476 -15.1172 108.773L-15.1172 97.9826L-15.1172 83.9388L-15.1172 73.1481C-15.1172 72.4444 -14.5558 71.883 -13.8521 71.883L-2.88066 71.883C-2.18637 71.883 -1.61554 72.4456 -1.61554 73.1481L-1.61554 82.4079C-1.61554 83.3933 -0.817347 84.2046 0.181138 84.2046L10.5785 84.2046C11.2728 84.2046 11.8436 84.7672 11.8436 85.4697L11.8436 96.4411C11.8436 97.1354 11.281 97.7062 10.5785 97.7062L0.181139 97.7062C-0.804311 97.7062 -1.61554 98.5044 -1.61554 99.5029Z" stroke="white" stroke-opacity="0.5" stroke-width="0.531561"/>
<path d="M-26.3012 129.113L-26.3012 129.11L-26.3013 118.138C-26.3013 117.435 -25.7399 116.873 -25.0361 116.873L-14.2561 116.873L-0.212219 116.873L10.5785 116.873C11.2728 116.873 11.8436 117.436 11.8436 118.138L11.8436 129.12C11.8436 129.815 11.281 130.385 10.5785 130.385L1.31868 130.385C0.333228 130.385 -0.477998 131.184 -0.477998 132.182L-0.477997 142.58C-0.477997 143.283 -1.0394 143.845 -1.74311 143.845L-12.7252 143.845C-13.4195 143.845 -13.9903 143.282 -13.9903 142.58L-13.9903 132.182C-13.9903 131.197 -14.7885 130.385 -15.787 130.385L-25.0361 130.385C-25.7405 130.385 -26.31 129.814 -26.3012 129.113Z" stroke="white" stroke-opacity="0.5" stroke-width="0.531561"/>
<path d="M-1.35073 28.6776L-1.35073 19.4178C-1.35073 18.5673 -0.659704 17.8869 0.180163 17.8869L10.5775 17.8869C11.428 17.8869 12.1084 17.1959 12.1084 16.356L12.1084 5.37398C12.1084 4.52348 11.4174 3.84308 10.5775 3.84308L0.180162 3.84308C-0.670337 3.84308 -1.35074 3.15205 -1.35074 2.31218L-1.35074 -6.94762C-1.35074 -7.79812 -2.04177 -8.47851 -2.88163 -8.47851L-13.8531 -8.47851C-14.7036 -8.47851 -15.384 -7.78748 -15.384 -6.94762L-15.384 3.84308L-15.384 17.8869L-15.384 28.6776C-15.384 29.5281 -14.6929 30.2085 -13.8531 30.2085L-2.88163 30.2085C-2.04176 30.2085 -1.35073 29.5175 -1.35073 28.6776Z" fill="#367FFF"/>
<path d="M-26.3022 49.0193L-26.3022 49.016L-26.3022 38.0446C-26.3022 37.3409 -25.7408 36.7795 -25.0371 36.7795L-14.257 36.7795L-0.213196 36.7795L10.5775 36.7795C11.2718 36.7795 11.8426 37.3421 11.8426 38.0446L11.8426 49.0266C11.8426 49.7209 11.28 50.2917 10.5775 50.2917L1.3177 50.2917C0.332252 50.2917 -0.478975 51.0899 -0.478975 52.0884L-0.478974 62.4858C-0.478974 63.18 -1.04158 63.7509 -1.74409 63.7509L-12.7262 63.7509C-13.4204 63.7509 -13.9913 63.1883 -13.9913 62.4858L-13.9913 52.0884C-13.9913 51.103 -14.7895 50.2917 -15.7879 50.2917L-25.0371 50.2917C-25.7415 50.2917 -26.311 49.7198 -26.3022 49.0193Z" stroke="white" stroke-opacity="0.5" stroke-width="0.531561"/>
<path d="M87.6862 339.79L87.6862 349.05C87.6862 349.751 87.1162 350.316 86.4195 350.326L75.4497 350.326C74.7554 350.326 74.1846 349.763 74.1846 349.06L74.1846 338.27L74.1846 324.226L74.1846 313.435C74.1846 312.731 74.746 312.17 75.4497 312.17L86.4211 312.17C87.1154 312.17 87.6862 312.733 87.6862 313.435L87.6862 322.695C87.6862 323.68 88.4844 324.492 89.4829 324.492L99.8802 324.492C100.575 324.492 101.145 325.054 101.145 325.757L101.145 336.728C101.145 337.423 100.583 337.993 99.8802 337.993L89.4829 337.993C88.4974 337.993 87.6862 338.792 87.6862 339.79Z" stroke="white" stroke-opacity="0.5" stroke-width="0.531561"/>
<path d="M63.0005 369.402L63.0005 369.399L63.0005 358.427C63.0005 357.724 63.5619 357.162 64.2656 357.162L75.0457 357.162L89.0895 357.162L99.8802 357.162C100.575 357.162 101.145 357.725 101.145 358.427L101.145 369.399C101.145 370.093 100.583 370.664 99.8802 370.664L90.6204 370.664C89.6338 370.664 88.8238 371.474 88.8238 372.461L88.8238 382.858C88.8238 383.562 88.2624 384.123 87.5586 384.123L76.5766 384.123C75.8823 384.123 75.3115 383.56 75.3115 382.858L75.3115 372.461C75.3115 371.475 74.5133 370.664 73.5148 370.664L64.2656 370.664C63.5588 370.664 62.9918 370.1 63.0005 369.402Z" stroke="white" stroke-opacity="0.5" stroke-width="0.531561"/>
<path d="M87.6862 259.694L87.6862 268.954C87.6862 269.655 87.1161 270.22 86.4192 270.23L75.4497 270.23C74.7554 270.23 74.1846 269.667 74.1846 268.965L74.1846 258.174L74.1846 244.13L74.1846 233.339C74.1846 232.636 74.746 232.074 75.4497 232.074L86.4211 232.074C87.1154 232.074 87.6862 232.637 87.6862 233.339L87.6862 242.599C87.6862 243.585 88.4844 244.396 89.4829 244.396L99.8802 244.396C100.575 244.396 101.145 244.959 101.145 245.661L101.145 256.633C101.145 257.327 100.583 257.898 99.8802 257.898L89.4829 257.898C88.4974 257.898 87.6862 258.696 87.6862 259.694Z" stroke="white" stroke-opacity="0.5" stroke-width="0.531561"/>
<path d="M79.1066 289.281L69.8468 289.281C69.1525 289.281 68.5817 288.719 68.5817 288.016L68.5817 277.045C68.5817 276.341 69.1431 275.779 69.8468 275.779L80.6375 275.779L94.6813 275.779L105.472 275.779C106.166 275.779 106.737 276.342 106.737 277.045L106.737 288.016C106.737 288.71 106.175 289.281 105.472 289.281L96.2122 289.281C95.2256 289.281 94.4156 290.091 94.4156 291.078L94.4156 301.475C94.4156 302.179 93.8542 302.74 93.1504 302.74L82.1684 302.74C81.4741 302.74 80.9033 302.178 80.9033 301.475L80.9033 291.078C80.9033 290.092 80.1051 289.281 79.1066 289.281Z" stroke="white" stroke-opacity="0.5" stroke-width="0.531561"/>
<path d="M87.6862 179.601L87.6862 188.86C87.6862 189.562 87.1162 190.126 86.4195 190.136L75.4497 190.136C74.7554 190.136 74.1846 189.574 74.1846 188.871L74.1846 178.08L74.1846 164.036L74.1846 153.246C74.1846 152.542 74.746 151.981 75.4497 151.981L86.4211 151.981C87.1154 151.981 87.6862 152.543 87.6862 153.246L87.6862 162.506C87.6862 163.491 88.4844 164.302 89.4829 164.302L99.8802 164.302C100.575 164.302 101.145 164.865 101.145 165.567L101.145 176.539C101.145 177.233 100.583 177.804 99.8802 177.804L89.4829 177.804C88.4974 177.804 87.6862 178.602 87.6862 179.601Z" stroke="white" stroke-opacity="0.5" stroke-width="0.531561"/>
<path d="M63.0005 209.222L63.0005 209.219L63.0005 198.248C63.0005 197.553 63.5631 196.983 64.2656 196.983L75.0457 196.983L89.0895 196.983L99.8802 196.983C100.575 196.983 101.145 197.545 101.145 198.248L101.145 209.219C101.145 209.913 100.583 210.484 99.8802 210.484L90.6204 210.484C89.635 210.484 88.8238 211.282 88.8238 212.281L88.8238 222.678C88.8238 223.373 88.2612 223.943 87.5586 223.943L76.5766 223.943C75.8823 223.943 75.3115 223.381 75.3115 222.678L75.3115 212.281C75.3115 211.295 74.5133 210.484 73.5148 210.484L64.2656 210.484C63.56 210.484 62.9918 209.911 63.0005 209.222Z" stroke="white" stroke-opacity="0.5" stroke-width="0.531561"/>
<path d="M87.6862 99.5029L87.6862 108.763C87.6862 109.468 87.113 110.038 86.4211 110.038L75.4497 110.038C74.7554 110.038 74.1846 109.476 74.1846 108.773L74.1846 97.9826L74.1846 83.9388L74.1846 73.1481C74.1846 72.4444 74.746 71.883 75.4497 71.883L86.4211 71.883C87.1154 71.883 87.6862 72.4456 87.6862 73.1481L87.6862 82.4079C87.6862 83.3933 88.4844 84.2046 89.4829 84.2046L99.8802 84.2046C100.575 84.2046 101.145 84.7672 101.145 85.4697L101.145 96.4411C101.145 97.1354 100.583 97.7062 99.8802 97.7062L89.4829 97.7062C88.4974 97.7062 87.6862 98.5044 87.6862 99.5029Z" stroke="white" stroke-opacity="0.5" stroke-width="0.531561"/>
<path d="M63.0005 129.113L63.0005 129.11L63.0005 118.138C63.0005 117.435 63.5619 116.873 64.2656 116.873L75.0457 116.873L89.0895 116.873L99.8802 116.873C100.575 116.873 101.145 117.436 101.145 118.138L101.145 129.12C101.145 129.815 100.583 130.385 99.8802 130.385L90.6204 130.385C89.635 130.385 88.8238 131.184 88.8238 132.182L88.8238 142.58C88.8238 143.283 88.2624 143.845 87.5586 143.845L76.5766 143.845C75.8823 143.845 75.3115 143.282 75.3115 142.58L75.3115 132.182C75.3115 131.197 74.5133 130.385 73.5148 130.385L64.2656 130.385C63.5613 130.385 62.9917 129.814 63.0005 129.113Z" stroke="white" stroke-opacity="0.5" stroke-width="0.531561"/>
<path d="M87.6862 19.4178L87.6862 28.6776C87.6862 29.3707 87.1142 29.9427 86.4211 29.9427L75.4497 29.9427C74.7554 29.9427 74.1846 29.3801 74.1846 28.6776L74.1846 17.8869L74.1846 3.84308L74.1846 -6.94762C74.1846 -7.6419 74.7472 -8.21273 75.4497 -8.21273L86.4211 -8.21273C87.1154 -8.21273 87.6862 -7.65013 87.6862 -6.94762L87.6862 2.31218C87.6862 3.29763 88.4844 4.10886 89.4829 4.10886L99.8802 4.10886C100.575 4.10886 101.145 4.67146 101.145 5.37397L101.145 16.356C101.145 17.0503 100.583 17.6211 99.8802 17.6211L89.4829 17.6212C88.4974 17.6212 87.6862 18.4193 87.6862 19.4178Z" stroke="white" stroke-opacity="0.5" stroke-width="0.531561"/>
<path d="M63.0005 49.0193L63.0005 49.016L63.0005 38.0446C63.0005 37.3409 63.5619 36.7795 64.2656 36.7795L75.0457 36.7795L89.0895 36.7795L99.8802 36.7795C100.575 36.7795 101.145 37.3421 101.145 38.0446L101.145 49.0266C101.145 49.7209 100.583 50.2917 99.8802 50.2917L90.6204 50.2917C89.635 50.2917 88.8238 51.0899 88.8238 52.0884L88.8238 62.4858C88.8238 63.18 88.2612 63.7509 87.5586 63.7509L76.5766 63.7509C75.8823 63.7509 75.3115 63.1883 75.3115 62.4858L75.3115 52.0884C75.3115 51.103 74.5133 50.2917 73.5148 50.2917L64.2656 50.2917C63.5613 50.2917 62.9917 49.7198 63.0005 49.0193Z" stroke="white" stroke-opacity="0.5" stroke-width="0.531561"/>
<path d="M355.593 339.79L355.593 349.05C355.593 349.751 355.023 350.316 354.327 350.326L343.357 350.326C342.663 350.326 342.092 349.763 342.092 349.06L342.092 338.27L342.092 324.226L342.092 313.435C342.092 312.731 342.653 312.17 343.357 312.17L354.328 312.17C355.023 312.17 355.593 312.733 355.593 313.435L355.593 322.695C355.593 323.68 356.392 324.492 357.39 324.492L367.787 324.492C368.482 324.492 369.053 325.054 369.053 325.757L369.053 336.728C369.053 337.423 368.49 337.993 367.787 337.993L357.39 337.993C356.405 337.993 355.593 338.792 355.593 339.79Z" stroke="white" stroke-opacity="0.5" stroke-width="0.531561"/>
<path d="M332.173 370.928L341.422 370.928C342.273 370.928 342.953 371.619 342.953 372.459L342.953 382.856C342.953 383.707 343.644 384.387 344.484 384.387L355.466 384.387C356.316 384.387 356.997 383.707 356.997 382.856L356.997 372.459C356.997 371.619 357.688 370.928 358.528 370.928L367.787 370.928C368.638 370.928 369.318 370.237 369.318 369.397L369.318 358.425C369.318 357.575 368.627 356.895 367.787 356.895L356.997 356.895L342.953 356.895L332.173 356.895C331.322 356.895 330.642 357.575 330.642 358.425L330.642 369.397C330.631 370.247 331.322 370.928 332.173 370.928Z" fill="white"/>
<path d="M355.593 259.692L355.593 268.952C355.593 269.654 355.023 270.218 354.326 270.228L343.357 270.228C342.663 270.228 342.092 269.665 342.092 268.963L342.092 258.172L342.092 244.128L342.092 233.338C342.092 232.634 342.653 232.072 343.357 232.072L354.328 232.072C355.023 232.072 355.593 232.635 355.593 233.338L355.593 242.597C355.593 243.583 356.392 244.394 357.39 244.394L367.787 244.394C368.482 244.394 369.053 244.957 369.053 245.659L369.053 256.631C369.053 257.325 368.49 257.896 367.787 257.896L357.39 257.896C356.405 257.896 355.593 258.694 355.593 259.692Z" stroke="white" stroke-opacity="0.5" stroke-width="0.531561"/>
<path d="M347.014 289.281L337.754 289.281C337.06 289.281 336.489 288.719 336.489 288.016L336.489 277.045C336.489 276.341 337.05 275.779 337.754 275.779L348.545 275.779L362.589 275.779L373.379 275.779C374.074 275.779 374.644 276.342 374.644 277.045L374.644 288.016C374.644 288.71 374.082 289.281 373.379 289.281L364.119 289.281C363.133 289.281 362.323 290.091 362.323 291.078L362.323 301.475C362.323 302.179 361.761 302.74 361.058 302.74L350.076 302.74C349.381 302.74 348.81 302.178 348.81 301.475L348.81 291.078C348.81 290.092 348.012 289.281 347.014 289.281Z" stroke="white" stroke-opacity="0.5" stroke-width="0.531561"/>
<path d="M355.593 179.599L355.593 188.858C355.593 189.56 355.023 190.124 354.327 190.134L343.357 190.134C342.663 190.134 342.092 189.572 342.092 188.869L342.092 178.078L342.092 164.034L342.092 153.244C342.092 152.54 342.653 151.979 343.357 151.979L354.328 151.979C355.023 151.979 355.593 152.541 355.593 153.244L355.593 162.504C355.593 163.489 356.392 164.3 357.39 164.3L367.787 164.3C368.482 164.3 369.053 164.863 369.053 165.565L369.053 176.537C369.053 177.231 368.49 177.802 367.787 177.802L357.39 177.802C356.405 177.802 355.593 178.6 355.593 179.599Z" stroke="white" stroke-opacity="0.5" stroke-width="0.531561"/>
<path d="M330.908 209.222L330.908 209.219L330.908 198.248C330.908 197.553 331.47 196.983 332.173 196.983L342.953 196.983L356.997 196.983L367.787 196.983C368.482 196.983 369.053 197.545 369.053 198.248L369.053 209.219C369.053 209.913 368.49 210.484 367.787 210.484L358.528 210.484C357.542 210.484 356.731 211.282 356.731 212.281L356.731 222.678C356.731 223.373 356.168 223.943 355.466 223.943L344.484 223.943C343.79 223.943 343.219 223.381 343.219 222.678L343.219 212.281C343.219 211.295 342.42 210.484 341.422 210.484L332.173 210.484C331.467 210.484 330.899 209.911 330.908 209.222Z" stroke="white" stroke-opacity="0.5" stroke-width="0.531561"/>
<path d="M355.593 99.5029L355.593 108.763C355.593 109.468 355.02 110.038 354.328 110.038L343.357 110.038C342.663 110.038 342.092 109.476 342.092 108.773L342.092 97.9826L342.092 83.9388L342.092 73.1481C342.092 72.4444 342.653 71.883 343.357 71.883L354.328 71.883C355.023 71.883 355.593 72.4456 355.593 73.1481L355.593 82.4079C355.593 83.3933 356.392 84.2046 357.39 84.2046L367.787 84.2046C368.482 84.2046 369.053 84.7672 369.053 85.4697L369.053 96.4411C369.053 97.1354 368.49 97.7062 367.787 97.7062L357.39 97.7062C356.405 97.7062 355.593 98.5044 355.593 99.5029Z" stroke="white" stroke-opacity="0.5" stroke-width="0.531561"/>
<path d="M330.908 129.113L330.908 129.11L330.908 118.138C330.908 117.435 331.469 116.873 332.173 116.873L342.953 116.873L356.997 116.873L367.787 116.873C368.482 116.873 369.053 117.436 369.053 118.138L369.053 129.12C369.053 129.815 368.49 130.385 367.787 130.385L358.528 130.385C357.542 130.385 356.731 131.184 356.731 132.182L356.731 142.58C356.731 143.283 356.17 143.845 355.466 143.845L344.484 143.845C343.79 143.845 343.219 143.282 343.219 142.58L343.219 132.182C343.219 131.197 342.421 130.385 341.422 130.385L332.173 130.385C331.468 130.385 330.899 129.814 330.908 129.113Z" stroke="white" stroke-opacity="0.5" stroke-width="0.531561"/>
<path d="M355.859 28.6776L355.859 19.4178C355.859 18.5673 356.55 17.8869 357.39 17.8869L367.787 17.8869C368.638 17.8869 369.318 17.1959 369.318 16.356L369.318 5.37398C369.318 4.52348 368.627 3.84308 367.787 3.84308L357.39 3.84308C356.54 3.84308 355.859 3.15205 355.859 2.31218L355.859 -6.94762C355.859 -7.79812 355.168 -8.47851 354.328 -8.47851L343.357 -8.47851C342.506 -8.47851 341.826 -7.78748 341.826 -6.94762L341.826 3.84308L341.826 17.8869L341.826 28.6776C341.826 29.5281 342.517 30.2085 343.357 30.2085L354.328 30.2085C355.168 30.2085 355.859 29.5175 355.859 28.6776Z" fill="#367FFF"/>
<path d="M330.908 49.0193L330.908 49.016L330.908 38.0446C330.908 37.3409 331.469 36.7795 332.173 36.7795L342.953 36.7795L356.997 36.7795L367.787 36.7795C368.482 36.7795 369.053 37.3421 369.053 38.0446L369.053 49.0266C369.053 49.7209 368.49 50.2917 367.787 50.2917L358.528 50.2917C357.542 50.2917 356.731 51.0899 356.731 52.0884L356.731 62.4858C356.731 63.18 356.168 63.7509 355.466 63.7509L344.484 63.7509C343.79 63.7509 343.219 63.1883 343.219 62.4858L343.219 52.0884C343.219 51.103 342.421 50.2917 341.422 50.2917L332.173 50.2917C331.468 50.2917 330.899 49.7198 330.908 49.0193Z" stroke="white" stroke-opacity="0.5" stroke-width="0.531561"/>
<path d="M215.993 36.1319V26.8721C215.993 26.1708 216.563 25.606 217.26 25.5963H228.23C228.924 25.5963 229.495 26.1589 229.495 26.8614V37.6521V51.696V62.4867C229.495 63.1904 228.934 63.7518 228.23 63.7518H217.259C216.564 63.7518 215.993 63.1892 215.993 62.4867V53.2269C215.993 52.2414 215.195 51.4302 214.197 51.4302H203.799C203.105 51.4302 202.534 50.8676 202.534 50.1651V39.1937C202.534 38.4994 203.097 37.9285 203.799 37.9285H214.197C215.182 37.9285 215.993 37.1303 215.993 36.1319Z" stroke="white" stroke-opacity="0.5" stroke-width="0.531561"/>
<path d="M240.679 6.51973V6.52305V17.4945C240.679 18.1982 240.118 18.7596 239.414 18.7596H228.634H214.59H203.799C203.105 18.7596 202.534 18.197 202.534 17.4945V6.52305C202.534 5.82877 203.097 5.25793 203.799 5.25793H213.059C214.046 5.25793 214.856 4.44791 214.856 3.46125V-6.93609C214.856 -7.6398 215.417 -8.20121 216.121 -8.20121H227.103C227.797 -8.20121 228.368 -7.6386 228.368 -6.93609V3.46125C228.368 4.4467 229.166 5.25793 230.165 5.25793H239.414C240.121 5.25793 240.688 5.82165 240.679 6.51973Z" stroke="white" stroke-opacity="0.5" stroke-width="0.531561"/>
<path d="M215.993 116.228V106.968C215.993 106.266 216.564 105.702 217.261 105.692H228.23C228.924 105.692 229.495 106.255 229.495 106.957V117.748V131.792V142.582C229.495 143.286 228.934 143.848 228.23 143.848H217.259C216.564 143.848 215.993 143.285 215.993 142.582V133.323C215.993 132.337 215.195 131.526 214.197 131.526H203.799C203.105 131.526 202.534 130.963 202.534 130.261V119.289C202.534 118.595 203.097 118.024 203.799 118.024H214.197C215.182 118.024 215.993 117.226 215.993 116.228Z" stroke="white" stroke-opacity="0.5" stroke-width="0.531561"/>
<path d="M224.573 86.6408H233.833C234.527 86.6408 235.098 87.2034 235.098 87.9059V98.8773C235.098 99.581 234.537 100.142 233.833 100.142H223.042H208.998H198.208C197.513 100.142 196.943 99.5798 196.943 98.8773V87.9059C196.943 87.2116 197.505 86.6408 198.208 86.6408H207.467C208.454 86.6408 209.264 85.8308 209.264 84.8441V74.4468C209.264 73.743 209.826 73.1816 210.529 73.1816H221.511C222.206 73.1816 222.776 73.7442 222.776 74.4468V84.8441C222.776 85.8295 223.575 86.6408 224.573 86.6408Z" stroke="white" stroke-opacity="0.5" stroke-width="0.531561"/>
<path d="M215.993 196.323V187.063C215.993 186.362 216.563 185.797 217.26 185.788H228.23C228.924 185.788 229.495 186.35 229.495 187.053V197.844V211.887V222.678C229.495 223.382 228.934 223.943 228.23 223.943H217.259C216.564 223.943 215.993 223.381 215.993 222.678V213.418C215.993 212.433 215.195 211.622 214.197 211.622H203.799C203.105 211.622 202.534 211.059 202.534 210.356V199.385C202.534 198.691 203.097 198.12 203.799 198.12H214.197C215.182 198.12 215.993 197.322 215.993 196.323Z" stroke="white" stroke-opacity="0.5" stroke-width="0.531561"/>
<path d="M240.679 166.699V166.703V177.674C240.679 178.368 240.117 178.939 239.414 178.939H228.634H214.59H203.799C203.105 178.939 202.534 178.377 202.534 177.674V166.703C202.534 166.008 203.097 165.438 203.799 165.438H213.059C214.045 165.438 214.856 164.639 214.856 163.641V153.244C214.856 152.549 215.419 151.979 216.121 151.979H227.103C227.797 151.979 228.368 152.541 228.368 153.244V163.641C228.368 164.626 229.166 165.438 230.165 165.438H239.414C240.12 165.438 240.688 166.011 240.679 166.699Z" stroke="white" stroke-opacity="0.5" stroke-width="0.531561"/>
<path d="M215.993 276.417V267.157C215.993 266.452 216.567 265.881 217.259 265.881H228.23C228.924 265.881 229.495 266.444 229.495 267.147V277.937V291.981V302.772C229.495 303.476 228.934 304.037 228.23 304.037H217.259C216.564 304.037 215.993 303.474 215.993 302.772V293.512C215.993 292.527 215.195 291.715 214.197 291.715H203.799C203.105 291.715 202.534 291.153 202.534 290.45V279.479C202.534 278.785 203.097 278.214 203.799 278.214H214.197C215.182 278.214 215.993 277.416 215.993 276.417Z" stroke="white" stroke-opacity="0.5" stroke-width="0.531561"/>
<path d="M240.679 246.805V246.808V257.78C240.679 258.483 240.118 259.045 239.414 259.045H228.634H214.59H203.799C203.105 259.045 202.534 258.482 202.534 257.78V246.798C202.534 246.103 203.097 245.532 203.799 245.532H213.059C214.045 245.532 214.856 244.734 214.856 243.736V233.338C214.856 232.635 215.417 232.073 216.121 232.073H227.103C227.797 232.073 228.368 232.636 228.368 233.338V243.736C228.368 244.721 229.166 245.532 230.165 245.532H239.414C240.118 245.532 240.688 246.104 240.679 246.805Z" stroke="white" stroke-opacity="0.5" stroke-width="0.531561"/>
<path d="M215.993 356.502V347.242C215.993 346.549 216.566 345.977 217.259 345.977H228.23C228.924 345.977 229.495 346.54 229.495 347.242V358.033V372.077V382.868C229.495 383.562 228.933 384.133 228.23 384.133H217.259C216.564 384.133 215.993 383.57 215.993 382.868V373.608C215.993 372.622 215.195 371.811 214.197 371.811H203.799C203.105 371.811 202.534 371.248 202.534 370.546V359.564C202.534 358.87 203.097 358.299 203.799 358.299H214.197C215.182 358.299 215.993 357.501 215.993 356.502Z" stroke="white" stroke-opacity="0.5" stroke-width="0.531561"/>
<path d="M240.679 326.901V326.904V337.875C240.679 338.579 240.118 339.14 239.414 339.14H228.634H214.59H203.799C203.105 339.14 202.534 338.578 202.534 337.875V326.893C202.534 326.199 203.097 325.628 203.799 325.628H213.059C214.045 325.628 214.856 324.83 214.856 323.831V313.434C214.856 312.74 215.419 312.169 216.121 312.169H227.103C227.797 312.169 228.368 312.732 228.368 313.434V323.831C228.368 324.817 229.166 325.628 230.165 325.628H239.414C240.118 325.628 240.688 326.2 240.679 326.901Z" stroke="white" stroke-opacity="0.5" stroke-width="0.531561"/>
<path d="M305.296 36.1319V26.8721C305.296 26.1708 305.866 25.606 306.563 25.5963H317.533C318.227 25.5963 318.798 26.1589 318.798 26.8614V37.6521V51.696V62.4867C318.798 63.1904 318.236 63.7518 317.533 63.7518H306.561C305.867 63.7518 305.296 63.1892 305.296 62.4867V53.2269C305.296 52.2414 304.498 51.4302 303.5 51.4302H293.102C292.408 51.4302 291.837 50.8676 291.837 50.1651V39.1937C291.837 38.4994 292.4 37.9285 293.102 37.9285H303.5C304.485 37.9285 305.296 37.1303 305.296 36.1319Z" stroke="white" stroke-opacity="0.5" stroke-width="0.531561"/>
<path d="M329.982 6.51973V6.52305V17.4945C329.982 18.1982 329.421 18.7596 328.717 18.7596H317.937H303.893H293.102C292.408 18.7596 291.837 18.197 291.837 17.4945V6.52305C291.837 5.82877 292.4 5.25793 293.102 5.25793H302.362C303.349 5.25793 304.159 4.44791 304.159 3.46125V-6.93609C304.159 -7.6398 304.72 -8.20121 305.424 -8.20121H316.406C317.1 -8.20121 317.671 -7.6386 317.671 -6.93609V3.46125C317.671 4.4467 318.469 5.25793 319.468 5.25793H328.717C329.424 5.25793 329.991 5.82165 329.982 6.51973Z" stroke="white" stroke-opacity="0.5" stroke-width="0.531561"/>
<path d="M305.296 116.228V106.968C305.296 106.266 305.866 105.702 306.563 105.692H317.533C318.227 105.692 318.798 106.255 318.798 106.957V117.748V131.792V142.582C318.798 143.286 318.236 143.848 317.533 143.848H306.561C305.867 143.848 305.296 143.285 305.296 142.582V133.323C305.296 132.337 304.498 131.526 303.5 131.526H293.102C292.408 131.526 291.837 130.963 291.837 130.261V119.289C291.837 118.595 292.4 118.024 293.102 118.024H303.5C304.485 118.024 305.296 117.226 305.296 116.228Z" stroke="white" stroke-opacity="0.5" stroke-width="0.531561"/>
<path d="M313.876 86.6408H323.136C323.83 86.6408 324.401 87.2034 324.401 87.9059V98.8773C324.401 99.581 323.839 100.142 323.136 100.142H312.345H298.301H287.51C286.816 100.142 286.245 99.5798 286.245 98.8773V87.9059C286.245 87.2116 286.808 86.6408 287.51 86.6408H296.77C297.757 86.6408 298.567 85.8308 298.567 84.8441V74.4468C298.567 73.743 299.128 73.1816 299.832 73.1816H310.814C311.508 73.1816 312.079 73.7442 312.079 74.4468V84.8441C312.079 85.8295 312.877 86.6408 313.876 86.6408Z" stroke="white" stroke-opacity="0.5" stroke-width="0.531561"/>
<path d="M305.296 196.323V187.063C305.296 186.362 305.866 185.797 306.563 185.788H317.533C318.227 185.788 318.798 186.35 318.798 187.053V197.844V211.887V222.678C318.798 223.382 318.236 223.943 317.533 223.943H306.561C305.867 223.943 305.296 223.381 305.296 222.678V213.418C305.296 212.433 304.498 211.622 303.5 211.622H293.102C292.408 211.622 291.837 211.059 291.837 210.356V199.385C291.837 198.691 292.4 198.12 293.102 198.12H303.5C304.485 198.12 305.296 197.322 305.296 196.323Z" stroke="white" stroke-opacity="0.5" stroke-width="0.531561"/>
<path d="M329.982 166.699V166.703V177.674C329.982 178.368 329.419 178.939 328.717 178.939H317.937H303.893H293.102C292.408 178.939 291.837 178.377 291.837 177.674V166.703C291.837 166.008 292.4 165.438 293.102 165.438H302.362C303.347 165.438 304.159 164.639 304.159 163.641V153.244C304.159 152.549 304.721 151.979 305.424 151.979H316.406C317.1 151.979 317.671 152.541 317.671 153.244V163.641C317.671 164.626 318.469 165.438 319.468 165.438H328.717C329.422 165.438 329.991 166.011 329.982 166.699Z" stroke="white" stroke-opacity="0.5" stroke-width="0.531561"/>
<path d="M305.296 276.417V267.157C305.296 266.452 305.869 265.881 306.561 265.881H317.533C318.227 265.881 318.798 266.444 318.798 267.147V277.937V291.981V302.772C318.798 303.476 318.236 304.037 317.533 304.037H306.561C305.867 304.037 305.296 303.474 305.296 302.772V293.512C305.296 292.527 304.498 291.715 303.5 291.715H293.102C292.408 291.715 291.837 291.153 291.837 290.45V279.479C291.837 278.785 292.4 278.214 293.102 278.214H303.5C304.485 278.214 305.296 277.416 305.296 276.417Z" stroke="white" stroke-opacity="0.5" stroke-width="0.531561"/>
<path d="M329.982 246.805V246.808V257.78C329.982 258.483 329.421 259.045 328.717 259.045H317.937H303.893H293.102C292.408 259.045 291.837 258.482 291.837 257.78V246.798C291.837 246.103 292.4 245.532 293.102 245.532H302.362C303.347 245.532 304.159 244.734 304.159 243.736V233.338C304.159 232.635 304.72 232.073 305.424 232.073H316.406C317.1 232.073 317.671 232.636 317.671 233.338V243.736C317.671 244.721 318.469 245.532 319.468 245.532H328.717C329.421 245.532 329.991 246.104 329.982 246.805Z" stroke="white" stroke-opacity="0.5" stroke-width="0.531561"/>
<path d="M305.296 356.502V347.242C305.296 346.549 305.868 345.977 306.561 345.977H317.533C318.227 345.977 318.798 346.54 318.798 347.242V358.033V372.077V382.868C318.798 383.562 318.235 384.133 317.533 384.133H306.561C305.867 384.133 305.296 383.57 305.296 382.868V373.608C305.296 372.622 304.498 371.811 303.5 371.811H293.102C292.408 371.811 291.837 371.248 291.837 370.546V359.564C291.837 358.87 292.4 358.299 293.102 358.299H303.5C304.485 358.299 305.296 357.501 305.296 356.502Z" stroke="white" stroke-opacity="0.5" stroke-width="0.531561"/>
<path d="M329.982 326.901V326.904V337.875C329.982 338.579 329.421 339.14 328.717 339.14H317.937H303.893H293.102C292.408 339.14 291.837 338.578 291.837 337.875V326.893C291.837 326.199 292.4 325.628 293.102 325.628H302.362C303.347 325.628 304.159 324.83 304.159 323.831V313.434C304.159 312.74 304.721 312.169 305.424 312.169H316.406C317.1 312.169 317.671 312.732 317.671 313.434V323.831C317.671 324.817 318.469 325.628 319.468 325.628H328.717C329.421 325.628 329.991 326.2 329.982 326.901Z" stroke="white" stroke-opacity="0.5" stroke-width="0.531561"/>
<path d="M176.989 339.79L176.989 349.05C176.989 349.751 176.419 350.316 175.722 350.326L164.752 350.326C164.058 350.326 163.487 349.763 163.487 349.06L163.487 338.27L163.487 324.226L163.487 313.435C163.487 312.731 164.049 312.17 164.752 312.17L175.724 312.17C176.418 312.17 176.989 312.733 176.989 313.435L176.989 322.695C176.989 323.68 177.787 324.492 178.786 324.492L189.183 324.492C189.877 324.492 190.448 325.054 190.448 325.757L190.448 336.728C190.448 337.423 189.885 337.993 189.183 337.993L178.786 337.993C177.8 337.993 176.989 338.792 176.989 339.79Z" stroke="white" stroke-opacity="0.5" stroke-width="0.531561"/>
<path d="M152.303 369.4L152.303 369.397L152.303 358.425C152.303 357.722 152.865 357.16 153.568 357.16L164.348 357.16L178.392 357.16L189.183 357.16C189.877 357.16 190.448 357.723 190.448 358.425L190.448 369.397C190.448 370.091 189.885 370.662 189.183 370.662L179.923 370.662C178.937 370.662 178.126 371.472 178.126 372.459L178.126 382.856C178.126 383.56 177.565 384.121 176.861 384.121L165.879 384.121C165.185 384.121 164.614 383.559 164.614 382.856L164.614 372.459C164.614 371.473 163.816 370.662 162.818 370.662L153.568 370.662C152.862 370.662 152.294 370.098 152.303 369.4Z" stroke="white" stroke-opacity="0.5" stroke-width="0.531561"/>
<path d="M176.989 259.692L176.989 268.952C176.989 269.654 176.419 270.218 175.722 270.228L164.752 270.228C164.058 270.228 163.487 269.665 163.487 268.963L163.487 258.172L163.487 244.128L163.487 233.338C163.487 232.634 164.049 232.072 164.752 232.072L175.724 232.072C176.418 232.072 176.989 232.635 176.989 233.338L176.989 242.597C176.989 243.583 177.787 244.394 178.786 244.394L189.183 244.394C189.877 244.394 190.448 244.957 190.448 245.659L190.448 256.631C190.448 257.325 189.885 257.896 189.183 257.896L178.786 257.896C177.8 257.896 176.989 258.694 176.989 259.692Z" stroke="white" stroke-opacity="0.5" stroke-width="0.531561"/>
<path d="M168.409 289.281L159.15 289.281C158.455 289.281 157.884 288.719 157.884 288.016L157.884 277.045C157.884 276.341 158.446 275.779 159.15 275.779L169.94 275.779L183.984 275.779L194.775 275.779C195.469 275.779 196.04 276.342 196.04 277.045L196.04 288.016C196.04 288.71 195.477 289.281 194.775 289.281L185.515 289.281C184.528 289.281 183.718 290.091 183.718 291.078L183.718 301.475C183.718 302.179 183.157 302.74 182.453 302.74L171.471 302.74C170.777 302.74 170.206 302.178 170.206 301.475L170.206 291.078C170.206 290.092 169.408 289.281 168.409 289.281Z" stroke="white" stroke-opacity="0.5" stroke-width="0.531561"/>
<path d="M176.988 179.599L176.988 188.858C176.988 189.56 176.418 190.124 175.721 190.134L164.751 190.134C164.057 190.134 163.486 189.572 163.486 188.869L163.486 178.078L163.486 164.034L163.486 153.244C163.486 152.54 164.048 151.979 164.751 151.979L175.723 151.979C176.417 151.979 176.988 152.541 176.988 153.244L176.988 162.504C176.988 163.489 177.786 164.3 178.785 164.3L189.182 164.3C189.876 164.3 190.447 164.863 190.447 165.565L190.447 176.537C190.447 177.231 189.885 177.802 189.182 177.802L178.785 177.802C177.799 177.802 176.988 178.6 176.988 179.599Z" stroke="white" stroke-opacity="0.5" stroke-width="0.531561"/>
<path d="M152.302 209.222L152.302 209.219L152.302 198.248C152.302 197.553 152.865 196.983 153.567 196.983L164.347 196.983L178.391 196.983L189.182 196.983C189.876 196.983 190.447 197.545 190.447 198.248L190.447 209.219C190.447 209.913 189.885 210.484 189.182 210.484L179.922 210.484C178.937 210.484 178.126 211.282 178.126 212.281L178.126 222.678C178.126 223.373 177.563 223.943 176.86 223.943L165.878 223.943C165.184 223.943 164.613 223.381 164.613 222.678L164.613 212.281C164.613 211.295 163.815 210.484 162.817 210.484L153.567 210.484C152.862 210.484 152.294 209.911 152.302 209.222Z" stroke="white" stroke-opacity="0.5" stroke-width="0.531561"/>
<path d="M176.989 99.5029L176.989 108.763C176.989 109.468 176.416 110.038 175.724 110.038L164.752 110.038C164.058 110.038 163.487 109.476 163.487 108.773L163.487 97.9826L163.487 83.9388L163.487 73.1481C163.487 72.4444 164.049 71.883 164.752 71.883L175.724 71.883C176.418 71.883 176.989 72.4456 176.989 73.1481L176.989 82.4079C176.989 83.3933 177.787 84.2046 178.786 84.2046L189.183 84.2046C189.877 84.2046 190.448 84.7672 190.448 85.4697L190.448 96.4411C190.448 97.1354 189.885 97.7062 189.183 97.7062L178.786 97.7062C177.8 97.7062 176.989 98.5044 176.989 99.5029Z" stroke="white" stroke-opacity="0.5" stroke-width="0.531561"/>
<path d="M152.303 129.113L152.303 129.11L152.303 118.138C152.303 117.435 152.865 116.873 153.568 116.873L164.348 116.873L178.392 116.873L189.183 116.873C189.877 116.873 190.448 117.436 190.448 118.138L190.448 129.12C190.448 129.815 189.885 130.385 189.183 130.385L179.923 130.385C178.938 130.385 178.126 131.184 178.126 132.182L178.126 142.58C178.126 143.283 177.565 143.845 176.861 143.845L165.879 143.845C165.185 143.845 164.614 143.282 164.614 142.58L164.614 132.182C164.614 131.197 163.816 130.385 162.818 130.385L153.568 130.385C152.864 130.385 152.294 129.814 152.303 129.113Z" stroke="white" stroke-opacity="0.5" stroke-width="0.531561"/>
<path d="M176.988 19.4178L176.988 28.6776C176.988 29.3707 176.416 29.9427 175.723 29.9427L164.751 29.9427C164.057 29.9427 163.486 29.3801 163.486 28.6776L163.486 17.8869L163.486 3.84308L163.486 -6.94762C163.486 -7.6419 164.049 -8.21273 164.751 -8.21273L175.723 -8.21273C176.417 -8.21273 176.988 -7.65013 176.988 -6.94762L176.988 2.31218C176.988 3.29763 177.786 4.10886 178.785 4.10886L189.182 4.10886C189.876 4.10886 190.447 4.67146 190.447 5.37397L190.447 16.356C190.447 17.0503 189.885 17.6211 189.182 17.6211L178.785 17.6212C177.799 17.6212 176.988 18.4193 176.988 19.4178Z" stroke="white" stroke-opacity="0.5" stroke-width="0.531561"/>
<path d="M152.302 49.0193L152.302 49.016L152.302 38.0446C152.302 37.3409 152.864 36.7795 153.567 36.7795L164.347 36.7795L178.391 36.7795L189.182 36.7795C189.876 36.7795 190.447 37.3421 190.447 38.0446L190.447 49.0266C190.447 49.7209 189.885 50.2917 189.182 50.2917L179.922 50.2917C178.937 50.2917 178.126 51.0899 178.126 52.0884L178.126 62.4858C178.126 63.18 177.563 63.7509 176.86 63.7509L165.878 63.7509C165.184 63.7509 164.613 63.1883 164.613 62.4858L164.613 52.0884C164.613 51.103 163.815 50.2917 162.817 50.2917L153.567 50.2917C152.863 50.2917 152.293 49.7198 152.302 49.0193Z" stroke="white" stroke-opacity="0.5" stroke-width="0.531561"/>
<path d="M266.291 339.79L266.291 349.05C266.291 349.751 265.721 350.316 265.024 350.326L254.054 350.326C253.36 350.326 252.789 349.763 252.789 349.06L252.789 338.27L252.789 324.226L252.789 313.435C252.789 312.731 253.35 312.17 254.054 312.17L265.026 312.17C265.72 312.17 266.291 312.733 266.291 313.435L266.291 322.695C266.291 323.68 267.089 324.492 268.087 324.492L278.485 324.492C279.179 324.492 279.75 325.054 279.75 325.757L279.75 336.728C279.75 337.423 279.187 337.993 278.485 337.993L268.087 337.993C267.102 337.993 266.291 338.792 266.291 339.79Z" stroke="white" stroke-opacity="0.5" stroke-width="0.531561"/>
<path d="M241.605 369.402L241.605 369.399L241.605 358.427C241.605 357.724 242.166 357.162 242.87 357.162L253.65 357.162L267.694 357.162L278.485 357.162C279.179 357.162 279.75 357.725 279.75 358.427L279.75 369.399C279.75 370.093 279.187 370.664 278.485 370.664L269.225 370.664C268.238 370.664 267.428 371.474 267.428 372.461L267.428 382.858C267.428 383.562 266.867 384.123 266.163 384.123L255.181 384.123C254.487 384.123 253.916 383.56 253.916 382.858L253.916 372.461C253.916 371.475 253.118 370.664 252.119 370.664L242.87 370.664C242.163 370.664 241.596 370.1 241.605 369.402Z" stroke="white" stroke-opacity="0.5" stroke-width="0.531561"/>
<path d="M266.291 259.694L266.291 268.954C266.291 269.655 265.721 270.22 265.024 270.23L254.054 270.23C253.36 270.23 252.789 269.667 252.789 268.965L252.789 258.174L252.789 244.13L252.789 233.339C252.789 232.636 253.35 232.074 254.054 232.074L265.026 232.074C265.72 232.074 266.291 232.637 266.291 233.339L266.291 242.599C266.291 243.585 267.089 244.396 268.087 244.396L278.485 244.396C279.179 244.396 279.75 244.959 279.75 245.661L279.75 256.633C279.75 257.327 279.187 257.898 278.485 257.898L268.087 257.898C267.102 257.898 266.291 258.696 266.291 259.694Z" stroke="white" stroke-opacity="0.5" stroke-width="0.531561"/>
<path d="M257.711 289.281L248.451 289.281C247.757 289.281 247.186 288.719 247.186 288.016L247.186 277.045C247.186 276.341 247.748 275.779 248.451 275.779L259.242 275.779L273.286 275.779L284.077 275.779C284.771 275.779 285.342 276.342 285.342 277.045L285.342 288.016C285.342 288.71 284.779 289.281 284.077 289.281L274.817 289.281C273.83 289.281 273.02 290.091 273.02 291.078L273.02 301.475C273.02 302.179 272.459 302.74 271.755 302.74L260.773 302.74C260.079 302.74 259.508 302.178 259.508 301.475L259.508 291.078C259.508 290.092 258.71 289.281 257.711 289.281Z" stroke="white" stroke-opacity="0.5" stroke-width="0.531561"/>
<path d="M266.291 179.601L266.291 188.86C266.291 189.562 265.721 190.126 265.024 190.136L254.054 190.136C253.36 190.136 252.789 189.574 252.789 188.871L252.789 178.08L252.789 164.036L252.789 153.246C252.789 152.542 253.35 151.981 254.054 151.981L265.026 151.981C265.72 151.981 266.291 152.543 266.291 153.246L266.291 162.506C266.291 163.491 267.089 164.302 268.087 164.302L278.485 164.302C279.179 164.302 279.75 164.865 279.75 165.567L279.75 176.539C279.75 177.233 279.187 177.804 278.485 177.804L268.087 177.804C267.102 177.804 266.291 178.602 266.291 179.601Z" stroke="white" stroke-opacity="0.5" stroke-width="0.531561"/>
<path d="M241.605 209.222L241.605 209.219L241.605 198.248C241.605 197.553 242.168 196.983 242.87 196.983L253.65 196.983L267.694 196.983L278.485 196.983C279.179 196.983 279.75 197.545 279.75 198.248L279.75 209.219C279.75 209.913 279.187 210.484 278.485 210.484L269.225 210.484C268.239 210.484 267.428 211.282 267.428 212.281L267.428 222.678C267.428 223.373 266.866 223.943 266.163 223.943L255.181 223.943C254.487 223.943 253.916 223.381 253.916 222.678L253.916 212.281C253.916 211.295 253.118 210.484 252.119 210.484L242.87 210.484C242.165 210.484 241.596 209.911 241.605 209.222Z" stroke="white" stroke-opacity="0.5" stroke-width="0.531561"/>
<path d="M266.291 99.5029L266.291 108.763C266.291 109.468 265.717 110.038 265.026 110.038L254.054 110.038C253.36 110.038 252.789 109.476 252.789 108.773L252.789 97.9826L252.789 83.9388L252.789 73.1481C252.789 72.4444 253.35 71.883 254.054 71.883L265.026 71.883C265.72 71.883 266.291 72.4456 266.291 73.1481L266.291 82.4079C266.291 83.3933 267.089 84.2046 268.087 84.2046L278.485 84.2046C279.179 84.2046 279.75 84.7672 279.75 85.4697L279.75 96.4411C279.75 97.1354 279.187 97.7062 278.485 97.7062L268.087 97.7062C267.102 97.7062 266.291 98.5044 266.291 99.5029Z" stroke="white" stroke-opacity="0.5" stroke-width="0.531561"/>
<path d="M242.87 130.651L252.119 130.651C252.97 130.651 253.65 131.342 253.65 132.182L253.65 142.58C253.65 143.43 254.341 144.11 255.181 144.11L266.163 144.11C267.014 144.11 267.694 143.43 267.694 142.58L267.694 132.182C267.694 131.332 268.385 130.651 269.225 130.651L278.485 130.651C279.335 130.651 280.016 129.96 280.016 129.12L280.016 118.138C280.016 117.288 279.325 116.607 278.485 116.607L267.694 116.607L253.65 116.607L242.87 116.607C242.02 116.607 241.339 117.288 241.339 118.138L241.339 129.11C241.329 129.96 242.02 130.651 242.87 130.651Z" fill="#F7A334"/>
<path d="M266.291 19.4178L266.291 28.6776C266.291 29.3707 265.719 29.9427 265.026 29.9427L254.054 29.9427C253.36 29.9427 252.789 29.3801 252.789 28.6776L252.789 17.8869L252.789 3.84308L252.789 -6.94762C252.789 -7.6419 253.352 -8.21273 254.054 -8.21273L265.026 -8.21273C265.72 -8.21273 266.291 -7.65013 266.291 -6.94762L266.291 2.31218C266.291 3.29763 267.089 4.10886 268.087 4.10886L278.485 4.10886C279.179 4.10886 279.75 4.67146 279.75 5.37397L279.75 16.356C279.75 17.0503 279.187 17.6211 278.485 17.6211L268.087 17.6212C267.102 17.6212 266.291 18.4193 266.291 19.4178Z" stroke="white" stroke-opacity="0.5" stroke-width="0.531561"/>
<path d="M241.605 49.0193L241.605 49.016L241.605 38.0446C241.605 37.3409 242.166 36.7795 242.87 36.7795L253.65 36.7795L267.694 36.7795L278.485 36.7795C279.179 36.7795 279.75 37.3421 279.75 38.0446L279.75 49.0266C279.75 49.7209 279.187 50.2917 278.485 50.2917L269.225 50.2917C268.239 50.2917 267.428 51.0899 267.428 52.0884L267.428 62.4858C267.428 63.18 266.866 63.7509 266.163 63.7509L255.181 63.7509C254.487 63.7509 253.916 63.1883 253.916 62.4858L253.916 52.0884C253.916 51.103 253.118 50.2917 252.119 50.2917L242.87 50.2917C242.166 50.2917 241.596 49.7198 241.605 49.0193Z" stroke="white" stroke-opacity="0.5" stroke-width="0.531561"/>
</g>
<g filter="url(#filter0_b_1837:37118)">
<rect x="0.594727" width="358.272" height="640" fill="black" fill-opacity="0.2"/>
</g>
</g>
<defs>
<filter id="filter0_b_1837:37118" x="-0.468396" y="-1.06312" width="360.399" height="642.126" filterUnits="userSpaceOnUse" color-interpolation-filters="sRGB">
<feFlood flood-opacity="0" result="BackgroundImageFix"/>
<feGaussianBlur in="BackgroundImage" stdDeviation="0.531561"/>
<feComposite in2="SourceAlpha" operator="in" result="effect1_backgroundBlur_1837:37118"/>
<feBlend mode="normal" in="SourceGraphic" in2="effect1_backgroundBlur_1837:37118" result="shape"/>
</filter>
<clipPath id="clip0_1837:37118">
<rect width="358.272" height="640" fill="white" transform="translate(0.594727)"/>
</clipPath>
</defs>
</svg>
