<svg width="40" height="41" viewBox="0 0 40 41" fill="none" xmlns="http://www.w3.org/2000/svg">
<rect y="0.625" width="39.75" height="39.7501" rx="19.875" fill="#4BD6F7"/>
<path d="M10.375 29.9946C10.7354 29.578 11.0585 29.2032 11.3828 28.83C13.4644 26.432 15.5457 24.0336 17.6308 21.6393C17.7381 21.5158 17.7502 21.4436 17.6503 21.3018C15.2871 17.9432 12.9298 14.5796 10.5717 11.2168C10.5332 11.1621 10.4971 11.1057 10.4598 11.0509C10.5045 10.9755 10.569 11.0062 10.6211 11.0062C12.3836 11.0045 14.146 11.0058 15.9088 11.002C16.0367 11.002 16.1184 11.0402 16.1977 11.1542C17.7187 13.3304 19.2463 15.5016 20.7669 17.6783C20.8727 17.8296 20.9224 17.8503 21.0538 17.6982C22.9368 15.5182 24.8272 13.3457 26.7129 11.1683C26.8128 11.053 26.9115 10.9975 27.0628 11.0016C27.4706 11.0128 27.8793 11.0049 28.2875 11.0062C28.3493 11.0062 28.4108 11.0132 28.5119 11.0194C28.2965 11.2703 28.1071 11.4925 27.9154 11.7131C25.882 14.0551 23.8493 16.3976 21.8112 18.7351C21.6814 18.8839 21.6724 18.9739 21.7906 19.1414C24.2902 22.6932 26.7836 26.25 29.2774 29.806C29.3116 29.8545 29.342 29.9063 29.375 29.9573C29.3132 30.0208 29.2451 29.993 29.1849 29.993C27.4353 29.9946 25.6857 29.993 23.936 29.9975C23.8 29.9975 23.714 29.9582 23.6301 29.8383C21.985 27.4847 20.3353 25.1348 18.6864 22.7844C18.6324 22.7073 18.5772 22.6314 18.5134 22.5427C18.1487 22.9619 17.7918 23.3702 17.436 23.7803C15.6934 25.7882 13.95 27.7948 12.2113 29.8064C12.0916 29.9449 11.973 30.0054 11.7945 29.9996C11.3423 29.9855 10.8894 29.9951 10.3754 29.9951L10.375 29.9946ZM12.9158 12.3084C12.9197 12.4108 12.9769 12.4535 13.0138 12.5066C13.7961 13.6243 14.5795 14.7413 15.3629 15.8582C18.3295 20.0879 21.2965 24.3176 24.2607 28.549C24.3307 28.6489 24.4034 28.6849 24.5185 28.6841C25.27 28.6787 26.0212 28.682 26.7727 28.6804C26.8194 28.6804 26.8762 28.7073 26.9209 28.6385C26.578 28.1489 26.2339 27.6567 25.889 27.1654C23.6627 23.9921 21.4357 20.8192 19.2098 17.6459C17.9959 15.9154 16.7836 14.1836 15.5706 12.4523C15.5165 12.3752 15.4691 12.3047 15.3567 12.3055C14.5472 12.3109 13.7378 12.3084 12.9158 12.3084Z" fill="black"/>
</svg>
